<svg xmlns="http://www.w3.org/2000/svg" width="70.001" height="64.465" viewBox="0 0 70.001 64.465">
  <g id="partner_relationship" transform="translate(-8 -9)">
    <g id="partner_relationship_1_" transform="translate(9 10)">
      <path id="user-hr-groups-08_1_" d="M37.135,22l4.533,4.533-4.533,4.533M23.533,22,19,26.533l4.533,4.533M19,26.533H41.669" transform="translate(3.666 5.199)" fill="none" stroke="#8e8e8e" stroke-miterlimit="10" stroke-width="2"/>
      <path id="Контур_318" data-name="Контур 318" d="M67.935,10A5.667,5.667,0,1,0,73.6,15.667,5.666,5.666,0,0,0,67.935,10ZM63.4,73.465v-20.4a6.4,6.4,0,0,1-4.533-6.324l0-11.809a9.066,9.066,0,0,1,18.133,0l0,11.784a6.433,6.433,0,0,1-4.533,6.349v20.4M18.069,10a5.667,5.667,0,1,0,5.667,5.667A5.666,5.666,0,0,0,18.069,10ZM13.536,73.465v-20.4A6.4,6.4,0,0,1,9,46.742L9,34.933a9.066,9.066,0,1,1,18.133,0l0,11.784A6.433,6.433,0,0,1,22.6,53.066v20.4" transform="translate(-9 -10)" fill="none" stroke="#8e8e8e" stroke-linejoin="round" stroke-miterlimit="10" stroke-width="2"/>
    </g>
  </g>
</svg>
