<svg xmlns="http://www.w3.org/2000/svg" width="63.733" height="63.733" viewBox="0 0 63.733 63.733">
  <g id="language_translation" transform="translate(-7.733 -8)">
    <g id="language_translation_1_" transform="translate(9 9)">
      <rect id="Прямоугольник_754" data-name="Прямоугольник 754" width="24" height="24" transform="translate(-0.267 37.733)" fill="none" stroke="#8e8e8e" stroke-linejoin="round" stroke-miterlimit="10" stroke-width="2"/>
      <path id="Контур_316" data-name="Контур 316" d="M30.613,24.293,35.5,12l4.887,12.293m-8.259-4.1h6.7" transform="translate(13.669 -5.853)" fill="none" stroke="#8e8e8e" stroke-linejoin="bevel" stroke-miterlimit="10" stroke-width="2"/>
      <path id="Контур_317" data-name="Контур 317" d="M67.321,21.293A12.293,12.293,0,1,1,55.028,9,12.292,12.292,0,0,1,67.321,21.293Zm-29.708,0H22.246a4.1,4.1,0,0,0-4.1,4.1V41.782M31.815,15.5,37.609,21.3l-5.794,5.8m23.214,10.6V54.079a4.093,4.093,0,0,1-4.1,4.094H35.56m5.8,5.8-5.794-5.794,5.794-5.794M12,54.075H24.3M18.149,51v3.073m2.764,0S21.646,64.323,12,64.323m12.293,0A9.661,9.661,0,0,1,14.9,57.15" transform="translate(-5.856 -9)" fill="none" stroke="#8e8e8e" stroke-miterlimit="10" stroke-width="2"/>
    </g>
  </g>
</svg>
