<svg xmlns="http://www.w3.org/2000/svg" width="66.756" height="66.756" viewBox="0 0 66.756 66.756">
  <g id="europe-africa" transform="translate(-8 -8)">
    <path id="europe-africa_2_" d="M73.756,41.378A32.378,32.378,0,1,1,41.378,9,32.379,32.379,0,0,1,73.756,41.378ZM31.1,10.664l.563,2.653-9.713,7.555,1.263,5.4h3.434a2.522,2.522,0,0,0,2.307-.92h0a2.767,2.767,0,0,1,2.307-1.239H45.272L51.091,34.9l-2.042,4.317h-8.5l-3.49-6.476H24.11l-4.375,14.3L24.11,56.49l12.949,2.156V70.52l6.551,3.236m30.144-32.8c-.417.164-6.8,1.74-9.569,2.448l-6.618-8.5-3.749,5.4,5.256,7.555h6.05V63.4" transform="translate(0 0)" fill="none" stroke="#8e8e8e" stroke-linejoin="round" stroke-miterlimit="10" stroke-width="2"/>
  </g>
</svg>
