<svg xmlns="http://www.w3.org/2000/svg" width="62" height="70.645" viewBox="0 0 62 70.645">
  <g id="renew_team" transform="translate(-10 -8.293)">
    <g id="renew_team_1_" transform="translate(11 9)">
      <path id="Контур_319" data-name="Контур 319" d="M31.769,59.462V50.81a9.238,9.238,0,0,1,7.1-8.979,5.262,5.262,0,1,1,4.269,0,9.23,9.23,0,0,1,7.092,8.979v8.652m6.925-6.923V43.892a9.234,9.234,0,0,0-7.094-8.979A5.256,5.256,0,1,0,43.1,32.2m-4.2,0a5.263,5.263,0,1,0-6.962,2.709,9.232,9.232,0,0,0-7.094,8.979v8.647M41,11a30,30,0,0,0-6.923,59.19M41,71a30,30,0,0,0,6.923-59.2" transform="translate(-11 -6.385)" fill="none" stroke="#8e8e8e" stroke-linejoin="round" stroke-miterlimit="10" stroke-width="2"/>
      <path id="Контур_320" data-name="Контур 320" d="M22,9l4.615,4.615L22,18.231m9.224,50.778-4.608,4.606,4.615,4.615" transform="translate(3.385 -9)" fill="none" stroke="#8e8e8e" stroke-miterlimit="10" stroke-width="2"/>
    </g>
  </g>
</svg>
