<svg xmlns="http://www.w3.org/2000/svg" width="272" height="107.013" viewBox="0 0 272 107.013">
  <path id="logo" d="M289.258,106.225a6.752,6.752,0,1,0,6.752,6.752A6.763,6.763,0,0,0,289.258,106.225Zm0,12.613a5.862,5.862,0,1,1,5.861-5.861A5.857,5.857,0,0,1,289.258,118.838Zm3.045-7.444c0-1.805-1.6-2.152-3.19-2.152h-2.5v7.42H287.8v-2.943h1.308c1.363,0,1.855.42,1.855,2a3.424,3.424,0,0,0,.1.94H292.3a3.656,3.656,0,0,1-.139-1.237,1.985,1.985,0,0,0-1.685-2.226C291.336,113.076,292.3,112.656,292.3,111.394Zm-3.2,1.435H287.8v-2.7h1.308c1.166,0,1.883.4,1.883,1.261C290.989,112.358,290.325,112.829,289.106,112.829ZM260.943,132.07l19.39,30.1H260.272l-9.3-16.422L239.2,162.169H218.945L241.281,132l-17.115-25.573h20.45l6.6,11.822,7.645-11.822h20.528Zm-42.765,45.26a10.485,10.485,0,1,1-10.483-10.462A10.488,10.488,0,0,1,218.178,177.33ZM189,124.18c0-5.194-1.561-9.373-4.653-12.465-3.459-3.462-8.727-5.293-15.232-5.293H147.2v55.746h16.719V145.524l10.635,16.645h21.072l-17.043-22.209C184.963,137.783,189,131.847,189,124.18Zm-25.078,7.42V118.467c2.841.025,6.65.3,8.628,2.275a5.792,5.792,0,0,1,1.484,4.279C174.031,129.622,171.067,131.526,163.919,131.6Zm-63.314-25.177h42.066V120.99H129.959v41.179H113.314V120.99H100.605Zm-21.22,0H96.1v55.746H79.385V106.423ZM98.228,91.262A10.485,10.485,0,1,1,87.745,80.8,10.512,10.512,0,0,1,98.228,91.262ZM41.05,134.321c0,7.024,5.141,12.715,12.168,12.715a14.579,14.579,0,0,0,12.267-6.752l8.8,14.246a29.232,29.232,0,1,1,0-40.415l-8.8,14.221a14.579,14.579,0,0,0-12.267-6.752C46.192,121.584,41.05,127.3,41.05,134.321Zm158.284-27.9H216.05v55.746H199.334V106.421Z" transform="translate(-24.01 -80.801)"/>
</svg>
