<svg xmlns="http://www.w3.org/2000/svg" width="205.348" height="138.772" viewBox="0 0 205.348 138.772">
  <g id="Adidas_logo" transform="translate(-29.309 -36.655)">
    <path id="Контур_374" data-name="Контур 374" d="M339.92,221.275c-5.68-1.369-13.1-1.172-13.1-4.719.437-2.554,2.615-3.14,6.117-3.14,5.246,0,5.68,2.96,5.68,4.719h8.731c-.421-6.883-6.1-11.406-14.848-11.406-9.168,0-14.428,4.915-14.428,11.212a9.4,9.4,0,0,0,4.809,8.461,35.879,35.879,0,0,0,9.183,2.344c3.486.6,6.987.8,7.424,3.547,0,1.774-2.179,4.133-6.117,4.133-5.681-.2-6.987-3.336-6.987-5.7H317.2c.436,7.079,6.132,11.991,15.735,11.991,8.746,0,15.734-3.335,15.734-11.991C348.667,225.992,345.165,222.656,339.92,221.275Z" transform="translate(-114.01 -67.353)"/>
    <path id="Контур_375" data-name="Контур 375" d="M112.529,168.915,96.358,141.173,66.211,158.681l5.681,10.234Z" transform="translate(-14.614 -41.391)"/>
    <rect id="Прямоугольник_879" data-name="Прямоугольник 879" width="8.694" height="35.017" transform="translate(110.617 139.306)"/>
    <path id="Контур_376" data-name="Контур 376" d="M57.7,209.966a17.7,17.7,0,0,0-10.49-3.141,18,18,0,0,0,0,35.993c3.937,0,7.875-.992,10.49-2.959v2.163h8.746V207.216H57.7ZM47.644,234.747A10.263,10.263,0,0,1,37.6,224.723,10.4,10.4,0,0,1,47.644,214.7,10.094,10.094,0,0,1,57.7,224.723,9.97,9.97,0,0,1,47.644,234.747Z" transform="translate(0 -67.391)"/>
    <path id="Контур_377" data-name="Контур 377" d="M265.272,127.516,212.838,36.655l-30.147,17.7,41.944,73.159Z" transform="translate(-60.743)"/>
    <path id="Контур_378" data-name="Контур 378" d="M124.274,202.359a18.056,18.056,0,1,0-10.491,32.852,19.021,19.021,0,0,0,10.491-2.96v2.163h8.731v-46.8h-8.731Zm-10.054,24.781a9.98,9.98,0,0,1-10.054-10.024,10.106,10.106,0,0,1,10.054-10.025,10.416,10.416,0,0,1,10.054,10.025A10.277,10.277,0,0,1,114.219,227.141Z" transform="translate(-26.36 -59.785)"/>
    <path id="Контур_379" data-name="Контур 379" d="M155.4,89.75l-30.582,17.3L148.41,148.54V157.2h8.732V148.54h31.905Z" transform="translate(-37.823 -21.027)"/>
    <path id="Контур_380" data-name="Контур 380" d="M357.053,196.2a4.328,4.328,0,1,0,0-8.656,4.328,4.328,0,1,0,0,8.656Zm0-8.055a3.741,3.741,0,1,1-3.5,3.727A3.506,3.506,0,0,1,357.053,188.142Z" transform="translate(-128.062 -59.754)"/>
    <path id="Контур_381" data-name="Контур 381" d="M358.091,193.575h.871l.872,1.969h.872l-.872-1.969a1.4,1.4,0,0,0,.872-1.369,1.562,1.562,0,0,0-1.308-1.383h-1.97v4.719h.662v-1.968Zm0-2.15h.871c.872,0,.872.376.872.782,0,.586,0,.782-.872.782h-.871Z" transform="translate(-129.942 -61.054)"/>
    <path id="Контур_382" data-name="Контур 382" d="M279.026,209.966a18.052,18.052,0,1,0-10.49,32.852,18.95,18.95,0,0,0,10.49-2.959v2.163h8.31V207.216h-8.31v2.75Zm-10.039,24.781a9.98,9.98,0,0,1-10.054-10.024A10.105,10.105,0,0,1,268.986,214.7a10.392,10.392,0,0,1,10.039,10.025A10.253,10.253,0,0,1,268.986,234.747Z" transform="translate(-87.651 -67.391)"/>
    <path id="Контур_383" data-name="Контур 383" d="M212.53,202.359a15.6,15.6,0,0,0-10.054-3.141,18,18,0,1,0,0,35.993,16.644,16.644,0,0,0,10.054-2.96v2.163h8.732v-46.8H212.53Zm-10.053,24.781a10.265,10.265,0,0,1-10.054-10.024,10.406,10.406,0,0,1,10.054-10.025,10.1,10.1,0,0,1,10.054,10.025A9.98,9.98,0,0,1,202.477,227.141Z" transform="translate(-61.311 -59.785)"/>
  </g>
</svg>
