<svg xmlns="http://www.w3.org/2000/svg" width="313.813" height="64.471" viewBox="0 0 313.813 64.471">
  <path id="logo" d="M327.709,163.965h3.44v.529h-1.411v3.969h-.617v-3.969h-1.411v-.529Zm7.408,0-.088.265-1.147,3.616-1.323-3.792h-.794v4.41h.617v-3.616l1.235,3.616h.617l1.235-3.616v3.616H336v-4.41h-.882ZM102.368,175.607c.088.088.088.265.176.353h-.706c-.176-.353,0-.794-.176-1.147,0-.176-.176-.265-.353-.265h-1.147v1.411h-.617v-3.44h1.676a1.023,1.023,0,0,1,.882.353.961.961,0,0,1,.176.97.586.586,0,0,1-.353.441c.088.088.265.176.265.353C102.368,174.9,102.28,175.254,102.368,175.607Zm-.706-2.381c-.088-.176-.265-.176-.441-.176h-1.058v.97h.97c.176,0,.353,0,.441-.176A.378.378,0,0,0,101.663,173.226ZM72.117,126.482a14.5,14.5,0,0,1,.176,3.351v18.7a14.347,14.347,0,0,0,6,1.5,8.112,8.112,0,0,0,4.057-.97,9.742,9.742,0,0,0,3.087-2.91,12.117,12.117,0,0,0,1.676-4.5,23.5,23.5,0,0,0,.265-5.556,20.575,20.575,0,0,0-1.764-8.29,14.741,14.741,0,0,0-2.734-3.881,20.994,20.994,0,0,0-3.528-2.734,41.882,41.882,0,0,0-9.172-3.792l-6.086-1.852c-3.528-.97-7.144-1.94-10.76-2.646v59.532c4.5,1.411,9.084,2.822,13.582,4.233v-50.1a4.328,4.328,0,0,1,.794-2.734,1.751,1.751,0,0,1,1.588-.617,2.736,2.736,0,0,1,1.588.794A5.436,5.436,0,0,1,72.117,126.482ZM36.662,161.849c4.674-1.676,9.349-3.351,14.023-4.939V149.06c-5.909,2.029-11.818,4.145-17.727,6.262-1.411.529-2.91.97-4.322,1.588a21.47,21.47,0,0,0-4.674,2.469,3.918,3.918,0,0,0-1.5,1.676,2.945,2.945,0,0,0-.088,2.293,4.994,4.994,0,0,0,1.676,2.117,13.392,13.392,0,0,0,4.41,2.029,44.411,44.411,0,0,0,14.817,2.2,42.285,42.285,0,0,0,7.408-.794v-6.967c-2.029.706-3.969,1.411-6,2.117a18.772,18.772,0,0,1-2.381.706,16.231,16.231,0,0,1-3.616.353,10.525,10.525,0,0,1-3.263-.529c-.353-.176-.794-.353-.882-.794a.982.982,0,0,1,.265-.882A3.627,3.627,0,0,1,36.662,161.849Zm66.764,10.583a3.175,3.175,0,0,1,.353,3.175,3.244,3.244,0,0,1-2.822,1.764,3.191,3.191,0,0,1-2.646-1.5,3.286,3.286,0,0,1-.176-2.734,3.153,3.153,0,0,1,2.469-1.852A2.986,2.986,0,0,1,103.427,172.432Zm0,1.147a2.627,2.627,0,0,0-1.323-1.588,3.1,3.1,0,0,0-1.764-.265,2.971,2.971,0,0,0-1.5.97,2.425,2.425,0,0,0-.441,2.029,2.59,2.59,0,0,0,1.147,1.588,2.675,2.675,0,0,0,2.91-.088A2.338,2.338,0,0,0,103.427,173.579Zm126.914-45.774c-6.174.794-9.172,5.027-9.172,10.5v18.433c0,3.792-1.852,6.438-5.556,6.438H191.093a.234.234,0,0,0-.265.265v3.7c0,.176.088.265.176.265h27.87c7.232-.176,10.848-4.763,10.848-10.672V138.3c0-3.792,1.764-6.438,5.556-6.438h23.284a.282.282,0,0,0,.265-.265v-3.792H230.341Zm-46.744,0H134.119V131.6a.234.234,0,0,0,.265.265h44.274c3.792,0,5.556,2.646,5.556,6.438s-1.764,6.438-5.556,6.438H143.644c-5.468,0-9.525,4.586-9.525,10.583v11.73c0,.176.088.265.176.265h8.2c.088,0,.176-.176.176-.265v-11.73c0-3.792,2.117-6.35,5.292-6.35h33.6c7.585,0,11.289-4.674,11.289-10.672C192.769,132.832,189.682,128.6,183.6,127.805Zm-83.521,27.341c-.794-.265-1.676-.617-2.469-.794A43.838,43.838,0,0,0,84.465,152.5c-1.323.088-2.734.088-4.057.265a53.519,53.519,0,0,0-11.024,2.381v8.114c4.939-1.676,9.79-3.44,14.729-5.115a16.341,16.341,0,0,1,5.115-.794,8.448,8.448,0,0,1,3.263.529c.353.176.794.353.882.706.176.441-.176.794-.441,1.058a9.619,9.619,0,0,1-2.734,1.235c-6.879,2.469-13.759,4.851-20.638,7.32-.176,0-.088.176-.088.265v7.5c9.084-3.263,18.08-6.438,27.164-9.7a37.848,37.848,0,0,0,4.41-1.676,11.705,11.705,0,0,0,3.616-2.558,3.3,3.3,0,0,0,.882-2.2,3.466,3.466,0,0,0-1.323-2.469A12.534,12.534,0,0,0,100.075,155.146Zm213.61-10.672h-37.4a2.457,2.457,0,0,1-2.293-2.2V132.215h49.919v-4.5H266.06v16.757a4.91,4.91,0,0,0,4.5,4.5h40.835c2.293,0,5.38,3.263,5.645,6.7.265,3.7-3.44,7.849-5.645,7.849H266.06v4.5h47.626c5.645,0,11.377-4.5,11.377-12.259C325.063,147.826,318.184,144.474,313.686,144.474Z" transform="translate(-22.186 -112.9)"/>
</svg>
