<svg id="nafta-films-seeklogo.com" xmlns="http://www.w3.org/2000/svg" width="291.781" height="75.014" viewBox="0 0 291.781 75.014">
  <path id="Контур_369" data-name="Контур 369" d="M79.43,14.67h7.737l25.077,27.072V14.67h7.021V52.177h-6.7L86.438,24.107V52.177H79.43Z" transform="translate(22.144 4.09)" fill="#231f20"/>
  <path id="Контур_370" data-name="Контур 370" d="M126.911,37.266,134.75,20.54l7.839,16.727Zm12.021-22.6h-8.363L112.09,52.177h7.788l3.99-8.619h21.612l3.926,8.619h7.737Z" transform="translate(31.249 4.09)" fill="#231f20"/>
  <path id="Контур_371" data-name="Контур 371" d="M148.83,14.67h68.338v6.292H200.4V52.177h-7.327V20.962H156.157V29.67h21.471v6.3H156.157v16.2H148.83Z" transform="translate(41.492 4.09)" fill="#231f20"/>
  <path id="Контур_372" data-name="Контур 372" d="M215.6,20.54l7.852,16.727H207.758Zm-4.169-5.87L192.95,52.177h7.737l3.977-8.619h21.624l3.964,8.619h7.737L219.779,14.67Z" transform="translate(53.792 4.09)" fill="#231f20"/>
  <path id="Контур_373" data-name="Контур 373" d="M64.029,10.985,37.507,0,10.985,10.985,0,37.507,10.985,64.029,37.507,75.014,64.029,64.029,75.014,37.507ZM54.2,55.333l-.78.985H43.185L28.479,24.22H26.33V48.594l-.78.972H21.6l-.767-.972v-28.9l.78-.985h10.23l14.706,32.1H48.7V26.369l.78-.985h3.951l.78.985Z" fill="#231f20"/>
</svg>
