<svg xmlns="http://www.w3.org/2000/svg" width="92.469" height="105.363" viewBox="0 0 92.469 105.363">
  <g id="expand_user" transform="translate(-9.785 -7.586)">
    <g id="expand_user_1_" transform="translate(11.01 9)">
      <path id="XMLID_504_" d="M37.825,80.9V56.65c3.843-1.386,6.93-4.394,6.93-8.316V34.418A12.131,12.131,0,1,0,20.5,34.45V48.365c0,3.922,3.087,6.9,6.93,8.285V80.9" transform="translate(12.382 23.044)" fill="none" stroke="#8e8e8e" stroke-linejoin="round" stroke-miterlimit="10" stroke-width="2"/>
      <path id="Контур_291" data-name="Контур 291" d="M56.02,26.325V9m7.349,7.349L56.02,9l-7.349,7.349M26.013,43.65l-15-8.662M21.048,32.3,11.01,34.987,13.7,45.029M26.013,78.3l-15,8.662M13.7,76.92,11.01,86.962,21.051,89.65M86.026,78.3l15,8.662M90.992,89.65l10.038-2.689L98.341,76.92M86.026,43.65l15-8.662M98.341,45.029l2.689-10.041L90.988,32.3m-34.968.956a6.93,6.93,0,1,0,6.93,6.93A6.928,6.928,0,0,0,56.02,33.255Z" transform="translate(-11.01 -9)" fill="none" stroke="#8e8e8e" stroke-miterlimit="10" stroke-width="2"/>
    </g>
  </g>
</svg>
