<svg xmlns="http://www.w3.org/2000/svg" width="94" height="94" viewBox="0 0 94 94">
  <g id="Сгруппировать_685" data-name="Сгруппировать 685" transform="translate(-1181 -1863)">
    <g id="Эллипс_317" data-name="Эллипс 317" transform="translate(1181 1863)" fill="#fff" stroke="#d2d2d2" stroke-width="1">
      <circle cx="47" cy="47" r="47" stroke="none"/>
      <circle cx="47" cy="47" r="46.5" fill="none"/>
    </g>
    <g id="react" transform="translate(1206.6 1883.9)">
      <circle id="Эллипс_148" data-name="Эллипс 148" cx="3.662" cy="3.662" r="3.662" transform="translate(17.848 22.395)" fill="#6b6bdb"/>
      <path id="Контур_95" data-name="Контур 95" d="M35.42,20.018c-.707-.257-1.446-.514-2.217-.739.193-.771.353-1.542.482-2.281.675-4.24-.064-7.228-2.12-8.385A3.991,3.991,0,0,0,29.509,8.1c-2.249,0-5.108,1.67-8,4.465-2.891-2.795-5.75-4.465-8-4.465a3.991,3.991,0,0,0-2.056.514C9.4,9.8,8.66,12.79,9.335,17c.128.739.289,1.51.482,2.281a22.4,22.4,0,0,0-2.217.739C3.584,21.56,1.4,23.68,1.4,26.058s2.217,4.5,6.2,6.039c.707.257,1.446.514,2.217.739-.193.771-.353,1.542-.482,2.281-.675,4.24.064,7.228,2.12,8.385a3.991,3.991,0,0,0,2.056.514c2.281,0,5.14-1.67,8-4.465,2.891,2.795,5.75,4.465,8,4.465a3.991,3.991,0,0,0,2.056-.514c2.056-1.189,2.795-4.176,2.12-8.385-.128-.739-.289-1.51-.482-2.281A22.4,22.4,0,0,0,35.42,32.1c4.016-1.542,6.2-3.662,6.2-6.039S39.436,21.56,35.42,20.018Zm-4.754-9.8c1.317.771,1.767,3.148,1.221,6.521a19.344,19.344,0,0,1-.45,2.12,38.166,38.166,0,0,0-5.3-.8A46.351,46.351,0,0,0,22.8,13.882c2.377-2.345,4.787-3.951,6.746-3.951A2.17,2.17,0,0,1,30.666,10.22Zm-3.6,19.05c-.578,1.028-1.253,2.056-1.96,3.084-1.189.1-2.377.129-3.6.129-1.253,0-2.441-.032-3.6-.129q-1.06-1.542-1.927-3.084c-.61-1.06-1.189-2.152-1.7-3.212.514-1.06,1.092-2.152,1.7-3.212.578-1.028,1.253-2.056,1.96-3.084,1.189-.1,2.377-.128,3.6-.128,1.253,0,2.441.032,3.6.128q1.06,1.542,1.927,3.084c.61,1.06,1.189,2.152,1.7,3.212C28.224,27.118,27.678,28.178,27.068,29.27Zm2.666-1.06c.482,1.124.867,2.217,1.221,3.309-1.092.257-2.249.45-3.469.61.385-.61.8-1.253,1.156-1.927.385-.675.739-1.349,1.092-1.992ZM21.51,36.916c-.771-.835-1.51-1.735-2.217-2.666.739.032,1.478.064,2.217.064s1.478-.032,2.217-.064C23.02,35.181,22.281,36.081,21.51,36.916ZM15.535,32.1c-1.221-.161-2.377-.353-3.469-.61.353-1.06.739-2.184,1.221-3.309.353.642.707,1.317,1.092,1.96.385.707.771,1.317,1.156,1.96Zm-2.249-8.192c-.482-1.124-.867-2.217-1.221-3.309,1.092-.257,2.249-.45,3.469-.61-.385.61-.8,1.253-1.156,1.927C13.993,22.588,13.639,23.263,13.286,23.905ZM21.51,15.2c.771.835,1.51,1.735,2.217,2.666-.739-.032-1.478-.064-2.217-.064s-1.478.032-2.217.064C20,16.934,20.739,16.035,21.51,15.2Zm7.132,6.746-1.156-1.927c1.221.161,2.377.353,3.469.61-.353,1.06-.739,2.184-1.221,3.309C29.381,23.263,29.027,22.588,28.642,21.946Zm-17.508-5.2c-.546-3.373-.1-5.75,1.221-6.521a2.17,2.17,0,0,1,1.124-.289c1.927,0,4.337,1.574,6.746,3.951a42.229,42.229,0,0,0-3.341,4.176,43.676,43.676,0,0,0-5.3.8c-.193-.739-.321-1.446-.45-2.12ZM3.2,26.058c0-1.51,1.831-3.116,5.044-4.3a19.262,19.262,0,0,1,2.056-.675,46.824,46.824,0,0,0,1.927,5.011A40.48,40.48,0,0,0,10.3,31.069c-4.433-1.285-7.1-3.212-7.1-5.011ZM12.355,41.9c-1.317-.771-1.767-3.148-1.221-6.521a19.345,19.345,0,0,1,.45-2.12,38.167,38.167,0,0,0,5.3.8,46.35,46.35,0,0,0,3.341,4.176c-2.377,2.345-4.787,3.951-6.746,3.951a2.17,2.17,0,0,1-1.124-.289Zm19.532-6.521c.546,3.373.1,5.75-1.221,6.521a2.17,2.17,0,0,1-1.124.289c-1.927,0-4.337-1.574-6.746-3.951a42.227,42.227,0,0,0,3.341-4.176,43.676,43.676,0,0,0,5.3-.8C31.629,33.992,31.758,34.7,31.886,35.374Zm2.891-5.011a19.261,19.261,0,0,1-2.056.675,46.823,46.823,0,0,0-1.927-5.011,40.48,40.48,0,0,0,1.927-4.979c4.433,1.285,7.1,3.212,7.1,5.011C39.821,27.568,37.958,29.174,34.778,30.362Z" fill="#6b6bdb"/>
    </g>
  </g>
</svg>
