<svg id="earth--americas" xmlns="http://www.w3.org/2000/svg" width="32" height="32" viewBox="0 0 32 32">
  <path id="Контур_384" data-name="Контур 384" d="M30,16a14.031,14.031,0,1,0-7.14,12.191l.117.025L23,28.105A14,14,0,0,0,30,16ZM4,16a11.937,11.937,0,0,1,.4-3H8.638l4.992,4.16-1.909,2.546a2.009,2.009,0,0,0,.186,2.614L14,24.414v3.405A12.009,12.009,0,0,1,4,16Zm9.32,4.906,3.05-4.066L9.362,11H5.106A11.962,11.962,0,0,1,22.884,6.187L22.279,8H16.586l-3.043,3.043L22.9,19.356l-1.649,7.419A11.9,11.9,0,0,1,16,28V23.586ZM23.635,25.25l1.213-5.46a2,2,0,0,0-.624-1.928l-7.768-6.906L17.414,10h4.865a2,2,0,0,0,1.9-1.368l.353-1.06a11.978,11.978,0,0,1-.895,17.678Z" fill="#6b6bdb"/>
  <rect id="_Transparent_Rectangle_" data-name="&lt;Transparent Rectangle&gt;" width="32" height="32" fill="none"/>
</svg>
