<svg xmlns="http://www.w3.org/2000/svg" width="94" height="94" viewBox="0 0 94 94">
  <g id="Сгруппировать_684" data-name="Сгруппировать 684" transform="translate(-425 -1863)">
    <g id="Эллипс_318" data-name="Эллипс 318" transform="translate(425 1863)" fill="#fff" stroke="#d2d2d2" stroke-width="1">
      <circle cx="47" cy="47" r="47" stroke="none"/>
      <circle cx="47" cy="47" r="46.5" fill="none"/>
    </g>
    <path id="python" d="M17.3,20.226h8.787a4.4,4.4,0,0,0,4.373-4.418V7.63c0-2.328-2-4.076-4.386-4.465a27.973,27.973,0,0,0-4.577-.35,25.129,25.129,0,0,0-4.16.35c-3.723.642-4.355,1.986-4.355,4.465v3.182H21.72v1.177H9.6a5.468,5.468,0,0,0-5.5,4.357,15.539,15.539,0,0,0,0,8.687c.625,2.542,2.118,4.312,4.675,4.312h3V25.508A5.5,5.5,0,0,1,17.3,20.226ZM16.745,8.721A1.637,1.637,0,1,1,18.4,7.09,1.64,1.64,0,0,1,16.745,8.721Zm22.537,7.626c-.632-2.485-1.839-4.357-4.4-4.357H31.664v3.819a5.524,5.524,0,0,1-5.578,5.3H17.3a4.491,4.491,0,0,0-4.318,4.509V33.8c0,2.327,2.033,3.7,4.358,4.364a14.952,14.952,0,0,0,8.754,0c2.215-.626,4.366-1.886,4.366-4.364V30.523H21.72V29.346H34.883c2.557,0,3.51-1.7,4.4-4.313.918-2.69.879-5.236,0-8.687ZM26.639,32.705a1.637,1.637,0,1,1-1.651,1.632A1.641,1.641,0,0,1,26.639,32.705Z" transform="translate(450.517 1889.186)" fill="#6b6bdb"/>
  </g>
</svg>
