<svg xmlns="http://www.w3.org/2000/svg" width="94.653" height="93.657" viewBox="0 0 94.653 93.657">
  <g id="app_developer" transform="translate(-8 -8)">
    <g id="app_developer_1_" transform="translate(9 9)">
      <path id="Контур_287" data-name="Контур 287" d="M11,14l2.009,2.011L11,17.971" transform="translate(-8.353 2.423)" fill="none" stroke="#8e8e8e" stroke-miterlimit="10" stroke-width="2"/>
      <path id="Контур_289" data-name="Контур 289" d="M11.824,10.662A.662.662,0,1,1,11.162,10,.662.662,0,0,1,11.824,10.662ZM13.809,10a.662.662,0,1,0,.662.662A.662.662,0,0,0,13.809,10Zm2.647,0a.662.662,0,1,0,.662.662A.662.662,0,0,0,16.456,10Zm14.56,5.294a.662.662,0,1,0,.662.662A.662.662,0,0,0,31.016,15.294Zm2.647,0a.662.662,0,1,0,.662.662A.662.662,0,0,0,33.663,15.294Zm2.647,0a.662.662,0,1,0,.662.662A.662.662,0,0,0,36.311,15.294ZM13.809,39.12a.662.662,0,1,0,.662.662A.662.662,0,0,0,13.809,39.12Z" transform="translate(-8.515 -8.676)"/>
      <path id="Контур_290" data-name="Контур 290" d="M9,49.15V9H46.061V49.15ZM46.061,18.265H9M21.357,36.8h9.29m-13.926,27.8h9.265m-9.265,6.177h9.265M66.1,73.857h35.551v-52.5H55.327V55.32m0-24.7h46.327M12.082,77H30.613m0-16.78a1.8,1.8,0,0,0-1.8-1.8H13.889a1.8,1.8,0,0,0-1.8,1.8V84.407a1.8,1.8,0,0,0,1.8,1.8H28.812a1.8,1.8,0,0,0,1.8-1.8Zm57.155-7.981a7.721,7.721,0,1,0,7.721,7.721A7.72,7.72,0,0,0,87.771,52.238ZM61.5,36.8H73.857m9.265,0H95.476M61.5,42.973H73.857M61.5,49.15H73.857m9.265-6.177H95.476m-18.531,58.68-.006-1.612a21.612,21.612,0,0,0-16.554-21,12.411,12.411,0,1,0-10.127,0,21.612,21.612,0,0,0-16.554,21l0,1.612" transform="translate(-9 -9)" fill="none" stroke="#8e8e8e" stroke-linejoin="round" stroke-miterlimit="10" stroke-width="2"/>
    </g>
  </g>
</svg>
