<svg xmlns="http://www.w3.org/2000/svg" width="94" height="94" viewBox="0 0 94 94">
  <g id="Сгруппировать_686" data-name="Сгруппировать 686" transform="translate(-1181 -2368)">
    <g id="Эллипс_315" data-name="Эллипс 315" transform="translate(1181 2368)" fill="#fff" stroke="#d2d2d2" stroke-width="1">
      <circle cx="47" cy="47" r="47" stroke="none"/>
      <circle cx="47" cy="47" r="46.5" fill="none"/>
    </g>
    <g id="Сгруппировать_438" data-name="Сгруппировать 438" transform="translate(1204.863 2394.088)">
      <path id="Контур_96" data-name="Контур 96" d="M31.617,11.1V7.8a.885.885,0,0,0-1.51-.625L24.281,13a.885.885,0,0,0,0,1.251l5.826,5.826a.885.885,0,0,0,1.51-.625V16.161a6.753,6.753,0,1,1-6.838,6.751A11.821,11.821,0,1,0,12.819,34.726v3.3a.885.885,0,0,0,1.51.625l5.826-5.826a.885.885,0,0,0,0-1.251l-5.826-5.826a.885.885,0,0,0-1.51.625V29.66a6.752,6.752,0,1,1,6.893-6.748A11.821,11.821,0,1,0,31.617,11.1Z" transform="translate(0)" fill="#6b6bdb"/>
      <path id="Контур_97" data-name="Контур 97" d="M31.617,11.1V7.8a.885.885,0,0,0-1.51-.625L24.281,13a.885.885,0,0,0,0,1.251l5.826,5.826a.885.885,0,0,0,1.51-.625V16.161a6.753,6.753,0,1,1-6.838,6.751A11.821,11.821,0,1,0,12.819,34.726v3.3a.885.885,0,0,0,1.51.625l5.826-5.826a.885.885,0,0,0,0-1.251l-5.826-5.826a.885.885,0,0,0-1.51.625V29.66a6.752,6.752,0,1,1,6.893-6.748A11.821,11.821,0,1,0,31.617,11.1Z" transform="translate(0)" fill="#6b6bdb"/>
    </g>
  </g>
</svg>
