<svg xmlns="http://www.w3.org/2000/svg" width="25" height="28" viewBox="0 0 25 28">
  <g id="Сгруппировать_693" data-name="Сгруппировать 693" transform="translate(-4 -2)">
    <path id="Контур_297" data-name="Контур 297" d="M28,6a2,2,0,0,0-2-2H22V2H20V4H12V2H10V4H6A2,2,0,0,0,4,6V26a2,2,0,0,0,2,2h4V26H6V6h4V8h2V6h8V8h2V6h4v6h2Z" fill="#6b6bdb"/>
    <path id="Контур_298" data-name="Контур 298" d="M21,15l2.549,4.938L29,20.729l-4,3.844L26,30l-5-2.562L16,30l1-5.427-4-3.844,5.6-.791Z" fill="#6b6bdb"/>
  </g>
</svg>
