<svg xmlns="http://www.w3.org/2000/svg" width="27" height="28" viewBox="0 0 27 28">
  <g id="Сгруппировать_692" data-name="Сгруппировать 692" transform="translate(-2 -2)">
    <path id="Контур_307" data-name="Контур 307" d="M13,30A11,11,0,0,1,13,8a1,1,0,0,1,1,1v9h9a1,1,0,0,1,1,1A11,11,0,0,1,13,30ZM12,10.06A9,9,0,1,0,21.94,20H14a2,2,0,0,1-2-2Z" fill="#6b6bdb"/>
    <path id="Контур_308" data-name="Контур 308" d="M28,14H19a2,2,0,0,1-2-2V3a1,1,0,0,1,1-1A11,11,0,0,1,29,13a1,1,0,0,1-1,1Zm-9-2h7.94A9,9,0,0,0,19,4.06Z" fill="#6b6bdb"/>
  </g>
</svg>
