<svg xmlns="http://www.w3.org/2000/svg" width="94" height="65.4" viewBox="0 0 94 65.4">
  <g id="high_five" transform="translate(-8.5 -12)">
    <path id="high_five_1_" d="M9.5,77.4V50.968a18.4,18.4,0,0,1,14.143-17.9,10.488,10.488,0,1,1,8.513,0c11.35-3.889,15.162-8.357,19.032-12.454s6.158-2.6,7.375-1.481c1.355,1.245,3.067,3.873-.96,8.05S43.23,41.854,43.23,41.854V77.4m24.536,0V41.854s-7.329-7.431-12.052-12.276M101.5,77.4V50.968a18.4,18.4,0,0,0-14.143-17.9,10.488,10.488,0,1,0-8.513,0C67.494,29.18,63.145,24,59.275,19.909" transform="translate(0 0)" fill="none" stroke="#8e8e8e" stroke-linejoin="round" stroke-miterlimit="10" stroke-width="2"/>
  </g>
</svg>
