<svg xmlns="http://www.w3.org/2000/svg" width="51" height="51" viewBox="0 0 51 51">
  <g id="Icon_Devops" data-name="Icon / Devops" transform="translate(-0.465 -0.403)">
    <rect id="Прямоугольник_914" data-name="Прямоугольник 914" width="51" height="51" transform="translate(0.465 0.403)" fill="none"/>
    <g id="Сгруппировать_434" data-name="Сгруппировать 434" transform="translate(4.08 9.179)">
      <path id="Контур_96" data-name="Контур 96" d="M32.223,11.179V7.816a.9.9,0,0,0-1.54-.638L24.741,13.12a.9.9,0,0,0,0,1.276l5.942,5.942a.9.9,0,0,0,1.54-.638V16.345a6.888,6.888,0,1,1-6.974,6.885,12.056,12.056,0,1,0-12.2,12.049v3.366a.9.9,0,0,0,1.54.638l5.942-5.942a.9.9,0,0,0,0-1.276l-5.942-5.942a.9.9,0,0,0-1.54.638v3.351a6.887,6.887,0,1,1,7.03-6.882A12.056,12.056,0,1,0,32.223,11.179Z" transform="translate(-1.136 -6.912)" fill="#6b6bdb"/>
      <path id="Контур_97" data-name="Контур 97" d="M32.223,11.179V7.816a.9.9,0,0,0-1.54-.638L24.741,13.12a.9.9,0,0,0,0,1.276l5.942,5.942a.9.9,0,0,0,1.54-.638V16.345a6.888,6.888,0,1,1-6.974,6.885,12.056,12.056,0,1,0-12.2,12.049v3.366a.9.9,0,0,0,1.54.638l5.942-5.942a.9.9,0,0,0,0-1.276l-5.942-5.942a.9.9,0,0,0-1.54.638v3.351a6.887,6.887,0,1,1,7.03-6.882A12.056,12.056,0,1,0,32.223,11.179Z" transform="translate(-1.136 -6.912)" fill="#6b6bdb"/>
    </g>
  </g>
</svg>
