<svg xmlns="http://www.w3.org/2000/svg" width="51" height="51" viewBox="0 0 51 51">
  <g id="Icon_React" data-name="Icon / React" transform="translate(-0.425 -0.403)">
    <rect id="Прямоугольник_912" data-name="Прямоугольник 912" width="51" height="51" transform="translate(0.425 0.403)" fill="none"/>
    <g id="react" transform="translate(5.099 7.14)">
      <circle id="Эллипс_148" data-name="Эллипс 148" cx="3.735" cy="3.735" r="3.735" transform="translate(16.775 14.58)" fill="#6b6bdb"/>
      <path id="Контур_95" data-name="Контур 95" d="M36.1,20.255c-.721-.262-1.474-.524-2.261-.754.2-.786.36-1.573.491-2.326.688-4.325-.066-7.372-2.162-8.551a4.07,4.07,0,0,0-2.1-.524c-2.293,0-5.209,1.7-8.158,4.554C18.961,9.8,16.045,8.1,13.752,8.1a4.07,4.07,0,0,0-2.1.524c-2.1,1.212-2.85,4.259-2.162,8.551.131.754.295,1.54.491,2.326a22.85,22.85,0,0,0-2.261.754C3.628,21.828,1.4,23.99,1.4,26.415S3.661,31,7.723,32.574c.721.262,1.474.524,2.261.754-.2.786-.36,1.573-.491,2.326-.688,4.325.066,7.372,2.162,8.551a4.07,4.07,0,0,0,2.1.524c2.326,0,5.242-1.7,8.158-4.554,2.949,2.85,5.865,4.554,8.158,4.554a4.07,4.07,0,0,0,2.1-.524c2.1-1.212,2.85-4.259,2.162-8.551-.131-.754-.295-1.54-.491-2.326a22.847,22.847,0,0,0,2.261-.754c4.1-1.573,6.323-3.735,6.323-6.16S40.192,21.828,36.1,20.255Zm-4.849-9.993c1.343.786,1.8,3.211,1.245,6.651a19.73,19.73,0,0,1-.459,2.162,38.925,38.925,0,0,0-5.406-.819A47.273,47.273,0,0,0,23.221,14c2.425-2.392,4.882-4.03,6.88-4.03A2.213,2.213,0,0,1,31.248,10.262Zm-3.67,19.429c-.59,1.048-1.278,2.1-2,3.145-1.212.1-2.425.131-3.67.131-1.278,0-2.49-.033-3.67-.131q-1.081-1.573-1.966-3.145c-.623-1.081-1.212-2.2-1.736-3.276.524-1.081,1.114-2.2,1.736-3.276.59-1.048,1.278-2.1,2-3.145,1.212-.1,2.425-.131,3.67-.131,1.278,0,2.49.033,3.67.131q1.081,1.573,1.966,3.145c.623,1.081,1.212,2.2,1.736,3.276C28.758,27.5,28.2,28.577,27.578,29.691ZM30.3,28.61c.491,1.147.885,2.261,1.245,3.375-1.114.262-2.293.459-3.538.623.393-.623.819-1.278,1.179-1.966.393-.688.754-1.376,1.114-2.031ZM21.91,37.489c-.786-.852-1.54-1.769-2.261-2.719.754.033,1.507.066,2.261.066s1.507-.033,2.261-.066C23.45,35.72,22.7,36.637,21.91,37.489Zm-6.094-4.915c-1.245-.164-2.425-.36-3.538-.623.36-1.081.754-2.228,1.245-3.375.36.655.721,1.343,1.114,2,.393.721.786,1.343,1.179,2ZM13.523,24.22c-.491-1.147-.885-2.261-1.245-3.375,1.114-.262,2.293-.459,3.538-.623-.393.623-.819,1.278-1.179,1.966C14.243,22.876,13.883,23.564,13.523,24.22Zm8.388-8.879c.786.852,1.54,1.769,2.261,2.719-.754-.033-1.507-.066-2.261-.066s-1.507.033-2.261.066C20.37,17.11,21.124,16.193,21.91,15.341Zm7.274,6.88L28,20.255c1.245.164,2.425.36,3.538.623-.36,1.081-.754,2.228-1.245,3.375C29.937,23.564,29.577,22.876,29.184,22.221ZM11.327,16.913c-.557-3.44-.1-5.865,1.245-6.651a2.213,2.213,0,0,1,1.147-.295c1.966,0,4.423,1.605,6.88,4.03a43.068,43.068,0,0,0-3.407,4.259,44.545,44.545,0,0,0-5.406.819c-.2-.754-.328-1.474-.459-2.162Zm-8.093,9.5c0-1.54,1.868-3.178,5.144-4.39a19.645,19.645,0,0,1,2.1-.688,47.755,47.755,0,0,0,1.966,5.111,41.285,41.285,0,0,0-1.966,5.078c-4.521-1.311-7.241-3.276-7.241-5.111Zm9.338,16.152c-1.343-.786-1.8-3.211-1.245-6.651a19.73,19.73,0,0,1,.459-2.162,38.926,38.926,0,0,0,5.406.819A47.272,47.272,0,0,0,20.6,38.832c-2.425,2.392-4.882,4.03-6.88,4.03a2.213,2.213,0,0,1-1.147-.295Zm19.92-6.651c.557,3.44.1,5.865-1.245,6.651a2.213,2.213,0,0,1-1.147.295c-1.966,0-4.423-1.605-6.88-4.03a43.067,43.067,0,0,0,3.407-4.259,44.545,44.545,0,0,0,5.406-.819C32.231,34.508,32.362,35.228,32.493,35.916Zm2.949-5.111a19.643,19.643,0,0,1-2.1.688,47.754,47.754,0,0,0-1.966-5.111A41.285,41.285,0,0,0,33.345,21.3c4.521,1.311,7.241,3.276,7.241,5.111C40.585,27.955,38.685,29.593,35.441,30.805Z" transform="translate(-1.4 -8.1)" fill="#6b6bdb"/>
    </g>
  </g>
</svg>
