<svg xmlns="http://www.w3.org/2000/svg" width="70" height="70" viewBox="0 0 70 70">
  <g id="Сгруппировать_397" data-name="Сгруппировать 397" transform="translate(-461 -7209)">
    <g id="logo--skype" transform="translate(472.495 7220.955)">
      <path id="Контур_387" data-name="Контур 387" d="M38.841,24.408a16.751,16.751,0,0,0,.216-2.708A17.37,17.37,0,0,0,21.687,4.33a16.751,16.751,0,0,0-2.708.216,10.5,10.5,0,0,0-14.4,14.4A16.75,16.75,0,0,0,4.317,21.7a17.37,17.37,0,0,0,17.37,17.37,16.75,16.75,0,0,0,2.708-.216,10.5,10.5,0,0,0,14.4-14.4Zm-8.9,5.185a7.2,7.2,0,0,1-3.226,2.492,12.963,12.963,0,0,1-5.012.893,12.113,12.113,0,0,1-5.776-1.2A7.49,7.49,0,0,1,13.3,29.435,5.171,5.171,0,0,1,12.3,26.554a1.959,1.959,0,0,1,.619-1.44,2.247,2.247,0,0,1,1.57-.533,1.988,1.988,0,0,1,1.311.461A3.6,3.6,0,0,1,16.7,26.4a8.4,8.4,0,0,0,.951,1.7,3.759,3.759,0,0,0,1.44,1.123,5.574,5.574,0,0,0,2.434.446,5.761,5.761,0,0,0,3.37-.893,2.593,2.593,0,0,0,1.282-2.2,2.218,2.218,0,0,0-.677-1.685,4.451,4.451,0,0,0-1.8-1.008c-.749-.245-1.743-.49-3-.763A23.045,23.045,0,0,1,16.516,21.7a6.885,6.885,0,0,1-2.722-2.016A5.041,5.041,0,0,1,12.786,16.5a5.257,5.257,0,0,1,1.066-3.226,6.769,6.769,0,0,1,3.082-2.16,13.7,13.7,0,0,1,4.753-.691,12.43,12.43,0,0,1,3.73.5,8.368,8.368,0,0,1,2.636,1.325,5.632,5.632,0,0,1,1.527,1.743,3.774,3.774,0,0,1,.49,1.8,2.016,2.016,0,0,1-.619,1.44,2.06,2.06,0,0,1-1.541.663,1.8,1.8,0,0,1-1.282-.4,4.839,4.839,0,0,1-.936-1.253,5.459,5.459,0,0,0-1.512-1.887,4.508,4.508,0,0,0-2.809-.663,5.243,5.243,0,0,0-2.881.72A2.074,2.074,0,0,0,17.4,16.141a1.656,1.656,0,0,0,.36,1.08,3.183,3.183,0,0,0,1.037.792,6.827,6.827,0,0,0,1.325.519c.461.13,1.21.317,2.261.562,1.325.288,2.506.6,3.586.951A10.961,10.961,0,0,1,28.7,21.311,5.171,5.171,0,0,1,30.473,23.2a5.761,5.761,0,0,1,.576,2.823A6.107,6.107,0,0,1,29.94,29.593Z" transform="translate(1.358 1.345)" fill="#d2d2d2"/>
      <rect id="_Transparent_Rectangle_" data-name="&lt;Transparent Rectangle&gt;" width="47" height="46" transform="translate(-0.495 0.045)" fill="none"/>
    </g>
    <g id="Эллипс_291" data-name="Эллипс 291" transform="translate(461 7209)" fill="none" stroke="#d2d2d2" stroke-width="2">
      <circle cx="35" cy="35" r="35" stroke="none"/>
      <circle cx="35" cy="35" r="34" fill="none"/>
    </g>
  </g>
</svg>
