<svg xmlns="http://www.w3.org/2000/svg" width="70" height="70" viewBox="0 0 70 70">
  <g id="Сгруппировать_398" data-name="Сгруппировать 398" transform="translate(-586 -7209)">
    <g id="Сгруппировать_396" data-name="Сгруппировать 396" transform="translate(597.802 7220.955)">
      <rect id="_Transparent_Rectangle_" data-name="&lt;Transparent Rectangle&gt;" width="46" height="46" transform="translate(0.198 0.045)" fill="none"/>
      <g id="whatsapp" transform="translate(3.86 4.321)">
        <g id="Сгруппировать_394" data-name="Сгруппировать 394">
          <path id="Контур_391" data-name="Контур 391" d="M18.588,0h-.009A18.572,18.572,0,0,0,3.538,29.475l-2.316,6.9L8.365,34.1A18.58,18.58,0,1,0,18.588,0ZM29.4,26.242c-.448,1.266-2.228,2.316-3.647,2.623-.971.207-2.239.372-6.509-1.4-5.461-2.263-8.978-7.812-9.252-8.172s-2.207-2.938-2.207-5.605a5.933,5.933,0,0,1,1.9-4.523,2.7,2.7,0,0,1,1.9-.667c.23,0,.437.012.623.021.546.023.82.056,1.18.918.448,1.08,1.54,3.747,1.67,4.021a1.106,1.106,0,0,1,.079,1.006,3.211,3.211,0,0,1-.6.853c-.274.316-.534.557-.808.9-.251.3-.534.611-.218,1.157a16.494,16.494,0,0,0,3.015,3.747,13.662,13.662,0,0,0,4.358,2.688,1.175,1.175,0,0,0,1.31-.207,22.484,22.484,0,0,0,1.452-1.923,1.037,1.037,0,0,1,1.333-.4c.5.174,3.157,1.487,3.7,1.758s.906.4,1.038.634A4.628,4.628,0,0,1,29.4,26.242Z" transform="translate(0)" fill="#d2d2d2"/>
        </g>
      </g>
    </g>
    <g id="Эллипс_292" data-name="Эллипс 292" transform="translate(586 7209)" fill="none" stroke="#d2d2d2" stroke-width="2">
      <circle cx="35" cy="35" r="35" stroke="none"/>
      <circle cx="35" cy="35" r="34" fill="none"/>
    </g>
  </g>
</svg>
