<svg xmlns="http://www.w3.org/2000/svg" width="70" height="70" viewBox="0 0 70 70">
  <g id="Сгруппировать_399" data-name="Сгруппировать 399" transform="translate(-713 -7209)">
    <g id="phone--filled" transform="translate(724.549 7220.955)">
      <path id="Контур_390" data-name="Контур 390" d="M27.966,29.617l3.226-3.226a3.154,3.154,0,0,1,3.37-.691l3.932,1.57a3.14,3.14,0,0,1,1.959,2.881v7.2a3.125,3.125,0,0,1-3.284,3.1C9.617,38.734,4.057,15.4,3.006,6.471A3.125,3.125,0,0,1,6.131,3h6.957a3.111,3.111,0,0,1,2.881,1.959l1.57,3.932a3.111,3.111,0,0,1-.677,3.37l-3.226,3.226S15.493,28.061,27.966,29.617Z" transform="translate(0.817 1.321)" fill="#d2d2d2"/>
      <rect id="_Transparent_Rectangle_" data-name="&lt;Transparent Rectangle&gt;" width="46" height="46" transform="translate(0.451 0.045)" fill="none"/>
    </g>
    <g id="Эллипс_293" data-name="Эллипс 293" transform="translate(713 7209)" fill="none" stroke="#d2d2d2" stroke-width="2">
      <circle cx="35" cy="35" r="35" stroke="none"/>
      <circle cx="35" cy="35" r="34" fill="none"/>
    </g>
  </g>
</svg>
