<svg xmlns="http://www.w3.org/2000/svg" width="70" height="70" viewBox="0 0 70 70">
  <g id="Сгруппировать_400" data-name="Сгруппировать 400" transform="translate(-837 -7209)">
    <g id="Сгруппировать_395" data-name="Сгруппировать 395" transform="translate(848.415 7220.955)">
      <g id="mail" transform="translate(1.921 7.653)">
        <g id="Сгруппировать_391" data-name="Сгруппировать 391" transform="translate(1.529 0)">
          <g id="Сгруппировать_390" data-name="Сгруппировать 390">
            <path id="Контур_388" data-name="Контур 388" d="M56.821,68.267H17.067L36.944,84.64l20.1-16.327A1.382,1.382,0,0,0,56.821,68.267Z" transform="translate(-17.067 -68.267)" fill="#d2d2d2"/>
          </g>
        </g>
        <g id="Сгруппировать_393" data-name="Сгруппировать 393" transform="translate(0 2.7)">
          <g id="Сгруппировать_392" data-name="Сгруппировать 392" transform="translate(0 0)">
            <path id="Контур_389" data-name="Контур 389" d="M22.371,115.24a1.529,1.529,0,0,1-1.937,0L0,98.406v26.351a1.529,1.529,0,0,0,1.529,1.529H41.283a1.529,1.529,0,0,0,1.529-1.529V98.632Z" transform="translate(0 -98.406)" fill="#d2d2d2"/>
          </g>
        </g>
      </g>
      <rect id="_Transparent_Rectangle_" data-name="&lt;Transparent Rectangle&gt;" width="47" height="46" transform="translate(-0.415 0.045)" fill="none"/>
    </g>
    <g id="Эллипс_294" data-name="Эллипс 294" transform="translate(837 7209)" fill="none" stroke="#d2d2d2" stroke-width="2">
      <circle cx="35" cy="35" r="35" stroke="none"/>
      <circle cx="35" cy="35" r="34" fill="none"/>
    </g>
  </g>
</svg>
