<svg xmlns="http://www.w3.org/2000/svg" width="21.281" height="20.301" viewBox="0 0 21.281 20.301">
  <g id="star_1_" data-name="star (1)" transform="translate(0 -11.796)">
    <g id="Сгруппировать_388" data-name="Сгруппировать 388" transform="translate(0 11.796)">
      <path id="Контур_368" data-name="Контур 368" d="M21.251,19.5a.623.623,0,0,0-.5-.424l-6.6-.959L11.2,12.144a.623.623,0,0,0-1.118,0L7.131,18.122l-6.6.959a.623.623,0,0,0-.345,1.063L4.962,24.8,3.835,31.368a.623.623,0,0,0,.9.657l5.9-3.1,5.9,3.1a.624.624,0,0,0,.9-.657L16.319,24.8l4.774-4.653A.623.623,0,0,0,21.251,19.5Z" transform="translate(0 -11.796)" fill="#8e8e8e"/>
    </g>
  </g>
</svg>
