<svg id="event--schedule" xmlns="http://www.w3.org/2000/svg" width="34.253" height="38.363" viewBox="0 0 34.253 38.363">
  <path id="Контур_189" data-name="Контур 189" d="M23.961,35.922A10.961,10.961,0,1,1,34.922,24.961,10.961,10.961,0,0,1,23.961,35.922Zm0-19.182a8.221,8.221,0,1,0,8.221,8.221A8.221,8.221,0,0,0,23.961,16.74Z" transform="translate(-0.669 2.442)" fill="#fff"/>
  <path id="Контур_190" data-name="Контур 190" d="M23.549,27.591,20,24.042V18h2.74v4.919l2.74,2.74Z" transform="translate(1.922 3.922)" fill="#fff"/>
  <path id="Контур_191" data-name="Контур 191" d="M36.883,7.481a2.74,2.74,0,0,0-2.74-2.74H28.662V2h-2.74V4.74H14.961V2h-2.74V4.74H6.74A2.74,2.74,0,0,0,4,7.481v27.4a2.74,2.74,0,0,0,2.74,2.74h5.481v-2.74H6.74V7.481h5.481v2.74h2.74V7.481H25.922v2.74h2.74V7.481h5.481V15.7h2.74Z" transform="translate(-4 -2)" fill="#fff"/>
</svg>
