<svg xmlns="http://www.w3.org/2000/svg" width="38.364" height="38.364" viewBox="0 0 38.364 38.364">
  <path id="collaborate" d="M7.481,28.032v-1.37H4.74v1.37a9.591,9.591,0,0,0,9.591,9.591h4.11v-2.74h-4.11a6.851,6.851,0,0,1-6.851-6.851Zm24.662-13.7V15.7h2.74v-1.37A9.591,9.591,0,0,0,25.292,4.74h-4.11v2.74h4.11a6.851,6.851,0,0,1,6.851,6.851Zm-17.812,0H6.11A4.11,4.11,0,0,0,2,18.442v2.74H4.74v-2.74a1.37,1.37,0,0,1,1.37-1.37h8.221a1.37,1.37,0,0,1,1.37,1.37v2.74h2.74v-2.74a4.11,4.11,0,0,0-4.11-4.11Zm-4.11-1.37A5.481,5.481,0,1,0,4.74,7.481,5.481,5.481,0,0,0,10.221,12.961Zm0-8.221a2.74,2.74,0,1,1-2.74,2.74A2.74,2.74,0,0,1,10.221,4.74ZM36.253,33.513H28.032a4.11,4.11,0,0,0-4.11,4.11v2.74h2.74v-2.74a1.37,1.37,0,0,1,1.37-1.37h8.221a1.37,1.37,0,0,1,1.37,1.37v2.74h2.74v-2.74A4.11,4.11,0,0,0,36.253,33.513Zm-9.591-6.851a5.481,5.481,0,1,0,5.481-5.481A5.481,5.481,0,0,0,26.662,26.662Zm8.221,0a2.74,2.74,0,1,1-2.74-2.74A2.74,2.74,0,0,1,34.883,26.662Z" transform="translate(-2 -2)" fill="#fff"/>
</svg>
