<svg xmlns="http://www.w3.org/2000/svg" width="36.994" height="36.994" viewBox="0 0 36.994 36.994">
  <path id="flow--connection" d="M37.253,23.922H29.032a2.743,2.743,0,0,0-2.74,2.74V29.4H18.639l-6.048-6.048V15.7h2.74a2.743,2.743,0,0,0,2.74-2.74V4.74A2.743,2.743,0,0,0,15.331,2H7.11A2.743,2.743,0,0,0,4.37,4.74v8.221A2.743,2.743,0,0,0,7.11,15.7h2.74v7.653L3.4,29.8a1.369,1.369,0,0,0,0,1.937l6.851,6.851a1.369,1.369,0,0,0,1.937,0l6.449-6.449h7.653v2.74a2.743,2.743,0,0,0,2.74,2.74h8.221a2.743,2.743,0,0,0,2.74-2.74V26.662a2.743,2.743,0,0,0-2.74-2.74ZM7.11,4.74h8.221v8.221H7.11Zm4.11,30.946L6.308,30.773l4.913-4.913,4.913,4.913Zm17.812-.8V26.662h8.221v8.221Z" transform="translate(-3 -2)" fill="#fff"/>
</svg>
