<svg xmlns="http://www.w3.org/2000/svg" width="21.289" height="17.301" viewBox="0 0 21.289 17.301">
  <path id="twitter" d="M21.289,4.3a8.72,8.72,0,0,1-2.509.687A4.375,4.375,0,0,0,20.7,2.567a8.749,8.749,0,0,1-2.774,1.06A4.37,4.37,0,0,0,10.484,7.61a12.4,12.4,0,0,1-9-4.563A4.373,4.373,0,0,0,2.833,8.879,4.349,4.349,0,0,1,.856,8.332a4.371,4.371,0,0,0,3.5,4.338,4.378,4.378,0,0,1-1.973.075,4.371,4.371,0,0,0,4.08,3.033A8.782,8.782,0,0,1,0,17.586a12.364,12.364,0,0,0,6.7,1.962A12.352,12.352,0,0,0,19.109,6.557,8.892,8.892,0,0,0,21.289,4.3Z" transform="translate(0 -2.248)" fill="#fff"/>
</svg>
