<svg width="187" height="40" viewBox="0 0 187 40" fill="none" xmlns="http://www.w3.org/2000/svg">
<path d="M69.2525 20.3795L64.0642 27.508C63.6014 28.1753 63.0078 28.7415 62.3194 29.1723C61.7337 29.5288 61.0621 29.7196 60.3764 29.7242C59.8046 29.7234 59.2398 29.5989 58.7207 29.3591L59.5543 27.5224C59.8043 27.5975 60.0636 27.6372 60.3246 27.6402C60.6195 27.6336 60.909 27.5597 61.171 27.4242C61.4331 27.2887 61.6607 27.0952 61.8365 26.8584L61.8883 26.8067L59.6836 20.3795H62.3568L63.6072 24.7457L66.6856 20.3795H69.2525Z" fill="white"/>
<path d="M75.6796 24.8636L77.6226 29.5028H74.8834L73.5151 26.0104H72.213L71.5088 29.5028H68.9219L70.7471 20.3795H73.3341L72.6298 23.9236H73.725L76.5994 20.3795H79.4738L75.6796 24.8636Z" fill="white"/>
<path d="M87.5166 21.147C87.8368 21.4061 88.0912 21.7372 88.259 22.1134C88.4269 22.4895 88.5034 22.9 88.4824 23.3114C88.5057 24.018 88.3145 24.7151 87.9337 25.3109C87.553 25.9066 87.0007 26.373 86.3496 26.6486C85.5996 26.9753 84.7875 27.1352 83.9696 27.1171H82.1443L81.6758 29.5028H79.0889L80.9141 20.3795H84.7945C85.9673 20.3795 86.8746 20.6353 87.5166 21.147ZM85.4125 24.6796C85.5706 24.5346 85.6941 24.3561 85.7742 24.1572C85.8543 23.9582 85.8888 23.7439 85.8753 23.5298C85.8858 23.3701 85.8573 23.2102 85.7922 23.064C85.7271 22.9178 85.6274 22.7896 85.5016 22.6905C85.1889 22.4816 84.8164 22.3807 84.441 22.4031H83.0843L82.5496 25.0763H84.0874C84.5627 25.11 85.0339 24.9689 85.4125 24.6796Z" fill="white"/>
<path d="M90.4624 23.9236H94.2566L93.8772 25.8264H90.083L90.4624 23.9236Z" fill="white"/>
<path d="M105.91 20.3795L104.084 29.5028H101.543L102.923 22.4203H99.4538L98.0712 29.4971H95.5303L97.3555 20.3738L105.91 20.3795Z" fill="white"/>
<path d="M110.664 22.3743L110.377 23.9121H114.43L114.053 25.8409H109.977L109.649 27.508H114.435L114.019 29.5028H106.706L108.528 20.3795H115.674L115.263 22.3743H110.664Z" fill="white"/>
<path d="M124.51 21.147C124.83 21.4061 125.084 21.7372 125.252 22.1134C125.42 22.4895 125.497 22.9 125.476 23.3114C125.499 24.0176 125.308 24.7143 124.928 25.3099C124.547 25.9056 123.996 26.3722 123.346 26.6486C122.596 26.9748 121.784 27.1347 120.966 27.1171H119.14L118.672 29.5028H116.085L117.91 20.3795H121.768C122.954 20.3795 123.868 20.6353 124.51 21.147ZM122.406 24.6796C122.564 24.5346 122.687 24.3561 122.767 24.1572C122.848 23.9582 122.882 23.7439 122.869 23.5298C122.877 23.3732 122.847 23.2168 122.783 23.0738C122.718 22.9308 122.621 22.8053 122.498 22.7078C122.184 22.4994 121.81 22.3986 121.434 22.4203H120.08L119.546 25.0935H121.084C121.56 25.1224 122.031 24.9751 122.406 24.6796Z" fill="white"/>
<path d="M130.247 22.3743L129.96 23.9121H134.012L133.636 25.8409H129.557L129.229 27.508H134.015L133.596 29.5028H126.283L128.108 20.3795H135.254L134.849 22.3743H130.247Z" fill="white"/>
<path d="M144.553 25.5218C144.769 25.8433 144.879 26.224 144.869 26.6112C144.889 27.0407 144.792 27.4674 144.59 27.8468C144.387 28.2261 144.087 28.544 143.719 28.767C142.953 29.2595 141.945 29.5047 140.695 29.5028H135.671L137.496 20.3795H142.095C143.122 20.3795 143.907 20.5635 144.449 20.9314C144.71 21.103 144.922 21.3389 145.064 21.6164C145.207 21.8939 145.275 22.2035 145.263 22.5152C145.274 23.0091 145.123 23.493 144.832 23.892C144.522 24.2976 144.108 24.6107 143.633 24.7975C144.001 24.9481 144.32 25.1991 144.553 25.5218ZM141.914 27.3672C142.043 27.2765 142.146 27.1544 142.215 27.0126C142.283 26.8707 142.314 26.7138 142.305 26.5566C142.312 26.4439 142.289 26.3313 142.239 26.2303C142.188 26.1293 142.112 26.0435 142.018 25.9817C141.781 25.8432 141.509 25.7772 141.236 25.792H138.953L138.588 27.6431H140.845C141.221 27.6608 141.594 27.5646 141.914 27.3672ZM139.672 22.2421L139.319 24.0012H141.173C141.542 24.0256 141.909 23.932 142.222 23.7339C142.339 23.6436 142.432 23.5257 142.492 23.3909C142.553 23.256 142.579 23.1083 142.569 22.9607C142.569 22.4817 142.209 22.2421 141.489 22.2421H139.672Z" fill="white"/>
<path d="M148.867 29.178C148.216 28.8667 147.669 28.3735 147.292 27.758C146.916 27.1278 146.724 26.405 146.737 25.6712C146.723 24.6844 146.973 23.7118 147.461 22.8543C147.935 22.0264 148.632 21.349 149.473 20.8997C150.382 20.4196 151.398 20.1773 152.425 20.1955C153.257 20.1718 154.083 20.3431 154.837 20.6957C155.492 21.0111 156.04 21.5106 156.415 22.1329C156.791 22.7631 156.983 23.4859 156.97 24.2197C156.984 25.2065 156.734 26.1791 156.245 27.0366C155.771 27.8638 155.074 28.541 154.233 28.9911C153.324 29.471 152.309 29.7132 151.281 29.6954C150.447 29.7134 149.62 29.5362 148.867 29.178ZM153.006 27.117C153.44 26.8329 153.788 26.4352 154.012 25.9673C154.246 25.4666 154.363 24.919 154.354 24.3663C154.366 24.0936 154.32 23.8216 154.221 23.5673C154.123 23.313 153.972 23.082 153.779 22.8888C153.565 22.6957 153.315 22.5472 153.043 22.4519C152.771 22.3567 152.483 22.3166 152.195 22.3341C151.66 22.323 151.133 22.4732 150.684 22.7652C150.249 23.0486 149.901 23.4464 149.677 23.915C149.441 24.4141 149.321 24.9607 149.327 25.5131C149.315 25.7858 149.361 26.0578 149.459 26.3121C149.558 26.5664 149.709 26.7974 149.902 26.9906C150.116 27.1837 150.366 27.3322 150.638 27.4275C150.91 27.5227 151.198 27.5628 151.485 27.5453C152.024 27.559 152.554 27.4097 153.006 27.117Z" fill="white"/>
<path d="M165.278 25.5476C165.503 25.8882 165.619 26.2892 165.611 26.6974C165.613 27.2971 165.379 27.8735 164.959 28.3013C164.478 28.7909 163.886 29.1568 163.234 29.3677C162.476 29.6257 161.68 29.7539 160.88 29.7471C160.239 29.7464 159.6 29.6702 158.977 29.52C158.36 29.3717 157.768 29.1365 157.218 28.8216L158.339 27.0193C158.726 27.2346 159.141 27.3971 159.572 27.5022C160.004 27.613 160.448 27.6699 160.894 27.6718C161.427 27.6902 161.957 27.5828 162.441 27.3585C162.617 27.2911 162.769 27.1734 162.879 27.0201C162.989 26.8668 163.051 26.6846 163.059 26.4962C163.059 26.0363 162.693 25.8063 161.963 25.8063H159.604L159.983 23.915H162.147C162.46 23.9289 162.77 23.8445 163.033 23.6735C163.137 23.6073 163.222 23.516 163.281 23.408C163.341 23.3 163.372 23.1788 163.372 23.0555C163.375 22.9228 163.34 22.792 163.27 22.6791C163.2 22.5662 163.098 22.4763 162.978 22.4203C162.648 22.264 162.285 22.191 161.92 22.2076C161.509 22.213 161.1 22.267 160.702 22.3686C160.256 22.4811 159.822 22.6361 159.405 22.8313L159.029 20.8768C160.061 20.4129 161.179 20.1692 162.311 20.161C162.958 20.1516 163.602 20.2487 164.217 20.4485C164.732 20.6072 165.197 20.894 165.571 21.282C165.895 21.625 166.073 22.0806 166.068 22.5525C166.067 23.0311 165.904 23.4953 165.605 23.869C165.28 24.2807 164.848 24.5965 164.358 24.7831C164.733 24.9421 165.053 25.208 165.278 25.5476Z" fill="white"/>
<path d="M173.9 24.8636L175.84 29.5028H173.095L171.727 26.0104H170.422L169.718 29.5028H167.131L168.956 20.3795H171.543L170.839 23.9236H171.934L174.808 20.3795H177.683L173.9 24.8636Z" fill="white"/>
<path d="M183.903 27.7293H180.017L178.962 29.5028H176.237L182.09 20.3795H184.633L186.835 29.5028H184.268L183.903 27.7293ZM183.512 25.8265L182.897 22.8687L181.153 25.8265H183.512Z" fill="white"/>
<path d="M63.702 33.3601L62.6069 38.8358H61.598L62.5121 34.2196H59.675L58.7667 38.8358H57.7578L58.853 33.3601H63.702Z" fill="white"/>
<path d="M68.0333 34.2052L67.7459 35.6424H70.3961L70.2322 36.4789H67.5734L67.286 37.9879H70.3846L70.2121 38.8502H66.1104L67.2055 33.3745H71.2038L71.0313 34.2368L68.0333 34.2052Z" fill="white"/>
<path d="M78.0103 33.7941C78.1901 33.9398 78.333 34.1258 78.4273 34.3371C78.5217 34.5483 78.565 34.7789 78.5536 35.01C78.566 35.4326 78.4563 35.8498 78.2374 36.2115C78.0205 36.5546 77.7049 36.8242 77.332 36.9847C76.8942 37.1741 76.4205 37.2663 75.9436 37.2549H74.6042L74.2851 38.8358H73.2676L74.3627 33.3601H76.4754C77.0216 33.3253 77.5632 33.4785 78.0103 33.7941ZM77.1279 36.062C77.2639 35.9441 77.371 35.7964 77.4408 35.6304C77.5106 35.4644 77.5412 35.2846 77.5303 35.1048C77.5383 34.9783 77.5149 34.8518 77.4623 34.7364C77.4096 34.6211 77.3293 34.5206 77.2285 34.4437C76.9721 34.2795 76.6701 34.201 76.3662 34.2195H75.2164L74.7853 36.3954H75.9896C76.3961 36.4189 76.7983 36.3011 77.1279 36.062Z" fill="white"/>
<path d="M82.7822 34.2052L82.4948 35.6424H85.145L84.9811 36.4789H82.3223L82.0349 37.9879H85.1335L84.961 38.8502H80.8535L81.9487 33.3745H85.9441L85.7716 34.2368L82.7822 34.2052Z" fill="white"/>
<path d="M89.9824 34.2052L89.6949 35.6424H92.3451L92.1813 36.4789H89.5225L89.235 37.9879H92.3308L92.1583 38.8502H88.0508L89.1459 33.3745H93.1298L92.9574 34.2368L89.9824 34.2052Z" fill="white"/>
<path d="M99.2695 36.4386C99.4141 36.6424 99.4896 36.8872 99.4851 37.137C99.4871 37.4867 99.3555 37.824 99.1171 38.0798C98.8504 38.3696 98.5154 38.588 98.1427 38.7151C97.728 38.8646 97.2901 38.9395 96.8492 38.9364C96.4787 38.9373 96.1099 38.885 95.7541 38.7812C95.4096 38.6815 95.0862 38.5198 94.7998 38.304L95.277 37.5596C95.4938 37.7307 95.7403 37.8603 96.0042 37.9419C96.2835 38.0276 96.5743 38.0703 96.8665 38.0683C97.2668 38.0807 97.6633 37.9875 98.0162 37.7982C98.157 37.7317 98.2762 37.6268 98.3601 37.4956C98.444 37.3644 98.4892 37.2123 98.4905 37.0566C98.4905 36.6369 98.1686 36.4242 97.5276 36.4242H96.2313L96.3865 35.628H97.6311C97.9109 35.6431 98.1881 35.5675 98.4215 35.4124C98.5134 35.348 98.5878 35.2617 98.638 35.1613C98.6882 35.061 98.7126 34.9497 98.709 34.8375C98.7123 34.7314 98.6875 34.6263 98.637 34.5329C98.5865 34.4395 98.5122 34.3611 98.4215 34.3058C98.1785 34.1711 97.9029 34.1064 97.6253 34.1189C97.3669 34.1211 97.1099 34.1568 96.8607 34.2253C96.581 34.2977 96.3101 34.4008 96.053 34.5328L95.8978 33.7136C96.4825 33.4268 97.1236 33.2736 97.7748 33.2652C98.1223 33.2609 98.4678 33.3183 98.7952 33.4348C99.0754 33.5299 99.3253 33.6975 99.5196 33.9206C99.694 34.1268 99.788 34.3892 99.784 34.6593C99.7879 34.9543 99.6859 35.2408 99.4966 35.467C99.2871 35.7144 99.0121 35.8977 98.7032 35.9959C98.9316 36.0843 99.1286 36.2383 99.2695 36.4386Z" fill="white"/>
<path d="M107.089 37.9764H107.879L107.471 39.9885H106.534L106.767 38.8387H102.567L102.334 39.9885H101.386L101.8 37.9764H101.989C102.337 37.9592 102.639 37.689 102.892 37.1802C103.2 36.503 103.435 35.7947 103.593 35.0675L103.99 33.3688H108.014L107.089 37.9764ZM103.947 36.9819C103.831 37.3548 103.629 37.6953 103.358 37.9764H106.088L106.838 34.2196H104.688L104.453 35.2285C104.319 35.8225 104.15 36.408 103.947 36.9819Z" fill="white"/>
<path d="M115.838 33.3601H120.101L119.928 34.1966H116.66L116.396 35.5418H118.014C118.473 35.5098 118.928 35.6389 119.302 35.9068C119.452 36.0377 119.57 36.2015 119.647 36.3854C119.724 36.5694 119.757 36.7685 119.744 36.9675C119.752 37.3248 119.645 37.6753 119.44 37.9678C119.216 38.265 118.909 38.4891 118.557 38.6116C118.121 38.7703 117.659 38.8464 117.195 38.8358H114.729L115.838 33.3601ZM117.318 38.054C117.678 38.0736 118.035 37.9802 118.339 37.7867C118.458 37.7042 118.554 37.593 118.619 37.4634C118.684 37.3338 118.715 37.1899 118.71 37.0451C118.717 36.9404 118.698 36.8355 118.654 36.7404C118.61 36.6453 118.542 36.5631 118.457 36.5018C118.215 36.3653 117.938 36.3033 117.66 36.3236H116.24L115.896 38.0482L117.318 38.054Z" fill="white"/>
<path d="M124.389 34.2052L124.102 35.6424H126.761L126.597 36.4789H123.938L123.651 37.9879H126.746L126.574 38.8502H122.449L123.544 33.3745H127.54L127.367 34.2368L124.389 34.2052Z" fill="white"/>
<path d="M133.676 36.4386C133.82 36.6424 133.896 36.8872 133.891 37.1371C133.893 37.4867 133.762 37.824 133.523 38.0799C133.257 38.3696 132.922 38.588 132.549 38.7151C132.134 38.8646 131.696 38.9395 131.255 38.9364C130.885 38.9371 130.516 38.8848 130.16 38.7812C129.816 38.6816 129.492 38.5199 129.206 38.3041L129.683 37.5596C129.902 37.7298 130.15 37.8575 130.416 37.9361C130.691 38.0204 130.977 38.0631 131.264 38.0626C131.664 38.075 132.061 37.9818 132.414 37.7924C132.555 37.7259 132.674 37.6211 132.758 37.4899C132.842 37.3587 132.887 37.2065 132.888 37.0508C132.888 36.6312 132.566 36.4185 131.925 36.4185H130.629L130.784 35.6223H132.029C132.309 35.6373 132.586 35.5617 132.819 35.4067C132.911 35.3423 132.985 35.256 133.036 35.1556C133.086 35.0552 133.11 34.944 133.107 34.8318C133.11 34.7257 133.085 34.6205 133.035 34.5271C132.984 34.4337 132.91 34.3554 132.819 34.3C132.576 34.1654 132.301 34.1007 132.023 34.1132C131.765 34.1154 131.508 34.1511 131.258 34.2196C130.979 34.2919 130.708 34.3951 130.451 34.5271L130.295 33.7079C130.88 33.421 131.521 33.2679 132.172 33.2595C132.52 33.2552 132.865 33.3126 133.193 33.4291C133.473 33.5241 133.723 33.6917 133.917 33.9149C134.092 34.1211 134.186 34.3835 134.182 34.6536C134.186 34.9485 134.084 35.2351 133.894 35.4613C133.685 35.7086 133.41 35.8919 133.101 35.9902C133.333 36.0786 133.533 36.2348 133.676 36.4386Z" fill="white"/>
<path d="M142.518 33.3601L143.435 35.1911L145.099 33.3601H146.307L143.938 35.9873L145.338 38.8358H144.165L143.145 36.841L141.314 38.8358H140.109L142.668 36.0275L141.368 33.3601H142.518Z" fill="white"/>
<path d="M153.874 33.3601L152.779 38.8358H151.767L152.69 34.2196H150.526L150.195 35.6567C150.049 36.3215 149.852 36.9739 149.606 37.6085C149.465 37.9937 149.235 38.3397 148.933 38.6174C148.664 38.827 148.331 38.9358 147.99 38.9249C147.803 38.9194 147.617 38.8934 147.436 38.8473L147.677 37.962C147.745 37.9848 147.816 37.9955 147.887 37.9936C147.99 37.995 148.093 37.9756 148.189 37.9366C148.284 37.8976 148.371 37.8398 148.444 37.7665C148.644 37.5523 148.797 37.2987 148.893 37.0221C149.061 36.5667 149.2 36.101 149.31 35.628L149.85 33.3601H153.874Z" fill="white"/>
<path d="M157.617 38.6203C157.241 38.4414 156.927 38.1553 156.714 37.7982C156.501 37.4269 156.393 37.0047 156.401 36.5766C156.393 35.9911 156.538 35.4137 156.82 34.9008C157.097 34.4032 157.507 33.993 158.005 33.7166C158.541 33.4204 159.146 33.2707 159.758 33.2826C160.242 33.2685 160.722 33.3669 161.161 33.57C161.537 33.7482 161.851 34.0344 162.063 34.3921C162.278 34.7637 162.387 35.1874 162.377 35.6166C162.385 36.2009 162.241 36.7773 161.96 37.2895C161.683 37.7873 161.271 38.1975 160.773 38.4737C160.238 38.7699 159.634 38.9196 159.022 38.9077C158.538 38.922 158.057 38.8236 157.617 38.6203ZM160.284 37.7062C160.622 37.4973 160.896 37.1988 161.075 36.8439C161.265 36.4835 161.364 36.0817 161.362 35.6741C161.37 35.4701 161.335 35.2667 161.259 35.0774C161.183 34.888 161.067 34.7171 160.919 34.576C160.572 34.2839 160.125 34.1367 159.672 34.165C159.258 34.1573 158.85 34.267 158.496 34.4812C158.158 34.6894 157.885 34.9881 157.709 35.3435C157.524 35.7056 157.431 36.1071 157.436 36.5134C157.426 36.7169 157.461 36.9201 157.536 37.1094C157.611 37.2987 157.726 37.4698 157.873 37.6114C158.219 37.9039 158.665 38.0512 159.117 38.0224C159.528 38.028 159.932 37.9185 160.284 37.7062Z" fill="white"/>
<path d="M170.834 33.3601L169.739 38.8358H168.727L169.641 34.2196H166.801L165.896 38.8358H164.887L165.982 33.3601H170.834Z" fill="white"/>
<path d="M174.576 38.6202C174.2 38.4413 173.885 38.1554 173.67 37.7982C173.458 37.4266 173.351 37.0044 173.36 36.5766C173.351 35.9913 173.495 35.4139 173.777 34.9008C174.054 34.4037 174.464 33.9937 174.961 33.7165C175.497 33.4203 176.102 33.2706 176.714 33.2825C177.198 33.2681 177.678 33.3665 178.117 33.5699C178.493 33.7489 178.808 34.0348 179.022 34.392C179.236 34.7642 179.344 35.1875 179.336 35.6165C179.343 36.2011 179.198 36.7775 178.916 37.2894C178.639 37.7865 178.229 38.1965 177.732 38.4737C177.196 38.7698 176.591 38.9195 175.978 38.9077C175.495 38.9221 175.015 38.8237 174.576 38.6202ZM177.243 37.7062C177.58 37.4963 177.852 37.198 178.031 36.8439C178.221 36.4834 178.32 36.0816 178.318 35.674C178.327 35.47 178.292 35.2666 178.215 35.0773C178.139 34.888 178.023 34.7171 177.876 34.576C177.528 34.2836 177.081 34.1364 176.628 34.1649C176.214 34.1573 175.807 34.2669 175.452 34.4811C175.115 34.6902 174.843 34.9887 174.665 35.3434C174.477 35.7048 174.378 36.106 174.377 36.5133C174.368 36.7169 174.403 36.92 174.478 37.1093C174.553 37.2986 174.668 37.4697 174.814 37.6113C175.161 37.9038 175.607 38.0511 176.059 38.0224C176.476 38.0307 176.886 37.9211 177.243 37.7062Z" fill="white"/>
<path d="M186.654 34.2196H184.823L183.918 38.8359H182.909L183.814 34.2196H182.023L182.196 33.3573H186.835L186.654 34.2196Z" fill="white"/>
<path d="M40.7588 32.9807H10.2903L10.9744 29.4711H41.4429L40.7588 32.9807ZM60.7272 14.5847L47.5769 2.22478L45.1883 0L41.9316 2.24202L23.9724 14.6019L23.593 16.5594L23.2826 18.1087H27.9506L27.1084 22.4519H18.445L17.7637 25.9615H29.9339L30.618 22.4519L31.4602 18.1087L32.1443 14.5961H29.6062L44.3087 4.48117L55.0762 14.5961H52.2018L51.5349 18.1087L47.9621 36.5047H0.68123L0 40H50.7905L51.4717 36.5047L55.0446 18.1087H58.8301L58.856 18.1345L58.8819 18.1087H60.0489L60.3363 16.6398L60.733 14.599L60.7272 14.5847Z" fill="white"/>
</svg>
