<svg width="61" height="40" viewBox="0 0 61 40" fill="none" xmlns="http://www.w3.org/2000/svg">
<path d="M40.7588 32.9807H10.2903L10.9744 29.4711H41.4429L40.7588 32.9807ZM60.7272 14.5847L47.5769 2.22478L45.1883 0L41.9316 2.24202L23.9724 14.6019L23.593 16.5594L23.2826 18.1087H27.9506L27.1084 22.4519H18.445L17.7637 25.9615H29.9339L30.618 22.4519L31.4602 18.1087L32.1443 14.5961H29.6062L44.3087 4.48117L55.0762 14.5961H52.2018L51.5349 18.1087L47.9621 36.5047H0.68123L0 40H50.7905L51.4717 36.5047L55.0446 18.1087H58.8301L58.856 18.1345L58.8819 18.1087H60.0489L60.3363 16.6398L60.733 14.599L60.7272 14.5847Z" fill="white"/>
</svg>
