<svg width="20" height="20" viewBox="0 0 20 20" fill="none" xmlns="http://www.w3.org/2000/svg">
<path d="M2.5 20H17.5C18.163 20 18.7989 19.7366 19.2678 19.2678C19.7366 18.7989 20 18.163 20 17.5V2.5C20 1.83696 19.7366 1.20107 19.2678 0.732233C18.7989 0.263392 18.163 0 17.5 0L2.5 0C1.83696 0 1.20107 0.263392 0.732233 0.732233C0.263392 1.20107 0 1.83696 0 2.5L0 17.5C0 18.163 0.263392 18.7989 0.732233 19.2678C1.20107 19.7366 1.83696 20 2.5 20Z" fill="#1872B8"/>
<path d="M13.9121 12.76C13.7481 13.224 12.9561 13.648 12.5761 13.704C12.1596 13.7757 11.7321 13.7483 11.3281 13.624C10.9442 13.5099 10.5664 13.3764 10.1961 13.224C8.1961 12.364 6.9121 10.364 6.8121 10.232C6.35131 9.64202 6.07322 8.9301 6.0121 8.184C6.00638 7.87568 6.06496 7.56955 6.18411 7.28512C6.30325 7.00069 6.48034 6.7442 6.7041 6.532C6.7701 6.4563 6.85112 6.39516 6.94202 6.35247C7.03292 6.30977 7.1317 6.28646 7.2321 6.284H7.6321C7.7561 6.284 7.9201 6.24 8.0801 6.624C8.2401 7.008 8.6401 7.996 8.6881 8.096C8.72028 8.1477 8.73897 8.20665 8.74247 8.26745C8.74596 8.32825 8.73414 8.38895 8.7081 8.444C8.55836 8.68037 8.39264 8.90623 8.2121 9.12C8.1241 9.232 8.0081 9.328 8.1241 9.52C8.413 10.0256 8.77565 10.4853 9.2001 10.884C9.67225 11.3024 10.2137 11.6354 10.8001 11.868C11.0001 11.968 11.1161 11.952 11.2281 11.82C11.3401 11.688 11.7241 11.24 11.8561 11.044C11.9881 10.848 12.1201 10.876 12.3041 10.944C12.4881 11.012 13.4601 11.488 13.6561 11.588C13.8521 11.688 13.9881 11.736 14.0561 11.82C14.1045 12.1407 14.0543 12.4685 13.9121 12.76Z" fill="white"/>
<path d="M15.6451 4.32385C14.2853 2.96169 12.4765 2.14046 10.556 2.01321C8.63544 1.88597 6.73415 2.46139 5.20648 3.63223C3.67881 4.80307 2.62898 6.48944 2.25267 8.37704C1.87635 10.2646 2.19922 12.2247 3.16111 13.8918L2.03711 17.9998L6.24111 16.8958C7.4051 17.5284 8.70833 17.8611 10.0331 17.8638C11.601 17.862 13.1332 17.3954 14.4361 16.5232C15.739 15.651 16.7542 14.4123 17.3534 12.9634C17.9526 11.5145 18.109 9.92056 17.8029 8.38285C17.4967 6.84514 16.7416 5.43267 15.6331 4.32385H15.6451ZM10.0451 16.5238C8.85973 16.5246 7.69613 16.2054 6.67711 15.5998L6.43711 15.4598L3.94111 16.1158L4.60511 13.6838L4.44911 13.4358C3.67261 12.1985 3.32912 10.7383 3.47257 9.28451C3.61603 7.83076 4.23831 6.46583 5.24168 5.40412C6.24505 4.3424 7.57266 3.64405 9.016 3.41874C10.4593 3.19344 11.9366 3.45394 13.2158 4.15934C14.4951 4.86473 15.5037 5.97506 16.0834 7.31593C16.6631 8.6568 16.781 10.1522 16.4186 11.5674C16.0562 12.9825 15.2339 14.2372 14.081 15.1343C12.9281 16.0314 11.5099 16.5202 10.0491 16.5238H10.0451Z" fill="white"/>
</svg>
