<svg width="20" height="20" viewBox="0 0 20 20" fill="none" xmlns="http://www.w3.org/2000/svg">
<path d="M2.5 20H17.5C18.163 20 18.7989 19.7366 19.2678 19.2678C19.7366 18.7989 20 18.163 20 17.5V2.5C20 1.83696 19.7366 1.20107 19.2678 0.732233C18.7989 0.263392 18.163 0 17.5 0L2.5 0C1.83696 0 1.20107 0.263392 0.732233 0.732233C0.263392 1.20107 0 1.83696 0 2.5L0 17.5C0 18.163 0.263392 18.7989 0.732233 19.2678C1.20107 19.7366 1.83696 20 2.5 20Z" fill="#1872B8"/>
<path d="M17.6439 5.70801C17.2439 4.14801 15.5199 2.47201 13.9199 2.10801C11.3459 1.61601 8.70198 1.61601 6.12795 2.10801C4.52795 2.45601 2.78795 4.13201 2.39995 5.70801C1.92398 7.87148 1.92398 10.1126 2.39995 12.276C2.77195 13.768 4.39995 15.368 5.91995 15.804V17.548C5.92111 17.6866 5.96336 17.8217 6.04136 17.9362C6.11936 18.0507 6.22958 18.1395 6.35808 18.1913C6.48658 18.2432 6.62757 18.2557 6.7632 18.2273C6.89882 18.199 7.02298 18.131 7.11995 18.032L8.88395 16.196C9.26395 16.22 9.64795 16.232 10.0319 16.232C11.3395 16.2316 12.644 16.107 13.9279 15.86C15.5279 15.512 17.2679 13.86 17.6519 12.28C18.1259 10.1147 18.1231 7.87218 17.6439 5.70801ZM16.2439 11.96C15.9999 12.976 14.6679 14.244 13.5999 14.476C12.2398 14.7338 10.8556 14.8425 9.47195 14.8C9.45866 14.7994 9.4454 14.8016 9.43301 14.8065C9.42061 14.8113 9.40935 14.8186 9.39995 14.828L8.11195 16.152L6.73995 17.56C6.71781 17.5833 6.68916 17.5994 6.65773 17.6062C6.62631 17.613 6.59356 17.6102 6.56377 17.5981C6.53398 17.586 6.50852 17.5652 6.49072 17.5384C6.47291 17.5117 6.46358 17.4802 6.46395 17.448V14.576C6.46302 14.553 6.45476 14.5309 6.44037 14.5129C6.42597 14.4949 6.4062 14.482 6.38395 14.476C5.33195 14.244 4.01195 12.976 3.75195 11.96C3.32389 10.0045 3.32389 7.97953 3.75195 6.02401C3.99995 5.00401 5.33195 3.74001 6.39995 3.50401C8.77867 3.0521 11.2212 3.0521 13.5999 3.50401C14.6519 3.74001 15.9719 5.00401 16.2279 6.02401C16.6652 7.97794 16.6707 10.0038 16.2439 11.96Z" fill="white"/>
<path d="M13.9767 9.13194C13.9824 9.1648 13.981 9.19849 13.9728 9.2308C13.9645 9.26311 13.9495 9.29329 13.9287 9.31937C13.9079 9.34545 13.8818 9.36683 13.8522 9.38209C13.8225 9.39736 13.79 9.40617 13.7567 9.40794C13.6007 9.40794 13.5327 9.27994 13.5247 9.13994C13.5047 8.86394 13.4887 8.58794 13.4527 8.31194C13.3452 7.59878 13.0175 6.93705 12.5155 6.41924C12.0134 5.90144 11.3622 5.55345 10.6527 5.42394C10.4367 5.38394 10.2167 5.37194 9.99666 5.35194C9.86066 5.35194 9.67666 5.32794 9.64866 5.15594C9.64412 5.12271 9.6467 5.08889 9.65625 5.05673C9.6658 5.02458 9.6821 4.99483 9.70405 4.96947C9.72601 4.94411 9.75311 4.92372 9.78357 4.90966C9.81402 4.8956 9.84712 4.8882 9.88066 4.88794H10.0767C10.9862 4.90852 11.8605 5.24388 12.5505 5.83688C13.2405 6.42987 13.7036 7.2438 13.8607 8.13994C13.9287 8.46794 13.9487 8.79994 13.9767 9.13194Z" fill="white"/>
<path d="M12.9484 8.70396C12.9484 8.72796 12.9484 8.78396 12.9484 8.83596C12.9333 8.87543 12.9071 8.90972 12.873 8.93471C12.8389 8.9597 12.7983 8.97433 12.7561 8.97686C12.7139 8.9794 12.6719 8.96972 12.6351 8.94898C12.5982 8.92825 12.5681 8.89734 12.5484 8.85996C12.5321 8.79864 12.524 8.73541 12.5244 8.67196C12.5314 8.26069 12.4292 7.85493 12.2284 7.49596C12.0139 7.12576 11.6954 6.82671 11.3124 6.63596C11.07 6.51839 10.811 6.4388 10.5444 6.39996L10.2124 6.35196C10.154 6.34772 10.0998 6.32047 10.0615 6.27621C10.0233 6.23195 10.0042 6.17431 10.0084 6.11596C10.0126 6.05761 10.0399 6.00334 10.0841 5.96508C10.1284 5.92682 10.186 5.90772 10.2444 5.91196C10.6859 5.92799 11.1185 6.03991 11.5124 6.23996C11.8922 6.43205 12.2185 6.71526 12.4621 7.06427C12.7057 7.41328 12.859 7.81721 12.9084 8.23996C12.9084 8.27996 12.9084 8.31996 12.9084 8.35996C12.9084 8.39996 12.9404 8.57196 12.9484 8.70396Z" fill="white"/>
<path d="M11.9156 8.4999C11.9072 8.53943 11.887 8.57549 11.8578 8.60333C11.8285 8.63118 11.7915 8.64951 11.7516 8.6559H11.7196C11.688 8.65643 11.6567 8.65075 11.6274 8.63917C11.5981 8.6276 11.5713 8.61036 11.5487 8.58844C11.526 8.56653 11.5079 8.54037 11.4954 8.51145C11.4828 8.48253 11.4761 8.45142 11.4756 8.4199C11.4671 8.31645 11.4524 8.2136 11.4316 8.1119C11.3896 7.90744 11.2744 7.72536 11.1076 7.5999C11.0291 7.54235 10.9411 7.49903 10.8476 7.4719C10.7276 7.4399 10.6076 7.4479 10.4876 7.4199C10.4301 7.40917 10.3791 7.37638 10.3454 7.32855C10.3118 7.28071 10.2982 7.22162 10.3076 7.1639C10.3182 7.10814 10.3489 7.05821 10.3939 7.02357C10.4388 6.98892 10.4949 6.97196 10.5516 6.9759C10.7288 6.97164 10.9052 7.00281 11.0702 7.06759C11.2353 7.13237 11.3857 7.22945 11.5128 7.35314C11.6398 7.47683 11.7409 7.62464 11.81 7.7879C11.8792 7.95116 11.9151 8.12659 11.9156 8.3039C11.9265 8.36878 11.9265 8.43502 11.9156 8.4999Z" fill="white"/>
<path d="M13.651 12.108C13.4563 12.554 13.1204 12.9236 12.695 13.16C12.5661 13.2164 12.4322 13.2606 12.295 13.292C12.131 13.244 11.979 13.208 11.835 13.152C10.3449 12.5885 9.00391 11.6909 7.91501 10.528C7.30774 9.83659 6.7977 9.06547 6.39901 8.23605C6.20701 7.83605 6.04301 7.43605 5.87901 7.03605C5.83138 6.85167 5.83489 6.65781 5.88916 6.47528C5.94342 6.29275 6.0464 6.12846 6.18701 6.00005C6.40916 5.74569 6.68154 5.54004 6.98701 5.39605C7.09559 5.34082 7.2202 5.32578 7.3388 5.3536C7.45739 5.38142 7.56232 5.4503 7.63501 5.54805C8.017 5.98033 8.35344 6.45081 8.63901 6.95205C8.7313 7.0983 8.76328 7.27464 8.72822 7.44398C8.69316 7.61332 8.59379 7.76247 8.45101 7.86005C8.37501 7.90805 8.30701 7.97205 8.23501 8.02805C8.17267 8.07629 8.11863 8.13439 8.07501 8.20005C8.03953 8.25987 8.01819 8.32701 8.01265 8.39634C8.0071 8.46567 8.01749 8.53535 8.04301 8.60005C8.20324 9.11718 8.47406 9.59327 8.83669 9.99526C9.19932 10.3973 9.64507 10.7156 10.143 10.928C10.3077 11.0162 10.4923 11.0603 10.679 11.056C11.011 11.02 11.115 10.656 11.347 10.468C11.4527 10.3819 11.5834 10.3322 11.7197 10.3264C11.8559 10.3206 11.9904 10.3591 12.103 10.436C12.347 10.592 12.583 10.756 12.815 10.924C13.0479 11.0795 13.271 11.2492 13.483 11.432C13.5876 11.5057 13.6622 11.6146 13.693 11.7387C13.7239 11.8629 13.709 11.994 13.651 12.108Z" fill="white"/>
</svg>
