<svg width="20" height="20" viewBox="0 0 20 20" fill="none" xmlns="http://www.w3.org/2000/svg">
<path d="M2.5 20H17.5C18.163 20 18.7989 19.7366 19.2678 19.2678C19.7366 18.7989 20 18.163 20 17.5V2.5C20 1.83696 19.7366 1.20107 19.2678 0.732233C18.7989 0.263392 18.163 0 17.5 0L2.5 0C1.83696 0 1.20107 0.263392 0.732233 0.732233C0.263392 1.20107 0 1.83696 0 2.5L0 17.5C0 18.163 0.263392 18.7989 0.732233 19.2678C1.20107 19.7366 1.83696 20 2.5 20Z" fill="#1872B8"/>
<path d="M17.1562 4.51601L14.7562 15.896C14.5762 16.696 14.0962 16.9 13.4282 16.52L9.74815 13.808L7.97215 15.516C7.88268 15.6348 7.76564 15.73 7.63114 15.7934C7.49663 15.8568 7.34871 15.8866 7.20015 15.88L7.46015 12.136L14.2802 5.97601C14.5762 5.71601 14.2122 5.57601 13.8202 5.82801L5.41215 11.132L1.78015 10C0.98015 9.74801 0.98015 9.20001 1.94415 8.83201L16.1362 3.36001C16.8002 3.12401 17.3682 3.52001 17.1562 4.51601Z" fill="white"/>
</svg>
