<svg width="78" height="78" viewBox="0 0 78 78" fill="none" xmlns="http://www.w3.org/2000/svg">
<path d="M75.5625 77.9999H62.5625C61.217 77.9999 60.125 76.9079 60.125 75.5624V71.4999H50.375V75.5624C50.375 76.9079 49.283 77.9999 47.9375 77.9999H30.0625C28.717 77.9999 27.625 76.9079 27.625 75.5624V71.4999H17.875V75.5624C17.875 76.9079 16.783 77.9999 15.4375 77.9999H2.4375C1.092 77.9999 0 76.9079 0 75.5624V64.9999H78V75.5624C78 76.9079 76.908 77.9999 75.5625 77.9999Z" fill="#1872B8"/>
<path d="M51.999 0H42.249V6.5C42.249 8.294 40.793 9.75 38.999 9.75C37.205 9.75 35.749 8.294 35.749 6.5V0H25.999C24.205 0 22.749 1.456 22.749 3.25V22.75C22.749 24.544 24.205 26 25.999 26H51.999C53.793 26 55.249 24.544 55.249 22.75V3.25C55.249 1.456 53.793 0 51.999 0Z" fill="#1872B8"/>
<path d="M32.499 32.4999H22.749V38.9999C22.749 40.7939 21.293 42.2499 19.499 42.2499C17.705 42.2499 16.249 40.7939 16.249 38.9999V32.4999H6.49902C4.70502 32.4999 3.24902 33.9559 3.24902 35.7499V55.2499C3.24902 57.0439 4.70502 58.4999 6.49902 58.4999H32.499C34.293 58.4999 35.749 57.0439 35.749 55.2499V35.7499C35.749 33.9559 34.293 32.4999 32.499 32.4999Z" fill="#1872B8"/>
<path d="M71.499 32.4999H61.749V38.9999C61.749 40.7939 60.293 42.2499 58.499 42.2499C56.705 42.2499 55.249 40.7939 55.249 38.9999V32.4999H45.499C43.705 32.4999 42.249 33.9559 42.249 35.7499V55.2499C42.249 57.0439 43.705 58.4999 45.499 58.4999H71.499C73.293 58.4999 74.749 57.0439 74.749 55.2499V35.7499C74.749 33.9559 73.293 32.4999 71.499 32.4999Z" fill="#1872B8"/>
</svg>
