<svg width="83" height="78" viewBox="0 0 83 78" fill="none" xmlns="http://www.w3.org/2000/svg">
<path d="M38.1987 21.794H55.5194L35.5605 2.40869V18.4676C35.5603 20.0736 36.5927 21.794 38.1987 21.794Z" fill="#1872B8"/>
<path d="M32.1195 18.4676V1.147H4.93407C2.40744 0.955985 0.204209 2.84964 0.0129774 5.37649C0.00112151 5.53413 -0.00261092 5.69221 0.00178017 5.85007V72.3795C0.00178017 75.2471 2.06647 78 4.93407 78H51.9635C54.9521 77.8209 57.3002 75.3731 57.3547 72.3795V25.2354H38.1988C34.7577 25.2354 32.1195 21.9089 32.1195 18.4676ZM9.52232 35.5589H29.0223C29.9725 35.5589 30.7429 36.3293 30.7429 37.2795C30.7429 38.2297 29.9725 39.0002 29.0223 39.0002H9.52232C8.57209 39.0002 7.80167 38.2297 7.80167 37.2795C7.80167 36.3293 8.57209 35.5589 9.52232 35.5589ZM46.2283 66.5294H9.52232C8.57209 66.5294 7.80167 65.759 7.80167 64.8088C7.80167 63.8585 8.57209 63.0881 9.52232 63.0881H46.2283C47.1785 63.0881 47.949 63.8585 47.949 64.8088C47.949 65.759 47.1785 66.5294 46.2283 66.5294ZM47.949 51.0443C47.949 51.9945 47.1785 52.7649 46.2283 52.7649H9.52232C8.57209 52.7649 7.80167 51.9945 7.80167 51.0443C7.80167 50.094 8.57209 49.3236 9.52232 49.3236H46.2283C47.1785 49.3236 47.949 50.094 47.949 51.0443Z" fill="#1872B8"/>
<path d="M78.8053 74.9029L81.7875 68.8235H75.9375L78.8053 74.9029Z" fill="#1872B8"/>
<path d="M76.0516 6.88239H74.5604V8.14416H70.8899C70.3533 8.24779 69.8679 8.53102 69.5135 8.94707C69.1051 9.29221 68.8564 9.78973 68.8252 10.3235V29.9382C68.8252 30.8885 69.5956 31.6589 70.5458 31.6589C71.4961 31.6589 72.2665 30.8885 72.2665 29.9382V12.0441H74.5604V28.6765H82.5897V6.88239H76.0516Z" fill="#1872B8"/>
<path d="M81.0987 2.40895C81.1031 1.85721 80.8982 1.32435 80.5252 0.917738C80.0977 0.393661 79.4779 0.0630121 78.8046 0C77.5428 0 76.8545 1.49121 76.8545 2.75299V4.58825H81.0987V2.40895Z" fill="#1872B8"/>
<path d="M82.5899 32.1177H74.5605V34.4119H82.5899V32.1177Z" fill="#1872B8"/>
<path d="M82.5899 37.8529H74.5605V65.3824H82.5899V37.8529Z" fill="#1872B8"/>
</svg>
