<svg width="78" height="78" viewBox="0 0 78 78" fill="none" xmlns="http://www.w3.org/2000/svg">
<path d="M43.0625 58.5H21.9375C20.592 58.5 19.5 57.408 19.5 56.0625V2.4375C19.5 1.092 20.592 0 21.9375 0H43.0625C44.408 0 45.5 1.092 45.5 2.4375V56.0625C45.5 57.408 44.408 58.5 43.0625 58.5Z" fill="#1872B8"/>
<path d="M75.5635 58.5H52.8135C51.468 58.5 50.376 57.408 50.376 56.0625V36.5625C50.376 35.217 51.468 34.125 52.8135 34.125H75.5635C76.909 34.125 78.001 35.217 78.001 36.5625V56.0625C78.001 57.408 76.909 58.5 75.5635 58.5Z" fill="#1872B8"/>
<path d="M72.3135 29.25H57.6885C56.343 29.25 55.251 28.158 55.251 26.8125V15.4375C55.251 14.092 56.343 13 57.6885 13H72.3135C73.659 13 74.751 14.092 74.751 15.4375V26.8125C74.751 28.158 73.659 29.25 72.3135 29.25Z" fill="#1872B8"/>
<path d="M74.5225 68.25L17.875 68.2403C12.4995 68.2403 8.125 63.8658 8.125 58.4903V26H3.25C1.45275 26 0 24.544 0 22.75C0 20.956 1.45275 19.5 3.25 19.5H8.125C11.7098 19.5 14.625 22.4153 14.625 26V58.4903C14.625 60.281 16.081 61.7403 17.875 61.7403L74.5225 61.75C76.3198 61.75 77.7725 63.206 77.7725 65C77.7725 66.794 76.3133 68.25 74.5225 68.25Z" fill="#1872B8"/>
<path d="M29.249 75.5624C31.4927 75.5624 33.3115 73.7436 33.3115 71.4999C33.3115 69.2563 31.4927 67.4374 29.249 67.4374C27.0054 67.4374 25.1865 69.2563 25.1865 71.4999C25.1865 73.7436 27.0054 75.5624 29.249 75.5624Z" fill="#1872B8"/>
<path d="M29.249 77.9999C25.6643 77.9999 22.749 75.0847 22.749 71.4999C22.749 67.9152 25.6643 64.9999 29.249 64.9999C32.8338 64.9999 35.749 67.9152 35.749 71.4999C35.749 75.0847 32.8338 77.9999 29.249 77.9999ZM29.249 69.8749C28.3553 69.8749 27.624 70.6029 27.624 71.4999C27.624 72.3969 28.3553 73.1249 29.249 73.1249C30.1428 73.1249 30.874 72.3969 30.874 71.4999C30.874 70.6029 30.1428 69.8749 29.249 69.8749Z" fill="#1872B8"/>
<path d="M61.751 75.5624C63.9946 75.5624 65.8135 73.7436 65.8135 71.4999C65.8135 69.2563 63.9946 67.4374 61.751 67.4374C59.5073 67.4374 57.6885 69.2563 57.6885 71.4999C57.6885 73.7436 59.5073 75.5624 61.751 75.5624Z" fill="#1872B8"/>
<path d="M61.751 77.9999C58.1662 77.9999 55.251 75.0847 55.251 71.4999C55.251 67.9152 58.1662 64.9999 61.751 64.9999C65.3357 64.9999 68.251 67.9152 68.251 71.4999C68.251 75.0847 65.3357 77.9999 61.751 77.9999ZM61.751 69.8749C60.8572 69.8749 60.126 70.6029 60.126 71.4999C60.126 72.3969 60.8572 73.1249 61.751 73.1249C62.6447 73.1249 63.376 72.3969 63.376 71.4999C63.376 70.6029 62.6447 69.8749 61.751 69.8749Z" fill="#1872B8"/>
</svg>
