<svg width="81" height="78" viewBox="0 0 81 78" fill="none" xmlns="http://www.w3.org/2000/svg">
<path d="M0.619264 64.3457L0.495732 64.568C-0.0736045 65.7516 -0.155957 67.1113 0.26637 68.3549C0.688697 69.5985 1.582 70.6268 2.75434 71.2189C3.92668 71.811 5.2845 71.9197 6.53606 71.5214C7.78761 71.1232 8.83303 70.25 9.44767 69.0893L21.2985 47.1912C27.0405 48.6174 33.1073 47.8676 38.3293 45.0864C43.5514 42.3052 47.5591 37.6894 49.5799 32.1287C51.6008 26.568 51.4917 20.4561 49.2738 14.971C47.0558 9.48595 42.886 5.01604 37.5681 2.42287C32.2501 -0.170299 26.1605 -0.703161 20.473 0.926994C14.7855 2.55715 9.90271 6.23492 6.76585 11.2514C3.62899 16.2679 2.46009 22.268 3.48446 28.0952C4.50883 33.9223 7.65396 39.164 12.3136 42.8099L0.619264 64.3457ZM31.4858 38.7499C28.5609 39.6269 25.4417 39.6171 22.5224 38.7217C19.6032 37.8263 17.0149 36.0855 15.0849 33.7193C13.1548 31.3531 11.9696 28.4679 11.6791 25.4282C11.3886 22.3886 12.0058 19.331 13.4527 16.6421C14.8996 13.9532 17.1112 11.7536 19.808 10.3214C22.5049 8.88922 25.5657 8.28876 28.6037 8.5959C31.6418 8.90305 34.5205 10.104 36.8761 12.047C39.2317 13.99 40.9583 16.5877 41.8377 19.5118C43.0133 23.4357 42.5833 27.6657 40.6423 31.2728C38.7014 34.8799 35.4081 37.5691 31.4858 38.7499Z" fill="#1872B8"/>
<path d="M63.843 30.8686L40.5943 42.81L34.1377 39.9193L39.8119 34.0475L54.191 26.9485C54.447 26.8215 54.7288 26.7554 55.0146 26.7554C55.3003 26.7554 55.5822 26.8215 55.8381 26.9485L63.843 30.8686Z" fill="#1872B8"/>
<path d="M78.7245 38.2228L55.0641 49.9419L46.2027 45.5771L44.918 44.9265L68.1996 33.0262L69.4761 33.6768L78.7245 38.2228Z" fill="#1872B8"/>
<path d="M53.1696 53.3183V77.9835L30.4809 66.1574C30.1643 65.9903 29.899 65.7405 29.7134 65.4344C29.5277 65.1284 29.4286 64.7776 29.4268 64.4197V41.5992L39.0375 46.3346V54.6524C39.0375 55.1614 39.2397 55.6494 39.5996 56.0093C39.9594 56.3691 40.4475 56.5713 40.9564 56.5713C41.4653 56.5713 41.9534 56.3691 42.3132 56.0093C42.6731 55.6494 42.8753 55.1614 42.8753 54.6524V48.2535L44.16 48.8794L53.1696 53.3183Z" fill="#1872B8"/>
<path d="M80.6663 41.624L57.0059 53.2937V78L80.6663 65.5892V41.624Z" fill="#1872B8"/>
</svg>
