<svg width="92" height="78" viewBox="0 0 92 78" fill="none" xmlns="http://www.w3.org/2000/svg">
<path fill-rule="evenodd" clip-rule="evenodd" d="M91.8203 55.3996C91.2419 53.8776 88.6698 52.8579 85.7324 53.0862C84.9447 53.1722 84.1656 53.3249 83.4038 53.5428C79.7967 54.6082 61.4722 60.6504 61.2896 60.833L60.8787 60.8787L61.1222 61.1222C63.1921 62.9029 64.1661 64.7597 63.6487 66.2512C63.0551 68.5037 60.0416 69.7974 55.0952 70.1627C49.6427 70.4045 44.1821 69.9235 38.8558 68.732C39.6081 68.724 40.3602 68.7596 41.1083 68.8386C45.7808 68.8386 50.1031 68.9451 53.5276 68.7168C58.8088 68.3668 61.32 67.1948 61.6701 65.2315C61.868 63.8922 61.107 62.7964 59.2958 61.944C57.4847 61.0917 53.208 60.2851 49.2204 59.585C46.8452 59.2658 44.488 58.8239 42.1585 58.2609C35.8271 56.5106 29.3283 54.7756 21.7337 55.217C20.5618 55.3692 19.3138 55.43 18.2332 55.6888C12.328 56.6525 6.4878 57.9792 0.745764 59.6611H0L8.70565 72.4456C10.2685 72.0892 11.8557 71.8501 13.4542 71.7303C15.4266 71.5424 17.4145 71.5935 19.3746 71.8825C21.8098 72.3391 27.8672 73.648 33.6963 74.9264C39.5255 76.2049 45.4307 77.4681 47.5919 77.8334C48.8376 78.0019 50.0972 78.0427 51.3512 77.9551C54.4872 77.4452 57.4981 76.3452 60.2242 74.7133C61.1526 74.135 62.081 73.7241 62.9181 73.1914L89.1873 59.448C92.1246 57.7434 92.1399 56.2367 91.8203 55.3996ZM33.7877 0H61.1831C62.7844 0.0200188 64.3134 0.670244 65.4387 1.80978C66.564 2.94931 67.195 4.48636 67.1948 6.08787V47.7441C67.1751 49.3324 66.5354 50.8501 65.4122 51.9732C64.289 53.0964 62.7714 53.7361 61.1831 53.7559H33.7877C32.1994 53.7361 30.6817 53.0964 29.5585 51.9732C28.4353 50.8501 27.7956 49.3324 27.7759 47.7441V6.08787C27.7758 4.48636 28.4067 2.94931 29.532 1.80978C30.6573 0.670244 32.1863 0.0200188 33.7877 0V0ZM38.0492 43.4369C38.1954 43.4458 38.3418 43.4236 38.4788 43.3716C38.6158 43.3197 38.7402 43.2393 38.8438 43.1357C38.9473 43.0321 39.0278 42.9077 39.0797 42.7708C39.1316 42.6338 39.1539 42.4873 39.145 42.3411C39.145 41.4736 38.658 41.3366 37.7904 41.3366H36.9381V44.3806H37.5165V43.3761L38.0492 43.4369ZM56.3128 32.1592C54.8007 33.6587 52.9384 34.7572 50.8946 35.3553C51.9496 33.8444 52.7801 32.1885 53.3602 30.4393H57.7434C57.2836 31.0719 56.7747 31.6673 56.2215 32.22L56.3128 32.1592ZM45.172 35.5836C43.941 34.0359 42.9695 32.2985 42.2955 30.4393H47.0136V35.8423C46.385 35.8308 45.7586 35.7646 45.1415 35.6445L45.172 35.5836ZM35.1422 23.8797H40.256C40.296 25.7646 40.5773 27.6366 41.0931 29.4501H36.6642C35.7119 27.7445 35.1895 25.8325 35.1422 23.8797ZM47.9876 16.422V11.019C48.4977 11.0255 49.0065 11.0713 49.5096 11.156C50.7754 12.7303 51.759 14.512 52.4165 16.422H47.9876ZM52.7057 17.3504C53.2566 19.1578 53.5587 21.0319 53.6037 22.9208H47.9572V17.3504H52.7057ZM47.044 16.422H42.3259C42.9846 14.5435 43.9459 12.7852 45.172 11.2169C45.7879 11.0893 46.415 11.023 47.044 11.019V16.422ZM47.044 17.3504V22.9208H41.0931C41.1256 21.0319 41.4227 19.1568 41.9758 17.3504H47.044ZM40.256 22.9208H35.1118C35.1465 20.9661 35.6697 19.0512 36.6337 17.3504H41.0931C40.5627 19.1606 40.281 21.0346 40.256 22.9208ZM41.154 23.8797H47.044V29.4501H41.9758C41.4373 27.6403 41.1405 25.7673 41.0931 23.8797H41.154ZM47.9572 30.4393H52.3861C51.7405 32.3547 50.7559 34.1384 49.4791 35.7053C48.9761 35.7901 48.4673 35.8358 47.9572 35.8423V30.4393ZM47.9572 29.5109V23.8797H53.5732C53.5232 25.7659 53.2317 27.6379 52.7057 29.4501L47.9572 29.5109ZM54.456 23.9405H59.9046C59.8166 25.9183 59.264 27.8475 58.2913 29.5718H53.7254C54.2458 27.7602 54.5171 25.8862 54.5321 24.0014L54.456 23.9405ZM54.456 22.9817C54.4459 21.0943 54.164 19.2183 53.6189 17.4113H58.3218C59.2513 19.1261 59.7722 21.0325 59.8437 22.9817H54.456ZM57.7434 16.4829H53.3602C52.7603 14.7174 51.9204 13.0427 50.8641 11.5061C52.9056 12.0831 54.7757 13.1487 56.3128 14.6109C56.859 15.1808 57.3674 15.7858 57.8347 16.422L57.7434 16.4829ZM38.7341 14.6109C40.1348 13.2016 41.8591 12.1566 43.7565 11.5669C42.7181 13.0567 41.9076 14.6931 41.3518 16.422H37.2273C37.6913 15.7832 38.1999 15.178 38.7493 14.6109H38.7341ZM37.2273 30.4393H41.3214C41.9007 32.1642 42.7205 33.7986 43.7565 35.2944C41.8591 34.7048 40.1348 33.6597 38.7341 32.2505C38.1691 31.7087 37.6592 31.1123 37.2121 30.4698L37.2273 30.4393ZM58.063 41.9454V41.3975H55.7496V41.9454H56.6172V44.4414H57.1955V41.8845L58.063 41.9454ZM55.6735 44.4414L54.943 43.1478C55.1073 43.062 55.2451 42.9331 55.3417 42.7749C55.4382 42.6167 55.4898 42.4351 55.4909 42.2498C55.4909 41.5649 55.0039 41.3366 54.4408 41.3366H53.2688V44.3806H53.8472V43.2239H54.4255L55.0495 44.3806L55.6735 44.4414ZM54.2886 41.8236C54.7756 41.8236 54.8973 41.9911 54.8973 42.2802C54.8973 42.5694 54.7756 42.7673 54.2581 42.7673H53.8624V41.8236H54.2886ZM51.2446 44.4871C51.5676 44.5054 51.8886 44.4262 52.166 44.2597C52.4434 44.0932 52.6644 43.8472 52.8002 43.5536C52.936 43.26 52.9803 42.9323 52.9276 42.6131C52.8748 42.294 52.7272 41.998 52.5041 41.7638C52.281 41.5295 51.9926 41.3677 51.6764 41.2995C51.3602 41.2312 51.0308 41.2595 50.7309 41.3809C50.431 41.5022 50.1745 41.7109 49.9947 41.9798C49.8149 42.2487 49.7201 42.5655 49.7227 42.889C49.7123 43.0952 49.7441 43.3013 49.8159 43.4949C49.8878 43.6884 49.9982 43.8653 50.1406 44.0148C50.283 44.1642 50.4543 44.2832 50.6441 44.3644C50.8339 44.4456 51.0382 44.4873 51.2446 44.4871ZM51.2446 41.8236C51.8382 41.8236 52.1274 42.2802 52.1274 42.889C52.1274 43.4978 51.8382 43.9544 51.2446 43.9544C50.6511 43.9544 50.3162 43.513 50.3162 42.889C50.3162 42.265 50.6358 41.8236 51.2446 41.8236ZM48.3985 43.4369C48.5441 43.4461 48.69 43.4239 48.8263 43.3718C48.9625 43.3198 49.0861 43.2391 49.1885 43.1352C49.2909 43.0313 49.3699 42.9067 49.42 42.7697C49.4702 42.6327 49.4903 42.4866 49.4791 42.3411C49.4791 41.4736 49.0225 41.3366 48.155 41.3366H47.2723V44.3806H47.8506V43.3761L48.3985 43.4369ZM48.3072 41.8236C48.7943 41.8236 48.916 41.9606 48.916 42.3411C48.916 42.7216 48.7334 42.889 48.3377 42.889H47.8506V41.8236H48.3072ZM45.659 44.4871C46.7244 44.4871 46.8766 43.9544 46.8766 43.6043C46.8766 42.9195 46.2982 42.7368 45.8112 42.5998C45.3242 42.4629 45.172 42.402 45.172 42.128C45.172 41.8541 45.522 41.8236 45.7503 41.8236C46.0675 41.8257 46.3761 41.9268 46.6331 42.1128V41.5345C46.3411 41.3538 46.0021 41.2637 45.659 41.2757C44.8219 41.2757 44.5327 41.7932 44.5327 42.2194C44.5327 42.6455 45.0198 42.9195 45.4612 43.0564C45.9025 43.1934 46.1765 43.3152 46.1765 43.6348C46.1765 43.9544 45.9482 43.9544 45.6286 43.9544C45.2753 43.9733 44.9278 43.8593 44.6545 43.6348V44.2588C44.9628 44.4236 45.3098 44.5025 45.659 44.4871ZM43.1021 44.4871C44.137 44.4871 44.3045 43.9544 44.3045 43.6043C44.3045 42.9195 43.7109 42.7368 43.2391 42.5998C42.7673 42.4629 42.6151 42.402 42.6151 42.128C42.6151 41.8541 42.9347 41.8236 43.1934 41.8236C43.5106 41.8257 43.8192 41.9268 44.0762 42.1128V41.5345C43.7842 41.3538 43.4452 41.2637 43.1021 41.2757C42.265 41.2757 41.9758 41.7932 41.9758 42.2194C41.9758 42.6455 42.4324 42.9195 42.9042 43.0564C43.3761 43.1934 43.6196 43.3152 43.6196 43.6348C43.6196 43.9544 43.3913 43.9544 43.0717 43.9544C42.7176 43.9796 42.3679 43.8648 42.0976 43.6348L42.0063 44.2588C42.3265 44.4208 42.6825 44.4994 43.0412 44.4871H43.1021ZM41.8693 44.4871L40.7431 41.4432H40.2256L39.1145 44.4871H39.7081L39.9669 43.7413H41.0018L41.2605 44.4871H41.8693ZM40.8039 43.1934H40.1647L40.4843 42.2955L40.8039 43.1934ZM38.0187 41.8693C38.4753 41.8693 38.6123 42.0063 38.6123 42.3868C38.6123 42.7673 38.4449 42.9347 38.0187 42.9347H37.5621V41.8693H38.0187Z" fill="#1872B8"/>
</svg>
