<svg width="80" height="80" viewBox="0 0 80 80" fill="none" xmlns="http://www.w3.org/2000/svg">
<path d="M60.12 51.4219H40.5673C35.8396 51.4219 33.1903 54.7324 33.1903 58.2539C33.1903 61.5041 35.4368 65.0859 40.5673 65.0859H60.12V51.4219Z" fill="#669DF3"/>
<path d="M60.12 65.0752C63.8349 65.0752 66.8465 62.0164 66.8465 58.2432C66.8465 54.4699 63.8349 51.4111 60.12 51.4111C56.405 51.4111 53.3935 54.4699 53.3935 58.2432C53.3935 62.0164 56.405 65.0752 60.12 65.0752Z" fill="#1A73E8"/>
<path d="M39.9297 33.2046H20.377C15.6492 33.2046 13 36.5151 13 40.0388C13 43.289 15.2465 46.8708 20.377 46.8708H39.9297V33.2046Z" fill="#669DF3"/>
<path d="M39.9297 46.8706C43.6446 46.8706 46.6562 43.8118 46.6562 40.0386C46.6562 36.2654 43.6446 33.2065 39.9297 33.2065C36.2147 33.2065 33.2032 36.2654 33.2032 40.0386C33.2032 43.8118 36.2147 46.8706 39.9297 46.8706Z" fill="#1A73E8"/>
<path d="M60.12 15H40.5673C35.8396 15 33.1903 18.3105 33.1903 21.832C33.1903 25.0822 35.4368 28.6641 40.5673 28.6641H60.12V15Z" fill="#669DF3"/>
<path d="M60.12 28.6641C63.8349 28.6641 66.8465 25.6053 66.8465 21.832C66.8465 18.0588 63.8349 15 60.12 15C56.405 15 53.3935 18.0588 53.3935 21.832C53.3935 25.6053 56.405 28.6641 60.12 28.6641Z" fill="#1A73E8"/>
</svg>
