<svg width="145" height="80" viewBox="0 0 145 80" fill="none" xmlns="http://www.w3.org/2000/svg">
<g clip-path="url(#clip0)">
<path d="M13.6619 31.7565C13.5181 31.6128 13.5181 31.6128 13.3744 31.6128C13.2306 31.6128 13.2306 31.6128 13.0868 31.6128C12.2243 32.1878 11.218 34.9192 10.3555 38.3693H11.218H15.962C15.5307 36.788 15.0994 35.3505 14.8119 34.3442C14.2369 32.7628 13.8056 32.0441 13.6619 31.7565Z" fill="#00A7CF"/>
<path d="M15.3871 25C7.19295 25 0.436401 31.6128 0.436401 39.9507C0.436401 48.2885 7.19295 54.9013 15.3871 54.9013C23.5812 54.9013 30.3377 48.2885 30.3377 39.9507C30.3377 31.6128 23.7249 25 15.3871 25ZM26.1688 40.2382C25.8813 40.3819 25.7375 40.3819 25.5938 40.3819H18.5497C18.5497 40.6694 18.6935 40.8132 18.6935 41.2445C19.1247 42.9695 20.131 47.426 21.2811 47.426C22.1436 47.426 22.5749 46.1322 23.5812 43.4008C23.7249 42.9695 23.8687 42.5383 24.1562 41.9632V41.8195C24.1562 41.6757 24.4437 41.532 24.5875 41.6757C24.7312 41.6757 24.875 41.9632 24.7312 42.107V42.2508C24.5875 42.5383 24.5875 42.9695 24.4437 43.5446C23.8687 45.8447 23.0061 49.4386 20.8498 49.4386C19.4122 49.4386 18.5497 47.1385 18.2622 46.1322C17.5434 44.2633 17.1121 42.3945 16.5371 40.5257H10.0681L8.77427 44.8384C8.63051 45.1259 8.19924 45.2696 7.76797 44.9821C7.62422 44.8384 7.48046 44.6946 7.48046 44.4071L7.62422 43.9758C7.76797 42.8258 8.05549 41.6757 8.343 40.5257H5.61163C5.0366 40.3819 4.74909 39.9507 4.74909 39.5194C4.74909 39.0881 5.0366 38.6568 5.61163 38.5131H5.89914H6.0429H8.91802C10.3556 32.6191 12.0807 29.744 13.8057 29.744C15.8183 29.744 17.2559 34.2004 18.4059 38.6568C20.8498 38.6568 23.4374 38.8006 25.8813 38.9444H26.025H26.1688C26.6 39.0881 26.8876 39.5194 26.7438 39.9507C26.4563 39.9507 26.3125 40.0944 26.1688 40.2382Z" fill="#00A7CF"/>
<path d="M38.6755 43.6882L37.5255 46.5634H34.0753L40.6881 31.3252H43.707L50.176 46.7071H46.7259L45.5758 43.832H38.6755V43.6882ZM42.1257 35.2066L39.8256 40.8131H44.282L42.1257 35.2066Z" fill="#00A7CF"/>
<path d="M69.7272 40.8129V46.7069H66.5645V41.1004C66.5645 39.3754 65.702 38.5128 64.2644 38.5128C63.5456 38.5128 62.8268 38.8003 62.2518 39.6629C62.2518 40.0941 62.3956 40.3817 62.3956 40.8129V46.7069H59.2329V41.1004C59.2329 39.3754 58.3704 38.5128 56.9328 38.5128C56.3578 38.5128 55.639 38.9441 55.064 39.6629V46.7069H51.9014V35.9252H55.064V36.644C55.7828 36.069 56.5016 35.6377 57.6516 35.6377C59.0892 35.6377 60.2392 36.2127 61.1018 37.219C62.2518 36.2127 63.2581 35.6377 64.9832 35.6377C67.5708 35.6377 69.7272 37.6503 69.7272 40.8129Z" fill="#00A7CF"/>
<path d="M83.3838 41.2442C83.3838 44.4068 80.9399 46.8507 78.0648 46.8507C76.9148 46.8507 75.9085 46.5632 75.0459 45.9882V51.7384H71.8833V35.9252H75.0459V36.5002C75.9085 35.9252 76.9148 35.6377 78.0648 35.6377C80.9399 35.6377 83.3838 38.0816 83.3838 41.2442ZM80.2212 41.2442C80.2212 39.6629 79.0711 38.2253 77.4898 38.2253C76.6273 38.2253 75.621 38.5128 74.9022 39.5191V42.9693C75.621 43.8318 76.4835 44.2631 77.4898 44.2631C79.0711 44.2631 80.2212 42.8255 80.2212 41.2442Z" fill="#00A7CF"/>
<path d="M88.2714 46.5637H85.1088V30.7505H88.2714V46.5637Z" fill="#00A7CF"/>
<path d="M91.0029 32.1877C91.0029 31.1814 91.8655 30.3188 92.8718 30.3188C93.8781 30.3188 94.7406 31.0376 94.7406 32.1877C94.7406 33.194 93.8781 33.9128 92.8718 33.9128C91.8655 33.9128 91.0029 33.194 91.0029 32.1877ZM94.4531 35.9253V46.7071H91.2904V35.9253H94.4531Z" fill="#00A7CF"/>
<path d="M105.81 46.4196C104.516 46.8508 103.941 46.8508 102.935 46.8508C100.347 46.8508 98.6219 44.982 98.6219 42.2506V38.513H96.3218V35.9254H98.6219V32.0439H101.785V35.9254H105.666V38.513H101.785V42.2506C101.785 43.4007 102.503 43.9757 103.653 43.9757C104.228 43.9757 104.803 43.832 105.522 43.6882L105.81 46.4196Z" fill="#00A7CF"/>
<path d="M118.316 46.5633H115.154V45.8445C114.291 46.5633 113.285 46.9945 112.135 46.9945C109.26 46.9945 107.391 44.9819 107.391 41.8193V35.9253H110.554V41.5318C110.554 43.2569 111.416 44.1194 112.854 44.1194C113.573 44.1194 114.435 43.6881 115.154 42.8256V35.9253H118.316V46.5633Z" fill="#00A7CF"/>
<path d="M131.542 46.5637H128.379V45.9887C127.517 46.5637 126.511 46.8512 125.361 46.8512C122.342 46.8512 120.042 44.4073 120.042 41.2447C120.042 38.0821 122.485 35.6382 125.361 35.6382C126.511 35.6382 127.517 35.9257 128.379 36.5007V30.7505H131.542V46.5637ZM128.379 42.9698V39.5196C127.661 38.6571 126.798 38.2258 125.792 38.2258C124.211 38.2258 123.061 39.6634 123.061 41.1009C123.061 42.6823 124.211 44.1198 125.792 44.1198C126.798 44.2636 127.661 43.9761 128.379 42.9698Z" fill="#00A7CF"/>
<path d="M144.193 42.1069H136.286C136.573 43.4007 137.292 44.407 139.017 44.407C139.88 44.407 140.455 44.1195 140.886 43.5445H144.193C143.618 45.5571 141.605 46.9946 139.017 46.9946C135.567 46.9946 133.267 44.5508 133.267 41.2444C133.267 37.938 135.567 35.4941 139.017 35.4941C142.036 35.4941 144.336 37.6505 144.336 40.9569C144.193 41.3882 144.193 41.6757 144.193 42.1069ZM136.286 40.2381H141.174C141.03 38.9443 140.167 38.2255 138.874 38.2255C137.292 38.0818 136.573 39.0881 136.286 40.2381Z" fill="#00A7CF"/>
</g>
<defs>
<clipPath id="clip0">
<rect width="143.9" height="80" fill="white" transform="translate(0.436401)"/>
</clipPath>
</defs>
</svg>
