<svg width="151" height="80" viewBox="0 0 151 80" fill="none" xmlns="http://www.w3.org/2000/svg">
<g clip-path="url(#clip0)">
<path fill-rule="evenodd" clip-rule="evenodd" d="M56.0357 38.4444L53.2973 37.8503C51.9271 37.5532 51.1727 36.7081 51.1727 35.4696C51.1727 33.8957 52.5702 32.7083 54.4236 32.7083C56.9883 32.7083 57.7456 34.5952 57.9172 35.1742C57.9716 35.3667 58.1054 35.5299 58.2853 35.6198C58.4611 35.7098 58.6577 35.7232 58.846 35.6575L60.2894 35.1483C60.4627 35.0868 60.606 34.9614 60.69 34.7978C60.7739 34.6342 60.7923 34.4447 60.7413 34.268C60.3689 32.9585 59.0008 29.9126 54.3609 29.9126C50.9259 29.9126 48.0265 32.5401 48.0265 35.6508C48.0265 38.3243 49.7808 40.2991 52.7208 40.9392L55.3315 41.5082C56.903 41.8388 57.8418 42.7969 57.8418 44.0688C57.8418 45.6921 56.5072 46.7004 54.3567 46.7004C51.8296 46.7004 50.6121 45.0436 50.315 43.4914C50.2963 43.3913 50.2564 43.2964 50.1982 43.2128C50.1399 43.1293 50.0646 43.0591 49.9772 43.0069C49.8898 42.9547 49.7922 42.9216 49.6911 42.91C49.5899 42.8983 49.4874 42.9082 49.3904 42.9391L47.8047 43.4454C47.6381 43.4961 47.496 43.6066 47.4057 43.7556C47.3153 43.9046 47.2831 44.0816 47.3152 44.2529C47.8089 46.8259 49.923 49.5706 54.386 49.5706C58.1573 49.5706 61.0015 47.1146 61.0015 43.8596C61.0015 41.1108 59.1874 39.136 56.0227 38.4373L56.0357 38.4444ZM72.2361 40.9476C72.2445 41.002 72.2193 41.0438 72.2026 41.0606C72.1888 41.0777 72.1712 41.0915 72.1513 41.1009C72.1314 41.1103 72.1096 41.1151 72.0876 41.1149H66.272C66.2488 41.115 66.226 41.1097 66.2052 41.0995C66.1843 41.0894 66.1661 41.0746 66.1519 41.0564C66.1386 41.0411 66.1291 41.0229 66.124 41.0033C66.1189 40.9837 66.1184 40.9632 66.1226 40.9434C66.3883 39.7309 67.428 38.5084 69.1517 38.5084C70.8449 38.5084 71.9968 39.4163 72.2332 40.9405L72.2361 40.9476ZM69.1291 35.793C66.0665 35.793 62.8993 38.3536 62.8993 42.6421C62.8993 44.7089 63.5771 46.4745 64.8616 47.7422C66.0515 48.9179 67.6773 49.5664 69.4387 49.5664C72.062 49.5664 74.1875 48.1958 75.1246 45.9013C75.2 45.713 75.1958 45.5038 75.1146 45.3197C75.0746 45.2304 75.0166 45.1503 74.9442 45.0844C74.8719 45.0184 74.7868 44.9681 74.6941 44.9365L73.4139 44.493C73.2425 44.4342 73.0553 44.4421 72.8896 44.5152C72.7238 44.5884 72.5918 44.7213 72.5198 44.8876C71.9675 46.1887 70.9299 46.8456 69.4362 46.8456C67.6288 46.8456 66.2523 45.6281 66.0138 43.8152C66.0108 43.7949 66.0124 43.7742 66.0186 43.7547C66.0248 43.7351 66.0353 43.7172 66.0494 43.7023C66.0661 43.6813 66.1038 43.6479 66.1623 43.6479H74.6489C75.0297 43.6479 75.3476 43.3508 75.3686 42.9718C75.3769 42.8504 75.3811 42.7165 75.3811 42.5843C75.3811 38.3921 72.9837 35.7884 69.1262 35.7884L69.1291 35.793ZM83.5803 45.9683C81.5427 45.9683 80.275 44.5541 80.275 42.2781C80.275 40.0355 81.572 38.5862 83.5803 38.5862C85.5258 38.5862 86.8328 40.0673 86.8328 42.2764C86.8328 44.483 85.5249 45.9666 83.5799 45.9666L83.5803 45.9683ZM89.0109 36.178H87.4755C87.078 36.178 86.7537 36.5014 86.7537 36.9185C86.7536 36.948 86.7448 36.9768 86.7284 37.0014C86.7121 37.0259 86.6889 37.0451 86.6617 37.0566C86.6324 37.0691 86.5738 37.0859 86.5211 37.0357C85.7304 36.3127 84.6175 35.9458 83.2159 35.9458C79.742 35.9458 77.2203 38.6109 77.2203 42.2802C77.2203 45.9335 79.742 48.5853 83.2159 48.5853C84.5003 48.5853 85.6634 48.1635 86.4918 47.3979C86.5462 47.3477 86.6048 47.3602 86.6341 47.3728C86.655 47.3811 86.7261 47.4188 86.7261 47.5108V48.038C86.7261 50.5902 85.609 51.7805 83.2159 51.7805C81.6971 51.7805 80.5047 50.8391 80.1825 49.384C80.1407 49.1957 80.0277 49.0367 79.8646 48.935C79.7014 48.8334 79.5047 48.8012 79.3165 48.843L77.8086 49.1903C77.6234 49.2343 77.4629 49.3493 77.3617 49.5105C77.2604 49.6717 77.2265 49.8662 77.2672 50.0521C77.8069 52.6964 80.1984 54.4745 83.2125 54.4745C85.4593 54.4745 87.1705 53.7904 88.3001 52.4411C89.2331 51.3257 89.7268 49.7773 89.7268 47.9631V36.9106C89.7268 36.5131 89.4047 36.1909 89.0072 36.1909L89.0109 36.178ZM107.265 35.8165C105.567 35.8165 104.185 36.4574 103.268 37.6741C103.252 37.6966 103.231 37.7148 103.207 37.7268C103.182 37.7388 103.155 37.7443 103.128 37.7427C103.108 37.743 103.088 37.7379 103.07 37.728C103.052 37.7181 103.038 37.7037 103.027 37.6863C102.259 36.498 100.932 35.8161 99.3874 35.8161C98.1586 35.8161 96.9775 36.2478 96.1457 37.0022C96.1257 37.0232 96.0995 37.0373 96.071 37.0425C96.0424 37.0478 96.013 37.0439 95.9867 37.0315C95.9611 37.0209 95.9393 37.0028 95.9243 36.9794C95.9093 36.956 95.9019 36.9287 95.9031 36.9009C95.9031 36.5035 95.5792 36.1813 95.1818 36.1813H93.7233C93.3258 36.1813 93.0036 36.5035 93.0036 36.9009V48.461C93.0036 48.8585 93.3275 49.1815 93.7249 49.1815H95.2604C95.6579 49.1815 95.98 48.8568 95.98 48.4593V41.4124C95.98 39.7 97.026 38.549 98.5866 38.549C100.628 38.549 100.934 40.1501 100.934 41.1041V48.4719C100.934 48.8694 101.256 49.1915 101.653 49.1915H103.215C103.613 49.1915 103.935 48.8677 103.935 48.4702V41.3873C103.935 39.7154 104.998 38.5481 106.516 38.5481C108.559 38.5481 108.863 40.1506 108.863 41.1045V48.4723C108.863 48.8698 109.186 49.1919 109.583 49.1919H111.119C111.516 49.1919 111.838 48.8681 111.838 48.4706V40.8434C111.838 37.3792 109.541 35.8299 107.265 35.8299V35.8165ZM117.645 41.125C117.622 41.1249 117.6 41.1197 117.579 41.1097C117.558 41.0997 117.54 41.0852 117.525 41.0672C117.513 41.052 117.504 41.0341 117.499 41.0148C117.494 40.9955 117.494 40.9754 117.498 40.956C117.764 39.7426 118.803 38.5209 120.529 38.5209C122.221 38.5209 123.374 39.4288 123.61 40.9518C123.618 41.0062 123.592 41.048 123.576 41.0647C123.561 41.0803 123.543 41.0928 123.524 41.1014C123.504 41.11 123.483 41.1146 123.461 41.1149H117.645V41.125ZM120.503 35.8031C117.44 35.8031 114.273 38.3653 114.273 42.6521C114.273 44.7215 114.951 46.4858 116.234 47.7548C117.422 48.9304 119.045 49.5748 120.811 49.5748C123.43 49.5748 125.555 48.2024 126.497 45.9055C126.572 45.7172 126.568 45.508 126.484 45.3239C126.401 45.1398 126.25 45.006 126.062 44.939L124.781 44.4964C124.426 44.3738 124.033 44.5466 123.887 44.8905C123.335 46.1883 122.297 46.8485 120.803 46.8485C118.996 46.8485 117.62 45.6285 117.381 43.8152C117.378 43.7947 117.379 43.7737 117.385 43.7538C117.391 43.7338 117.401 43.7154 117.415 43.6997C117.431 43.6788 117.469 43.6475 117.527 43.6475H126.017C126.397 43.6475 126.714 43.3504 126.736 42.9709C126.743 42.8496 126.749 42.7157 126.749 42.5818C126.749 38.3896 124.351 35.783 120.494 35.783L120.503 35.8031ZM135.887 35.8294C134.588 35.8294 133.449 36.2721 132.594 37.1097C132.575 37.1295 132.55 37.1428 132.522 37.148C132.495 37.1533 132.467 37.1501 132.441 37.139C132.415 37.1275 132.393 37.1085 132.377 37.0844C132.361 37.0603 132.353 37.0322 132.353 37.0034V36.9114C132.353 36.5139 132.03 36.1918 131.632 36.1918H130.126C129.729 36.1918 129.405 36.5139 129.405 36.9114V48.4694C129.405 48.8668 129.727 49.1903 130.124 49.1903H131.685C132.082 49.1903 132.407 48.866 132.407 48.4685V41.7212C132.407 40.2116 133.091 38.5983 135.013 38.5983C136.741 38.5983 137.618 39.5535 137.618 41.4371V48.466C137.618 48.8635 137.94 49.1857 138.338 49.1857H139.898C140.296 49.1857 140.619 48.8593 140.619 48.4618V41.0233C140.619 37.8185 138.804 35.8269 135.887 35.8269L135.887 35.8294ZM147.89 38.9598H149.71C150.108 38.9598 150.43 38.6356 150.43 38.2385V36.9106C150.43 36.5131 150.108 36.1909 149.71 36.1909H147.89C147.871 36.1909 147.852 36.1871 147.834 36.1798C147.817 36.1724 147.8 36.1616 147.787 36.148C147.773 36.1344 147.762 36.1183 147.755 36.1005C147.748 36.0828 147.744 36.0637 147.744 36.0445V32.9844C147.744 32.5869 147.419 32.2639 147.022 32.2639H145.667C145.269 32.2639 144.947 32.5869 144.947 32.9844V34.5659C144.947 35.3065 144.663 36.1905 143.32 36.1905H143.089C142.691 36.1905 142.369 36.5127 142.369 36.9101V38.2364C142.369 38.6339 142.693 38.9561 143.089 38.9561H144.599C144.681 38.9561 144.746 39.0188 144.746 39.1025V45.4913C144.746 47.851 146.183 49.3154 148.494 49.3154C149.139 49.3154 149.64 49.2233 149.881 49.1689C150.208 49.0936 150.437 48.8049 150.437 48.466V47.2364C150.437 47.1352 150.416 47.0352 150.374 46.9429C150.333 46.8505 150.273 46.7679 150.197 46.7003C150.122 46.6327 150.034 46.5817 149.937 46.5506C149.841 46.5195 149.739 46.509 149.639 46.5197C149.476 46.5364 149.317 46.546 149.194 46.546C148.143 46.546 147.75 46.1611 147.75 45.1277V39.1029C147.75 39.0226 147.817 38.9573 147.897 38.9573" fill="#43AF79"/>
<mask id="mask0" mask-type="alpha" maskUnits="userSpaceOnUse" x="0" y="41" width="33" height="15">
<path d="M32.9698 55.328H0V41.7534H32.9698V55.328Z" fill="white"/>
</mask>
<g mask="url(#mask0)">
<path fill-rule="evenodd" clip-rule="evenodd" d="M21.7252 45.1025H1.67355C0.748915 45.1025 0 44.3536 0 43.4289C0 42.5043 0.748915 41.7554 1.67355 41.7554H21.7252C22.6499 41.7554 23.3988 42.5043 23.3988 43.4289C23.3988 44.3536 22.6499 45.1025 21.7252 45.1025Z" fill="#93C8A2"/>
<path fill-rule="evenodd" clip-rule="evenodd" d="M17.4257 55.3532C15.7923 55.3532 14.179 55.1106 12.6309 54.6307C12.207 54.4993 11.8527 54.205 11.6458 53.8123C11.4389 53.4197 11.3964 52.961 11.5277 52.5371C11.8013 51.6501 12.741 51.1564 13.6217 51.4325C14.8484 51.8133 16.1278 52.0057 17.4257 52.0057C23.1045 52.0057 28.0352 48.3616 29.6958 42.9351C29.76 42.7249 29.8651 42.5295 30.0049 42.3601C30.1448 42.1906 30.3167 42.0503 30.5108 41.9474C30.7049 41.8444 30.9174 41.7807 31.1361 41.7599C31.3549 41.7392 31.5756 41.7617 31.7856 41.8263C32.6692 42.0941 33.1663 43.0313 32.896 43.9141C30.8024 50.7552 24.5851 55.3532 17.4257 55.3532Z" fill="#43AF79"/>
</g>
<path fill-rule="evenodd" clip-rule="evenodd" d="M33.1783 36.5991H13.1274C12.2028 36.5991 11.4539 35.8501 11.4539 34.9255C11.4539 34.0009 12.2028 33.252 13.1274 33.252H33.1783C34.1029 33.252 34.8518 34.0009 34.8518 34.9255C34.8518 35.8501 34.1029 36.5991 33.1783 36.5991Z" fill="#93C8A2"/>
<path fill-rule="evenodd" clip-rule="evenodd" d="M3.55617 36.5993C3.29442 36.5993 3.03631 36.538 2.80258 36.4201C2.56885 36.3023 2.36602 36.1313 2.21038 35.9209C2.05474 35.7104 1.95064 35.4664 1.90643 35.2084C1.86222 34.9504 1.87914 34.6857 1.95583 34.4354C4.04987 27.5947 10.2671 23 17.4257 23C19.0604 23 20.6737 23.2427 22.2205 23.723C22.4304 23.788 22.6255 23.8938 22.7946 24.0342C22.9636 24.1747 23.1034 24.347 23.2058 24.5415C23.3083 24.7359 23.3714 24.9487 23.3917 25.1675C23.4119 25.3864 23.3888 25.6071 23.3238 25.817C23.2589 26.0271 23.1533 26.2223 23.0129 26.3915C22.8725 26.5606 22.7001 26.7004 22.5056 26.8029C22.311 26.9053 22.0982 26.9684 21.8793 26.9885C21.6604 27.0086 21.4396 26.9852 21.2297 26.9199C20.0039 26.5433 18.7236 26.3509 17.4257 26.3509C11.7482 26.3509 6.81667 29.995 5.15609 35.4215C5.05113 35.764 4.83915 36.0638 4.55127 36.2769C4.26338 36.49 3.91476 36.6052 3.55659 36.6056" fill="#43AF79"/>
<path fill-rule="evenodd" clip-rule="evenodd" d="M29.0329 28.5476C29.0329 28.9914 28.8566 29.4171 28.5427 29.731C28.2289 30.0448 27.8032 30.2211 27.3593 30.2211C26.9155 30.2211 26.4898 30.0448 26.1759 29.731C25.8621 29.4171 25.6858 28.9914 25.6858 28.5476C25.6858 28.1037 25.8621 27.678 26.1759 27.3642C26.4898 27.0503 26.9155 26.874 27.3593 26.874C27.8032 26.874 28.2289 27.0503 28.5427 27.3642C28.8566 27.678 29.0329 28.1037 29.0329 28.5476ZM9.16571 49.8076C9.16571 50.2514 8.98939 50.6771 8.67554 50.9909C8.36169 51.3048 7.93601 51.4811 7.49216 51.4811C7.0483 51.4811 6.62263 51.3048 6.30878 50.9909C5.99492 50.6771 5.8186 50.2514 5.8186 49.8076C5.8186 49.3637 5.99492 48.938 6.30878 48.6242C6.62263 48.3103 7.0483 48.134 7.49216 48.134C7.93601 48.134 8.36169 48.3103 8.67554 48.6242C8.98939 48.938 9.16571 49.3637 9.16571 49.8076Z" fill="#93C8A2"/>
</g>
<defs>
<clipPath id="clip0">
<rect width="150.437" height="80" fill="white"/>
</clipPath>
</defs>
</svg>
