<svg width="80" height="80" viewBox="0 0 80 80" fill="none" xmlns="http://www.w3.org/2000/svg">
<path d="M45.8685 69.4228L34.9642 58.5057L58.3876 34.8433L69.4929 45.9459L45.8685 69.4228Z" fill="#8AB4F8"/>
<path d="M45.9474 22.4055L34.8447 11.3003L11.3017 34.8433C8.23488 37.9076 8.23234 42.874 11.2966 45.9408C11.2992 45.9434 11.3017 45.9459 11.3017 45.9459L34.8447 69.4889L45.7363 58.5464L27.9456 40.4098L45.9474 22.4055Z" fill="#4285F4"/>
<path d="M69.4903 34.8431L45.9474 11.3001C42.8805 8.23329 37.909 8.23329 34.8422 11.3001C31.7753 14.367 31.7753 19.3385 34.8422 22.4028L58.3978 45.9458C61.4647 49.0126 66.4362 49.0126 69.5005 45.9458C72.5674 42.8789 72.5674 37.9074 69.5005 34.8431H69.4903Z" fill="#8AB4F8"/>
<path d="M40.3096 71.8106C44.6072 71.8106 48.0911 68.3267 48.0911 64.0291C48.0911 59.7315 44.6072 56.2476 40.3096 56.2476C36.012 56.2476 32.528 59.7315 32.528 64.0291C32.528 68.3267 36.012 71.8106 40.3096 71.8106Z" fill="#246FDB"/>
</svg>
