<svg width="125" height="80" viewBox="0 0 125 80" fill="none" xmlns="http://www.w3.org/2000/svg">
<g clip-path="url(#clip0)">
<path d="M93.6336 52.6711H94.4234V56.6202H96.7928V54.9089H97.1877V56.6202H99.9521V52.6711H100.742V56.6202H103.111V54.9089H103.506V56.6202H106.271V52.6711H107.06V56.6202H109.43V54.9089H109.825V56.6202H112.589V52.6711H113.379V56.6202H115.748V54.9089H116.143V56.6202H118.907V52.6711H119.829V56.6202H122.067V54.9089H122.462V56.6202H124.436V46.7476H0.436279V56.6202H1.62099V54.9089H2.0159V56.6202H4.91186V52.6711H5.70166V56.6202H8.07109V54.9089H8.46599V56.6202H11.0987V54.9089H11.2303V52.6711H12.0201V56.6202H14.3896V54.9089H14.7845V56.6202H17.5488V52.6711H18.3386V56.6202H20.708V54.9089H21.1029V56.6202H23.8672V52.6711H24.6571V56.6202H27.0265V54.9089H27.4214V56.6202H30.1857V52.6711H31.1072V56.6202H33.3449V54.9089H33.7398V56.6202H36.5042V52.6711H37.4256V56.6202H39.6634V54.9089H40.0583V56.6202H42.8226V52.6711H43.7441V56.6202H45.9819V54.9089H46.5084V56.6202H49.2727V52.6711H50.0625V56.6202H52.432V54.9089H52.8269V56.6202H55.5912V52.6711H56.381V56.6202H58.7504V54.9089H59.1453V56.6202H61.9097V52.6711H62.6995V56.6202H65.0689V54.9089H65.4638V56.6202H68.2281V52.6711H69.0179V56.6202H71.3874V54.9089H71.7822V56.6202H74.5466V52.6711H75.468V56.6202H77.7058V54.9089H78.1007V56.6202H80.865V52.6711H81.7865V56.6202H84.0243V54.9089H84.4192V56.6202H87.1835V52.6711H88.1049V56.6202H90.2111V54.9089H90.606V56.6202H93.6336V52.6711Z" fill="#DCE7F2"/>
<path d="M94.4231 52.6709H93.6333V56.6199H94.4231V52.6709Z" fill="white"/>
<path d="M88.1047 52.6709H87.1832V56.6199H88.1047V52.6709Z" fill="white"/>
<path d="M100.742 52.6709H99.952V56.6199H100.742V52.6709Z" fill="white"/>
<path d="M119.829 52.6709H118.907V56.6199H119.829V52.6709Z" fill="white"/>
<path d="M113.379 52.6709H112.589V56.6199H113.379V52.6709Z" fill="white"/>
<path d="M107.06 52.6709H106.271V56.6199H107.06V52.6709Z" fill="white"/>
<path d="M122.067 56.6199H122.462V54.9087H122.067V56.6199Z" fill="white"/>
<path d="M115.748 56.6199H116.143V54.9087H115.748V56.6199Z" fill="white"/>
<path d="M109.43 56.6199H109.824V54.9087H109.43V56.6199Z" fill="white"/>
<path d="M103.506 56.6199V54.9087H103.111V56.6199H103.506Z" fill="white"/>
<path d="M96.7928 56.6199H97.1878V54.9087H96.7928V56.6199Z" fill="white"/>
<path d="M90.2111 56.6199H90.606V54.9087H90.2111V56.6199Z" fill="white"/>
<path d="M31.1071 52.6709H30.1857V56.6199H31.1071V52.6709Z" fill="white"/>
<path d="M24.657 52.6709H23.8672V56.6199H24.657V52.6709Z" fill="white"/>
<path d="M50.0623 52.6709H49.2725V56.6199H50.0623V52.6709Z" fill="white"/>
<path d="M43.7439 52.6709H42.8224V56.6199H43.7439V52.6709Z" fill="white"/>
<path d="M37.4253 52.6709H36.5039V56.6199H37.4253V52.6709Z" fill="white"/>
<path d="M69.018 52.6709H68.2281V56.6199H69.018V52.6709Z" fill="white"/>
<path d="M62.6995 52.6709H61.9097V56.6199H62.6995V52.6709Z" fill="white"/>
<path d="M56.3808 52.6709H55.5909V56.6199H56.3808V52.6709Z" fill="white"/>
<path d="M81.7862 52.6709H80.8647V56.6199H81.7862V52.6709Z" fill="white"/>
<path d="M75.468 52.6709H74.5465V56.6199H75.468V52.6709Z" fill="white"/>
<path d="M18.3387 52.6709H17.5489V56.6199H18.3387V52.6709Z" fill="white"/>
<path d="M12.0198 52.6709H11.23V54.9087H11.0984V56.6199H12.0198V52.6709Z" fill="white"/>
<path d="M5.70149 52.6709H4.91168V56.6199H5.70149V52.6709Z" fill="white"/>
<path d="M14.7842 56.6199V54.9087H14.3893V56.6199H14.7842Z" fill="white"/>
<path d="M8.4657 56.6199V54.9087H8.0708V56.6199H8.4657Z" fill="white"/>
<path d="M1.62079 56.6199H2.01569V54.9087H1.62079V56.6199Z" fill="white"/>
<path d="M84.024 56.6199H84.4189V54.9087H84.024V56.6199Z" fill="white"/>
<path d="M78.1007 56.6199V54.9087H77.7058V56.6199H78.1007Z" fill="white"/>
<path d="M71.3873 56.6199H71.7822V54.9087H71.3873V56.6199Z" fill="white"/>
<path d="M65.0688 56.6199H65.4638V54.9087H65.0688V56.6199Z" fill="white"/>
<path d="M58.7501 56.6199H59.145V54.9087H58.7501V56.6199Z" fill="white"/>
<path d="M52.4321 54.9087V56.6199H52.827V54.9087H52.4321Z" fill="white"/>
<path d="M45.9816 56.6199H46.5081V54.9087H45.9816V56.6199Z" fill="white"/>
<path d="M39.6631 56.6199H40.058V54.9087H39.6631V56.6199Z" fill="white"/>
<path d="M33.345 56.6199H33.7399V54.9087H33.345V56.6199Z" fill="white"/>
<path d="M27.4215 56.6199V54.9087H27.0266V56.6199H27.4215Z" fill="white"/>
<path d="M20.7081 56.6199H21.103V54.9087H20.7081V56.6199Z" fill="white"/>
<path d="M22.6825 46.7473H19.9182L19.26 43.8513C17.0222 46.484 14.9161 47.2738 12.0201 47.2738C4.78022 47.2738 0.436279 41.4819 0.436279 34.6369C0.436279 27.7919 4.78022 22 12.0201 22C17.2855 22 21.7611 24.7643 22.4193 30.293H18.3386C17.9437 27.1338 15.1794 25.4225 12.1518 25.4225C7.01801 25.4225 4.78022 30.0297 4.78022 34.6369C4.78022 39.2441 6.88638 43.8513 12.1518 43.8513C16.4957 43.983 18.8651 41.3503 18.8651 37.2696H12.415V33.9788H22.6825V46.7473Z" fill="#4499D4"/>
<path d="M22.1559 22.5264H41.7695V26.2121H34.1347V46.7471H29.9224V26.2121H22.2876V22.5264H22.1559Z" fill="#4499D4"/>
<path d="M38.0839 29.2401H41.7696V31.7412H41.9013C43.086 30.0299 44.534 28.8452 47.2983 28.8452C49.4044 28.8452 51.379 29.7667 52.1688 31.7412C53.4851 29.8983 55.0647 28.8452 57.6974 28.8452C61.3832 28.8452 63.621 30.4248 63.621 34.7688V46.8792H59.8036V36.6117C59.8036 33.8473 59.6719 31.8728 56.6443 31.8728C54.0117 31.8728 52.9586 33.5841 52.9586 36.48V46.7475H49.1412V35.4269C49.1412 33.0575 48.3514 31.7412 46.1136 31.7412C44.1391 31.7412 42.2962 33.3208 42.2962 36.2168V46.6159H38.4788V29.2401H38.0839Z" fill="#84B1DF"/>
<path d="M68.0965 38.9814C68.0965 41.7457 69.5444 44.1151 72.8353 44.1151C75.0731 44.1151 76.3894 43.1937 77.0476 41.2192H80.7334C79.9436 45.0366 76.6527 47.1427 72.8353 47.1427C67.3066 47.1427 64.2791 43.3253 64.2791 37.9283C64.2791 32.9262 67.5699 28.7139 72.7037 28.7139C78.2323 28.7139 81.6548 33.716 80.9966 38.9814H68.0965ZM77.1792 36.4803C77.0476 33.9793 75.3364 31.8731 72.8353 31.8731C70.2026 31.8731 68.3597 33.8476 68.2281 36.4803H77.1792Z" fill="#84B1DF"/>
<path d="M79.6805 29.24H82.5764V23.9746H86.3938V29.24H89.8163V32.136H86.3938V41.482C86.3938 43.0616 86.5255 43.8514 88.2367 43.8514C88.7633 43.8514 89.2898 43.8514 89.8163 43.7198V46.6158C89.0265 46.7474 88.1051 46.879 87.3153 46.879C83.2346 46.879 82.5764 45.2994 82.4448 42.4035V32.136H79.5488V29.24H79.6805Z" fill="#84B1DF"/>
<path d="M90.7378 29.2397H94.4236V32.6622H94.5552C94.9501 30.8194 97.3195 29.2397 99.689 29.2397C100.215 29.2397 100.61 29.2397 101.137 29.3714V32.6622C100.61 32.5306 100.084 32.5306 99.4257 32.5306C96.793 32.5306 94.6868 34.6368 94.6868 38.5858V46.8788H90.8694L90.7378 29.2397Z" fill="#84B1DF"/>
<path d="M101.927 22.5264H105.744V26.2121H101.927V22.5264ZM101.927 29.2397H105.744V46.7471H101.927V29.2397Z" fill="#84B1DF"/>
<path d="M113.116 37.5327L107.061 29.2397H111.668L115.354 34.6368L119.171 29.2397H123.647L117.723 37.2695L124.436 46.7472H119.829L115.354 40.2971L111.01 46.7472H106.534L113.116 37.5327Z" fill="#84B1DF"/>
</g>
<defs>
<clipPath id="clip0">
<rect width="124" height="80" fill="white" transform="translate(0.436279)"/>
</clipPath>
</defs>
</svg>
