<svg width="59" height="65" viewBox="0 0 59 65" fill="none" xmlns="http://www.w3.org/2000/svg">
<path d="M58.0992 56.2677C58.123 60.6836 54.5617 64.2792 50.1485 64.303C49.8205 64.3057 49.4897 64.2872 49.1643 64.2475C45.0686 63.6416 42.0683 60.0777 42.1688 55.9396V8.36281C42.0709 4.21948 45.0792 0.655581 49.1775 0.0549838C53.5616 -0.458302 57.533 2.67962 58.0463 7.06372C58.0833 7.3865 58.1018 7.70929 58.0992 8.03473V56.2677Z" fill="#F9AB00"/>
<path d="M7.96651 48.3834C12.3665 48.3834 15.933 51.9499 15.933 56.3499C15.933 60.7499 12.3665 64.3164 7.96651 64.3164C3.56654 64.3164 0 60.7499 0 56.3499C0 51.9499 3.56654 48.3834 7.96651 48.3834ZM28.9266 24.2404C24.5054 24.4839 21.0765 28.1906 21.1797 32.6171V54.0137C21.1797 59.8212 23.7355 63.3454 27.4793 64.0968C31.7999 64.9726 36.0094 62.1813 36.8851 57.8607C36.9936 57.3315 37.0465 56.7944 37.0439 56.2547V32.2466C37.0518 27.8308 33.48 24.2457 29.0641 24.2378C29.0192 24.2378 28.9715 24.2378 28.9266 24.2404Z" fill="#E37400"/>
</svg>
