<svg width="123" height="80" viewBox="0 0 123 80" fill="none" xmlns="http://www.w3.org/2000/svg">
<g clip-path="url(#clip0)">
<path d="M7.94684 32.9898C10.1242 31.921 12.5346 31.4151 14.9564 31.5117C19.6408 31.6709 22.2161 34.0529 22.3184 38.7145C22.4321 43.5979 22.398 48.4415 22.381 53.3192C22.381 55.3032 21.8579 55.7637 19.8966 55.7637H17.1792C15.4453 55.7637 14.9052 55.235 14.8711 53.4897V40.4143C14.8711 38.3905 13.916 37.5605 11.8695 37.6401C11.5113 37.6458 11.1588 37.6799 10.8064 37.7424C8.12308 38.2882 7.96958 38.4815 7.96958 41.2159V52.8701C7.96958 55.3601 7.54321 55.7808 5.08731 55.7808H2.36421C1.0851 55.7808 0.522286 55.1782 0.437012 53.8593V23.0695C0.437012 20.8183 0.914548 20.3464 3.13168 20.3464H5.53074C7.38972 20.3464 7.9639 20.8695 7.99801 22.7455C8.04917 25.5595 7.99801 28.3736 7.99801 31.182C7.94684 31.6993 7.94684 32.2564 7.94684 32.9898ZM48.0088 44.3995C47.8439 45.6957 47.7529 47.3557 47.4061 48.9759C46.8661 52.6256 44.0293 55.5136 40.3909 56.1162C37.9009 56.6506 35.3256 56.6165 32.8526 56.0196C29.7202 55.417 27.2189 53.0463 26.4571 49.948C25.3258 46.0424 25.3258 41.8924 26.4571 37.9812C27.6566 33.8766 30.7947 31.6766 35.3938 31.5174C37.0538 31.4264 38.7138 31.5344 40.3511 31.8244C44.6887 32.6942 47.1503 35.6333 47.7074 40.4371C47.8439 41.6537 47.8837 42.8305 48.0088 44.3995ZM40.4307 44.4961C40.3454 43.1602 40.2999 42.2449 40.2147 41.3467C40.1635 40.8748 40.0669 40.4087 39.9247 39.9539C39.6519 38.4417 38.2704 37.3786 36.7412 37.498C35.246 37.3843 33.9044 38.4189 33.6372 39.897C32.955 42.5974 32.955 45.4228 33.6372 48.1175C33.9157 49.6183 35.3142 50.6473 36.8321 50.4767C38.2704 50.5734 39.5552 49.5899 39.8338 48.1743C40.101 46.9577 40.2999 45.7298 40.4364 44.4905V44.4961H40.4307ZM96.0069 40.7611C96.3366 38.2541 95.7795 37.4809 93.3633 37.5946C91.3907 37.7595 89.435 38.0494 87.5022 38.4644C85.8649 38.76 84.6654 38.345 84.438 37.0716C84.0684 34.9738 84.2106 33.1717 85.8933 32.6657C89.7875 31.3866 93.9603 31.1763 97.9625 32.0631C101.601 32.9329 103.363 35.3377 103.363 39.266V53.1657C103.363 54.2174 103.363 55.2976 102.113 55.7069C100.725 56.2128 99.162 55.7865 98.2297 54.6381L97.8431 54.081C95.7169 55.7808 93.0336 56.6392 90.3105 56.48C84.3982 56.264 81.0043 50.6302 83.5739 45.2693C84.7734 42.7167 87.1724 41.9152 89.6511 41.5172C91.7886 41.1989 93.9091 40.9999 96.0069 40.7611ZM96.1206 44.8543C94.688 45.0703 93.4259 45.1897 92.2036 45.4569C90.9245 45.6218 89.9638 46.6962 89.9353 47.981C89.6681 49.2715 90.3503 50.5791 91.5669 51.0907C92.7664 51.5569 95.319 51.0907 95.9045 50.2721C96.0182 50.1129 96.0808 49.9253 96.0864 49.732C96.1206 48.1516 96.1206 46.5825 96.1206 44.8372V44.8543ZM53.148 32.3531V29.2491C53.0399 28.2997 53.6539 27.4128 54.5806 27.1854C55.8028 26.7761 57.0478 26.4293 58.3099 26.1394C59.2195 25.8381 60.203 26.327 60.5043 27.2366C60.5839 27.4811 60.6123 27.7369 60.5782 27.9927C60.618 29.3287 60.5782 30.659 60.5782 32.1427H64.137C65.8709 32.1825 66.4678 32.7453 66.536 34.5418C66.6327 38.1915 66.4337 38.3962 62.8294 38.3962H60.7374C60.6805 38.7202 60.6407 39.05 60.6237 39.3797V47.0771C60.6237 49.4762 61.3457 50.2095 63.6765 50.3801C65.7231 50.5279 66.2802 50.9827 66.2802 52.6484C66.3541 55.3089 65.814 56.2072 63.6765 56.3322C61.9824 56.4573 60.2769 56.372 58.6055 56.0764C55.132 55.3715 53.2617 53.1202 53.1423 49.4477C53.0399 46.2414 53.1025 43.0351 53.0911 39.8458V38.4075H50.9934C50.0042 38.4871 49.1401 37.7538 49.0548 36.7646V36.5997C48.7649 34.1438 49.2026 33.4901 51.5391 32.8306L53.148 32.3531ZM79.2476 47.2761C79.2476 51.4318 79.3272 55.5932 79.2476 59.7489C79.2249 64.547 75.325 68.4185 70.5269 68.3957C70.0721 68.3957 69.6173 68.3559 69.1625 68.282C67.4911 68.0717 66.8942 67.4122 66.8714 65.6783V64.1377C66.9454 62.688 67.3945 62.182 68.8328 61.9149C71.0556 61.4999 71.7776 60.6642 71.7832 58.3447V34.6953C71.7832 32.6885 72.2949 32.1541 74.3017 32.0916H77.0305C78.645 32.1655 79.2533 32.751 79.2647 34.3769V47.1965L79.2476 47.2761ZM112.766 33.7914C114.733 32.3815 117.075 31.5913 119.491 31.5174C121.89 31.5174 122.442 32.0233 122.436 34.3997V35.4684C122.436 37.0034 121.8 37.5491 120.299 37.7083C118.889 37.8788 117.485 38.129 116.098 38.4473C115.165 38.6463 114.813 39.2091 114.83 40.2495C114.904 44.5871 114.83 48.8906 114.83 53.2055C114.83 55.326 114.369 55.7694 112.226 55.8092H109.133C108.247 55.8831 107.468 55.218 107.394 54.3311C107.382 54.2231 107.388 54.1151 107.4 54.0071V34.0472C107.331 33.1603 107.996 32.3815 108.883 32.3133H108.889H108.963C110.464 32.0575 112.038 31.8244 112.766 33.7914Z" fill="black"/>
<path d="M78.4403 27.8735C79.799 23.0015 79.3101 20.5456 76.9281 20.0737C77.2919 21.7281 77.7012 23.4279 75.9616 24.5762C75.052 25.1788 74.33 24.9458 72.7155 23.7064C71.9708 25.2357 72.2209 26.7593 72.5677 28.3908C70.2539 27.9872 68.4291 27.0265 67.582 24.7923C66.7065 22.757 67.1897 20.3978 68.7815 18.8629C69.3386 18.2944 69.9413 17.777 70.5837 17.3109C73.1874 15.3552 73.6933 13.4565 72.3176 10.5173C72.255 10.3468 72.2039 10.1762 72.1698 10C75.0634 10.4377 77.8036 11.6032 80.1344 13.3769C85.2111 17.5269 84.5971 24.9912 78.9917 27.7314C78.7984 27.7428 78.6165 27.7882 78.4403 27.8735Z" fill="#EE4854"/>
</g>
<defs>
<clipPath id="clip0">
<rect width="121.999" height="80" fill="white" transform="translate(0.437012)"/>
</clipPath>
</defs>
</svg>
