<svg width="515" height="366" viewBox="0 0 515 366" fill="none" xmlns="http://www.w3.org/2000/svg">
<g opacity="0.2">
<path d="M5.78651 15.7695C5.78651 17.3674 4.49116 18.6627 2.89326 18.6627C1.29536 18.6627 0 17.3674 0 15.7695C0 14.1716 1.29536 12.8762 2.89326 12.8762C4.49116 12.8762 5.78651 14.1716 5.78651 15.7695Z" fill="white"/>
<path d="M28.9328 15.7695C28.9328 17.3674 27.6374 18.6627 26.0395 18.6627C24.4416 18.6627 23.1462 17.3674 23.1462 15.7695C23.1462 14.1716 24.4416 12.8762 26.0395 12.8762C27.6374 12.8762 28.9328 14.1716 28.9328 15.7695Z" fill="white"/>
<path d="M52.0784 15.7695C52.0784 17.3674 50.7831 18.6627 49.1852 18.6627C47.5873 18.6627 46.2919 17.3674 46.2919 15.7695C46.2919 14.1716 47.5873 12.8762 49.1852 12.8762C50.7831 12.8762 52.0784 14.1716 52.0784 15.7695Z" fill="white"/>
<path d="M75.2246 15.7695C75.2246 17.3674 73.9293 18.6627 72.3314 18.6627C70.7335 18.6627 69.4381 17.3674 69.4381 15.7695C69.4381 14.1716 70.7335 12.8762 72.3314 12.8762C73.9293 12.8762 75.2246 14.1716 75.2246 15.7695Z" fill="white"/>
<path d="M98.3709 15.7695C98.3709 17.3674 97.0755 18.6627 95.4776 18.6627C93.8797 18.6627 92.5844 17.3674 92.5844 15.7695C92.5844 14.1716 93.8797 12.8762 95.4776 12.8762C97.0755 12.8762 98.3709 14.1716 98.3709 15.7695Z" fill="white"/>
<path d="M121.517 15.7695C121.517 17.3674 120.221 18.6627 118.623 18.6627C117.025 18.6627 115.73 17.3674 115.73 15.7695C115.73 14.1716 117.025 12.8762 118.623 12.8762C120.221 12.8762 121.517 14.1716 121.517 15.7695Z" fill="white"/>
<path d="M144.663 15.7695C144.663 17.3674 143.368 18.6627 141.77 18.6627C140.172 18.6627 138.876 17.3674 138.876 15.7695C138.876 14.1716 140.172 12.8762 141.77 12.8762C143.368 12.8762 144.663 14.1716 144.663 15.7695Z" fill="white"/>
<path d="M167.809 15.7695C167.809 17.3674 166.514 18.6627 164.916 18.6627C163.318 18.6627 162.023 17.3674 162.023 15.7695C162.023 14.1716 163.318 12.8762 164.916 12.8762C166.514 12.8762 167.809 14.1716 167.809 15.7695Z" fill="white"/>
<path d="M190.955 15.7695C190.955 17.3674 189.66 18.6627 188.062 18.6627C186.464 18.6627 185.169 17.3674 185.169 15.7695C185.169 14.1716 186.464 12.8762 188.062 12.8762C189.66 12.8762 190.955 14.1716 190.955 15.7695Z" fill="white"/>
<path d="M214.101 15.7695C214.101 17.3674 212.806 18.6627 211.208 18.6627C209.61 18.6627 208.315 17.3674 208.315 15.7695C208.315 14.1716 209.61 12.8762 211.208 12.8762C212.806 12.8762 214.101 14.1716 214.101 15.7695Z" fill="white"/>
<path d="M237.247 15.7695C237.247 17.3674 235.952 18.6627 234.354 18.6627C232.756 18.6627 231.461 17.3674 231.461 15.7695C231.461 14.1716 232.756 12.8762 234.354 12.8762C235.952 12.8762 237.247 14.1716 237.247 15.7695Z" fill="white"/>
<path d="M260.394 15.7695C260.394 17.3674 259.098 18.6627 257.5 18.6627C255.903 18.6627 254.607 17.3674 254.607 15.7695C254.607 14.1716 255.903 12.8762 257.5 12.8762C259.098 12.8762 260.394 14.1716 260.394 15.7695Z" fill="white"/>
<path d="M283.539 15.7695C283.539 17.3674 282.244 18.6627 280.646 18.6627C279.048 18.6627 277.753 17.3674 277.753 15.7695C277.753 14.1716 279.048 12.8762 280.646 12.8762C282.244 12.8762 283.539 14.1716 283.539 15.7695Z" fill="white"/>
<path d="M306.685 15.7695C306.685 17.3674 305.39 18.6627 303.792 18.6627C302.194 18.6627 300.899 17.3674 300.899 15.7695C300.899 14.1716 302.194 12.8762 303.792 12.8762C305.39 12.8762 306.685 14.1716 306.685 15.7695Z" fill="white"/>
<path d="M329.831 15.7695C329.831 17.3674 328.536 18.6627 326.938 18.6627C325.34 18.6627 324.044 17.3674 324.044 15.7695C324.044 14.1716 325.34 12.8762 326.938 12.8762C328.536 12.8762 329.831 14.1716 329.831 15.7695Z" fill="white"/>
<path d="M352.977 15.7695C352.977 17.3674 351.682 18.6627 350.084 18.6627C348.486 18.6627 347.191 17.3674 347.191 15.7695C347.191 14.1716 348.486 12.8762 350.084 12.8762C351.682 12.8762 352.977 14.1716 352.977 15.7695Z" fill="white"/>
<path d="M376.124 15.7695C376.124 17.3674 374.829 18.6627 373.231 18.6627C371.633 18.6627 370.337 17.3674 370.337 15.7695C370.337 14.1716 371.633 12.8762 373.231 12.8762C374.829 12.8762 376.124 14.1716 376.124 15.7695Z" fill="white"/>
<path d="M399.269 15.7695C399.269 17.3674 397.974 18.6627 396.376 18.6627C394.778 18.6627 393.483 17.3674 393.483 15.7695C393.483 14.1716 394.778 12.8762 396.376 12.8762C397.974 12.8762 399.269 14.1716 399.269 15.7695Z" fill="white"/>
<path d="M422.415 15.7695C422.415 17.3674 421.12 18.6627 419.522 18.6627C417.924 18.6627 416.629 17.3674 416.629 15.7695C416.629 14.1716 417.924 12.8762 419.522 12.8762C421.12 12.8762 422.415 14.1716 422.415 15.7695Z" fill="white"/>
<path d="M445.562 15.7695C445.562 17.3674 444.266 18.6627 442.669 18.6627C441.071 18.6627 439.775 17.3674 439.775 15.7695C439.775 14.1716 441.071 12.8762 442.669 12.8762C444.266 12.8762 445.562 14.1716 445.562 15.7695Z" fill="white"/>
<path d="M468.708 15.7695C468.708 17.3674 467.412 18.6627 465.814 18.6627C464.216 18.6627 462.921 17.3674 462.921 15.7695C462.921 14.1716 464.216 12.8762 465.814 12.8762C467.412 12.8762 468.708 14.1716 468.708 15.7695Z" fill="white"/>
<path d="M491.854 15.7695C491.854 17.3674 490.559 18.6627 488.961 18.6627C487.363 18.6627 486.068 17.3674 486.068 15.7695C486.068 14.1716 487.363 12.8762 488.961 12.8762C490.559 12.8762 491.854 14.1716 491.854 15.7695Z" fill="white"/>
<path d="M515 15.7695C515 17.3674 513.705 18.6627 512.107 18.6627C510.509 18.6627 509.214 17.3674 509.214 15.7695C509.214 14.1716 510.509 12.8762 512.107 12.8762C513.705 12.8762 515 14.1716 515 15.7695Z" fill="white"/>
<path d="M5.78651 38.9155C5.78651 40.5134 4.49116 41.8087 2.89326 41.8087C1.29536 41.8087 0 40.5134 0 38.9155C0 37.3176 1.29536 36.0222 2.89326 36.0222C4.49116 36.0222 5.78651 37.3176 5.78651 38.9155Z" fill="white"/>
<path d="M28.9328 38.9155C28.9328 40.5134 27.6374 41.8087 26.0395 41.8087C24.4416 41.8087 23.1462 40.5134 23.1462 38.9155C23.1462 37.3176 24.4416 36.0222 26.0395 36.0222C27.6374 36.0222 28.9328 37.3176 28.9328 38.9155Z" fill="white"/>
<path d="M52.0784 38.9155C52.0784 40.5134 50.7831 41.8087 49.1852 41.8087C47.5873 41.8087 46.2919 40.5134 46.2919 38.9155C46.2919 37.3176 47.5873 36.0222 49.1852 36.0222C50.7831 36.0222 52.0784 37.3176 52.0784 38.9155Z" fill="white"/>
<path d="M75.2246 38.9155C75.2246 40.5134 73.9293 41.8087 72.3314 41.8087C70.7335 41.8087 69.4381 40.5134 69.4381 38.9155C69.4381 37.3176 70.7335 36.0222 72.3314 36.0222C73.9293 36.0222 75.2246 37.3176 75.2246 38.9155Z" fill="white"/>
<path d="M98.3709 38.9155C98.3709 40.5134 97.0755 41.8087 95.4776 41.8087C93.8797 41.8087 92.5844 40.5134 92.5844 38.9155C92.5844 37.3176 93.8797 36.0222 95.4776 36.0222C97.0755 36.0222 98.3709 37.3176 98.3709 38.9155Z" fill="white"/>
<path d="M121.517 38.9155C121.517 40.5134 120.221 41.8087 118.623 41.8087C117.025 41.8087 115.73 40.5134 115.73 38.9155C115.73 37.3176 117.025 36.0222 118.623 36.0222C120.221 36.0222 121.517 37.3176 121.517 38.9155Z" fill="white"/>
<path d="M144.663 38.9155C144.663 40.5134 143.368 41.8087 141.77 41.8087C140.172 41.8087 138.876 40.5134 138.876 38.9155C138.876 37.3176 140.172 36.0222 141.77 36.0222C143.368 36.0222 144.663 37.3176 144.663 38.9155Z" fill="white"/>
<path d="M167.809 38.9155C167.809 40.5134 166.514 41.8087 164.916 41.8087C163.318 41.8087 162.023 40.5134 162.023 38.9155C162.023 37.3176 163.318 36.0222 164.916 36.0222C166.514 36.0222 167.809 37.3176 167.809 38.9155Z" fill="white"/>
<path d="M190.955 38.9155C190.955 40.5134 189.66 41.8087 188.062 41.8087C186.464 41.8087 185.169 40.5134 185.169 38.9155C185.169 37.3176 186.464 36.0222 188.062 36.0222C189.66 36.0222 190.955 37.3176 190.955 38.9155Z" fill="white"/>
<path d="M214.101 38.9155C214.101 40.5134 212.806 41.8087 211.208 41.8087C209.61 41.8087 208.315 40.5134 208.315 38.9155C208.315 37.3176 209.61 36.0222 211.208 36.0222C212.806 36.0222 214.101 37.3176 214.101 38.9155Z" fill="white"/>
<path d="M237.247 38.9155C237.247 40.5134 235.952 41.8087 234.354 41.8087C232.756 41.8087 231.461 40.5134 231.461 38.9155C231.461 37.3176 232.756 36.0222 234.354 36.0222C235.952 36.0222 237.247 37.3176 237.247 38.9155Z" fill="white"/>
<path d="M260.394 38.9155C260.394 40.5134 259.098 41.8087 257.5 41.8087C255.903 41.8087 254.607 40.5134 254.607 38.9155C254.607 37.3176 255.903 36.0222 257.5 36.0222C259.098 36.0222 260.394 37.3176 260.394 38.9155Z" fill="white"/>
<path d="M283.539 38.9155C283.539 40.5134 282.244 41.8087 280.646 41.8087C279.048 41.8087 277.753 40.5134 277.753 38.9155C277.753 37.3176 279.048 36.0222 280.646 36.0222C282.244 36.0222 283.539 37.3176 283.539 38.9155Z" fill="white"/>
<path d="M306.685 38.9155C306.685 40.5134 305.39 41.8087 303.792 41.8087C302.194 41.8087 300.899 40.5134 300.899 38.9155C300.899 37.3176 302.194 36.0222 303.792 36.0222C305.39 36.0222 306.685 37.3176 306.685 38.9155Z" fill="white"/>
<path d="M329.831 38.9155C329.831 40.5134 328.536 41.8087 326.938 41.8087C325.34 41.8087 324.044 40.5134 324.044 38.9155C324.044 37.3176 325.34 36.0222 326.938 36.0222C328.536 36.0222 329.831 37.3176 329.831 38.9155Z" fill="white"/>
<path d="M352.977 38.9155C352.977 40.5134 351.682 41.8087 350.084 41.8087C348.486 41.8087 347.191 40.5134 347.191 38.9155C347.191 37.3176 348.486 36.0222 350.084 36.0222C351.682 36.0222 352.977 37.3176 352.977 38.9155Z" fill="white"/>
<path d="M376.124 38.9155C376.124 40.5134 374.829 41.8087 373.231 41.8087C371.633 41.8087 370.337 40.5134 370.337 38.9155C370.337 37.3176 371.633 36.0222 373.231 36.0222C374.829 36.0222 376.124 37.3176 376.124 38.9155Z" fill="white"/>
<path d="M399.269 38.9155C399.269 40.5134 397.974 41.8087 396.376 41.8087C394.778 41.8087 393.483 40.5134 393.483 38.9155C393.483 37.3176 394.778 36.0222 396.376 36.0222C397.974 36.0222 399.269 37.3176 399.269 38.9155Z" fill="white"/>
<path d="M422.415 38.9155C422.415 40.5134 421.12 41.8087 419.522 41.8087C417.924 41.8087 416.629 40.5134 416.629 38.9155C416.629 37.3176 417.924 36.0222 419.522 36.0222C421.12 36.0222 422.415 37.3176 422.415 38.9155Z" fill="white"/>
<path d="M445.562 38.9155C445.562 40.5134 444.266 41.8087 442.669 41.8087C441.071 41.8087 439.775 40.5134 439.775 38.9155C439.775 37.3176 441.071 36.0222 442.669 36.0222C444.266 36.0222 445.562 37.3176 445.562 38.9155Z" fill="white"/>
<path d="M468.708 38.9155C468.708 40.5134 467.412 41.8087 465.814 41.8087C464.216 41.8087 462.921 40.5134 462.921 38.9155C462.921 37.3176 464.216 36.0222 465.814 36.0222C467.412 36.0222 468.708 37.3176 468.708 38.9155Z" fill="white"/>
<path d="M491.854 38.9155C491.854 40.5134 490.559 41.8087 488.961 41.8087C487.363 41.8087 486.068 40.5134 486.068 38.9155C486.068 37.3176 487.363 36.0222 488.961 36.0222C490.559 36.0222 491.854 37.3176 491.854 38.9155Z" fill="white"/>
<path d="M515 38.9155C515 40.5134 513.705 41.8087 512.107 41.8087C510.509 41.8087 509.214 40.5134 509.214 38.9155C509.214 37.3176 510.509 36.0222 512.107 36.0222C513.705 36.0222 515 37.3176 515 38.9155Z" fill="white"/>
<path d="M5.78651 62.062C5.78651 63.6599 4.49116 64.9552 2.89326 64.9552C1.29536 64.9552 0 63.6599 0 62.062C0 60.4641 1.29536 59.1687 2.89326 59.1687C4.49116 59.1687 5.78651 60.4641 5.78651 62.062Z" fill="white"/>
<path d="M28.9328 62.062C28.9328 63.6599 27.6374 64.9552 26.0395 64.9552C24.4416 64.9552 23.1462 63.6599 23.1462 62.062C23.1462 60.4641 24.4416 59.1687 26.0395 59.1687C27.6374 59.1687 28.9328 60.4641 28.9328 62.062Z" fill="white"/>
<path d="M52.0784 62.062C52.0784 63.6599 50.7831 64.9552 49.1852 64.9552C47.5873 64.9552 46.2919 63.6599 46.2919 62.062C46.2919 60.4641 47.5873 59.1687 49.1852 59.1687C50.7831 59.1687 52.0784 60.4641 52.0784 62.062Z" fill="white"/>
<path d="M75.2246 62.062C75.2246 63.6599 73.9293 64.9552 72.3314 64.9552C70.7335 64.9552 69.4381 63.6599 69.4381 62.062C69.4381 60.4641 70.7335 59.1687 72.3314 59.1687C73.9293 59.1687 75.2246 60.4641 75.2246 62.062Z" fill="white"/>
<path d="M98.3709 62.062C98.3709 63.6599 97.0755 64.9552 95.4776 64.9552C93.8797 64.9552 92.5844 63.6599 92.5844 62.062C92.5844 60.4641 93.8797 59.1687 95.4776 59.1687C97.0755 59.1687 98.3709 60.4641 98.3709 62.062Z" fill="white"/>
<path d="M121.517 62.062C121.517 63.6599 120.221 64.9552 118.623 64.9552C117.025 64.9552 115.73 63.6599 115.73 62.062C115.73 60.4641 117.025 59.1687 118.623 59.1687C120.221 59.1687 121.517 60.4641 121.517 62.062Z" fill="white"/>
<path d="M144.663 62.062C144.663 63.6599 143.368 64.9552 141.77 64.9552C140.172 64.9552 138.876 63.6599 138.876 62.062C138.876 60.4641 140.172 59.1687 141.77 59.1687C143.368 59.1687 144.663 60.4641 144.663 62.062Z" fill="white"/>
<path d="M167.809 62.062C167.809 63.6599 166.514 64.9552 164.916 64.9552C163.318 64.9552 162.023 63.6599 162.023 62.062C162.023 60.4641 163.318 59.1687 164.916 59.1687C166.514 59.1687 167.809 60.4641 167.809 62.062Z" fill="white"/>
<path d="M190.955 62.062C190.955 63.6599 189.66 64.9552 188.062 64.9552C186.464 64.9552 185.169 63.6599 185.169 62.062C185.169 60.4641 186.464 59.1687 188.062 59.1687C189.66 59.1687 190.955 60.4641 190.955 62.062Z" fill="white"/>
<path d="M214.101 62.062C214.101 63.6599 212.806 64.9552 211.208 64.9552C209.61 64.9552 208.315 63.6599 208.315 62.062C208.315 60.4641 209.61 59.1687 211.208 59.1687C212.806 59.1687 214.101 60.4641 214.101 62.062Z" fill="white"/>
<path d="M237.247 62.062C237.247 63.6599 235.952 64.9552 234.354 64.9552C232.756 64.9552 231.461 63.6599 231.461 62.062C231.461 60.4641 232.756 59.1687 234.354 59.1687C235.952 59.1687 237.247 60.4641 237.247 62.062Z" fill="white"/>
<path d="M260.394 62.062C260.394 63.6599 259.098 64.9552 257.5 64.9552C255.903 64.9552 254.607 63.6599 254.607 62.062C254.607 60.4641 255.903 59.1687 257.5 59.1687C259.098 59.1687 260.394 60.4641 260.394 62.062Z" fill="white"/>
<path d="M283.539 62.062C283.539 63.6599 282.244 64.9552 280.646 64.9552C279.048 64.9552 277.753 63.6599 277.753 62.062C277.753 60.4641 279.048 59.1687 280.646 59.1687C282.244 59.1687 283.539 60.4641 283.539 62.062Z" fill="white"/>
<path d="M306.685 62.062C306.685 63.6599 305.39 64.9552 303.792 64.9552C302.194 64.9552 300.899 63.6599 300.899 62.062C300.899 60.4641 302.194 59.1687 303.792 59.1687C305.39 59.1687 306.685 60.4641 306.685 62.062Z" fill="white"/>
<path d="M329.831 62.062C329.831 63.6599 328.536 64.9552 326.938 64.9552C325.34 64.9552 324.044 63.6599 324.044 62.062C324.044 60.4641 325.34 59.1687 326.938 59.1687C328.536 59.1687 329.831 60.4641 329.831 62.062Z" fill="white"/>
<path d="M352.977 62.062C352.977 63.6599 351.682 64.9552 350.084 64.9552C348.486 64.9552 347.191 63.6599 347.191 62.062C347.191 60.4641 348.486 59.1687 350.084 59.1687C351.682 59.1687 352.977 60.4641 352.977 62.062Z" fill="white"/>
<path d="M376.124 62.062C376.124 63.6599 374.829 64.9552 373.231 64.9552C371.633 64.9552 370.337 63.6599 370.337 62.062C370.337 60.4641 371.633 59.1687 373.231 59.1687C374.829 59.1687 376.124 60.4641 376.124 62.062Z" fill="white"/>
<path d="M399.269 62.062C399.269 63.6599 397.974 64.9552 396.376 64.9552C394.778 64.9552 393.483 63.6599 393.483 62.062C393.483 60.4641 394.778 59.1687 396.376 59.1687C397.974 59.1687 399.269 60.4641 399.269 62.062Z" fill="white"/>
<path d="M422.415 62.062C422.415 63.6599 421.12 64.9552 419.522 64.9552C417.924 64.9552 416.629 63.6599 416.629 62.062C416.629 60.4641 417.924 59.1687 419.522 59.1687C421.12 59.1687 422.415 60.4641 422.415 62.062Z" fill="white"/>
<path d="M445.562 62.062C445.562 63.6599 444.266 64.9552 442.669 64.9552C441.071 64.9552 439.775 63.6599 439.775 62.062C439.775 60.4641 441.071 59.1687 442.669 59.1687C444.266 59.1687 445.562 60.4641 445.562 62.062Z" fill="white"/>
<path d="M468.708 62.062C468.708 63.6599 467.412 64.9552 465.814 64.9552C464.216 64.9552 462.921 63.6599 462.921 62.062C462.921 60.4641 464.216 59.1687 465.814 59.1687C467.412 59.1687 468.708 60.4641 468.708 62.062Z" fill="white"/>
<path d="M491.854 62.062C491.854 63.6599 490.559 64.9552 488.961 64.9552C487.363 64.9552 486.068 63.6599 486.068 62.062C486.068 60.4641 487.363 59.1687 488.961 59.1687C490.559 59.1687 491.854 60.4641 491.854 62.062Z" fill="white"/>
<path d="M515 62.062C515 63.6599 513.705 64.9552 512.107 64.9552C510.509 64.9552 509.214 63.6599 509.214 62.062C509.214 60.4641 510.509 59.1687 512.107 59.1687C513.705 59.1687 515 60.4641 515 62.062Z" fill="white"/>
<path d="M5.78651 85.2078C5.78651 86.8057 4.49116 88.101 2.89326 88.101C1.29536 88.101 0 86.8057 0 85.2078C0 83.6099 1.29536 82.3145 2.89326 82.3145C4.49116 82.3145 5.78651 83.6099 5.78651 85.2078Z" fill="white"/>
<path d="M28.9328 85.2078C28.9328 86.8057 27.6374 88.101 26.0395 88.101C24.4416 88.101 23.1462 86.8057 23.1462 85.2078C23.1462 83.6099 24.4416 82.3145 26.0395 82.3145C27.6374 82.3145 28.9328 83.6099 28.9328 85.2078Z" fill="white"/>
<path d="M52.0784 85.2078C52.0784 86.8057 50.7831 88.101 49.1852 88.101C47.5873 88.101 46.2919 86.8057 46.2919 85.2078C46.2919 83.6099 47.5873 82.3145 49.1852 82.3145C50.7831 82.3145 52.0784 83.6099 52.0784 85.2078Z" fill="white"/>
<path d="M75.2246 85.2078C75.2246 86.8057 73.9293 88.101 72.3314 88.101C70.7335 88.101 69.4381 86.8057 69.4381 85.2078C69.4381 83.6099 70.7335 82.3145 72.3314 82.3145C73.9293 82.3145 75.2246 83.6099 75.2246 85.2078Z" fill="white"/>
<path d="M98.3709 85.2078C98.3709 86.8057 97.0755 88.101 95.4776 88.101C93.8797 88.101 92.5844 86.8057 92.5844 85.2078C92.5844 83.6099 93.8797 82.3145 95.4776 82.3145C97.0755 82.3145 98.3709 83.6099 98.3709 85.2078Z" fill="white"/>
<path d="M121.517 85.2078C121.517 86.8057 120.221 88.101 118.623 88.101C117.025 88.101 115.73 86.8057 115.73 85.2078C115.73 83.6099 117.025 82.3145 118.623 82.3145C120.221 82.3145 121.517 83.6099 121.517 85.2078Z" fill="white"/>
<path d="M144.663 85.2078C144.663 86.8057 143.368 88.101 141.77 88.101C140.172 88.101 138.876 86.8057 138.876 85.2078C138.876 83.6099 140.172 82.3145 141.77 82.3145C143.368 82.3145 144.663 83.6099 144.663 85.2078Z" fill="white"/>
<path d="M167.809 85.2078C167.809 86.8057 166.514 88.101 164.916 88.101C163.318 88.101 162.023 86.8057 162.023 85.2078C162.023 83.6099 163.318 82.3145 164.916 82.3145C166.514 82.3145 167.809 83.6099 167.809 85.2078Z" fill="white"/>
<path d="M190.955 85.2078C190.955 86.8057 189.66 88.101 188.062 88.101C186.464 88.101 185.169 86.8057 185.169 85.2078C185.169 83.6099 186.464 82.3145 188.062 82.3145C189.66 82.3145 190.955 83.6099 190.955 85.2078Z" fill="white"/>
<path d="M214.101 85.2078C214.101 86.8057 212.806 88.101 211.208 88.101C209.61 88.101 208.315 86.8057 208.315 85.2078C208.315 83.6099 209.61 82.3145 211.208 82.3145C212.806 82.3145 214.101 83.6099 214.101 85.2078Z" fill="white"/>
<path d="M237.247 85.2078C237.247 86.8057 235.952 88.101 234.354 88.101C232.756 88.101 231.461 86.8057 231.461 85.2078C231.461 83.6099 232.756 82.3145 234.354 82.3145C235.952 82.3145 237.247 83.6099 237.247 85.2078Z" fill="white"/>
<path d="M260.394 85.2078C260.394 86.8057 259.098 88.101 257.5 88.101C255.903 88.101 254.607 86.8057 254.607 85.2078C254.607 83.6099 255.903 82.3145 257.5 82.3145C259.098 82.3145 260.394 83.6099 260.394 85.2078Z" fill="white"/>
<path d="M283.539 85.2078C283.539 86.8057 282.244 88.101 280.646 88.101C279.048 88.101 277.753 86.8057 277.753 85.2078C277.753 83.6099 279.048 82.3145 280.646 82.3145C282.244 82.3145 283.539 83.6099 283.539 85.2078Z" fill="white"/>
<path d="M306.685 85.2078C306.685 86.8057 305.39 88.101 303.792 88.101C302.194 88.101 300.899 86.8057 300.899 85.2078C300.899 83.6099 302.194 82.3145 303.792 82.3145C305.39 82.3145 306.685 83.6099 306.685 85.2078Z" fill="white"/>
<path d="M329.831 85.2078C329.831 86.8057 328.536 88.101 326.938 88.101C325.34 88.101 324.044 86.8057 324.044 85.2078C324.044 83.6099 325.34 82.3145 326.938 82.3145C328.536 82.3145 329.831 83.6099 329.831 85.2078Z" fill="white"/>
<path d="M352.977 85.2078C352.977 86.8057 351.682 88.101 350.084 88.101C348.486 88.101 347.191 86.8057 347.191 85.2078C347.191 83.6099 348.486 82.3145 350.084 82.3145C351.682 82.3145 352.977 83.6099 352.977 85.2078Z" fill="white"/>
<path d="M376.124 85.2078C376.124 86.8057 374.829 88.101 373.231 88.101C371.633 88.101 370.337 86.8057 370.337 85.2078C370.337 83.6099 371.633 82.3145 373.231 82.3145C374.829 82.3145 376.124 83.6099 376.124 85.2078Z" fill="white"/>
<path d="M399.269 85.2078C399.269 86.8057 397.974 88.101 396.376 88.101C394.778 88.101 393.483 86.8057 393.483 85.2078C393.483 83.6099 394.778 82.3145 396.376 82.3145C397.974 82.3145 399.269 83.6099 399.269 85.2078Z" fill="white"/>
<path d="M422.415 85.2078C422.415 86.8057 421.12 88.101 419.522 88.101C417.924 88.101 416.629 86.8057 416.629 85.2078C416.629 83.6099 417.924 82.3145 419.522 82.3145C421.12 82.3145 422.415 83.6099 422.415 85.2078Z" fill="white"/>
<path d="M445.562 85.2078C445.562 86.8057 444.266 88.101 442.669 88.101C441.071 88.101 439.775 86.8057 439.775 85.2078C439.775 83.6099 441.071 82.3145 442.669 82.3145C444.266 82.3145 445.562 83.6099 445.562 85.2078Z" fill="white"/>
<path d="M468.708 85.2078C468.708 86.8057 467.412 88.101 465.814 88.101C464.216 88.101 462.921 86.8057 462.921 85.2078C462.921 83.6099 464.216 82.3145 465.814 82.3145C467.412 82.3145 468.708 83.6099 468.708 85.2078Z" fill="white"/>
<path d="M491.854 85.2078C491.854 86.8057 490.559 88.101 488.961 88.101C487.363 88.101 486.068 86.8057 486.068 85.2078C486.068 83.6099 487.363 82.3145 488.961 82.3145C490.559 82.3145 491.854 83.6099 491.854 85.2078Z" fill="white"/>
<path d="M515 85.2078C515 86.8057 513.705 88.101 512.107 88.101C510.509 88.101 509.214 86.8057 509.214 85.2078C509.214 83.6099 510.509 82.3145 512.107 82.3145C513.705 82.3145 515 83.6099 515 85.2078Z" fill="white"/>
<path d="M5.78651 108.354C5.78651 109.952 4.49116 111.247 2.89326 111.247C1.29536 111.247 0 109.952 0 108.354C0 106.756 1.29536 105.461 2.89326 105.461C4.49116 105.461 5.78651 106.756 5.78651 108.354Z" fill="white"/>
<path d="M28.9328 108.354C28.9328 109.952 27.6374 111.247 26.0395 111.247C24.4416 111.247 23.1462 109.952 23.1462 108.354C23.1462 106.756 24.4416 105.461 26.0395 105.461C27.6374 105.461 28.9328 106.756 28.9328 108.354Z" fill="white"/>
<path d="M52.0784 108.354C52.0784 109.952 50.7831 111.247 49.1852 111.247C47.5873 111.247 46.2919 109.952 46.2919 108.354C46.2919 106.756 47.5873 105.461 49.1852 105.461C50.7831 105.461 52.0784 106.756 52.0784 108.354Z" fill="white"/>
<path d="M75.2246 108.354C75.2246 109.952 73.9293 111.247 72.3314 111.247C70.7335 111.247 69.4381 109.952 69.4381 108.354C69.4381 106.756 70.7335 105.461 72.3314 105.461C73.9293 105.461 75.2246 106.756 75.2246 108.354Z" fill="white"/>
<path d="M98.3709 108.354C98.3709 109.952 97.0755 111.247 95.4776 111.247C93.8797 111.247 92.5844 109.952 92.5844 108.354C92.5844 106.756 93.8797 105.461 95.4776 105.461C97.0755 105.461 98.3709 106.756 98.3709 108.354Z" fill="white"/>
<path d="M121.517 108.354C121.517 109.952 120.221 111.247 118.623 111.247C117.025 111.247 115.73 109.952 115.73 108.354C115.73 106.756 117.025 105.461 118.623 105.461C120.221 105.461 121.517 106.756 121.517 108.354Z" fill="white"/>
<path d="M144.663 108.354C144.663 109.952 143.368 111.247 141.77 111.247C140.172 111.247 138.876 109.952 138.876 108.354C138.876 106.756 140.172 105.461 141.77 105.461C143.368 105.461 144.663 106.756 144.663 108.354Z" fill="white"/>
<path d="M167.809 108.354C167.809 109.952 166.514 111.247 164.916 111.247C163.318 111.247 162.023 109.952 162.023 108.354C162.023 106.756 163.318 105.461 164.916 105.461C166.514 105.461 167.809 106.756 167.809 108.354Z" fill="white"/>
<path d="M190.955 108.354C190.955 109.952 189.66 111.247 188.062 111.247C186.464 111.247 185.169 109.952 185.169 108.354C185.169 106.756 186.464 105.461 188.062 105.461C189.66 105.461 190.955 106.756 190.955 108.354Z" fill="white"/>
<path d="M214.101 108.354C214.101 109.952 212.806 111.247 211.208 111.247C209.61 111.247 208.315 109.952 208.315 108.354C208.315 106.756 209.61 105.461 211.208 105.461C212.806 105.461 214.101 106.756 214.101 108.354Z" fill="white"/>
<path d="M237.247 108.354C237.247 109.952 235.952 111.247 234.354 111.247C232.756 111.247 231.461 109.952 231.461 108.354C231.461 106.756 232.756 105.461 234.354 105.461C235.952 105.461 237.247 106.756 237.247 108.354Z" fill="white"/>
<path d="M260.394 108.354C260.394 109.952 259.098 111.247 257.5 111.247C255.903 111.247 254.607 109.952 254.607 108.354C254.607 106.756 255.903 105.461 257.5 105.461C259.098 105.461 260.394 106.756 260.394 108.354Z" fill="white"/>
<path d="M283.539 108.354C283.539 109.952 282.244 111.247 280.646 111.247C279.048 111.247 277.753 109.952 277.753 108.354C277.753 106.756 279.048 105.461 280.646 105.461C282.244 105.461 283.539 106.756 283.539 108.354Z" fill="white"/>
<path d="M306.685 108.354C306.685 109.952 305.39 111.247 303.792 111.247C302.194 111.247 300.899 109.952 300.899 108.354C300.899 106.756 302.194 105.461 303.792 105.461C305.39 105.461 306.685 106.756 306.685 108.354Z" fill="white"/>
<path d="M329.831 108.354C329.831 109.952 328.536 111.247 326.938 111.247C325.34 111.247 324.044 109.952 324.044 108.354C324.044 106.756 325.34 105.461 326.938 105.461C328.536 105.461 329.831 106.756 329.831 108.354Z" fill="white"/>
<path d="M352.977 108.354C352.977 109.952 351.682 111.247 350.084 111.247C348.486 111.247 347.191 109.952 347.191 108.354C347.191 106.756 348.486 105.461 350.084 105.461C351.682 105.461 352.977 106.756 352.977 108.354Z" fill="white"/>
<path d="M376.124 108.354C376.124 109.952 374.829 111.247 373.231 111.247C371.633 111.247 370.337 109.952 370.337 108.354C370.337 106.756 371.633 105.461 373.231 105.461C374.829 105.461 376.124 106.756 376.124 108.354Z" fill="white"/>
<path d="M399.269 108.354C399.269 109.952 397.974 111.247 396.376 111.247C394.778 111.247 393.483 109.952 393.483 108.354C393.483 106.756 394.778 105.461 396.376 105.461C397.974 105.461 399.269 106.756 399.269 108.354Z" fill="white"/>
<path d="M422.415 108.354C422.415 109.952 421.12 111.247 419.522 111.247C417.924 111.247 416.629 109.952 416.629 108.354C416.629 106.756 417.924 105.461 419.522 105.461C421.12 105.461 422.415 106.756 422.415 108.354Z" fill="white"/>
<path d="M445.562 108.354C445.562 109.952 444.266 111.247 442.669 111.247C441.071 111.247 439.775 109.952 439.775 108.354C439.775 106.756 441.071 105.461 442.669 105.461C444.266 105.461 445.562 106.756 445.562 108.354Z" fill="white"/>
<path d="M468.708 108.354C468.708 109.952 467.412 111.247 465.814 111.247C464.216 111.247 462.921 109.952 462.921 108.354C462.921 106.756 464.216 105.461 465.814 105.461C467.412 105.461 468.708 106.756 468.708 108.354Z" fill="white"/>
<path d="M491.854 108.354C491.854 109.952 490.559 111.247 488.961 111.247C487.363 111.247 486.068 109.952 486.068 108.354C486.068 106.756 487.363 105.461 488.961 105.461C490.559 105.461 491.854 106.756 491.854 108.354Z" fill="white"/>
<path d="M515 108.354C515 109.952 513.705 111.247 512.107 111.247C510.509 111.247 509.214 109.952 509.214 108.354C509.214 106.756 510.509 105.461 512.107 105.461C513.705 105.461 515 106.756 515 108.354Z" fill="white"/>
<path d="M5.78651 131.5C5.78651 133.098 4.49116 134.393 2.89326 134.393C1.29536 134.393 0 133.098 0 131.5C0 129.902 1.29536 128.606 2.89326 128.606C4.49116 128.606 5.78651 129.902 5.78651 131.5Z" fill="white"/>
<path d="M28.9328 131.5C28.9328 133.098 27.6374 134.393 26.0395 134.393C24.4416 134.393 23.1462 133.098 23.1462 131.5C23.1462 129.902 24.4416 128.606 26.0395 128.606C27.6374 128.606 28.9328 129.902 28.9328 131.5Z" fill="white"/>
<path d="M52.0784 131.5C52.0784 133.098 50.7831 134.393 49.1852 134.393C47.5873 134.393 46.2919 133.098 46.2919 131.5C46.2919 129.902 47.5873 128.606 49.1852 128.606C50.7831 128.606 52.0784 129.902 52.0784 131.5Z" fill="white"/>
<path d="M75.2246 131.5C75.2246 133.098 73.9293 134.393 72.3314 134.393C70.7335 134.393 69.4381 133.098 69.4381 131.5C69.4381 129.902 70.7335 128.606 72.3314 128.606C73.9293 128.606 75.2246 129.902 75.2246 131.5Z" fill="white"/>
<path d="M98.3709 131.5C98.3709 133.098 97.0755 134.393 95.4776 134.393C93.8797 134.393 92.5844 133.098 92.5844 131.5C92.5844 129.902 93.8797 128.606 95.4776 128.606C97.0755 128.606 98.3709 129.902 98.3709 131.5Z" fill="white"/>
<path d="M121.517 131.5C121.517 133.098 120.221 134.393 118.623 134.393C117.025 134.393 115.73 133.098 115.73 131.5C115.73 129.902 117.025 128.606 118.623 128.606C120.221 128.606 121.517 129.902 121.517 131.5Z" fill="white"/>
<path d="M144.663 131.5C144.663 133.098 143.368 134.393 141.77 134.393C140.172 134.393 138.876 133.098 138.876 131.5C138.876 129.902 140.172 128.606 141.77 128.606C143.368 128.606 144.663 129.902 144.663 131.5Z" fill="white"/>
<path d="M167.809 131.5C167.809 133.098 166.514 134.393 164.916 134.393C163.318 134.393 162.023 133.098 162.023 131.5C162.023 129.902 163.318 128.606 164.916 128.606C166.514 128.606 167.809 129.902 167.809 131.5Z" fill="white"/>
<path d="M190.955 131.5C190.955 133.098 189.66 134.393 188.062 134.393C186.464 134.393 185.169 133.098 185.169 131.5C185.169 129.902 186.464 128.606 188.062 128.606C189.66 128.606 190.955 129.902 190.955 131.5Z" fill="white"/>
<path d="M214.101 131.5C214.101 133.098 212.806 134.393 211.208 134.393C209.61 134.393 208.315 133.098 208.315 131.5C208.315 129.902 209.61 128.606 211.208 128.606C212.806 128.606 214.101 129.902 214.101 131.5Z" fill="white"/>
<path d="M237.247 131.5C237.247 133.098 235.952 134.393 234.354 134.393C232.756 134.393 231.461 133.098 231.461 131.5C231.461 129.902 232.756 128.606 234.354 128.606C235.952 128.606 237.247 129.902 237.247 131.5Z" fill="white"/>
<path d="M260.394 131.5C260.394 133.098 259.098 134.393 257.5 134.393C255.903 134.393 254.607 133.098 254.607 131.5C254.607 129.902 255.903 128.606 257.5 128.606C259.098 128.606 260.394 129.902 260.394 131.5Z" fill="white"/>
<path d="M283.539 131.5C283.539 133.098 282.244 134.393 280.646 134.393C279.048 134.393 277.753 133.098 277.753 131.5C277.753 129.902 279.048 128.606 280.646 128.606C282.244 128.606 283.539 129.902 283.539 131.5Z" fill="white"/>
<path d="M306.685 131.5C306.685 133.098 305.39 134.393 303.792 134.393C302.194 134.393 300.899 133.098 300.899 131.5C300.899 129.902 302.194 128.606 303.792 128.606C305.39 128.606 306.685 129.902 306.685 131.5Z" fill="white"/>
<path d="M329.831 131.5C329.831 133.098 328.536 134.393 326.938 134.393C325.34 134.393 324.044 133.098 324.044 131.5C324.044 129.902 325.34 128.606 326.938 128.606C328.536 128.606 329.831 129.902 329.831 131.5Z" fill="white"/>
<path d="M352.977 131.5C352.977 133.098 351.682 134.393 350.084 134.393C348.486 134.393 347.191 133.098 347.191 131.5C347.191 129.902 348.486 128.606 350.084 128.606C351.682 128.606 352.977 129.902 352.977 131.5Z" fill="white"/>
<path d="M376.124 131.5C376.124 133.098 374.829 134.393 373.231 134.393C371.633 134.393 370.337 133.098 370.337 131.5C370.337 129.902 371.633 128.606 373.231 128.606C374.829 128.606 376.124 129.902 376.124 131.5Z" fill="white"/>
<path d="M399.269 131.5C399.269 133.098 397.974 134.393 396.376 134.393C394.778 134.393 393.483 133.098 393.483 131.5C393.483 129.902 394.778 128.606 396.376 128.606C397.974 128.606 399.269 129.902 399.269 131.5Z" fill="white"/>
<path d="M422.415 131.5C422.415 133.098 421.12 134.393 419.522 134.393C417.924 134.393 416.629 133.098 416.629 131.5C416.629 129.902 417.924 128.606 419.522 128.606C421.12 128.606 422.415 129.902 422.415 131.5Z" fill="white"/>
<path d="M445.562 131.5C445.562 133.098 444.266 134.393 442.669 134.393C441.071 134.393 439.775 133.098 439.775 131.5C439.775 129.902 441.071 128.606 442.669 128.606C444.266 128.606 445.562 129.902 445.562 131.5Z" fill="white"/>
<path d="M468.708 131.5C468.708 133.098 467.412 134.393 465.814 134.393C464.216 134.393 462.921 133.098 462.921 131.5C462.921 129.902 464.216 128.606 465.814 128.606C467.412 128.606 468.708 129.902 468.708 131.5Z" fill="white"/>
<path d="M491.854 131.5C491.854 133.098 490.559 134.393 488.961 134.393C487.363 134.393 486.068 133.098 486.068 131.5C486.068 129.902 487.363 128.606 488.961 128.606C490.559 128.606 491.854 129.902 491.854 131.5Z" fill="white"/>
<path d="M515 131.5C515 133.098 513.705 134.393 512.107 134.393C510.509 134.393 509.214 133.098 509.214 131.5C509.214 129.902 510.509 128.606 512.107 128.606C513.705 128.606 515 129.902 515 131.5Z" fill="white"/>
<path d="M5.78651 154.646C5.78651 156.244 4.49116 157.539 2.89326 157.539C1.29536 157.539 0 156.244 0 154.646C0 153.048 1.29536 151.753 2.89326 151.753C4.49116 151.753 5.78651 153.048 5.78651 154.646Z" fill="white"/>
<path d="M28.9328 154.646C28.9328 156.244 27.6374 157.539 26.0395 157.539C24.4416 157.539 23.1462 156.244 23.1462 154.646C23.1462 153.048 24.4416 151.753 26.0395 151.753C27.6374 151.753 28.9328 153.048 28.9328 154.646Z" fill="white"/>
<path d="M52.0784 154.646C52.0784 156.244 50.7831 157.539 49.1852 157.539C47.5873 157.539 46.2919 156.244 46.2919 154.646C46.2919 153.048 47.5873 151.753 49.1852 151.753C50.7831 151.753 52.0784 153.048 52.0784 154.646Z" fill="white"/>
<path d="M75.2246 154.646C75.2246 156.244 73.9293 157.539 72.3314 157.539C70.7335 157.539 69.4381 156.244 69.4381 154.646C69.4381 153.048 70.7335 151.753 72.3314 151.753C73.9293 151.753 75.2246 153.048 75.2246 154.646Z" fill="white"/>
<path d="M98.3709 154.646C98.3709 156.244 97.0755 157.539 95.4776 157.539C93.8797 157.539 92.5844 156.244 92.5844 154.646C92.5844 153.048 93.8797 151.753 95.4776 151.753C97.0755 151.753 98.3709 153.048 98.3709 154.646Z" fill="white"/>
<path d="M121.517 154.646C121.517 156.244 120.221 157.539 118.623 157.539C117.025 157.539 115.73 156.244 115.73 154.646C115.73 153.048 117.025 151.753 118.623 151.753C120.221 151.753 121.517 153.048 121.517 154.646Z" fill="white"/>
<path d="M144.663 154.646C144.663 156.244 143.368 157.539 141.77 157.539C140.172 157.539 138.876 156.244 138.876 154.646C138.876 153.048 140.172 151.753 141.77 151.753C143.368 151.753 144.663 153.048 144.663 154.646Z" fill="white"/>
<path d="M167.809 154.646C167.809 156.244 166.514 157.539 164.916 157.539C163.318 157.539 162.023 156.244 162.023 154.646C162.023 153.048 163.318 151.753 164.916 151.753C166.514 151.753 167.809 153.048 167.809 154.646Z" fill="white"/>
<path d="M190.955 154.646C190.955 156.244 189.66 157.539 188.062 157.539C186.464 157.539 185.169 156.244 185.169 154.646C185.169 153.048 186.464 151.753 188.062 151.753C189.66 151.753 190.955 153.048 190.955 154.646Z" fill="white"/>
<path d="M214.101 154.646C214.101 156.244 212.806 157.539 211.208 157.539C209.61 157.539 208.315 156.244 208.315 154.646C208.315 153.048 209.61 151.753 211.208 151.753C212.806 151.753 214.101 153.048 214.101 154.646Z" fill="white"/>
<path d="M237.247 154.646C237.247 156.244 235.952 157.539 234.354 157.539C232.756 157.539 231.461 156.244 231.461 154.646C231.461 153.048 232.756 151.753 234.354 151.753C235.952 151.753 237.247 153.048 237.247 154.646Z" fill="white"/>
<path d="M260.394 154.646C260.394 156.244 259.098 157.539 257.5 157.539C255.903 157.539 254.607 156.244 254.607 154.646C254.607 153.048 255.903 151.753 257.5 151.753C259.098 151.753 260.394 153.048 260.394 154.646Z" fill="white"/>
<path d="M283.539 154.646C283.539 156.244 282.244 157.539 280.646 157.539C279.048 157.539 277.753 156.244 277.753 154.646C277.753 153.048 279.048 151.753 280.646 151.753C282.244 151.753 283.539 153.048 283.539 154.646Z" fill="white"/>
<path d="M306.685 154.646C306.685 156.244 305.39 157.539 303.792 157.539C302.194 157.539 300.899 156.244 300.899 154.646C300.899 153.048 302.194 151.753 303.792 151.753C305.39 151.753 306.685 153.048 306.685 154.646Z" fill="white"/>
<path d="M329.831 154.646C329.831 156.244 328.536 157.539 326.938 157.539C325.34 157.539 324.044 156.244 324.044 154.646C324.044 153.048 325.34 151.753 326.938 151.753C328.536 151.753 329.831 153.048 329.831 154.646Z" fill="white"/>
<path d="M352.977 154.646C352.977 156.244 351.682 157.539 350.084 157.539C348.486 157.539 347.191 156.244 347.191 154.646C347.191 153.048 348.486 151.753 350.084 151.753C351.682 151.753 352.977 153.048 352.977 154.646Z" fill="white"/>
<path d="M376.124 154.646C376.124 156.244 374.829 157.539 373.231 157.539C371.633 157.539 370.337 156.244 370.337 154.646C370.337 153.048 371.633 151.753 373.231 151.753C374.829 151.753 376.124 153.048 376.124 154.646Z" fill="white"/>
<path d="M399.269 154.646C399.269 156.244 397.974 157.539 396.376 157.539C394.778 157.539 393.483 156.244 393.483 154.646C393.483 153.048 394.778 151.753 396.376 151.753C397.974 151.753 399.269 153.048 399.269 154.646Z" fill="white"/>
<path d="M422.415 154.646C422.415 156.244 421.12 157.539 419.522 157.539C417.924 157.539 416.629 156.244 416.629 154.646C416.629 153.048 417.924 151.753 419.522 151.753C421.12 151.753 422.415 153.048 422.415 154.646Z" fill="white"/>
<path d="M445.562 154.646C445.562 156.244 444.266 157.539 442.669 157.539C441.071 157.539 439.775 156.244 439.775 154.646C439.775 153.048 441.071 151.753 442.669 151.753C444.266 151.753 445.562 153.048 445.562 154.646Z" fill="white"/>
<path d="M468.708 154.646C468.708 156.244 467.412 157.539 465.814 157.539C464.216 157.539 462.921 156.244 462.921 154.646C462.921 153.048 464.216 151.753 465.814 151.753C467.412 151.753 468.708 153.048 468.708 154.646Z" fill="white"/>
<path d="M491.854 154.646C491.854 156.244 490.559 157.539 488.961 157.539C487.363 157.539 486.068 156.244 486.068 154.646C486.068 153.048 487.363 151.753 488.961 151.753C490.559 151.753 491.854 153.048 491.854 154.646Z" fill="white"/>
<path d="M515 154.646C515 156.244 513.705 157.539 512.107 157.539C510.509 157.539 509.214 156.244 509.214 154.646C509.214 153.048 510.509 151.753 512.107 151.753C513.705 151.753 515 153.048 515 154.646Z" fill="white"/>
<path d="M5.78651 177.792C5.78651 179.39 4.49116 180.685 2.89326 180.685C1.29536 180.685 0 179.39 0 177.792C0 176.194 1.29536 174.899 2.89326 174.899C4.49116 174.899 5.78651 176.194 5.78651 177.792Z" fill="white"/>
<path d="M28.9328 177.792C28.9328 179.39 27.6374 180.685 26.0395 180.685C24.4416 180.685 23.1462 179.39 23.1462 177.792C23.1462 176.194 24.4416 174.899 26.0395 174.899C27.6374 174.899 28.9328 176.194 28.9328 177.792Z" fill="white"/>
<path d="M52.0784 177.792C52.0784 179.39 50.7831 180.685 49.1852 180.685C47.5873 180.685 46.2919 179.39 46.2919 177.792C46.2919 176.194 47.5873 174.899 49.1852 174.899C50.7831 174.899 52.0784 176.194 52.0784 177.792Z" fill="white"/>
<path d="M75.2246 177.792C75.2246 179.39 73.9293 180.685 72.3314 180.685C70.7335 180.685 69.4381 179.39 69.4381 177.792C69.4381 176.194 70.7335 174.899 72.3314 174.899C73.9293 174.899 75.2246 176.194 75.2246 177.792Z" fill="white"/>
<path d="M98.3709 177.792C98.3709 179.39 97.0755 180.685 95.4776 180.685C93.8797 180.685 92.5844 179.39 92.5844 177.792C92.5844 176.194 93.8797 174.899 95.4776 174.899C97.0755 174.899 98.3709 176.194 98.3709 177.792Z" fill="white"/>
<path d="M121.517 177.792C121.517 179.39 120.221 180.685 118.623 180.685C117.025 180.685 115.73 179.39 115.73 177.792C115.73 176.194 117.025 174.899 118.623 174.899C120.221 174.899 121.517 176.194 121.517 177.792Z" fill="white"/>
<path d="M144.663 177.792C144.663 179.39 143.368 180.685 141.77 180.685C140.172 180.685 138.876 179.39 138.876 177.792C138.876 176.194 140.172 174.899 141.77 174.899C143.368 174.899 144.663 176.194 144.663 177.792Z" fill="white"/>
<path d="M167.809 177.792C167.809 179.39 166.514 180.685 164.916 180.685C163.318 180.685 162.023 179.39 162.023 177.792C162.023 176.194 163.318 174.899 164.916 174.899C166.514 174.899 167.809 176.194 167.809 177.792Z" fill="white"/>
<path d="M190.955 177.792C190.955 179.39 189.66 180.685 188.062 180.685C186.464 180.685 185.169 179.39 185.169 177.792C185.169 176.194 186.464 174.899 188.062 174.899C189.66 174.899 190.955 176.194 190.955 177.792Z" fill="white"/>
<path d="M214.101 177.792C214.101 179.39 212.806 180.685 211.208 180.685C209.61 180.685 208.315 179.39 208.315 177.792C208.315 176.194 209.61 174.899 211.208 174.899C212.806 174.899 214.101 176.194 214.101 177.792Z" fill="white"/>
<path d="M237.247 177.792C237.247 179.39 235.952 180.685 234.354 180.685C232.756 180.685 231.461 179.39 231.461 177.792C231.461 176.194 232.756 174.899 234.354 174.899C235.952 174.899 237.247 176.194 237.247 177.792Z" fill="white"/>
<path d="M260.394 177.792C260.394 179.39 259.098 180.685 257.5 180.685C255.903 180.685 254.607 179.39 254.607 177.792C254.607 176.194 255.903 174.899 257.5 174.899C259.098 174.899 260.394 176.194 260.394 177.792Z" fill="white"/>
<path d="M283.539 177.792C283.539 179.39 282.244 180.685 280.646 180.685C279.048 180.685 277.753 179.39 277.753 177.792C277.753 176.194 279.048 174.899 280.646 174.899C282.244 174.899 283.539 176.194 283.539 177.792Z" fill="white"/>
<path d="M306.685 177.792C306.685 179.39 305.39 180.685 303.792 180.685C302.194 180.685 300.899 179.39 300.899 177.792C300.899 176.194 302.194 174.899 303.792 174.899C305.39 174.899 306.685 176.194 306.685 177.792Z" fill="white"/>
<path d="M329.831 177.792C329.831 179.39 328.536 180.685 326.938 180.685C325.34 180.685 324.044 179.39 324.044 177.792C324.044 176.194 325.34 174.899 326.938 174.899C328.536 174.899 329.831 176.194 329.831 177.792Z" fill="white"/>
<path d="M352.977 177.792C352.977 179.39 351.682 180.685 350.084 180.685C348.486 180.685 347.191 179.39 347.191 177.792C347.191 176.194 348.486 174.899 350.084 174.899C351.682 174.899 352.977 176.194 352.977 177.792Z" fill="white"/>
<path d="M376.124 177.792C376.124 179.39 374.829 180.685 373.231 180.685C371.633 180.685 370.337 179.39 370.337 177.792C370.337 176.194 371.633 174.899 373.231 174.899C374.829 174.899 376.124 176.194 376.124 177.792Z" fill="white"/>
<path d="M399.269 177.792C399.269 179.39 397.974 180.685 396.376 180.685C394.778 180.685 393.483 179.39 393.483 177.792C393.483 176.194 394.778 174.899 396.376 174.899C397.974 174.899 399.269 176.194 399.269 177.792Z" fill="white"/>
<path d="M422.415 177.792C422.415 179.39 421.12 180.685 419.522 180.685C417.924 180.685 416.629 179.39 416.629 177.792C416.629 176.194 417.924 174.899 419.522 174.899C421.12 174.899 422.415 176.194 422.415 177.792Z" fill="white"/>
<path d="M445.562 177.792C445.562 179.39 444.266 180.685 442.669 180.685C441.071 180.685 439.775 179.39 439.775 177.792C439.775 176.194 441.071 174.899 442.669 174.899C444.266 174.899 445.562 176.194 445.562 177.792Z" fill="white"/>
<path d="M468.708 177.792C468.708 179.39 467.412 180.685 465.814 180.685C464.216 180.685 462.921 179.39 462.921 177.792C462.921 176.194 464.216 174.899 465.814 174.899C467.412 174.899 468.708 176.194 468.708 177.792Z" fill="white"/>
<path d="M491.854 177.792C491.854 179.39 490.559 180.685 488.961 180.685C487.363 180.685 486.068 179.39 486.068 177.792C486.068 176.194 487.363 174.899 488.961 174.899C490.559 174.899 491.854 176.194 491.854 177.792Z" fill="white"/>
<path d="M515 177.792C515 179.39 513.705 180.685 512.107 180.685C510.509 180.685 509.214 179.39 509.214 177.792C509.214 176.194 510.509 174.899 512.107 174.899C513.705 174.899 515 176.194 515 177.792Z" fill="white"/>
<path d="M5.78651 200.938C5.78651 202.536 4.49116 203.831 2.89326 203.831C1.29536 203.831 0 202.536 0 200.938C0 199.34 1.29536 198.045 2.89326 198.045C4.49116 198.045 5.78651 199.34 5.78651 200.938Z" fill="white"/>
<path d="M28.9328 200.938C28.9328 202.536 27.6374 203.831 26.0395 203.831C24.4416 203.831 23.1462 202.536 23.1462 200.938C23.1462 199.34 24.4416 198.045 26.0395 198.045C27.6374 198.045 28.9328 199.34 28.9328 200.938Z" fill="white"/>
<path d="M52.0784 200.938C52.0784 202.536 50.7831 203.831 49.1852 203.831C47.5873 203.831 46.2919 202.536 46.2919 200.938C46.2919 199.34 47.5873 198.045 49.1852 198.045C50.7831 198.045 52.0784 199.34 52.0784 200.938Z" fill="white"/>
<path d="M75.2246 200.938C75.2246 202.536 73.9293 203.831 72.3314 203.831C70.7335 203.831 69.4381 202.536 69.4381 200.938C69.4381 199.34 70.7335 198.045 72.3314 198.045C73.9293 198.045 75.2246 199.34 75.2246 200.938Z" fill="white"/>
<path d="M98.3709 200.938C98.3709 202.536 97.0755 203.831 95.4776 203.831C93.8797 203.831 92.5844 202.536 92.5844 200.938C92.5844 199.34 93.8797 198.045 95.4776 198.045C97.0755 198.045 98.3709 199.34 98.3709 200.938Z" fill="white"/>
<path d="M121.517 200.938C121.517 202.536 120.221 203.831 118.623 203.831C117.025 203.831 115.73 202.536 115.73 200.938C115.73 199.34 117.025 198.045 118.623 198.045C120.221 198.045 121.517 199.34 121.517 200.938Z" fill="white"/>
<path d="M144.663 200.938C144.663 202.536 143.368 203.831 141.77 203.831C140.172 203.831 138.876 202.536 138.876 200.938C138.876 199.34 140.172 198.045 141.77 198.045C143.368 198.045 144.663 199.34 144.663 200.938Z" fill="white"/>
<path d="M167.809 200.938C167.809 202.536 166.514 203.831 164.916 203.831C163.318 203.831 162.023 202.536 162.023 200.938C162.023 199.34 163.318 198.045 164.916 198.045C166.514 198.045 167.809 199.34 167.809 200.938Z" fill="white"/>
<path d="M190.955 200.938C190.955 202.536 189.66 203.831 188.062 203.831C186.464 203.831 185.169 202.536 185.169 200.938C185.169 199.34 186.464 198.045 188.062 198.045C189.66 198.045 190.955 199.34 190.955 200.938Z" fill="white"/>
<path d="M214.101 200.938C214.101 202.536 212.806 203.831 211.208 203.831C209.61 203.831 208.315 202.536 208.315 200.938C208.315 199.34 209.61 198.045 211.208 198.045C212.806 198.045 214.101 199.34 214.101 200.938Z" fill="white"/>
<path d="M237.247 200.938C237.247 202.536 235.952 203.831 234.354 203.831C232.756 203.831 231.461 202.536 231.461 200.938C231.461 199.34 232.756 198.045 234.354 198.045C235.952 198.045 237.247 199.34 237.247 200.938Z" fill="white"/>
<path d="M260.394 200.938C260.394 202.536 259.098 203.831 257.5 203.831C255.903 203.831 254.607 202.536 254.607 200.938C254.607 199.34 255.903 198.045 257.5 198.045C259.098 198.045 260.394 199.34 260.394 200.938Z" fill="white"/>
<path d="M283.539 200.938C283.539 202.536 282.244 203.831 280.646 203.831C279.048 203.831 277.753 202.536 277.753 200.938C277.753 199.34 279.048 198.045 280.646 198.045C282.244 198.045 283.539 199.34 283.539 200.938Z" fill="white"/>
<path d="M306.685 200.938C306.685 202.536 305.39 203.831 303.792 203.831C302.194 203.831 300.899 202.536 300.899 200.938C300.899 199.34 302.194 198.045 303.792 198.045C305.39 198.045 306.685 199.34 306.685 200.938Z" fill="white"/>
<path d="M329.831 200.938C329.831 202.536 328.536 203.831 326.938 203.831C325.34 203.831 324.044 202.536 324.044 200.938C324.044 199.34 325.34 198.045 326.938 198.045C328.536 198.045 329.831 199.34 329.831 200.938Z" fill="white"/>
<path d="M352.977 200.938C352.977 202.536 351.682 203.831 350.084 203.831C348.486 203.831 347.191 202.536 347.191 200.938C347.191 199.34 348.486 198.045 350.084 198.045C351.682 198.045 352.977 199.34 352.977 200.938Z" fill="white"/>
<path d="M376.124 200.938C376.124 202.536 374.829 203.831 373.231 203.831C371.633 203.831 370.337 202.536 370.337 200.938C370.337 199.34 371.633 198.045 373.231 198.045C374.829 198.045 376.124 199.34 376.124 200.938Z" fill="white"/>
<path d="M399.269 200.938C399.269 202.536 397.974 203.831 396.376 203.831C394.778 203.831 393.483 202.536 393.483 200.938C393.483 199.34 394.778 198.045 396.376 198.045C397.974 198.045 399.269 199.34 399.269 200.938Z" fill="white"/>
<path d="M422.415 200.938C422.415 202.536 421.12 203.831 419.522 203.831C417.924 203.831 416.629 202.536 416.629 200.938C416.629 199.34 417.924 198.045 419.522 198.045C421.12 198.045 422.415 199.34 422.415 200.938Z" fill="white"/>
<path d="M445.562 200.938C445.562 202.536 444.266 203.831 442.669 203.831C441.071 203.831 439.775 202.536 439.775 200.938C439.775 199.34 441.071 198.045 442.669 198.045C444.266 198.045 445.562 199.34 445.562 200.938Z" fill="white"/>
<path d="M468.708 200.938C468.708 202.536 467.412 203.831 465.814 203.831C464.216 203.831 462.921 202.536 462.921 200.938C462.921 199.34 464.216 198.045 465.814 198.045C467.412 198.045 468.708 199.34 468.708 200.938Z" fill="white"/>
<path d="M491.854 200.938C491.854 202.536 490.559 203.831 488.961 203.831C487.363 203.831 486.068 202.536 486.068 200.938C486.068 199.34 487.363 198.045 488.961 198.045C490.559 198.045 491.854 199.34 491.854 200.938Z" fill="white"/>
<path d="M515 200.938C515 202.536 513.705 203.831 512.107 203.831C510.509 203.831 509.214 202.536 509.214 200.938C509.214 199.34 510.509 198.045 512.107 198.045C513.705 198.045 515 199.34 515 200.938Z" fill="white"/>
<path d="M5.78651 224.084C5.78651 225.682 4.49116 226.977 2.89326 226.977C1.29536 226.977 0 225.682 0 224.084C0 222.486 1.29536 221.19 2.89326 221.19C4.49116 221.19 5.78651 222.486 5.78651 224.084Z" fill="white"/>
<path d="M28.9328 224.084C28.9328 225.682 27.6374 226.977 26.0395 226.977C24.4416 226.977 23.1462 225.682 23.1462 224.084C23.1462 222.486 24.4416 221.19 26.0395 221.19C27.6374 221.19 28.9328 222.486 28.9328 224.084Z" fill="white"/>
<path d="M52.0784 224.084C52.0784 225.682 50.7831 226.977 49.1852 226.977C47.5873 226.977 46.2919 225.682 46.2919 224.084C46.2919 222.486 47.5873 221.19 49.1852 221.19C50.7831 221.19 52.0784 222.486 52.0784 224.084Z" fill="white"/>
<path d="M75.2246 224.084C75.2246 225.682 73.9293 226.977 72.3314 226.977C70.7335 226.977 69.4381 225.682 69.4381 224.084C69.4381 222.486 70.7335 221.19 72.3314 221.19C73.9293 221.19 75.2246 222.486 75.2246 224.084Z" fill="white"/>
<path d="M98.3709 224.084C98.3709 225.682 97.0755 226.977 95.4776 226.977C93.8797 226.977 92.5844 225.682 92.5844 224.084C92.5844 222.486 93.8797 221.19 95.4776 221.19C97.0755 221.19 98.3709 222.486 98.3709 224.084Z" fill="white"/>
<path d="M121.517 224.084C121.517 225.682 120.221 226.977 118.623 226.977C117.025 226.977 115.73 225.682 115.73 224.084C115.73 222.486 117.025 221.19 118.623 221.19C120.221 221.19 121.517 222.486 121.517 224.084Z" fill="white"/>
<path d="M144.663 224.084C144.663 225.682 143.368 226.977 141.77 226.977C140.172 226.977 138.876 225.682 138.876 224.084C138.876 222.486 140.172 221.19 141.77 221.19C143.368 221.19 144.663 222.486 144.663 224.084Z" fill="white"/>
<path d="M167.809 224.084C167.809 225.682 166.514 226.977 164.916 226.977C163.318 226.977 162.023 225.682 162.023 224.084C162.023 222.486 163.318 221.19 164.916 221.19C166.514 221.19 167.809 222.486 167.809 224.084Z" fill="white"/>
<path d="M190.955 224.084C190.955 225.682 189.66 226.977 188.062 226.977C186.464 226.977 185.169 225.682 185.169 224.084C185.169 222.486 186.464 221.19 188.062 221.19C189.66 221.19 190.955 222.486 190.955 224.084Z" fill="white"/>
<path d="M214.101 224.084C214.101 225.682 212.806 226.977 211.208 226.977C209.61 226.977 208.315 225.682 208.315 224.084C208.315 222.486 209.61 221.19 211.208 221.19C212.806 221.19 214.101 222.486 214.101 224.084Z" fill="white"/>
<path d="M237.247 224.084C237.247 225.682 235.952 226.977 234.354 226.977C232.756 226.977 231.461 225.682 231.461 224.084C231.461 222.486 232.756 221.19 234.354 221.19C235.952 221.19 237.247 222.486 237.247 224.084Z" fill="white"/>
<path d="M260.394 224.084C260.394 225.682 259.098 226.977 257.5 226.977C255.903 226.977 254.607 225.682 254.607 224.084C254.607 222.486 255.903 221.19 257.5 221.19C259.098 221.19 260.394 222.486 260.394 224.084Z" fill="white"/>
<path d="M283.539 224.084C283.539 225.682 282.244 226.977 280.646 226.977C279.048 226.977 277.753 225.682 277.753 224.084C277.753 222.486 279.048 221.19 280.646 221.19C282.244 221.19 283.539 222.486 283.539 224.084Z" fill="white"/>
<path d="M306.685 224.084C306.685 225.682 305.39 226.977 303.792 226.977C302.194 226.977 300.899 225.682 300.899 224.084C300.899 222.486 302.194 221.19 303.792 221.19C305.39 221.19 306.685 222.486 306.685 224.084Z" fill="white"/>
<path d="M329.831 224.084C329.831 225.682 328.536 226.977 326.938 226.977C325.34 226.977 324.044 225.682 324.044 224.084C324.044 222.486 325.34 221.19 326.938 221.19C328.536 221.19 329.831 222.486 329.831 224.084Z" fill="white"/>
<path d="M352.977 224.084C352.977 225.682 351.682 226.977 350.084 226.977C348.486 226.977 347.191 225.682 347.191 224.084C347.191 222.486 348.486 221.19 350.084 221.19C351.682 221.19 352.977 222.486 352.977 224.084Z" fill="white"/>
<path d="M376.124 224.084C376.124 225.682 374.829 226.977 373.231 226.977C371.633 226.977 370.337 225.682 370.337 224.084C370.337 222.486 371.633 221.19 373.231 221.19C374.829 221.19 376.124 222.486 376.124 224.084Z" fill="white"/>
<path d="M399.269 224.084C399.269 225.682 397.974 226.977 396.376 226.977C394.778 226.977 393.483 225.682 393.483 224.084C393.483 222.486 394.778 221.19 396.376 221.19C397.974 221.19 399.269 222.486 399.269 224.084Z" fill="white"/>
<path d="M422.415 224.084C422.415 225.682 421.12 226.977 419.522 226.977C417.924 226.977 416.629 225.682 416.629 224.084C416.629 222.486 417.924 221.19 419.522 221.19C421.12 221.19 422.415 222.486 422.415 224.084Z" fill="white"/>
<path d="M445.562 224.084C445.562 225.682 444.266 226.977 442.669 226.977C441.071 226.977 439.775 225.682 439.775 224.084C439.775 222.486 441.071 221.19 442.669 221.19C444.266 221.19 445.562 222.486 445.562 224.084Z" fill="white"/>
<path d="M468.708 224.084C468.708 225.682 467.412 226.977 465.814 226.977C464.216 226.977 462.921 225.682 462.921 224.084C462.921 222.486 464.216 221.19 465.814 221.19C467.412 221.19 468.708 222.486 468.708 224.084Z" fill="white"/>
<path d="M491.854 224.084C491.854 225.682 490.559 226.977 488.961 226.977C487.363 226.977 486.068 225.682 486.068 224.084C486.068 222.486 487.363 221.19 488.961 221.19C490.559 221.19 491.854 222.486 491.854 224.084Z" fill="white"/>
<path d="M515 224.084C515 225.682 513.705 226.977 512.107 226.977C510.509 226.977 509.214 225.682 509.214 224.084C509.214 222.486 510.509 221.19 512.107 221.19C513.705 221.19 515 222.486 515 224.084Z" fill="white"/>
<path d="M5.78651 247.23C5.78651 248.828 4.49116 250.123 2.89326 250.123C1.29536 250.123 0 248.828 0 247.23C0 245.632 1.29536 244.337 2.89326 244.337C4.49116 244.337 5.78651 245.632 5.78651 247.23Z" fill="white"/>
<path d="M28.9328 247.23C28.9328 248.828 27.6374 250.123 26.0395 250.123C24.4416 250.123 23.1462 248.828 23.1462 247.23C23.1462 245.632 24.4416 244.337 26.0395 244.337C27.6374 244.337 28.9328 245.632 28.9328 247.23Z" fill="white"/>
<path d="M52.0784 247.23C52.0784 248.828 50.7831 250.123 49.1852 250.123C47.5873 250.123 46.2919 248.828 46.2919 247.23C46.2919 245.632 47.5873 244.337 49.1852 244.337C50.7831 244.337 52.0784 245.632 52.0784 247.23Z" fill="white"/>
<path d="M75.2246 247.23C75.2246 248.828 73.9293 250.123 72.3314 250.123C70.7335 250.123 69.4381 248.828 69.4381 247.23C69.4381 245.632 70.7335 244.337 72.3314 244.337C73.9293 244.337 75.2246 245.632 75.2246 247.23Z" fill="white"/>
<path d="M98.3709 247.23C98.3709 248.828 97.0755 250.123 95.4776 250.123C93.8797 250.123 92.5844 248.828 92.5844 247.23C92.5844 245.632 93.8797 244.337 95.4776 244.337C97.0755 244.337 98.3709 245.632 98.3709 247.23Z" fill="white"/>
<path d="M121.517 247.23C121.517 248.828 120.221 250.123 118.623 250.123C117.025 250.123 115.73 248.828 115.73 247.23C115.73 245.632 117.025 244.337 118.623 244.337C120.221 244.337 121.517 245.632 121.517 247.23Z" fill="white"/>
<path d="M144.663 247.23C144.663 248.828 143.368 250.123 141.77 250.123C140.172 250.123 138.876 248.828 138.876 247.23C138.876 245.632 140.172 244.337 141.77 244.337C143.368 244.337 144.663 245.632 144.663 247.23Z" fill="white"/>
<path d="M167.809 247.23C167.809 248.828 166.514 250.123 164.916 250.123C163.318 250.123 162.023 248.828 162.023 247.23C162.023 245.632 163.318 244.337 164.916 244.337C166.514 244.337 167.809 245.632 167.809 247.23Z" fill="white"/>
<path d="M190.955 247.23C190.955 248.828 189.66 250.123 188.062 250.123C186.464 250.123 185.169 248.828 185.169 247.23C185.169 245.632 186.464 244.337 188.062 244.337C189.66 244.337 190.955 245.632 190.955 247.23Z" fill="white"/>
<path d="M214.101 247.23C214.101 248.828 212.806 250.123 211.208 250.123C209.61 250.123 208.315 248.828 208.315 247.23C208.315 245.632 209.61 244.337 211.208 244.337C212.806 244.337 214.101 245.632 214.101 247.23Z" fill="white"/>
<path d="M237.247 247.23C237.247 248.828 235.952 250.123 234.354 250.123C232.756 250.123 231.461 248.828 231.461 247.23C231.461 245.632 232.756 244.337 234.354 244.337C235.952 244.337 237.247 245.632 237.247 247.23Z" fill="white"/>
<path d="M260.394 247.23C260.394 248.828 259.098 250.123 257.5 250.123C255.903 250.123 254.607 248.828 254.607 247.23C254.607 245.632 255.903 244.337 257.5 244.337C259.098 244.337 260.394 245.632 260.394 247.23Z" fill="white"/>
<path d="M283.539 247.23C283.539 248.828 282.244 250.123 280.646 250.123C279.048 250.123 277.753 248.828 277.753 247.23C277.753 245.632 279.048 244.337 280.646 244.337C282.244 244.337 283.539 245.632 283.539 247.23Z" fill="white"/>
<path d="M306.685 247.23C306.685 248.828 305.39 250.123 303.792 250.123C302.194 250.123 300.899 248.828 300.899 247.23C300.899 245.632 302.194 244.337 303.792 244.337C305.39 244.337 306.685 245.632 306.685 247.23Z" fill="white"/>
<path d="M329.831 247.23C329.831 248.828 328.536 250.123 326.938 250.123C325.34 250.123 324.044 248.828 324.044 247.23C324.044 245.632 325.34 244.337 326.938 244.337C328.536 244.337 329.831 245.632 329.831 247.23Z" fill="white"/>
<path d="M352.977 247.23C352.977 248.828 351.682 250.123 350.084 250.123C348.486 250.123 347.191 248.828 347.191 247.23C347.191 245.632 348.486 244.337 350.084 244.337C351.682 244.337 352.977 245.632 352.977 247.23Z" fill="white"/>
<path d="M376.124 247.23C376.124 248.828 374.829 250.123 373.231 250.123C371.633 250.123 370.337 248.828 370.337 247.23C370.337 245.632 371.633 244.337 373.231 244.337C374.829 244.337 376.124 245.632 376.124 247.23Z" fill="white"/>
<path d="M399.269 247.23C399.269 248.828 397.974 250.123 396.376 250.123C394.778 250.123 393.483 248.828 393.483 247.23C393.483 245.632 394.778 244.337 396.376 244.337C397.974 244.337 399.269 245.632 399.269 247.23Z" fill="white"/>
<path d="M422.415 247.23C422.415 248.828 421.12 250.123 419.522 250.123C417.924 250.123 416.629 248.828 416.629 247.23C416.629 245.632 417.924 244.337 419.522 244.337C421.12 244.337 422.415 245.632 422.415 247.23Z" fill="white"/>
<path d="M445.562 247.23C445.562 248.828 444.266 250.123 442.669 250.123C441.071 250.123 439.775 248.828 439.775 247.23C439.775 245.632 441.071 244.337 442.669 244.337C444.266 244.337 445.562 245.632 445.562 247.23Z" fill="white"/>
<path d="M468.708 247.23C468.708 248.828 467.412 250.123 465.814 250.123C464.216 250.123 462.921 248.828 462.921 247.23C462.921 245.632 464.216 244.337 465.814 244.337C467.412 244.337 468.708 245.632 468.708 247.23Z" fill="white"/>
<path d="M491.854 247.23C491.854 248.828 490.559 250.123 488.961 250.123C487.363 250.123 486.068 248.828 486.068 247.23C486.068 245.632 487.363 244.337 488.961 244.337C490.559 244.337 491.854 245.632 491.854 247.23Z" fill="white"/>
<path d="M515 247.23C515 248.828 513.705 250.123 512.107 250.123C510.509 250.123 509.214 248.828 509.214 247.23C509.214 245.632 510.509 244.337 512.107 244.337C513.705 244.337 515 245.632 515 247.23Z" fill="white"/>
<path d="M5.78651 270.376C5.78651 271.974 4.49116 273.27 2.89326 273.27C1.29536 273.27 0 271.974 0 270.376C0 268.779 1.29536 267.483 2.89326 267.483C4.49116 267.483 5.78651 268.779 5.78651 270.376Z" fill="white"/>
<path d="M28.9328 270.376C28.9328 271.974 27.6374 273.27 26.0395 273.27C24.4416 273.27 23.1462 271.974 23.1462 270.376C23.1462 268.779 24.4416 267.483 26.0395 267.483C27.6374 267.483 28.9328 268.779 28.9328 270.376Z" fill="white"/>
<path d="M52.0784 270.376C52.0784 271.974 50.7831 273.27 49.1852 273.27C47.5873 273.27 46.2919 271.974 46.2919 270.376C46.2919 268.779 47.5873 267.483 49.1852 267.483C50.7831 267.483 52.0784 268.779 52.0784 270.376Z" fill="white"/>
<path d="M75.2246 270.376C75.2246 271.974 73.9293 273.27 72.3314 273.27C70.7335 273.27 69.4381 271.974 69.4381 270.376C69.4381 268.779 70.7335 267.483 72.3314 267.483C73.9293 267.483 75.2246 268.779 75.2246 270.376Z" fill="white"/>
<path d="M98.3709 270.376C98.3709 271.974 97.0755 273.27 95.4776 273.27C93.8797 273.27 92.5844 271.974 92.5844 270.376C92.5844 268.779 93.8797 267.483 95.4776 267.483C97.0755 267.483 98.3709 268.779 98.3709 270.376Z" fill="white"/>
<path d="M121.517 270.376C121.517 271.974 120.221 273.27 118.623 273.27C117.025 273.27 115.73 271.974 115.73 270.376C115.73 268.779 117.025 267.483 118.623 267.483C120.221 267.483 121.517 268.779 121.517 270.376Z" fill="white"/>
<path d="M144.663 270.376C144.663 271.974 143.368 273.27 141.77 273.27C140.172 273.27 138.876 271.974 138.876 270.376C138.876 268.779 140.172 267.483 141.77 267.483C143.368 267.483 144.663 268.779 144.663 270.376Z" fill="white"/>
<path d="M167.809 270.376C167.809 271.974 166.514 273.27 164.916 273.27C163.318 273.27 162.023 271.974 162.023 270.376C162.023 268.779 163.318 267.483 164.916 267.483C166.514 267.483 167.809 268.779 167.809 270.376Z" fill="white"/>
<path d="M190.955 270.376C190.955 271.974 189.66 273.27 188.062 273.27C186.464 273.27 185.169 271.974 185.169 270.376C185.169 268.779 186.464 267.483 188.062 267.483C189.66 267.483 190.955 268.779 190.955 270.376Z" fill="white"/>
<path d="M214.101 270.376C214.101 271.974 212.806 273.27 211.208 273.27C209.61 273.27 208.315 271.974 208.315 270.376C208.315 268.779 209.61 267.483 211.208 267.483C212.806 267.483 214.101 268.779 214.101 270.376Z" fill="white"/>
<path d="M237.247 270.376C237.247 271.974 235.952 273.27 234.354 273.27C232.756 273.27 231.461 271.974 231.461 270.376C231.461 268.779 232.756 267.483 234.354 267.483C235.952 267.483 237.247 268.779 237.247 270.376Z" fill="white"/>
<path d="M260.394 270.376C260.394 271.974 259.098 273.27 257.5 273.27C255.903 273.27 254.607 271.974 254.607 270.376C254.607 268.779 255.903 267.483 257.5 267.483C259.098 267.483 260.394 268.779 260.394 270.376Z" fill="white"/>
<path d="M283.539 270.376C283.539 271.974 282.244 273.27 280.646 273.27C279.048 273.27 277.753 271.974 277.753 270.376C277.753 268.779 279.048 267.483 280.646 267.483C282.244 267.483 283.539 268.779 283.539 270.376Z" fill="white"/>
<path d="M306.685 270.376C306.685 271.974 305.39 273.27 303.792 273.27C302.194 273.27 300.899 271.974 300.899 270.376C300.899 268.779 302.194 267.483 303.792 267.483C305.39 267.483 306.685 268.779 306.685 270.376Z" fill="white"/>
<path d="M329.831 270.376C329.831 271.974 328.536 273.27 326.938 273.27C325.34 273.27 324.044 271.974 324.044 270.376C324.044 268.779 325.34 267.483 326.938 267.483C328.536 267.483 329.831 268.779 329.831 270.376Z" fill="white"/>
<path d="M352.977 270.376C352.977 271.974 351.682 273.27 350.084 273.27C348.486 273.27 347.191 271.974 347.191 270.376C347.191 268.779 348.486 267.483 350.084 267.483C351.682 267.483 352.977 268.779 352.977 270.376Z" fill="white"/>
<path d="M376.124 270.376C376.124 271.974 374.829 273.27 373.231 273.27C371.633 273.27 370.337 271.974 370.337 270.376C370.337 268.779 371.633 267.483 373.231 267.483C374.829 267.483 376.124 268.779 376.124 270.376Z" fill="white"/>
<path d="M399.269 270.376C399.269 271.974 397.974 273.27 396.376 273.27C394.778 273.27 393.483 271.974 393.483 270.376C393.483 268.779 394.778 267.483 396.376 267.483C397.974 267.483 399.269 268.779 399.269 270.376Z" fill="white"/>
<path d="M422.415 270.376C422.415 271.974 421.12 273.27 419.522 273.27C417.924 273.27 416.629 271.974 416.629 270.376C416.629 268.779 417.924 267.483 419.522 267.483C421.12 267.483 422.415 268.779 422.415 270.376Z" fill="white"/>
<path d="M445.562 270.376C445.562 271.974 444.266 273.27 442.669 273.27C441.071 273.27 439.775 271.974 439.775 270.376C439.775 268.779 441.071 267.483 442.669 267.483C444.266 267.483 445.562 268.779 445.562 270.376Z" fill="white"/>
<path d="M468.708 270.376C468.708 271.974 467.412 273.27 465.814 273.27C464.216 273.27 462.921 271.974 462.921 270.376C462.921 268.779 464.216 267.483 465.814 267.483C467.412 267.483 468.708 268.779 468.708 270.376Z" fill="white"/>
<path d="M491.854 270.376C491.854 271.974 490.559 273.27 488.961 273.27C487.363 273.27 486.068 271.974 486.068 270.376C486.068 268.779 487.363 267.483 488.961 267.483C490.559 267.483 491.854 268.779 491.854 270.376Z" fill="white"/>
<path d="M515 270.376C515 271.974 513.705 273.27 512.107 273.27C510.509 273.27 509.214 271.974 509.214 270.376C509.214 268.779 510.509 267.483 512.107 267.483C513.705 267.483 515 268.779 515 270.376Z" fill="white"/>
<path d="M5.78651 293.522C5.78651 295.12 4.49116 296.416 2.89326 296.416C1.29536 296.416 0 295.12 0 293.522C0 291.924 1.29536 290.629 2.89326 290.629C4.49116 290.629 5.78651 291.924 5.78651 293.522Z" fill="white"/>
<path d="M28.9328 293.522C28.9328 295.12 27.6374 296.416 26.0395 296.416C24.4416 296.416 23.1462 295.12 23.1462 293.522C23.1462 291.924 24.4416 290.629 26.0395 290.629C27.6374 290.629 28.9328 291.924 28.9328 293.522Z" fill="white"/>
<path d="M52.0784 293.522C52.0784 295.12 50.7831 296.416 49.1852 296.416C47.5873 296.416 46.2919 295.12 46.2919 293.522C46.2919 291.924 47.5873 290.629 49.1852 290.629C50.7831 290.629 52.0784 291.924 52.0784 293.522Z" fill="white"/>
<path d="M75.2246 293.522C75.2246 295.12 73.9293 296.416 72.3314 296.416C70.7335 296.416 69.4381 295.12 69.4381 293.522C69.4381 291.924 70.7335 290.629 72.3314 290.629C73.9293 290.629 75.2246 291.924 75.2246 293.522Z" fill="white"/>
<path d="M98.3709 293.522C98.3709 295.12 97.0755 296.416 95.4776 296.416C93.8797 296.416 92.5844 295.12 92.5844 293.522C92.5844 291.924 93.8797 290.629 95.4776 290.629C97.0755 290.629 98.3709 291.924 98.3709 293.522Z" fill="white"/>
<path d="M121.517 293.522C121.517 295.12 120.221 296.416 118.623 296.416C117.025 296.416 115.73 295.12 115.73 293.522C115.73 291.924 117.025 290.629 118.623 290.629C120.221 290.629 121.517 291.924 121.517 293.522Z" fill="white"/>
<path d="M144.663 293.522C144.663 295.12 143.368 296.416 141.77 296.416C140.172 296.416 138.876 295.12 138.876 293.522C138.876 291.924 140.172 290.629 141.77 290.629C143.368 290.629 144.663 291.924 144.663 293.522Z" fill="white"/>
<path d="M167.809 293.522C167.809 295.12 166.514 296.416 164.916 296.416C163.318 296.416 162.023 295.12 162.023 293.522C162.023 291.924 163.318 290.629 164.916 290.629C166.514 290.629 167.809 291.924 167.809 293.522Z" fill="white"/>
<path d="M190.955 293.522C190.955 295.12 189.66 296.416 188.062 296.416C186.464 296.416 185.169 295.12 185.169 293.522C185.169 291.924 186.464 290.629 188.062 290.629C189.66 290.629 190.955 291.924 190.955 293.522Z" fill="white"/>
<path d="M214.101 293.522C214.101 295.12 212.806 296.416 211.208 296.416C209.61 296.416 208.315 295.12 208.315 293.522C208.315 291.924 209.61 290.629 211.208 290.629C212.806 290.629 214.101 291.924 214.101 293.522Z" fill="white"/>
<path d="M237.247 293.522C237.247 295.12 235.952 296.416 234.354 296.416C232.756 296.416 231.461 295.12 231.461 293.522C231.461 291.924 232.756 290.629 234.354 290.629C235.952 290.629 237.247 291.924 237.247 293.522Z" fill="white"/>
<path d="M260.394 293.522C260.394 295.12 259.098 296.416 257.5 296.416C255.903 296.416 254.607 295.12 254.607 293.522C254.607 291.924 255.903 290.629 257.5 290.629C259.098 290.629 260.394 291.924 260.394 293.522Z" fill="white"/>
<path d="M283.539 293.522C283.539 295.12 282.244 296.416 280.646 296.416C279.048 296.416 277.753 295.12 277.753 293.522C277.753 291.924 279.048 290.629 280.646 290.629C282.244 290.629 283.539 291.924 283.539 293.522Z" fill="white"/>
<path d="M306.685 293.522C306.685 295.12 305.39 296.416 303.792 296.416C302.194 296.416 300.899 295.12 300.899 293.522C300.899 291.924 302.194 290.629 303.792 290.629C305.39 290.629 306.685 291.924 306.685 293.522Z" fill="white"/>
<path d="M329.831 293.522C329.831 295.12 328.536 296.416 326.938 296.416C325.34 296.416 324.044 295.12 324.044 293.522C324.044 291.924 325.34 290.629 326.938 290.629C328.536 290.629 329.831 291.924 329.831 293.522Z" fill="white"/>
<path d="M352.977 293.522C352.977 295.12 351.682 296.416 350.084 296.416C348.486 296.416 347.191 295.12 347.191 293.522C347.191 291.924 348.486 290.629 350.084 290.629C351.682 290.629 352.977 291.924 352.977 293.522Z" fill="white"/>
<path d="M376.124 293.522C376.124 295.12 374.829 296.416 373.231 296.416C371.633 296.416 370.337 295.12 370.337 293.522C370.337 291.924 371.633 290.629 373.231 290.629C374.829 290.629 376.124 291.924 376.124 293.522Z" fill="white"/>
<path d="M399.269 293.522C399.269 295.12 397.974 296.416 396.376 296.416C394.778 296.416 393.483 295.12 393.483 293.522C393.483 291.924 394.778 290.629 396.376 290.629C397.974 290.629 399.269 291.924 399.269 293.522Z" fill="white"/>
<path d="M422.415 293.522C422.415 295.12 421.12 296.416 419.522 296.416C417.924 296.416 416.629 295.12 416.629 293.522C416.629 291.924 417.924 290.629 419.522 290.629C421.12 290.629 422.415 291.924 422.415 293.522Z" fill="white"/>
<path d="M445.562 293.522C445.562 295.12 444.266 296.416 442.669 296.416C441.071 296.416 439.775 295.12 439.775 293.522C439.775 291.924 441.071 290.629 442.669 290.629C444.266 290.629 445.562 291.924 445.562 293.522Z" fill="white"/>
<path d="M468.708 293.522C468.708 295.12 467.412 296.416 465.814 296.416C464.216 296.416 462.921 295.12 462.921 293.522C462.921 291.924 464.216 290.629 465.814 290.629C467.412 290.629 468.708 291.924 468.708 293.522Z" fill="white"/>
<path d="M491.854 293.522C491.854 295.12 490.559 296.416 488.961 296.416C487.363 296.416 486.068 295.12 486.068 293.522C486.068 291.924 487.363 290.629 488.961 290.629C490.559 290.629 491.854 291.924 491.854 293.522Z" fill="white"/>
<path d="M515 293.522C515 295.12 513.705 296.416 512.107 296.416C510.509 296.416 509.214 295.12 509.214 293.522C509.214 291.924 510.509 290.629 512.107 290.629C513.705 290.629 515 291.924 515 293.522Z" fill="white"/>
<path d="M5.78651 316.669C5.78651 318.266 4.49116 319.562 2.89326 319.562C1.29536 319.562 0 318.266 0 316.669C0 315.071 1.29536 313.775 2.89326 313.775C4.49116 313.775 5.78651 315.071 5.78651 316.669Z" fill="white"/>
<path d="M28.9328 316.669C28.9328 318.266 27.6374 319.562 26.0395 319.562C24.4416 319.562 23.1462 318.266 23.1462 316.669C23.1462 315.071 24.4416 313.775 26.0395 313.775C27.6374 313.775 28.9328 315.071 28.9328 316.669Z" fill="white"/>
<path d="M52.0784 316.669C52.0784 318.266 50.7831 319.562 49.1852 319.562C47.5873 319.562 46.2919 318.266 46.2919 316.669C46.2919 315.071 47.5873 313.775 49.1852 313.775C50.7831 313.775 52.0784 315.071 52.0784 316.669Z" fill="white"/>
<path d="M75.2246 316.669C75.2246 318.266 73.9293 319.562 72.3314 319.562C70.7335 319.562 69.4381 318.266 69.4381 316.669C69.4381 315.071 70.7335 313.775 72.3314 313.775C73.9293 313.775 75.2246 315.071 75.2246 316.669Z" fill="white"/>
<path d="M98.3709 316.669C98.3709 318.266 97.0755 319.562 95.4776 319.562C93.8797 319.562 92.5844 318.266 92.5844 316.669C92.5844 315.071 93.8797 313.775 95.4776 313.775C97.0755 313.775 98.3709 315.071 98.3709 316.669Z" fill="white"/>
<path d="M121.517 316.669C121.517 318.266 120.221 319.562 118.623 319.562C117.025 319.562 115.73 318.266 115.73 316.669C115.73 315.071 117.025 313.775 118.623 313.775C120.221 313.775 121.517 315.071 121.517 316.669Z" fill="white"/>
<path d="M144.663 316.669C144.663 318.266 143.368 319.562 141.77 319.562C140.172 319.562 138.876 318.266 138.876 316.669C138.876 315.071 140.172 313.775 141.77 313.775C143.368 313.775 144.663 315.071 144.663 316.669Z" fill="white"/>
<path d="M167.809 316.669C167.809 318.266 166.514 319.562 164.916 319.562C163.318 319.562 162.023 318.266 162.023 316.669C162.023 315.071 163.318 313.775 164.916 313.775C166.514 313.775 167.809 315.071 167.809 316.669Z" fill="white"/>
<path d="M190.955 316.669C190.955 318.266 189.66 319.562 188.062 319.562C186.464 319.562 185.169 318.266 185.169 316.669C185.169 315.071 186.464 313.775 188.062 313.775C189.66 313.775 190.955 315.071 190.955 316.669Z" fill="white"/>
<path d="M214.101 316.669C214.101 318.266 212.806 319.562 211.208 319.562C209.61 319.562 208.315 318.266 208.315 316.669C208.315 315.071 209.61 313.775 211.208 313.775C212.806 313.775 214.101 315.071 214.101 316.669Z" fill="white"/>
<path d="M237.247 316.669C237.247 318.266 235.952 319.562 234.354 319.562C232.756 319.562 231.461 318.266 231.461 316.669C231.461 315.071 232.756 313.775 234.354 313.775C235.952 313.775 237.247 315.071 237.247 316.669Z" fill="white"/>
<path d="M260.394 316.669C260.394 318.266 259.098 319.562 257.5 319.562C255.903 319.562 254.607 318.266 254.607 316.669C254.607 315.071 255.903 313.775 257.5 313.775C259.098 313.775 260.394 315.071 260.394 316.669Z" fill="white"/>
<path d="M283.539 316.669C283.539 318.266 282.244 319.562 280.646 319.562C279.048 319.562 277.753 318.266 277.753 316.669C277.753 315.071 279.048 313.775 280.646 313.775C282.244 313.775 283.539 315.071 283.539 316.669Z" fill="white"/>
<path d="M306.685 316.669C306.685 318.266 305.39 319.562 303.792 319.562C302.194 319.562 300.899 318.266 300.899 316.669C300.899 315.071 302.194 313.775 303.792 313.775C305.39 313.775 306.685 315.071 306.685 316.669Z" fill="white"/>
<path d="M329.831 316.669C329.831 318.266 328.536 319.562 326.938 319.562C325.34 319.562 324.044 318.266 324.044 316.669C324.044 315.071 325.34 313.775 326.938 313.775C328.536 313.775 329.831 315.071 329.831 316.669Z" fill="white"/>
<path d="M352.977 316.669C352.977 318.266 351.682 319.562 350.084 319.562C348.486 319.562 347.191 318.266 347.191 316.669C347.191 315.071 348.486 313.775 350.084 313.775C351.682 313.775 352.977 315.071 352.977 316.669Z" fill="white"/>
<path d="M376.124 316.669C376.124 318.266 374.829 319.562 373.231 319.562C371.633 319.562 370.337 318.266 370.337 316.669C370.337 315.071 371.633 313.775 373.231 313.775C374.829 313.775 376.124 315.071 376.124 316.669Z" fill="white"/>
<path d="M399.269 316.669C399.269 318.266 397.974 319.562 396.376 319.562C394.778 319.562 393.483 318.266 393.483 316.669C393.483 315.071 394.778 313.775 396.376 313.775C397.974 313.775 399.269 315.071 399.269 316.669Z" fill="white"/>
<path d="M422.415 316.669C422.415 318.266 421.12 319.562 419.522 319.562C417.924 319.562 416.629 318.266 416.629 316.669C416.629 315.071 417.924 313.775 419.522 313.775C421.12 313.775 422.415 315.071 422.415 316.669Z" fill="white"/>
<path d="M445.562 316.669C445.562 318.266 444.266 319.562 442.669 319.562C441.071 319.562 439.775 318.266 439.775 316.669C439.775 315.071 441.071 313.775 442.669 313.775C444.266 313.775 445.562 315.071 445.562 316.669Z" fill="white"/>
<path d="M468.708 316.669C468.708 318.266 467.412 319.562 465.814 319.562C464.216 319.562 462.921 318.266 462.921 316.669C462.921 315.071 464.216 313.775 465.814 313.775C467.412 313.775 468.708 315.071 468.708 316.669Z" fill="white"/>
<path d="M491.854 316.669C491.854 318.266 490.559 319.562 488.961 319.562C487.363 319.562 486.068 318.266 486.068 316.669C486.068 315.071 487.363 313.775 488.961 313.775C490.559 313.775 491.854 315.071 491.854 316.669Z" fill="white"/>
<path d="M515 316.669C515 318.266 513.705 319.562 512.107 319.562C510.509 319.562 509.214 318.266 509.214 316.669C509.214 315.071 510.509 313.775 512.107 313.775C513.705 313.775 515 315.071 515 316.669Z" fill="white"/>
<path d="M5.78651 339.814C5.78651 341.412 4.49116 342.708 2.89326 342.708C1.29536 342.708 0 341.412 0 339.814C0 338.216 1.29536 336.921 2.89326 336.921C4.49116 336.921 5.78651 338.216 5.78651 339.814Z" fill="white"/>
<path d="M28.9328 339.814C28.9328 341.412 27.6374 342.708 26.0395 342.708C24.4416 342.708 23.1462 341.412 23.1462 339.814C23.1462 338.216 24.4416 336.921 26.0395 336.921C27.6374 336.921 28.9328 338.216 28.9328 339.814Z" fill="white"/>
<path d="M52.0784 339.814C52.0784 341.412 50.7831 342.708 49.1852 342.708C47.5873 342.708 46.2919 341.412 46.2919 339.814C46.2919 338.216 47.5873 336.921 49.1852 336.921C50.7831 336.921 52.0784 338.216 52.0784 339.814Z" fill="white"/>
<path d="M75.2246 339.814C75.2246 341.412 73.9293 342.708 72.3314 342.708C70.7335 342.708 69.4381 341.412 69.4381 339.814C69.4381 338.216 70.7335 336.921 72.3314 336.921C73.9293 336.921 75.2246 338.216 75.2246 339.814Z" fill="white"/>
<path d="M98.3709 339.814C98.3709 341.412 97.0755 342.708 95.4776 342.708C93.8797 342.708 92.5844 341.412 92.5844 339.814C92.5844 338.216 93.8797 336.921 95.4776 336.921C97.0755 336.921 98.3709 338.216 98.3709 339.814Z" fill="white"/>
<path d="M121.517 339.814C121.517 341.412 120.221 342.708 118.623 342.708C117.025 342.708 115.73 341.412 115.73 339.814C115.73 338.216 117.025 336.921 118.623 336.921C120.221 336.921 121.517 338.216 121.517 339.814Z" fill="white"/>
<path d="M144.663 339.814C144.663 341.412 143.368 342.708 141.77 342.708C140.172 342.708 138.876 341.412 138.876 339.814C138.876 338.216 140.172 336.921 141.77 336.921C143.368 336.921 144.663 338.216 144.663 339.814Z" fill="white"/>
<path d="M167.809 339.814C167.809 341.412 166.514 342.708 164.916 342.708C163.318 342.708 162.023 341.412 162.023 339.814C162.023 338.216 163.318 336.921 164.916 336.921C166.514 336.921 167.809 338.216 167.809 339.814Z" fill="white"/>
<path d="M190.955 339.814C190.955 341.412 189.66 342.708 188.062 342.708C186.464 342.708 185.169 341.412 185.169 339.814C185.169 338.216 186.464 336.921 188.062 336.921C189.66 336.921 190.955 338.216 190.955 339.814Z" fill="white"/>
<path d="M214.101 339.814C214.101 341.412 212.806 342.708 211.208 342.708C209.61 342.708 208.315 341.412 208.315 339.814C208.315 338.216 209.61 336.921 211.208 336.921C212.806 336.921 214.101 338.216 214.101 339.814Z" fill="white"/>
<path d="M237.247 339.814C237.247 341.412 235.952 342.708 234.354 342.708C232.756 342.708 231.461 341.412 231.461 339.814C231.461 338.216 232.756 336.921 234.354 336.921C235.952 336.921 237.247 338.216 237.247 339.814Z" fill="white"/>
<path d="M260.394 339.814C260.394 341.412 259.098 342.708 257.5 342.708C255.903 342.708 254.607 341.412 254.607 339.814C254.607 338.216 255.903 336.921 257.5 336.921C259.098 336.921 260.394 338.216 260.394 339.814Z" fill="white"/>
<path d="M283.539 339.814C283.539 341.412 282.244 342.708 280.646 342.708C279.048 342.708 277.753 341.412 277.753 339.814C277.753 338.216 279.048 336.921 280.646 336.921C282.244 336.921 283.539 338.216 283.539 339.814Z" fill="white"/>
<path d="M306.685 339.814C306.685 341.412 305.39 342.708 303.792 342.708C302.194 342.708 300.899 341.412 300.899 339.814C300.899 338.216 302.194 336.921 303.792 336.921C305.39 336.921 306.685 338.216 306.685 339.814Z" fill="white"/>
<path d="M329.831 339.814C329.831 341.412 328.536 342.708 326.938 342.708C325.34 342.708 324.044 341.412 324.044 339.814C324.044 338.216 325.34 336.921 326.938 336.921C328.536 336.921 329.831 338.216 329.831 339.814Z" fill="white"/>
<path d="M352.977 339.814C352.977 341.412 351.682 342.708 350.084 342.708C348.486 342.708 347.191 341.412 347.191 339.814C347.191 338.216 348.486 336.921 350.084 336.921C351.682 336.921 352.977 338.216 352.977 339.814Z" fill="white"/>
<path d="M376.124 339.814C376.124 341.412 374.829 342.708 373.231 342.708C371.633 342.708 370.337 341.412 370.337 339.814C370.337 338.216 371.633 336.921 373.231 336.921C374.829 336.921 376.124 338.216 376.124 339.814Z" fill="white"/>
<path d="M399.269 339.814C399.269 341.412 397.974 342.708 396.376 342.708C394.778 342.708 393.483 341.412 393.483 339.814C393.483 338.216 394.778 336.921 396.376 336.921C397.974 336.921 399.269 338.216 399.269 339.814Z" fill="white"/>
<path d="M422.415 339.814C422.415 341.412 421.12 342.708 419.522 342.708C417.924 342.708 416.629 341.412 416.629 339.814C416.629 338.216 417.924 336.921 419.522 336.921C421.12 336.921 422.415 338.216 422.415 339.814Z" fill="white"/>
<path d="M445.562 339.814C445.562 341.412 444.266 342.708 442.669 342.708C441.071 342.708 439.775 341.412 439.775 339.814C439.775 338.216 441.071 336.921 442.669 336.921C444.266 336.921 445.562 338.216 445.562 339.814Z" fill="white"/>
<path d="M468.708 339.814C468.708 341.412 467.412 342.708 465.814 342.708C464.216 342.708 462.921 341.412 462.921 339.814C462.921 338.216 464.216 336.921 465.814 336.921C467.412 336.921 468.708 338.216 468.708 339.814Z" fill="white"/>
<path d="M491.854 339.814C491.854 341.412 490.559 342.708 488.961 342.708C487.363 342.708 486.068 341.412 486.068 339.814C486.068 338.216 487.363 336.921 488.961 336.921C490.559 336.921 491.854 338.216 491.854 339.814Z" fill="white"/>
<path d="M515 339.814C515 341.412 513.705 342.708 512.107 342.708C510.509 342.708 509.214 341.412 509.214 339.814C509.214 338.216 510.509 336.921 512.107 336.921C513.705 336.921 515 338.216 515 339.814Z" fill="white"/>
<path d="M5.78651 362.96C5.78651 364.558 4.49116 365.854 2.89326 365.854C1.29536 365.854 0 364.558 0 362.96C0 361.362 1.29536 360.067 2.89326 360.067C4.49116 360.067 5.78651 361.362 5.78651 362.96Z" fill="white"/>
<path d="M28.9328 362.96C28.9328 364.558 27.6374 365.854 26.0395 365.854C24.4416 365.854 23.1462 364.558 23.1462 362.96C23.1462 361.362 24.4416 360.067 26.0395 360.067C27.6374 360.067 28.9328 361.362 28.9328 362.96Z" fill="white"/>
<path d="M52.0784 362.96C52.0784 364.558 50.7831 365.854 49.1852 365.854C47.5873 365.854 46.2919 364.558 46.2919 362.96C46.2919 361.362 47.5873 360.067 49.1852 360.067C50.7831 360.067 52.0784 361.362 52.0784 362.96Z" fill="white"/>
<path d="M75.2246 362.96C75.2246 364.558 73.9293 365.854 72.3314 365.854C70.7335 365.854 69.4381 364.558 69.4381 362.96C69.4381 361.362 70.7335 360.067 72.3314 360.067C73.9293 360.067 75.2246 361.362 75.2246 362.96Z" fill="white"/>
<path d="M98.3709 362.96C98.3709 364.558 97.0755 365.854 95.4776 365.854C93.8797 365.854 92.5844 364.558 92.5844 362.96C92.5844 361.362 93.8797 360.067 95.4776 360.067C97.0755 360.067 98.3709 361.362 98.3709 362.96Z" fill="white"/>
<path d="M121.517 362.96C121.517 364.558 120.221 365.854 118.623 365.854C117.025 365.854 115.73 364.558 115.73 362.96C115.73 361.362 117.025 360.067 118.623 360.067C120.221 360.067 121.517 361.362 121.517 362.96Z" fill="white"/>
<path d="M144.663 362.96C144.663 364.558 143.368 365.854 141.77 365.854C140.172 365.854 138.876 364.558 138.876 362.96C138.876 361.362 140.172 360.067 141.77 360.067C143.368 360.067 144.663 361.362 144.663 362.96Z" fill="white"/>
<path d="M167.809 362.96C167.809 364.558 166.514 365.854 164.916 365.854C163.318 365.854 162.023 364.558 162.023 362.96C162.023 361.362 163.318 360.067 164.916 360.067C166.514 360.067 167.809 361.362 167.809 362.96Z" fill="white"/>
<path d="M190.955 362.96C190.955 364.558 189.66 365.854 188.062 365.854C186.464 365.854 185.169 364.558 185.169 362.96C185.169 361.362 186.464 360.067 188.062 360.067C189.66 360.067 190.955 361.362 190.955 362.96Z" fill="white"/>
<path d="M214.101 362.96C214.101 364.558 212.806 365.854 211.208 365.854C209.61 365.854 208.315 364.558 208.315 362.96C208.315 361.362 209.61 360.067 211.208 360.067C212.806 360.067 214.101 361.362 214.101 362.96Z" fill="white"/>
<path d="M237.247 362.96C237.247 364.558 235.952 365.854 234.354 365.854C232.756 365.854 231.461 364.558 231.461 362.96C231.461 361.362 232.756 360.067 234.354 360.067C235.952 360.067 237.247 361.362 237.247 362.96Z" fill="white"/>
<path d="M260.394 362.96C260.394 364.558 259.098 365.854 257.5 365.854C255.903 365.854 254.607 364.558 254.607 362.96C254.607 361.362 255.903 360.067 257.5 360.067C259.098 360.067 260.394 361.362 260.394 362.96Z" fill="white"/>
<path d="M283.539 362.96C283.539 364.558 282.244 365.854 280.646 365.854C279.048 365.854 277.753 364.558 277.753 362.96C277.753 361.362 279.048 360.067 280.646 360.067C282.244 360.067 283.539 361.362 283.539 362.96Z" fill="white"/>
<path d="M306.685 362.96C306.685 364.558 305.39 365.854 303.792 365.854C302.194 365.854 300.899 364.558 300.899 362.96C300.899 361.362 302.194 360.067 303.792 360.067C305.39 360.067 306.685 361.362 306.685 362.96Z" fill="white"/>
<path d="M329.831 362.96C329.831 364.558 328.536 365.854 326.938 365.854C325.34 365.854 324.044 364.558 324.044 362.96C324.044 361.362 325.34 360.067 326.938 360.067C328.536 360.067 329.831 361.362 329.831 362.96Z" fill="white"/>
<path d="M352.977 362.96C352.977 364.558 351.682 365.854 350.084 365.854C348.486 365.854 347.191 364.558 347.191 362.96C347.191 361.362 348.486 360.067 350.084 360.067C351.682 360.067 352.977 361.362 352.977 362.96Z" fill="white"/>
<path d="M376.124 362.96C376.124 364.558 374.829 365.854 373.231 365.854C371.633 365.854 370.337 364.558 370.337 362.96C370.337 361.362 371.633 360.067 373.231 360.067C374.829 360.067 376.124 361.362 376.124 362.96Z" fill="white"/>
<path d="M399.269 362.96C399.269 364.558 397.974 365.854 396.376 365.854C394.778 365.854 393.483 364.558 393.483 362.96C393.483 361.362 394.778 360.067 396.376 360.067C397.974 360.067 399.269 361.362 399.269 362.96Z" fill="white"/>
<path d="M422.415 362.96C422.415 364.558 421.12 365.854 419.522 365.854C417.924 365.854 416.629 364.558 416.629 362.96C416.629 361.362 417.924 360.067 419.522 360.067C421.12 360.067 422.415 361.362 422.415 362.96Z" fill="white"/>
<path d="M445.562 362.96C445.562 364.558 444.266 365.854 442.669 365.854C441.071 365.854 439.775 364.558 439.775 362.96C439.775 361.362 441.071 360.067 442.669 360.067C444.266 360.067 445.562 361.362 445.562 362.96Z" fill="white"/>
<path d="M468.708 362.96C468.708 364.558 467.412 365.854 465.814 365.854C464.216 365.854 462.921 364.558 462.921 362.96C462.921 361.362 464.216 360.067 465.814 360.067C467.412 360.067 468.708 361.362 468.708 362.96Z" fill="white"/>
<path d="M491.854 362.96C491.854 364.558 490.559 365.854 488.961 365.854C487.363 365.854 486.068 364.558 486.068 362.96C486.068 361.362 487.363 360.067 488.961 360.067C490.559 360.067 491.854 361.362 491.854 362.96Z" fill="white"/>
<path d="M515 362.96C515 364.558 513.705 365.854 512.107 365.854C510.509 365.854 509.214 364.558 509.214 362.96C509.214 361.362 510.509 360.067 512.107 360.067C513.705 360.067 515 361.362 515 362.96Z" fill="white"/>
</g>
</svg>
