<svg width="509" height="357" viewBox="0 0 509 357" fill="none" xmlns="http://www.w3.org/2000/svg">
<g opacity="0.2">
<circle cx="2.95442" cy="2.95442" r="2.95442" fill="white"/>
<circle cx="26.5898" cy="2.95442" r="2.95442" fill="white"/>
<circle cx="50.2251" cy="2.95442" r="2.95442" fill="white"/>
<circle cx="73.8605" cy="2.95442" r="2.95442" fill="white"/>
<circle cx="97.4959" cy="2.95442" r="2.95442" fill="white"/>
<circle cx="121.131" cy="2.95442" r="2.95442" fill="white"/>
<circle cx="144.767" cy="2.95442" r="2.95442" fill="white"/>
<circle cx="168.402" cy="2.95442" r="2.95442" fill="white"/>
<circle cx="192.037" cy="2.95442" r="2.95442" fill="white"/>
<circle cx="215.673" cy="2.95442" r="2.95442" fill="white"/>
<circle cx="239.308" cy="2.95442" r="2.95442" fill="white"/>
<circle cx="262.943" cy="2.95442" r="2.95442" fill="white"/>
<circle cx="286.579" cy="2.95442" r="2.95442" fill="white"/>
<circle cx="310.214" cy="2.95442" r="2.95442" fill="white"/>
<circle cx="333.849" cy="2.95442" r="2.95442" fill="white"/>
<circle cx="357.485" cy="2.95442" r="2.95442" fill="white"/>
<circle cx="381.12" cy="2.95442" r="2.95442" fill="white"/>
<circle cx="404.755" cy="2.95442" r="2.95442" fill="white"/>
<circle cx="428.391" cy="2.95442" r="2.95442" fill="white"/>
<circle cx="452.026" cy="2.95442" r="2.95442" fill="white"/>
<circle cx="475.662" cy="2.95442" r="2.95442" fill="white"/>
<circle cx="499.297" cy="2.95442" r="2.95442" fill="white"/>
<circle cx="2.95442" cy="26.5897" r="2.95442" fill="white"/>
<circle cx="26.5898" cy="26.5897" r="2.95442" fill="white"/>
<circle cx="50.2251" cy="26.5897" r="2.95442" fill="white"/>
<circle cx="73.8605" cy="26.5897" r="2.95442" fill="white"/>
<circle cx="97.4959" cy="26.5897" r="2.95442" fill="white"/>
<circle cx="121.131" cy="26.5897" r="2.95442" fill="white"/>
<circle cx="144.767" cy="26.5897" r="2.95442" fill="white"/>
<circle cx="168.402" cy="26.5897" r="2.95442" fill="white"/>
<circle cx="192.037" cy="26.5897" r="2.95442" fill="white"/>
<circle cx="215.673" cy="26.5897" r="2.95442" fill="white"/>
<circle cx="239.308" cy="26.5897" r="2.95442" fill="white"/>
<circle cx="262.943" cy="26.5897" r="2.95442" fill="white"/>
<circle cx="286.579" cy="26.5897" r="2.95442" fill="white"/>
<circle cx="310.214" cy="26.5897" r="2.95442" fill="white"/>
<circle cx="333.849" cy="26.5897" r="2.95442" fill="white"/>
<circle cx="357.485" cy="26.5897" r="2.95442" fill="white"/>
<circle cx="381.12" cy="26.5897" r="2.95442" fill="white"/>
<circle cx="404.755" cy="26.5897" r="2.95442" fill="white"/>
<circle cx="428.391" cy="26.5897" r="2.95442" fill="white"/>
<circle cx="452.026" cy="26.5897" r="2.95442" fill="white"/>
<circle cx="475.662" cy="26.5897" r="2.95442" fill="white"/>
<circle cx="499.297" cy="26.5897" r="2.95442" fill="white"/>
<circle cx="2.95442" cy="50.2252" r="2.95442" fill="white"/>
<circle cx="26.5898" cy="50.2252" r="2.95442" fill="white"/>
<circle cx="50.2251" cy="50.2252" r="2.95442" fill="white"/>
<circle cx="73.8605" cy="50.2252" r="2.95442" fill="white"/>
<circle cx="97.4959" cy="50.2252" r="2.95442" fill="white"/>
<circle cx="121.131" cy="50.2252" r="2.95442" fill="white"/>
<circle cx="144.767" cy="50.2252" r="2.95442" fill="white"/>
<circle cx="168.402" cy="50.2252" r="2.95442" fill="white"/>
<circle cx="192.037" cy="50.2252" r="2.95442" fill="white"/>
<circle cx="215.673" cy="50.2252" r="2.95442" fill="white"/>
<circle cx="239.308" cy="50.2252" r="2.95442" fill="white"/>
<circle cx="262.943" cy="50.2252" r="2.95442" fill="white"/>
<circle cx="286.579" cy="50.2252" r="2.95442" fill="white"/>
<circle cx="310.214" cy="50.2252" r="2.95442" fill="white"/>
<circle cx="333.849" cy="50.2252" r="2.95442" fill="white"/>
<circle cx="357.485" cy="50.2252" r="2.95442" fill="white"/>
<circle cx="381.12" cy="50.2252" r="2.95442" fill="white"/>
<circle cx="404.755" cy="50.2252" r="2.95442" fill="white"/>
<circle cx="428.391" cy="50.2252" r="2.95442" fill="white"/>
<circle cx="452.026" cy="50.2252" r="2.95442" fill="white"/>
<circle cx="475.662" cy="50.2252" r="2.95442" fill="white"/>
<circle cx="499.297" cy="50.2252" r="2.95442" fill="white"/>
<circle cx="2.95442" cy="73.8604" r="2.95442" fill="white"/>
<circle cx="26.5898" cy="73.8604" r="2.95442" fill="white"/>
<circle cx="50.2251" cy="73.8604" r="2.95442" fill="white"/>
<circle cx="73.8605" cy="73.8604" r="2.95442" fill="white"/>
<circle cx="97.4959" cy="73.8604" r="2.95442" fill="white"/>
<circle cx="121.131" cy="73.8604" r="2.95442" fill="white"/>
<circle cx="144.767" cy="73.8604" r="2.95442" fill="white"/>
<circle cx="168.402" cy="73.8604" r="2.95442" fill="white"/>
<circle cx="192.037" cy="73.8604" r="2.95442" fill="white"/>
<circle cx="215.673" cy="73.8604" r="2.95442" fill="white"/>
<circle cx="239.308" cy="73.8604" r="2.95442" fill="white"/>
<circle cx="262.943" cy="73.8604" r="2.95442" fill="white"/>
<circle cx="286.579" cy="73.8604" r="2.95442" fill="white"/>
<circle cx="310.214" cy="73.8604" r="2.95442" fill="white"/>
<circle cx="333.849" cy="73.8604" r="2.95442" fill="white"/>
<circle cx="357.485" cy="73.8604" r="2.95442" fill="white"/>
<circle cx="381.12" cy="73.8604" r="2.95442" fill="white"/>
<circle cx="404.755" cy="73.8604" r="2.95442" fill="white"/>
<circle cx="428.391" cy="73.8604" r="2.95442" fill="white"/>
<circle cx="452.026" cy="73.8604" r="2.95442" fill="white"/>
<circle cx="475.662" cy="73.8604" r="2.95442" fill="white"/>
<circle cx="499.297" cy="73.8604" r="2.95442" fill="white"/>
<circle cx="2.95442" cy="97.4959" r="2.95442" fill="white"/>
<circle cx="26.5898" cy="97.4959" r="2.95442" fill="white"/>
<circle cx="50.2251" cy="97.4959" r="2.95442" fill="white"/>
<circle cx="73.8605" cy="97.4959" r="2.95442" fill="white"/>
<circle cx="97.4959" cy="97.4959" r="2.95442" fill="white"/>
<circle cx="121.131" cy="97.4959" r="2.95442" fill="white"/>
<circle cx="144.767" cy="97.4959" r="2.95442" fill="white"/>
<circle cx="168.402" cy="97.4959" r="2.95442" fill="white"/>
<circle cx="192.037" cy="97.4959" r="2.95442" fill="white"/>
<circle cx="215.673" cy="97.4959" r="2.95442" fill="white"/>
<circle cx="239.308" cy="97.4959" r="2.95442" fill="white"/>
<circle cx="262.943" cy="97.4959" r="2.95442" fill="white"/>
<circle cx="286.579" cy="97.4959" r="2.95442" fill="white"/>
<circle cx="310.214" cy="97.4959" r="2.95442" fill="white"/>
<circle cx="333.849" cy="97.4959" r="2.95442" fill="white"/>
<circle cx="357.485" cy="97.4959" r="2.95442" fill="white"/>
<circle cx="381.12" cy="97.4959" r="2.95442" fill="white"/>
<circle cx="404.755" cy="97.4959" r="2.95442" fill="white"/>
<circle cx="428.391" cy="97.4959" r="2.95442" fill="white"/>
<circle cx="452.026" cy="97.4959" r="2.95442" fill="white"/>
<circle cx="475.662" cy="97.4959" r="2.95442" fill="white"/>
<circle cx="499.297" cy="97.4959" r="2.95442" fill="white"/>
<circle cx="2.95442" cy="121.131" r="2.95442" fill="white"/>
<circle cx="26.5898" cy="121.131" r="2.95442" fill="white"/>
<circle cx="50.2251" cy="121.131" r="2.95442" fill="white"/>
<circle cx="73.8605" cy="121.131" r="2.95442" fill="white"/>
<circle cx="97.4959" cy="121.131" r="2.95442" fill="white"/>
<circle cx="121.131" cy="121.131" r="2.95442" fill="white"/>
<circle cx="144.767" cy="121.131" r="2.95442" fill="white"/>
<circle cx="168.402" cy="121.131" r="2.95442" fill="white"/>
<circle cx="192.037" cy="121.131" r="2.95442" fill="white"/>
<circle cx="215.673" cy="121.131" r="2.95442" fill="white"/>
<circle cx="239.308" cy="121.131" r="2.95442" fill="white"/>
<circle cx="262.943" cy="121.131" r="2.95442" fill="white"/>
<circle cx="286.579" cy="121.131" r="2.95442" fill="white"/>
<circle cx="310.214" cy="121.131" r="2.95442" fill="white"/>
<circle cx="333.849" cy="121.131" r="2.95442" fill="white"/>
<circle cx="357.485" cy="121.131" r="2.95442" fill="white"/>
<circle cx="381.12" cy="121.131" r="2.95442" fill="white"/>
<circle cx="404.755" cy="121.131" r="2.95442" fill="white"/>
<circle cx="428.391" cy="121.131" r="2.95442" fill="white"/>
<circle cx="452.026" cy="121.131" r="2.95442" fill="white"/>
<circle cx="475.662" cy="121.131" r="2.95442" fill="white"/>
<circle cx="499.297" cy="121.131" r="2.95442" fill="white"/>
<circle cx="2.95442" cy="144.766" r="2.95442" fill="white"/>
<circle cx="26.5898" cy="144.766" r="2.95442" fill="white"/>
<circle cx="50.2251" cy="144.766" r="2.95442" fill="white"/>
<circle cx="73.8605" cy="144.766" r="2.95442" fill="white"/>
<circle cx="97.4959" cy="144.766" r="2.95442" fill="white"/>
<circle cx="121.131" cy="144.766" r="2.95442" fill="white"/>
<circle cx="144.767" cy="144.766" r="2.95442" fill="white"/>
<circle cx="168.402" cy="144.766" r="2.95442" fill="white"/>
<circle cx="192.037" cy="144.766" r="2.95442" fill="white"/>
<circle cx="215.673" cy="144.766" r="2.95442" fill="white"/>
<circle cx="239.308" cy="144.766" r="2.95442" fill="white"/>
<circle cx="262.943" cy="144.766" r="2.95442" fill="white"/>
<circle cx="286.579" cy="144.766" r="2.95442" fill="white"/>
<circle cx="310.214" cy="144.766" r="2.95442" fill="white"/>
<circle cx="333.849" cy="144.766" r="2.95442" fill="white"/>
<circle cx="357.485" cy="144.766" r="2.95442" fill="white"/>
<circle cx="381.12" cy="144.766" r="2.95442" fill="white"/>
<circle cx="404.755" cy="144.766" r="2.95442" fill="white"/>
<circle cx="428.391" cy="144.766" r="2.95442" fill="white"/>
<circle cx="452.026" cy="144.766" r="2.95442" fill="white"/>
<circle cx="475.662" cy="144.766" r="2.95442" fill="white"/>
<circle cx="499.297" cy="144.766" r="2.95442" fill="white"/>
<circle cx="2.95442" cy="168.402" r="2.95442" fill="white"/>
<circle cx="26.5898" cy="168.402" r="2.95442" fill="white"/>
<circle cx="50.2251" cy="168.402" r="2.95442" fill="white"/>
<circle cx="73.8605" cy="168.402" r="2.95442" fill="white"/>
<circle cx="97.4959" cy="168.402" r="2.95442" fill="white"/>
<circle cx="121.131" cy="168.402" r="2.95442" fill="white"/>
<circle cx="144.767" cy="168.402" r="2.95442" fill="white"/>
<circle cx="168.402" cy="168.402" r="2.95442" fill="white"/>
<circle cx="192.037" cy="168.402" r="2.95442" fill="white"/>
<circle cx="215.673" cy="168.402" r="2.95442" fill="white"/>
<circle cx="239.308" cy="168.402" r="2.95442" fill="white"/>
<circle cx="262.943" cy="168.402" r="2.95442" fill="white"/>
<circle cx="286.579" cy="168.402" r="2.95442" fill="white"/>
<circle cx="310.214" cy="168.402" r="2.95442" fill="white"/>
<circle cx="333.849" cy="168.402" r="2.95442" fill="white"/>
<circle cx="357.485" cy="168.402" r="2.95442" fill="white"/>
<circle cx="381.12" cy="168.402" r="2.95442" fill="white"/>
<circle cx="404.755" cy="168.402" r="2.95442" fill="white"/>
<circle cx="428.391" cy="168.402" r="2.95442" fill="white"/>
<circle cx="452.026" cy="168.402" r="2.95442" fill="white"/>
<circle cx="475.662" cy="168.402" r="2.95442" fill="white"/>
<circle cx="499.297" cy="168.402" r="2.95442" fill="white"/>
<circle cx="2.95442" cy="192.037" r="2.95442" fill="white"/>
<circle cx="26.5898" cy="192.037" r="2.95442" fill="white"/>
<circle cx="50.2251" cy="192.037" r="2.95442" fill="white"/>
<circle cx="73.8605" cy="192.037" r="2.95442" fill="white"/>
<circle cx="97.4959" cy="192.037" r="2.95442" fill="white"/>
<circle cx="121.131" cy="192.037" r="2.95442" fill="white"/>
<circle cx="144.767" cy="192.037" r="2.95442" fill="white"/>
<circle cx="168.402" cy="192.037" r="2.95442" fill="white"/>
<circle cx="192.037" cy="192.037" r="2.95442" fill="white"/>
<circle cx="215.673" cy="192.037" r="2.95442" fill="white"/>
<circle cx="239.308" cy="192.037" r="2.95442" fill="white"/>
<circle cx="262.943" cy="192.037" r="2.95442" fill="white"/>
<circle cx="286.579" cy="192.037" r="2.95442" fill="white"/>
<circle cx="310.214" cy="192.037" r="2.95442" fill="white"/>
<circle cx="333.849" cy="192.037" r="2.95442" fill="white"/>
<circle cx="357.485" cy="192.037" r="2.95442" fill="white"/>
<circle cx="381.12" cy="192.037" r="2.95442" fill="white"/>
<circle cx="404.755" cy="192.037" r="2.95442" fill="white"/>
<circle cx="428.391" cy="192.037" r="2.95442" fill="white"/>
<circle cx="452.026" cy="192.037" r="2.95442" fill="white"/>
<circle cx="475.662" cy="192.037" r="2.95442" fill="white"/>
<circle cx="499.297" cy="192.037" r="2.95442" fill="white"/>
<circle cx="2.95442" cy="215.673" r="2.95442" fill="white"/>
<circle cx="26.5898" cy="215.673" r="2.95442" fill="white"/>
<circle cx="50.2251" cy="215.673" r="2.95442" fill="white"/>
<circle cx="73.8605" cy="215.673" r="2.95442" fill="white"/>
<circle cx="97.4959" cy="215.673" r="2.95442" fill="white"/>
<circle cx="121.131" cy="215.673" r="2.95442" fill="white"/>
<circle cx="144.767" cy="215.673" r="2.95442" fill="white"/>
<circle cx="168.402" cy="215.673" r="2.95442" fill="white"/>
<circle cx="192.037" cy="215.673" r="2.95442" fill="white"/>
<circle cx="215.673" cy="215.673" r="2.95442" fill="white"/>
<circle cx="239.308" cy="215.673" r="2.95442" fill="white"/>
<circle cx="262.943" cy="215.673" r="2.95442" fill="white"/>
<circle cx="286.579" cy="215.673" r="2.95442" fill="white"/>
<circle cx="310.214" cy="215.673" r="2.95442" fill="white"/>
<circle cx="333.849" cy="215.673" r="2.95442" fill="white"/>
<circle cx="357.485" cy="215.673" r="2.95442" fill="white"/>
<circle cx="381.12" cy="215.673" r="2.95442" fill="white"/>
<circle cx="404.755" cy="215.673" r="2.95442" fill="white"/>
<circle cx="428.391" cy="215.673" r="2.95442" fill="white"/>
<circle cx="452.026" cy="215.673" r="2.95442" fill="white"/>
<circle cx="475.662" cy="215.673" r="2.95442" fill="white"/>
<circle cx="499.297" cy="215.673" r="2.95442" fill="white"/>
<circle cx="2.95442" cy="239.308" r="2.95442" fill="white"/>
<circle cx="26.5898" cy="239.308" r="2.95442" fill="white"/>
<circle cx="50.2251" cy="239.308" r="2.95442" fill="white"/>
<circle cx="73.8605" cy="239.308" r="2.95442" fill="white"/>
<circle cx="97.4959" cy="239.308" r="2.95442" fill="white"/>
<circle cx="121.131" cy="239.308" r="2.95442" fill="white"/>
<circle cx="144.767" cy="239.308" r="2.95442" fill="white"/>
<circle cx="168.402" cy="239.308" r="2.95442" fill="white"/>
<circle cx="192.037" cy="239.308" r="2.95442" fill="white"/>
<circle cx="215.673" cy="239.308" r="2.95442" fill="white"/>
<circle cx="239.308" cy="239.308" r="2.95442" fill="white"/>
<circle cx="262.943" cy="239.308" r="2.95442" fill="white"/>
<circle cx="286.579" cy="239.308" r="2.95442" fill="white"/>
<circle cx="310.214" cy="239.308" r="2.95442" fill="white"/>
<circle cx="333.849" cy="239.308" r="2.95442" fill="white"/>
<circle cx="357.485" cy="239.308" r="2.95442" fill="white"/>
<circle cx="381.12" cy="239.308" r="2.95442" fill="white"/>
<circle cx="404.755" cy="239.308" r="2.95442" fill="white"/>
<circle cx="428.391" cy="239.308" r="2.95442" fill="white"/>
<circle cx="452.026" cy="239.308" r="2.95442" fill="white"/>
<circle cx="475.662" cy="239.308" r="2.95442" fill="white"/>
<circle cx="499.297" cy="239.308" r="2.95442" fill="white"/>
<circle cx="2.95442" cy="262.943" r="2.95442" fill="white"/>
<circle cx="26.5898" cy="262.943" r="2.95442" fill="white"/>
<circle cx="50.2251" cy="262.943" r="2.95442" fill="white"/>
<circle cx="73.8605" cy="262.943" r="2.95442" fill="white"/>
<circle cx="97.4959" cy="262.943" r="2.95442" fill="white"/>
<circle cx="121.131" cy="262.943" r="2.95442" fill="white"/>
<circle cx="144.767" cy="262.943" r="2.95442" fill="white"/>
<circle cx="168.402" cy="262.943" r="2.95442" fill="white"/>
<circle cx="192.037" cy="262.943" r="2.95442" fill="white"/>
<circle cx="215.673" cy="262.943" r="2.95442" fill="white"/>
<circle cx="239.308" cy="262.943" r="2.95442" fill="white"/>
<circle cx="262.943" cy="262.943" r="2.95442" fill="white"/>
<circle cx="286.579" cy="262.943" r="2.95442" fill="white"/>
<circle cx="310.214" cy="262.943" r="2.95442" fill="white"/>
<circle cx="333.849" cy="262.943" r="2.95442" fill="white"/>
<circle cx="357.485" cy="262.943" r="2.95442" fill="white"/>
<circle cx="381.12" cy="262.943" r="2.95442" fill="white"/>
<circle cx="404.755" cy="262.943" r="2.95442" fill="white"/>
<circle cx="428.391" cy="262.943" r="2.95442" fill="white"/>
<circle cx="452.026" cy="262.943" r="2.95442" fill="white"/>
<circle cx="475.662" cy="262.943" r="2.95442" fill="white"/>
<circle cx="499.297" cy="262.943" r="2.95442" fill="white"/>
<circle cx="2.95442" cy="286.579" r="2.95442" fill="white"/>
<circle cx="26.5898" cy="286.579" r="2.95442" fill="white"/>
<circle cx="50.2251" cy="286.579" r="2.95442" fill="white"/>
<circle cx="73.8605" cy="286.579" r="2.95442" fill="white"/>
<circle cx="97.4959" cy="286.579" r="2.95442" fill="white"/>
<circle cx="121.131" cy="286.579" r="2.95442" fill="white"/>
<circle cx="144.767" cy="286.579" r="2.95442" fill="white"/>
<circle cx="168.402" cy="286.579" r="2.95442" fill="white"/>
<circle cx="192.037" cy="286.579" r="2.95442" fill="white"/>
<circle cx="215.673" cy="286.579" r="2.95442" fill="white"/>
<circle cx="239.308" cy="286.579" r="2.95442" fill="white"/>
<circle cx="262.943" cy="286.579" r="2.95442" fill="white"/>
<circle cx="286.579" cy="286.579" r="2.95442" fill="white"/>
<circle cx="310.214" cy="286.579" r="2.95442" fill="white"/>
<circle cx="333.849" cy="286.579" r="2.95442" fill="white"/>
<circle cx="357.485" cy="286.579" r="2.95442" fill="white"/>
<circle cx="381.12" cy="286.579" r="2.95442" fill="white"/>
<circle cx="404.755" cy="286.579" r="2.95442" fill="white"/>
<circle cx="428.391" cy="286.579" r="2.95442" fill="white"/>
<circle cx="452.026" cy="286.579" r="2.95442" fill="white"/>
<circle cx="475.662" cy="286.579" r="2.95442" fill="white"/>
<circle cx="499.297" cy="286.579" r="2.95442" fill="white"/>
<circle cx="2.95442" cy="310.214" r="2.95442" fill="white"/>
<circle cx="26.5898" cy="310.214" r="2.95442" fill="white"/>
<circle cx="50.2251" cy="310.214" r="2.95442" fill="white"/>
<circle cx="73.8605" cy="310.214" r="2.95442" fill="white"/>
<circle cx="97.4959" cy="310.214" r="2.95442" fill="white"/>
<circle cx="121.131" cy="310.214" r="2.95442" fill="white"/>
<circle cx="144.767" cy="310.214" r="2.95442" fill="white"/>
<circle cx="168.402" cy="310.214" r="2.95442" fill="white"/>
<circle cx="192.037" cy="310.214" r="2.95442" fill="white"/>
<circle cx="215.673" cy="310.214" r="2.95442" fill="white"/>
<circle cx="239.308" cy="310.214" r="2.95442" fill="white"/>
<circle cx="262.943" cy="310.214" r="2.95442" fill="white"/>
<circle cx="286.579" cy="310.214" r="2.95442" fill="white"/>
<circle cx="310.214" cy="310.214" r="2.95442" fill="white"/>
<circle cx="333.849" cy="310.214" r="2.95442" fill="white"/>
<circle cx="357.485" cy="310.214" r="2.95442" fill="white"/>
<circle cx="381.12" cy="310.214" r="2.95442" fill="white"/>
<circle cx="404.755" cy="310.214" r="2.95442" fill="white"/>
<circle cx="428.391" cy="310.214" r="2.95442" fill="white"/>
<circle cx="452.026" cy="310.214" r="2.95442" fill="white"/>
<circle cx="475.662" cy="310.214" r="2.95442" fill="white"/>
<circle cx="499.297" cy="310.214" r="2.95442" fill="white"/>
<circle cx="2.95442" cy="333.849" r="2.95442" fill="white"/>
<circle cx="26.5898" cy="333.849" r="2.95442" fill="white"/>
<circle cx="50.2251" cy="333.849" r="2.95442" fill="white"/>
<circle cx="73.8605" cy="333.849" r="2.95442" fill="white"/>
<circle cx="97.4959" cy="333.849" r="2.95442" fill="white"/>
<circle cx="121.131" cy="333.849" r="2.95442" fill="white"/>
<circle cx="144.767" cy="333.849" r="2.95442" fill="white"/>
<circle cx="168.402" cy="333.849" r="2.95442" fill="white"/>
<circle cx="192.037" cy="333.849" r="2.95442" fill="white"/>
<circle cx="215.673" cy="333.849" r="2.95442" fill="white"/>
<circle cx="239.308" cy="333.849" r="2.95442" fill="white"/>
<circle cx="262.943" cy="333.849" r="2.95442" fill="white"/>
<circle cx="286.579" cy="333.849" r="2.95442" fill="white"/>
<circle cx="310.214" cy="333.849" r="2.95442" fill="white"/>
<circle cx="333.849" cy="333.849" r="2.95442" fill="white"/>
<circle cx="357.485" cy="333.849" r="2.95442" fill="white"/>
<circle cx="381.12" cy="333.849" r="2.95442" fill="white"/>
<circle cx="404.755" cy="333.849" r="2.95442" fill="white"/>
<circle cx="428.391" cy="333.849" r="2.95442" fill="white"/>
<circle cx="452.026" cy="333.849" r="2.95442" fill="white"/>
<circle cx="475.662" cy="333.849" r="2.95442" fill="white"/>
<circle cx="499.297" cy="333.849" r="2.95442" fill="white"/>
<circle cx="2.95442" cy="357.485" r="2.95442" fill="white"/>
<circle cx="26.5898" cy="357.485" r="2.95442" fill="white"/>
<circle cx="50.2251" cy="357.485" r="2.95442" fill="white"/>
<circle cx="73.8605" cy="357.485" r="2.95442" fill="white"/>
<circle cx="97.4959" cy="357.485" r="2.95442" fill="white"/>
<circle cx="121.131" cy="357.485" r="2.95442" fill="white"/>
<circle cx="144.767" cy="357.485" r="2.95442" fill="white"/>
<circle cx="168.402" cy="357.485" r="2.95442" fill="white"/>
<circle cx="192.037" cy="357.485" r="2.95442" fill="white"/>
<circle cx="215.673" cy="357.485" r="2.95442" fill="white"/>
<circle cx="239.308" cy="357.485" r="2.95442" fill="white"/>
<circle cx="262.943" cy="357.485" r="2.95442" fill="white"/>
<circle cx="286.579" cy="357.485" r="2.95442" fill="white"/>
<circle cx="310.214" cy="357.485" r="2.95442" fill="white"/>
<circle cx="333.849" cy="357.485" r="2.95442" fill="white"/>
<circle cx="357.485" cy="357.485" r="2.95442" fill="white"/>
<circle cx="381.12" cy="357.485" r="2.95442" fill="white"/>
<circle cx="404.755" cy="357.485" r="2.95442" fill="white"/>
<circle cx="428.391" cy="357.485" r="2.95442" fill="white"/>
<circle cx="452.026" cy="357.485" r="2.95442" fill="white"/>
<circle cx="475.662" cy="357.485" r="2.95442" fill="white"/>
<circle cx="499.297" cy="357.485" r="2.95442" fill="white"/>
</g>
</svg>
