<svg width="445" height="425" viewBox="0 0 445 425" fill="none" xmlns="http://www.w3.org/2000/svg">
<g style="mix-blend-mode:multiply" opacity="0.2">
<path d="M5 2.5C5 3.88071 3.88071 5 2.5 5C1.11929 5 0 3.88071 0 2.5C0 1.11929 1.11929 0 2.5 0C3.88071 0 5 1.11929 5 2.5Z" fill="#6BC190"/>
<path d="M25 2.5C25 3.88071 23.8808 5 22.5 5C21.1193 5 20 3.88071 20 2.5C20 1.11929 21.1193 0 22.5 0C23.8808 0 25 1.11929 25 2.5Z" fill="#6BC190"/>
<path d="M45.0001 2.5C45.0001 3.88071 43.8808 5 42.5001 5C41.1194 5 40.0001 3.88071 40.0001 2.5C40.0001 1.11929 41.1194 0 42.5001 0C43.8808 0 45.0001 1.11929 45.0001 2.5Z" fill="#6BC190"/>
<path d="M64.9999 2.5C64.9999 3.88071 63.8806 5 62.4999 5C61.1192 5 59.9999 3.88071 59.9999 2.5C59.9999 1.11929 61.1192 0 62.4999 0C63.8806 0 64.9999 1.11929 64.9999 2.5Z" fill="#6BC190"/>
<path d="M85 2.5C85 3.88071 83.8807 5 82.5 5C81.1193 5 80 3.88071 80 2.5C80 1.11929 81.1193 0 82.5 0C83.8807 0 85 1.11929 85 2.5Z" fill="#6BC190"/>
<path d="M105 2.5C105 3.88071 103.881 5 102.5 5C101.119 5 99.9998 3.88071 99.9998 2.5C99.9998 1.11929 101.119 0 102.5 0C103.881 0 105 1.11929 105 2.5Z" fill="#6BC190"/>
<path d="M125 2.5C125 3.88071 123.881 5 122.5 5C121.119 5 120 3.88071 120 2.5C120 1.11929 121.119 0 122.5 0C123.881 0 125 1.11929 125 2.5Z" fill="#6BC190"/>
<path d="M145 2.5C145 3.88071 143.881 5 142.5 5C141.119 5 140 3.88071 140 2.5C140 1.11929 141.119 0 142.5 0C143.881 0 145 1.11929 145 2.5Z" fill="#6BC190"/>
<path d="M165 2.5C165 3.88071 163.881 5 162.5 5C161.119 5 160 3.88071 160 2.5C160 1.11929 161.119 0 162.5 0C163.881 0 165 1.11929 165 2.5Z" fill="#6BC190"/>
<path d="M185 2.5C185 3.88071 183.881 5 182.5 5C181.119 5 180 3.88071 180 2.5C180 1.11929 181.119 0 182.5 0C183.881 0 185 1.11929 185 2.5Z" fill="#6BC190"/>
<path d="M205 2.5C205 3.88071 203.881 5 202.5 5C201.119 5 200 3.88071 200 2.5C200 1.11929 201.119 0 202.5 0C203.881 0 205 1.11929 205 2.5Z" fill="#6BC190"/>
<path d="M225 2.5C225 3.88071 223.881 5 222.5 5C221.119 5 220 3.88071 220 2.5C220 1.11929 221.119 0 222.5 0C223.881 0 225 1.11929 225 2.5Z" fill="#6BC190"/>
<path d="M245 2.5C245 3.88071 243.881 5 242.5 5C241.119 5 240 3.88071 240 2.5C240 1.11929 241.119 0 242.5 0C243.881 0 245 1.11929 245 2.5Z" fill="#6BC190"/>
<path d="M265 2.5C265 3.88071 263.88 5 262.5 5C261.119 5 260 3.88071 260 2.5C260 1.11929 261.119 0 262.5 0C263.88 0 265 1.11929 265 2.5Z" fill="#6BC190"/>
<path d="M285 2.5C285 3.88071 283.88 5 282.5 5C281.119 5 280 3.88071 280 2.5C280 1.11929 281.119 0 282.5 0C283.88 0 285 1.11929 285 2.5Z" fill="#6BC190"/>
<path d="M305 2.5C305 3.88071 303.881 5 302.5 5C301.119 5 300 3.88071 300 2.5C300 1.11929 301.119 0 302.5 0C303.881 0 305 1.11929 305 2.5Z" fill="#6BC190"/>
<path d="M325 2.5C325 3.88071 323.881 5 322.5 5C321.119 5 320 3.88071 320 2.5C320 1.11929 321.119 0 322.5 0C323.881 0 325 1.11929 325 2.5Z" fill="#6BC190"/>
<path d="M345 2.5C345 3.88071 343.88 5 342.5 5C341.119 5 340 3.88071 340 2.5C340 1.11929 341.119 0 342.5 0C343.88 0 345 1.11929 345 2.5Z" fill="#6BC190"/>
<path d="M365 2.5C365 3.88071 363.88 5 362.5 5C361.119 5 360 3.88071 360 2.5C360 1.11929 361.119 0 362.5 0C363.88 0 365 1.11929 365 2.5Z" fill="#6BC190"/>
<path d="M385 2.5C385 3.88071 383.881 5 382.5 5C381.119 5 380 3.88071 380 2.5C380 1.11929 381.119 0 382.5 0C383.881 0 385 1.11929 385 2.5Z" fill="#6BC190"/>
<path d="M405 2.5C405 3.88071 403.881 5 402.5 5C401.119 5 400 3.88071 400 2.5C400 1.11929 401.119 0 402.5 0C403.881 0 405 1.11929 405 2.5Z" fill="#6BC190"/>
<path d="M425 2.5C425 3.88071 423.881 5 422.5 5C421.119 5 420 3.88071 420 2.5C420 1.11929 421.119 0 422.5 0C423.881 0 425 1.11929 425 2.5Z" fill="#6BC190"/>
<path d="M445 2.5C445 3.88071 443.881 5 442.5 5C441.119 5 440 3.88071 440 2.5C440 1.11929 441.119 0 442.5 0C443.881 0 445 1.11929 445 2.5Z" fill="#6BC190"/>
<path d="M5 22.5C5 23.8807 3.88071 25 2.5 25C1.11929 25 0 23.8807 0 22.5C0 21.1193 1.11929 20 2.5 20C3.88071 20 5 21.1193 5 22.5Z" fill="#6BC190"/>
<path d="M25 22.5C25 23.8807 23.8808 25 22.5 25C21.1193 25 20 23.8807 20 22.5C20 21.1193 21.1193 20 22.5 20C23.8808 20 25 21.1193 25 22.5Z" fill="#6BC190"/>
<path d="M45.0001 22.5C45.0001 23.8807 43.8808 25 42.5001 25C41.1194 25 40.0001 23.8807 40.0001 22.5C40.0001 21.1193 41.1194 20 42.5001 20C43.8808 20 45.0001 21.1193 45.0001 22.5Z" fill="#6BC190"/>
<path d="M64.9999 22.5C64.9999 23.8807 63.8806 25 62.4999 25C61.1192 25 59.9999 23.8807 59.9999 22.5C59.9999 21.1193 61.1192 20 62.4999 20C63.8806 20 64.9999 21.1193 64.9999 22.5Z" fill="#6BC190"/>
<path d="M85 22.5C85 23.8807 83.8807 25 82.5 25C81.1193 25 80 23.8807 80 22.5C80 21.1193 81.1193 20 82.5 20C83.8807 20 85 21.1193 85 22.5Z" fill="#6BC190"/>
<path d="M105 22.5C105 23.8807 103.881 25 102.5 25C101.119 25 99.9998 23.8807 99.9998 22.5C99.9998 21.1193 101.119 20 102.5 20C103.881 20 105 21.1193 105 22.5Z" fill="#6BC190"/>
<path d="M125 22.5C125 23.8807 123.881 25 122.5 25C121.119 25 120 23.8807 120 22.5C120 21.1193 121.119 20 122.5 20C123.881 20 125 21.1193 125 22.5Z" fill="#6BC190"/>
<path d="M145 22.5C145 23.8807 143.881 25 142.5 25C141.119 25 140 23.8807 140 22.5C140 21.1193 141.119 20 142.5 20C143.881 20 145 21.1193 145 22.5Z" fill="#6BC190"/>
<path d="M165 22.5C165 23.8807 163.881 25 162.5 25C161.119 25 160 23.8807 160 22.5C160 21.1193 161.119 20 162.5 20C163.881 20 165 21.1193 165 22.5Z" fill="#6BC190"/>
<path d="M185 22.5C185 23.8807 183.881 25 182.5 25C181.119 25 180 23.8807 180 22.5C180 21.1193 181.119 20 182.5 20C183.881 20 185 21.1193 185 22.5Z" fill="#6BC190"/>
<path d="M205 22.5C205 23.8807 203.881 25 202.5 25C201.119 25 200 23.8807 200 22.5C200 21.1193 201.119 20 202.5 20C203.881 20 205 21.1193 205 22.5Z" fill="#6BC190"/>
<path d="M225 22.5C225 23.8807 223.881 25 222.5 25C221.119 25 220 23.8807 220 22.5C220 21.1193 221.119 20 222.5 20C223.881 20 225 21.1193 225 22.5Z" fill="#6BC190"/>
<path d="M245 22.5C245 23.8807 243.881 25 242.5 25C241.119 25 240 23.8807 240 22.5C240 21.1193 241.119 20 242.5 20C243.881 20 245 21.1193 245 22.5Z" fill="#6BC190"/>
<path d="M265 22.5C265 23.8807 263.88 25 262.5 25C261.119 25 260 23.8807 260 22.5C260 21.1193 261.119 20 262.5 20C263.88 20 265 21.1193 265 22.5Z" fill="#6BC190"/>
<path d="M285 22.5C285 23.8807 283.88 25 282.5 25C281.119 25 280 23.8807 280 22.5C280 21.1193 281.119 20 282.5 20C283.88 20 285 21.1193 285 22.5Z" fill="#6BC190"/>
<path d="M305 22.5C305 23.8807 303.881 25 302.5 25C301.119 25 300 23.8807 300 22.5C300 21.1193 301.119 20 302.5 20C303.881 20 305 21.1193 305 22.5Z" fill="#6BC190"/>
<path d="M325 22.5C325 23.8807 323.881 25 322.5 25C321.119 25 320 23.8807 320 22.5C320 21.1193 321.119 20 322.5 20C323.881 20 325 21.1193 325 22.5Z" fill="#6BC190"/>
<path d="M345 22.5C345 23.8807 343.88 25 342.5 25C341.119 25 340 23.8807 340 22.5C340 21.1193 341.119 20 342.5 20C343.88 20 345 21.1193 345 22.5Z" fill="#6BC190"/>
<path d="M365 22.5C365 23.8807 363.88 25 362.5 25C361.119 25 360 23.8807 360 22.5C360 21.1193 361.119 20 362.5 20C363.88 20 365 21.1193 365 22.5Z" fill="#6BC190"/>
<path d="M385 22.5C385 23.8807 383.881 25 382.5 25C381.119 25 380 23.8807 380 22.5C380 21.1193 381.119 20 382.5 20C383.881 20 385 21.1193 385 22.5Z" fill="#6BC190"/>
<path d="M405 22.5C405 23.8807 403.881 25 402.5 25C401.119 25 400 23.8807 400 22.5C400 21.1193 401.119 20 402.5 20C403.881 20 405 21.1193 405 22.5Z" fill="#6BC190"/>
<path d="M425 22.5C425 23.8807 423.881 25 422.5 25C421.119 25 420 23.8807 420 22.5C420 21.1193 421.119 20 422.5 20C423.881 20 425 21.1193 425 22.5Z" fill="#6BC190"/>
<path d="M445 22.5C445 23.8807 443.881 25 442.5 25C441.119 25 440 23.8807 440 22.5C440 21.1193 441.119 20 442.5 20C443.881 20 445 21.1193 445 22.5Z" fill="#6BC190"/>
<path d="M5 42.4999C5 43.8806 3.88071 44.9999 2.5 44.9999C1.11929 44.9999 0 43.8806 0 42.4999C0 41.1192 1.11929 39.9999 2.5 39.9999C3.88071 39.9999 5 41.1192 5 42.4999Z" fill="#6BC190"/>
<path d="M25 42.4999C25 43.8806 23.8808 44.9999 22.5 44.9999C21.1193 44.9999 20 43.8806 20 42.4999C20 41.1192 21.1193 39.9999 22.5 39.9999C23.8808 39.9999 25 41.1192 25 42.4999Z" fill="#6BC190"/>
<path d="M45.0001 42.4999C45.0001 43.8806 43.8808 44.9999 42.5001 44.9999C41.1194 44.9999 40.0001 43.8806 40.0001 42.4999C40.0001 41.1192 41.1194 39.9999 42.5001 39.9999C43.8808 39.9999 45.0001 41.1192 45.0001 42.4999Z" fill="#6BC190"/>
<path d="M64.9999 42.4999C64.9999 43.8806 63.8806 44.9999 62.4999 44.9999C61.1192 44.9999 59.9999 43.8806 59.9999 42.4999C59.9999 41.1192 61.1192 39.9999 62.4999 39.9999C63.8806 39.9999 64.9999 41.1192 64.9999 42.4999Z" fill="#6BC190"/>
<path d="M85 42.4999C85 43.8806 83.8807 44.9999 82.5 44.9999C81.1193 44.9999 80 43.8806 80 42.4999C80 41.1192 81.1193 39.9999 82.5 39.9999C83.8807 39.9999 85 41.1192 85 42.4999Z" fill="#6BC190"/>
<path d="M105 42.4999C105 43.8806 103.881 44.9999 102.5 44.9999C101.119 44.9999 99.9998 43.8806 99.9998 42.4999C99.9998 41.1192 101.119 39.9999 102.5 39.9999C103.881 39.9999 105 41.1192 105 42.4999Z" fill="#6BC190"/>
<path d="M125 42.4999C125 43.8806 123.881 44.9999 122.5 44.9999C121.119 44.9999 120 43.8806 120 42.4999C120 41.1192 121.119 39.9999 122.5 39.9999C123.881 39.9999 125 41.1192 125 42.4999Z" fill="#6BC190"/>
<path d="M145 42.4999C145 43.8806 143.881 44.9999 142.5 44.9999C141.119 44.9999 140 43.8806 140 42.4999C140 41.1192 141.119 39.9999 142.5 39.9999C143.881 39.9999 145 41.1192 145 42.4999Z" fill="#6BC190"/>
<path d="M165 42.4999C165 43.8806 163.881 44.9999 162.5 44.9999C161.119 44.9999 160 43.8806 160 42.4999C160 41.1192 161.119 39.9999 162.5 39.9999C163.881 39.9999 165 41.1192 165 42.4999Z" fill="#6BC190"/>
<path d="M185 42.4999C185 43.8806 183.881 44.9999 182.5 44.9999C181.119 44.9999 180 43.8806 180 42.4999C180 41.1192 181.119 39.9999 182.5 39.9999C183.881 39.9999 185 41.1192 185 42.4999Z" fill="#6BC190"/>
<path d="M205 42.4999C205 43.8806 203.881 44.9999 202.5 44.9999C201.119 44.9999 200 43.8806 200 42.4999C200 41.1192 201.119 39.9999 202.5 39.9999C203.881 39.9999 205 41.1192 205 42.4999Z" fill="#6BC190"/>
<path d="M225 42.4999C225 43.8806 223.881 44.9999 222.5 44.9999C221.119 44.9999 220 43.8806 220 42.4999C220 41.1192 221.119 39.9999 222.5 39.9999C223.881 39.9999 225 41.1192 225 42.4999Z" fill="#6BC190"/>
<path d="M245 42.4999C245 43.8806 243.881 44.9999 242.5 44.9999C241.119 44.9999 240 43.8806 240 42.4999C240 41.1192 241.119 39.9999 242.5 39.9999C243.881 39.9999 245 41.1192 245 42.4999Z" fill="#6BC190"/>
<path d="M265 42.4999C265 43.8806 263.88 44.9999 262.5 44.9999C261.119 44.9999 260 43.8806 260 42.4999C260 41.1192 261.119 39.9999 262.5 39.9999C263.88 39.9999 265 41.1192 265 42.4999Z" fill="#6BC190"/>
<path d="M285 42.4999C285 43.8806 283.88 44.9999 282.5 44.9999C281.119 44.9999 280 43.8806 280 42.4999C280 41.1192 281.119 39.9999 282.5 39.9999C283.88 39.9999 285 41.1192 285 42.4999Z" fill="#6BC190"/>
<path d="M305 42.4999C305 43.8806 303.881 44.9999 302.5 44.9999C301.119 44.9999 300 43.8806 300 42.4999C300 41.1192 301.119 39.9999 302.5 39.9999C303.881 39.9999 305 41.1192 305 42.4999Z" fill="#6BC190"/>
<path d="M325 42.4999C325 43.8806 323.881 44.9999 322.5 44.9999C321.119 44.9999 320 43.8806 320 42.4999C320 41.1192 321.119 39.9999 322.5 39.9999C323.881 39.9999 325 41.1192 325 42.4999Z" fill="#6BC190"/>
<path d="M345 42.4999C345 43.8806 343.88 44.9999 342.5 44.9999C341.119 44.9999 340 43.8806 340 42.4999C340 41.1192 341.119 39.9999 342.5 39.9999C343.88 39.9999 345 41.1192 345 42.4999Z" fill="#6BC190"/>
<path d="M365 42.4999C365 43.8806 363.88 44.9999 362.5 44.9999C361.119 44.9999 360 43.8806 360 42.4999C360 41.1192 361.119 39.9999 362.5 39.9999C363.88 39.9999 365 41.1192 365 42.4999Z" fill="#6BC190"/>
<path d="M385 42.4999C385 43.8806 383.881 44.9999 382.5 44.9999C381.119 44.9999 380 43.8806 380 42.4999C380 41.1192 381.119 39.9999 382.5 39.9999C383.881 39.9999 385 41.1192 385 42.4999Z" fill="#6BC190"/>
<path d="M405 42.4999C405 43.8806 403.881 44.9999 402.5 44.9999C401.119 44.9999 400 43.8806 400 42.4999C400 41.1192 401.119 39.9999 402.5 39.9999C403.881 39.9999 405 41.1192 405 42.4999Z" fill="#6BC190"/>
<path d="M425 42.4999C425 43.8806 423.881 44.9999 422.5 44.9999C421.119 44.9999 420 43.8806 420 42.4999C420 41.1192 421.119 39.9999 422.5 39.9999C423.881 39.9999 425 41.1192 425 42.4999Z" fill="#6BC190"/>
<path d="M445 42.4999C445 43.8806 443.881 44.9999 442.5 44.9999C441.119 44.9999 440 43.8806 440 42.4999C440 41.1192 441.119 39.9999 442.5 39.9999C443.881 39.9999 445 41.1192 445 42.4999Z" fill="#6BC190"/>
<path d="M5 62.5C5 63.8807 3.88071 65 2.5 65C1.11929 65 0 63.8807 0 62.5C0 61.1193 1.11929 60 2.5 60C3.88071 60 5 61.1193 5 62.5Z" fill="#6BC190"/>
<path d="M25 62.5C25 63.8807 23.8808 65 22.5 65C21.1193 65 20 63.8807 20 62.5C20 61.1193 21.1193 60 22.5 60C23.8808 60 25 61.1193 25 62.5Z" fill="#6BC190"/>
<path d="M45.0001 62.5C45.0001 63.8807 43.8808 65 42.5001 65C41.1194 65 40.0001 63.8807 40.0001 62.5C40.0001 61.1193 41.1194 60 42.5001 60C43.8808 60 45.0001 61.1193 45.0001 62.5Z" fill="#6BC190"/>
<path d="M64.9999 62.5C64.9999 63.8807 63.8806 65 62.4999 65C61.1192 65 59.9999 63.8807 59.9999 62.5C59.9999 61.1193 61.1192 60 62.4999 60C63.8806 60 64.9999 61.1193 64.9999 62.5Z" fill="#6BC190"/>
<path d="M85 62.5C85 63.8807 83.8807 65 82.5 65C81.1193 65 80 63.8807 80 62.5C80 61.1193 81.1193 60 82.5 60C83.8807 60 85 61.1193 85 62.5Z" fill="#6BC190"/>
<path d="M105 62.5C105 63.8807 103.881 65 102.5 65C101.119 65 99.9998 63.8807 99.9998 62.5C99.9998 61.1193 101.119 60 102.5 60C103.881 60 105 61.1193 105 62.5Z" fill="#6BC190"/>
<path d="M125 62.5C125 63.8807 123.881 65 122.5 65C121.119 65 120 63.8807 120 62.5C120 61.1193 121.119 60 122.5 60C123.881 60 125 61.1193 125 62.5Z" fill="#6BC190"/>
<path d="M145 62.5C145 63.8807 143.881 65 142.5 65C141.119 65 140 63.8807 140 62.5C140 61.1193 141.119 60 142.5 60C143.881 60 145 61.1193 145 62.5Z" fill="#6BC190"/>
<path d="M165 62.5C165 63.8807 163.881 65 162.5 65C161.119 65 160 63.8807 160 62.5C160 61.1193 161.119 60 162.5 60C163.881 60 165 61.1193 165 62.5Z" fill="#6BC190"/>
<path d="M185 62.5C185 63.8807 183.881 65 182.5 65C181.119 65 180 63.8807 180 62.5C180 61.1193 181.119 60 182.5 60C183.881 60 185 61.1193 185 62.5Z" fill="#6BC190"/>
<path d="M205 62.5C205 63.8807 203.881 65 202.5 65C201.119 65 200 63.8807 200 62.5C200 61.1193 201.119 60 202.5 60C203.881 60 205 61.1193 205 62.5Z" fill="#6BC190"/>
<path d="M225 62.5C225 63.8807 223.881 65 222.5 65C221.119 65 220 63.8807 220 62.5C220 61.1193 221.119 60 222.5 60C223.881 60 225 61.1193 225 62.5Z" fill="#6BC190"/>
<path d="M245 62.5C245 63.8807 243.881 65 242.5 65C241.119 65 240 63.8807 240 62.5C240 61.1193 241.119 60 242.5 60C243.881 60 245 61.1193 245 62.5Z" fill="#6BC190"/>
<path d="M265 62.5C265 63.8807 263.88 65 262.5 65C261.119 65 260 63.8807 260 62.5C260 61.1193 261.119 60 262.5 60C263.88 60 265 61.1193 265 62.5Z" fill="#6BC190"/>
<path d="M285 62.5C285 63.8807 283.88 65 282.5 65C281.119 65 280 63.8807 280 62.5C280 61.1193 281.119 60 282.5 60C283.88 60 285 61.1193 285 62.5Z" fill="#6BC190"/>
<path d="M305 62.5C305 63.8807 303.881 65 302.5 65C301.119 65 300 63.8807 300 62.5C300 61.1193 301.119 60 302.5 60C303.881 60 305 61.1193 305 62.5Z" fill="#6BC190"/>
<path d="M325 62.5C325 63.8807 323.881 65 322.5 65C321.119 65 320 63.8807 320 62.5C320 61.1193 321.119 60 322.5 60C323.881 60 325 61.1193 325 62.5Z" fill="#6BC190"/>
<path d="M345 62.5C345 63.8807 343.88 65 342.5 65C341.119 65 340 63.8807 340 62.5C340 61.1193 341.119 60 342.5 60C343.88 60 345 61.1193 345 62.5Z" fill="#6BC190"/>
<path d="M365 62.5C365 63.8807 363.88 65 362.5 65C361.119 65 360 63.8807 360 62.5C360 61.1193 361.119 60 362.5 60C363.88 60 365 61.1193 365 62.5Z" fill="#6BC190"/>
<path d="M385 62.5C385 63.8807 383.881 65 382.5 65C381.119 65 380 63.8807 380 62.5C380 61.1193 381.119 60 382.5 60C383.881 60 385 61.1193 385 62.5Z" fill="#6BC190"/>
<path d="M405 62.5C405 63.8807 403.881 65 402.5 65C401.119 65 400 63.8807 400 62.5C400 61.1193 401.119 60 402.5 60C403.881 60 405 61.1193 405 62.5Z" fill="#6BC190"/>
<path d="M425 62.5C425 63.8807 423.881 65 422.5 65C421.119 65 420 63.8807 420 62.5C420 61.1193 421.119 60 422.5 60C423.881 60 425 61.1193 425 62.5Z" fill="#6BC190"/>
<path d="M445 62.5C445 63.8807 443.881 65 442.5 65C441.119 65 440 63.8807 440 62.5C440 61.1193 441.119 60 442.5 60C443.881 60 445 61.1193 445 62.5Z" fill="#6BC190"/>
<path d="M5 82.5C5 83.8807 3.88071 85 2.5 85C1.11929 85 0 83.8807 0 82.5C0 81.1193 1.11929 80 2.5 80C3.88071 80 5 81.1193 5 82.5Z" fill="#6BC190"/>
<path d="M25 82.5C25 83.8807 23.8808 85 22.5 85C21.1193 85 20 83.8807 20 82.5C20 81.1193 21.1193 80 22.5 80C23.8808 80 25 81.1193 25 82.5Z" fill="#6BC190"/>
<path d="M45.0001 82.5C45.0001 83.8807 43.8808 85 42.5001 85C41.1194 85 40.0001 83.8807 40.0001 82.5C40.0001 81.1193 41.1194 80 42.5001 80C43.8808 80 45.0001 81.1193 45.0001 82.5Z" fill="#6BC190"/>
<path d="M64.9999 82.5C64.9999 83.8807 63.8806 85 62.4999 85C61.1192 85 59.9999 83.8807 59.9999 82.5C59.9999 81.1193 61.1192 80 62.4999 80C63.8806 80 64.9999 81.1193 64.9999 82.5Z" fill="#6BC190"/>
<path d="M85 82.5C85 83.8807 83.8807 85 82.5 85C81.1193 85 80 83.8807 80 82.5C80 81.1193 81.1193 80 82.5 80C83.8807 80 85 81.1193 85 82.5Z" fill="#6BC190"/>
<path d="M105 82.5C105 83.8807 103.881 85 102.5 85C101.119 85 99.9998 83.8807 99.9998 82.5C99.9998 81.1193 101.119 80 102.5 80C103.881 80 105 81.1193 105 82.5Z" fill="#6BC190"/>
<path d="M125 82.5C125 83.8807 123.881 85 122.5 85C121.119 85 120 83.8807 120 82.5C120 81.1193 121.119 80 122.5 80C123.881 80 125 81.1193 125 82.5Z" fill="#6BC190"/>
<path d="M145 82.5C145 83.8807 143.881 85 142.5 85C141.119 85 140 83.8807 140 82.5C140 81.1193 141.119 80 142.5 80C143.881 80 145 81.1193 145 82.5Z" fill="#6BC190"/>
<path d="M165 82.5C165 83.8807 163.881 85 162.5 85C161.119 85 160 83.8807 160 82.5C160 81.1193 161.119 80 162.5 80C163.881 80 165 81.1193 165 82.5Z" fill="#6BC190"/>
<path d="M185 82.5C185 83.8807 183.881 85 182.5 85C181.119 85 180 83.8807 180 82.5C180 81.1193 181.119 80 182.5 80C183.881 80 185 81.1193 185 82.5Z" fill="#6BC190"/>
<path d="M205 82.5C205 83.8807 203.881 85 202.5 85C201.119 85 200 83.8807 200 82.5C200 81.1193 201.119 80 202.5 80C203.881 80 205 81.1193 205 82.5Z" fill="#6BC190"/>
<path d="M225 82.5C225 83.8807 223.881 85 222.5 85C221.119 85 220 83.8807 220 82.5C220 81.1193 221.119 80 222.5 80C223.881 80 225 81.1193 225 82.5Z" fill="#6BC190"/>
<path d="M245 82.5C245 83.8807 243.881 85 242.5 85C241.119 85 240 83.8807 240 82.5C240 81.1193 241.119 80 242.5 80C243.881 80 245 81.1193 245 82.5Z" fill="#6BC190"/>
<path d="M265 82.5C265 83.8807 263.88 85 262.5 85C261.119 85 260 83.8807 260 82.5C260 81.1193 261.119 80 262.5 80C263.88 80 265 81.1193 265 82.5Z" fill="#6BC190"/>
<path d="M285 82.5C285 83.8807 283.88 85 282.5 85C281.119 85 280 83.8807 280 82.5C280 81.1193 281.119 80 282.5 80C283.88 80 285 81.1193 285 82.5Z" fill="#6BC190"/>
<path d="M305 82.5C305 83.8807 303.881 85 302.5 85C301.119 85 300 83.8807 300 82.5C300 81.1193 301.119 80 302.5 80C303.881 80 305 81.1193 305 82.5Z" fill="#6BC190"/>
<path d="M325 82.5C325 83.8807 323.881 85 322.5 85C321.119 85 320 83.8807 320 82.5C320 81.1193 321.119 80 322.5 80C323.881 80 325 81.1193 325 82.5Z" fill="#6BC190"/>
<path d="M345 82.5C345 83.8807 343.88 85 342.5 85C341.119 85 340 83.8807 340 82.5C340 81.1193 341.119 80 342.5 80C343.88 80 345 81.1193 345 82.5Z" fill="#6BC190"/>
<path d="M365 82.5C365 83.8807 363.88 85 362.5 85C361.119 85 360 83.8807 360 82.5C360 81.1193 361.119 80 362.5 80C363.88 80 365 81.1193 365 82.5Z" fill="#6BC190"/>
<path d="M385 82.5C385 83.8807 383.881 85 382.5 85C381.119 85 380 83.8807 380 82.5C380 81.1193 381.119 80 382.5 80C383.881 80 385 81.1193 385 82.5Z" fill="#6BC190"/>
<path d="M405 82.5C405 83.8807 403.881 85 402.5 85C401.119 85 400 83.8807 400 82.5C400 81.1193 401.119 80 402.5 80C403.881 80 405 81.1193 405 82.5Z" fill="#6BC190"/>
<path d="M425 82.5C425 83.8807 423.881 85 422.5 85C421.119 85 420 83.8807 420 82.5C420 81.1193 421.119 80 422.5 80C423.881 80 425 81.1193 425 82.5Z" fill="#6BC190"/>
<path d="M445 82.5C445 83.8807 443.881 85 442.5 85C441.119 85 440 83.8807 440 82.5C440 81.1193 441.119 80 442.5 80C443.881 80 445 81.1193 445 82.5Z" fill="#6BC190"/>
<path d="M5 102.5C5 103.881 3.88071 105 2.5 105C1.11929 105 0 103.881 0 102.5C0 101.119 1.11929 100 2.5 100C3.88071 100 5 101.119 5 102.5Z" fill="#6BC190"/>
<path d="M25 102.5C25 103.881 23.8808 105 22.5 105C21.1193 105 20 103.881 20 102.5C20 101.119 21.1193 100 22.5 100C23.8808 100 25 101.119 25 102.5Z" fill="#6BC190"/>
<path d="M45.0001 102.5C45.0001 103.881 43.8808 105 42.5001 105C41.1194 105 40.0001 103.881 40.0001 102.5C40.0001 101.119 41.1194 100 42.5001 100C43.8808 100 45.0001 101.119 45.0001 102.5Z" fill="#6BC190"/>
<path d="M64.9999 102.5C64.9999 103.881 63.8806 105 62.4999 105C61.1192 105 59.9999 103.881 59.9999 102.5C59.9999 101.119 61.1192 100 62.4999 100C63.8806 100 64.9999 101.119 64.9999 102.5Z" fill="#6BC190"/>
<path d="M85 102.5C85 103.881 83.8807 105 82.5 105C81.1193 105 80 103.881 80 102.5C80 101.119 81.1193 100 82.5 100C83.8807 100 85 101.119 85 102.5Z" fill="#6BC190"/>
<path d="M105 102.5C105 103.881 103.881 105 102.5 105C101.119 105 99.9998 103.881 99.9998 102.5C99.9998 101.119 101.119 100 102.5 100C103.881 100 105 101.119 105 102.5Z" fill="#6BC190"/>
<path d="M125 102.5C125 103.881 123.881 105 122.5 105C121.119 105 120 103.881 120 102.5C120 101.119 121.119 100 122.5 100C123.881 100 125 101.119 125 102.5Z" fill="#6BC190"/>
<path d="M145 102.5C145 103.881 143.881 105 142.5 105C141.119 105 140 103.881 140 102.5C140 101.119 141.119 100 142.5 100C143.881 100 145 101.119 145 102.5Z" fill="#6BC190"/>
<path d="M165 102.5C165 103.881 163.881 105 162.5 105C161.119 105 160 103.881 160 102.5C160 101.119 161.119 100 162.5 100C163.881 100 165 101.119 165 102.5Z" fill="#6BC190"/>
<path d="M185 102.5C185 103.881 183.881 105 182.5 105C181.119 105 180 103.881 180 102.5C180 101.119 181.119 100 182.5 100C183.881 100 185 101.119 185 102.5Z" fill="#6BC190"/>
<path d="M205 102.5C205 103.881 203.881 105 202.5 105C201.119 105 200 103.881 200 102.5C200 101.119 201.119 100 202.5 100C203.881 100 205 101.119 205 102.5Z" fill="#6BC190"/>
<path d="M225 102.5C225 103.881 223.881 105 222.5 105C221.119 105 220 103.881 220 102.5C220 101.119 221.119 100 222.5 100C223.881 100 225 101.119 225 102.5Z" fill="#6BC190"/>
<path d="M245 102.5C245 103.881 243.881 105 242.5 105C241.119 105 240 103.881 240 102.5C240 101.119 241.119 100 242.5 100C243.881 100 245 101.119 245 102.5Z" fill="#6BC190"/>
<path d="M265 102.5C265 103.881 263.88 105 262.5 105C261.119 105 260 103.881 260 102.5C260 101.119 261.119 100 262.5 100C263.88 100 265 101.119 265 102.5Z" fill="#6BC190"/>
<path d="M285 102.5C285 103.881 283.88 105 282.5 105C281.119 105 280 103.881 280 102.5C280 101.119 281.119 100 282.5 100C283.88 100 285 101.119 285 102.5Z" fill="#6BC190"/>
<path d="M305 102.5C305 103.881 303.881 105 302.5 105C301.119 105 300 103.881 300 102.5C300 101.119 301.119 100 302.5 100C303.881 100 305 101.119 305 102.5Z" fill="#6BC190"/>
<path d="M325 102.5C325 103.881 323.881 105 322.5 105C321.119 105 320 103.881 320 102.5C320 101.119 321.119 100 322.5 100C323.881 100 325 101.119 325 102.5Z" fill="#6BC190"/>
<path d="M345 102.5C345 103.881 343.88 105 342.5 105C341.119 105 340 103.881 340 102.5C340 101.119 341.119 100 342.5 100C343.88 100 345 101.119 345 102.5Z" fill="#6BC190"/>
<path d="M365 102.5C365 103.881 363.88 105 362.5 105C361.119 105 360 103.881 360 102.5C360 101.119 361.119 100 362.5 100C363.88 100 365 101.119 365 102.5Z" fill="#6BC190"/>
<path d="M385 102.5C385 103.881 383.881 105 382.5 105C381.119 105 380 103.881 380 102.5C380 101.119 381.119 100 382.5 100C383.881 100 385 101.119 385 102.5Z" fill="#6BC190"/>
<path d="M405 102.5C405 103.881 403.881 105 402.5 105C401.119 105 400 103.881 400 102.5C400 101.119 401.119 100 402.5 100C403.881 100 405 101.119 405 102.5Z" fill="#6BC190"/>
<path d="M425 102.5C425 103.881 423.881 105 422.5 105C421.119 105 420 103.881 420 102.5C420 101.119 421.119 100 422.5 100C423.881 100 425 101.119 425 102.5Z" fill="#6BC190"/>
<path d="M445 102.5C445 103.881 443.881 105 442.5 105C441.119 105 440 103.881 440 102.5C440 101.119 441.119 100 442.5 100C443.881 100 445 101.119 445 102.5Z" fill="#6BC190"/>
<path d="M5 122.5C5 123.881 3.88071 125 2.5 125C1.11929 125 0 123.881 0 122.5C0 121.119 1.11929 120 2.5 120C3.88071 120 5 121.119 5 122.5Z" fill="#6BC190"/>
<path d="M25 122.5C25 123.881 23.8808 125 22.5 125C21.1193 125 20 123.881 20 122.5C20 121.119 21.1193 120 22.5 120C23.8808 120 25 121.119 25 122.5Z" fill="#6BC190"/>
<path d="M45.0001 122.5C45.0001 123.881 43.8808 125 42.5001 125C41.1194 125 40.0001 123.881 40.0001 122.5C40.0001 121.119 41.1194 120 42.5001 120C43.8808 120 45.0001 121.119 45.0001 122.5Z" fill="#6BC190"/>
<path d="M64.9999 122.5C64.9999 123.881 63.8806 125 62.4999 125C61.1192 125 59.9999 123.881 59.9999 122.5C59.9999 121.119 61.1192 120 62.4999 120C63.8806 120 64.9999 121.119 64.9999 122.5Z" fill="#6BC190"/>
<path d="M85 122.5C85 123.881 83.8807 125 82.5 125C81.1193 125 80 123.881 80 122.5C80 121.119 81.1193 120 82.5 120C83.8807 120 85 121.119 85 122.5Z" fill="#6BC190"/>
<path d="M105 122.5C105 123.881 103.881 125 102.5 125C101.119 125 99.9998 123.881 99.9998 122.5C99.9998 121.119 101.119 120 102.5 120C103.881 120 105 121.119 105 122.5Z" fill="#6BC190"/>
<path d="M125 122.5C125 123.881 123.881 125 122.5 125C121.119 125 120 123.881 120 122.5C120 121.119 121.119 120 122.5 120C123.881 120 125 121.119 125 122.5Z" fill="#6BC190"/>
<path d="M145 122.5C145 123.881 143.881 125 142.5 125C141.119 125 140 123.881 140 122.5C140 121.119 141.119 120 142.5 120C143.881 120 145 121.119 145 122.5Z" fill="#6BC190"/>
<path d="M165 122.5C165 123.881 163.881 125 162.5 125C161.119 125 160 123.881 160 122.5C160 121.119 161.119 120 162.5 120C163.881 120 165 121.119 165 122.5Z" fill="#6BC190"/>
<path d="M185 122.5C185 123.881 183.881 125 182.5 125C181.119 125 180 123.881 180 122.5C180 121.119 181.119 120 182.5 120C183.881 120 185 121.119 185 122.5Z" fill="#6BC190"/>
<path d="M205 122.5C205 123.881 203.881 125 202.5 125C201.119 125 200 123.881 200 122.5C200 121.119 201.119 120 202.5 120C203.881 120 205 121.119 205 122.5Z" fill="#6BC190"/>
<path d="M225 122.5C225 123.881 223.881 125 222.5 125C221.119 125 220 123.881 220 122.5C220 121.119 221.119 120 222.5 120C223.881 120 225 121.119 225 122.5Z" fill="#6BC190"/>
<path d="M245 122.5C245 123.881 243.881 125 242.5 125C241.119 125 240 123.881 240 122.5C240 121.119 241.119 120 242.5 120C243.881 120 245 121.119 245 122.5Z" fill="#6BC190"/>
<path d="M265 122.5C265 123.881 263.88 125 262.5 125C261.119 125 260 123.881 260 122.5C260 121.119 261.119 120 262.5 120C263.88 120 265 121.119 265 122.5Z" fill="#6BC190"/>
<path d="M285 122.5C285 123.881 283.88 125 282.5 125C281.119 125 280 123.881 280 122.5C280 121.119 281.119 120 282.5 120C283.88 120 285 121.119 285 122.5Z" fill="#6BC190"/>
<path d="M305 122.5C305 123.881 303.881 125 302.5 125C301.119 125 300 123.881 300 122.5C300 121.119 301.119 120 302.5 120C303.881 120 305 121.119 305 122.5Z" fill="#6BC190"/>
<path d="M325 122.5C325 123.881 323.881 125 322.5 125C321.119 125 320 123.881 320 122.5C320 121.119 321.119 120 322.5 120C323.881 120 325 121.119 325 122.5Z" fill="#6BC190"/>
<path d="M345 122.5C345 123.881 343.88 125 342.5 125C341.119 125 340 123.881 340 122.5C340 121.119 341.119 120 342.5 120C343.88 120 345 121.119 345 122.5Z" fill="#6BC190"/>
<path d="M365 122.5C365 123.881 363.88 125 362.5 125C361.119 125 360 123.881 360 122.5C360 121.119 361.119 120 362.5 120C363.88 120 365 121.119 365 122.5Z" fill="#6BC190"/>
<path d="M385 122.5C385 123.881 383.881 125 382.5 125C381.119 125 380 123.881 380 122.5C380 121.119 381.119 120 382.5 120C383.881 120 385 121.119 385 122.5Z" fill="#6BC190"/>
<path d="M405 122.5C405 123.881 403.881 125 402.5 125C401.119 125 400 123.881 400 122.5C400 121.119 401.119 120 402.5 120C403.881 120 405 121.119 405 122.5Z" fill="#6BC190"/>
<path d="M425 122.5C425 123.881 423.881 125 422.5 125C421.119 125 420 123.881 420 122.5C420 121.119 421.119 120 422.5 120C423.881 120 425 121.119 425 122.5Z" fill="#6BC190"/>
<path d="M445 122.5C445 123.881 443.881 125 442.5 125C441.119 125 440 123.881 440 122.5C440 121.119 441.119 120 442.5 120C443.881 120 445 121.119 445 122.5Z" fill="#6BC190"/>
<path d="M5 142.5C5 143.881 3.88071 145 2.5 145C1.11929 145 0 143.881 0 142.5C0 141.119 1.11929 140 2.5 140C3.88071 140 5 141.119 5 142.5Z" fill="#6BC190"/>
<path d="M25 142.5C25 143.881 23.8808 145 22.5 145C21.1193 145 20 143.881 20 142.5C20 141.119 21.1193 140 22.5 140C23.8808 140 25 141.119 25 142.5Z" fill="#6BC190"/>
<path d="M45.0001 142.5C45.0001 143.881 43.8808 145 42.5001 145C41.1194 145 40.0001 143.881 40.0001 142.5C40.0001 141.119 41.1194 140 42.5001 140C43.8808 140 45.0001 141.119 45.0001 142.5Z" fill="#6BC190"/>
<path d="M64.9999 142.5C64.9999 143.881 63.8806 145 62.4999 145C61.1192 145 59.9999 143.881 59.9999 142.5C59.9999 141.119 61.1192 140 62.4999 140C63.8806 140 64.9999 141.119 64.9999 142.5Z" fill="#6BC190"/>
<path d="M85 142.5C85 143.881 83.8807 145 82.5 145C81.1193 145 80 143.881 80 142.5C80 141.119 81.1193 140 82.5 140C83.8807 140 85 141.119 85 142.5Z" fill="#6BC190"/>
<path d="M105 142.5C105 143.881 103.881 145 102.5 145C101.119 145 99.9998 143.881 99.9998 142.5C99.9998 141.119 101.119 140 102.5 140C103.881 140 105 141.119 105 142.5Z" fill="#6BC190"/>
<path d="M125 142.5C125 143.881 123.881 145 122.5 145C121.119 145 120 143.881 120 142.5C120 141.119 121.119 140 122.5 140C123.881 140 125 141.119 125 142.5Z" fill="#6BC190"/>
<path d="M145 142.5C145 143.881 143.881 145 142.5 145C141.119 145 140 143.881 140 142.5C140 141.119 141.119 140 142.5 140C143.881 140 145 141.119 145 142.5Z" fill="#6BC190"/>
<path d="M165 142.5C165 143.881 163.881 145 162.5 145C161.119 145 160 143.881 160 142.5C160 141.119 161.119 140 162.5 140C163.881 140 165 141.119 165 142.5Z" fill="#6BC190"/>
<path d="M185 142.5C185 143.881 183.881 145 182.5 145C181.119 145 180 143.881 180 142.5C180 141.119 181.119 140 182.5 140C183.881 140 185 141.119 185 142.5Z" fill="#6BC190"/>
<path d="M205 142.5C205 143.881 203.881 145 202.5 145C201.119 145 200 143.881 200 142.5C200 141.119 201.119 140 202.5 140C203.881 140 205 141.119 205 142.5Z" fill="#6BC190"/>
<path d="M225 142.5C225 143.881 223.881 145 222.5 145C221.119 145 220 143.881 220 142.5C220 141.119 221.119 140 222.5 140C223.881 140 225 141.119 225 142.5Z" fill="#6BC190"/>
<path d="M245 142.5C245 143.881 243.881 145 242.5 145C241.119 145 240 143.881 240 142.5C240 141.119 241.119 140 242.5 140C243.881 140 245 141.119 245 142.5Z" fill="#6BC190"/>
<path d="M265 142.5C265 143.881 263.88 145 262.5 145C261.119 145 260 143.881 260 142.5C260 141.119 261.119 140 262.5 140C263.88 140 265 141.119 265 142.5Z" fill="#6BC190"/>
<path d="M285 142.5C285 143.881 283.88 145 282.5 145C281.119 145 280 143.881 280 142.5C280 141.119 281.119 140 282.5 140C283.88 140 285 141.119 285 142.5Z" fill="#6BC190"/>
<path d="M305 142.5C305 143.881 303.881 145 302.5 145C301.119 145 300 143.881 300 142.5C300 141.119 301.119 140 302.5 140C303.881 140 305 141.119 305 142.5Z" fill="#6BC190"/>
<path d="M325 142.5C325 143.881 323.881 145 322.5 145C321.119 145 320 143.881 320 142.5C320 141.119 321.119 140 322.5 140C323.881 140 325 141.119 325 142.5Z" fill="#6BC190"/>
<path d="M345 142.5C345 143.881 343.88 145 342.5 145C341.119 145 340 143.881 340 142.5C340 141.119 341.119 140 342.5 140C343.88 140 345 141.119 345 142.5Z" fill="#6BC190"/>
<path d="M365 142.5C365 143.881 363.88 145 362.5 145C361.119 145 360 143.881 360 142.5C360 141.119 361.119 140 362.5 140C363.88 140 365 141.119 365 142.5Z" fill="#6BC190"/>
<path d="M385 142.5C385 143.881 383.881 145 382.5 145C381.119 145 380 143.881 380 142.5C380 141.119 381.119 140 382.5 140C383.881 140 385 141.119 385 142.5Z" fill="#6BC190"/>
<path d="M405 142.5C405 143.881 403.881 145 402.5 145C401.119 145 400 143.881 400 142.5C400 141.119 401.119 140 402.5 140C403.881 140 405 141.119 405 142.5Z" fill="#6BC190"/>
<path d="M425 142.5C425 143.881 423.881 145 422.5 145C421.119 145 420 143.881 420 142.5C420 141.119 421.119 140 422.5 140C423.881 140 425 141.119 425 142.5Z" fill="#6BC190"/>
<path d="M445 142.5C445 143.881 443.881 145 442.5 145C441.119 145 440 143.881 440 142.5C440 141.119 441.119 140 442.5 140C443.881 140 445 141.119 445 142.5Z" fill="#6BC190"/>
<path d="M5 162.5C5 163.881 3.88071 165 2.5 165C1.11929 165 0 163.881 0 162.5C0 161.119 1.11929 160 2.5 160C3.88071 160 5 161.119 5 162.5Z" fill="#6BC190"/>
<path d="M25 162.5C25 163.881 23.8808 165 22.5 165C21.1193 165 20 163.881 20 162.5C20 161.119 21.1193 160 22.5 160C23.8808 160 25 161.119 25 162.5Z" fill="#6BC190"/>
<path d="M45.0001 162.5C45.0001 163.881 43.8808 165 42.5001 165C41.1194 165 40.0001 163.881 40.0001 162.5C40.0001 161.119 41.1194 160 42.5001 160C43.8808 160 45.0001 161.119 45.0001 162.5Z" fill="#6BC190"/>
<path d="M64.9999 162.5C64.9999 163.881 63.8806 165 62.4999 165C61.1192 165 59.9999 163.881 59.9999 162.5C59.9999 161.119 61.1192 160 62.4999 160C63.8806 160 64.9999 161.119 64.9999 162.5Z" fill="#6BC190"/>
<path d="M85 162.5C85 163.881 83.8807 165 82.5 165C81.1193 165 80 163.881 80 162.5C80 161.119 81.1193 160 82.5 160C83.8807 160 85 161.119 85 162.5Z" fill="#6BC190"/>
<path d="M105 162.5C105 163.881 103.881 165 102.5 165C101.119 165 99.9998 163.881 99.9998 162.5C99.9998 161.119 101.119 160 102.5 160C103.881 160 105 161.119 105 162.5Z" fill="#6BC190"/>
<path d="M125 162.5C125 163.881 123.881 165 122.5 165C121.119 165 120 163.881 120 162.5C120 161.119 121.119 160 122.5 160C123.881 160 125 161.119 125 162.5Z" fill="#6BC190"/>
<path d="M145 162.5C145 163.881 143.881 165 142.5 165C141.119 165 140 163.881 140 162.5C140 161.119 141.119 160 142.5 160C143.881 160 145 161.119 145 162.5Z" fill="#6BC190"/>
<path d="M165 162.5C165 163.881 163.881 165 162.5 165C161.119 165 160 163.881 160 162.5C160 161.119 161.119 160 162.5 160C163.881 160 165 161.119 165 162.5Z" fill="#6BC190"/>
<path d="M185 162.5C185 163.881 183.881 165 182.5 165C181.119 165 180 163.881 180 162.5C180 161.119 181.119 160 182.5 160C183.881 160 185 161.119 185 162.5Z" fill="#6BC190"/>
<path d="M205 162.5C205 163.881 203.881 165 202.5 165C201.119 165 200 163.881 200 162.5C200 161.119 201.119 160 202.5 160C203.881 160 205 161.119 205 162.5Z" fill="#6BC190"/>
<path d="M225 162.5C225 163.881 223.881 165 222.5 165C221.119 165 220 163.881 220 162.5C220 161.119 221.119 160 222.5 160C223.881 160 225 161.119 225 162.5Z" fill="#6BC190"/>
<path d="M245 162.5C245 163.881 243.881 165 242.5 165C241.119 165 240 163.881 240 162.5C240 161.119 241.119 160 242.5 160C243.881 160 245 161.119 245 162.5Z" fill="#6BC190"/>
<path d="M265 162.5C265 163.881 263.88 165 262.5 165C261.119 165 260 163.881 260 162.5C260 161.119 261.119 160 262.5 160C263.88 160 265 161.119 265 162.5Z" fill="#6BC190"/>
<path d="M285 162.5C285 163.881 283.88 165 282.5 165C281.119 165 280 163.881 280 162.5C280 161.119 281.119 160 282.5 160C283.88 160 285 161.119 285 162.5Z" fill="#6BC190"/>
<path d="M305 162.5C305 163.881 303.881 165 302.5 165C301.119 165 300 163.881 300 162.5C300 161.119 301.119 160 302.5 160C303.881 160 305 161.119 305 162.5Z" fill="#6BC190"/>
<path d="M325 162.5C325 163.881 323.881 165 322.5 165C321.119 165 320 163.881 320 162.5C320 161.119 321.119 160 322.5 160C323.881 160 325 161.119 325 162.5Z" fill="#6BC190"/>
<path d="M345 162.5C345 163.881 343.88 165 342.5 165C341.119 165 340 163.881 340 162.5C340 161.119 341.119 160 342.5 160C343.88 160 345 161.119 345 162.5Z" fill="#6BC190"/>
<path d="M365 162.5C365 163.881 363.88 165 362.5 165C361.119 165 360 163.881 360 162.5C360 161.119 361.119 160 362.5 160C363.88 160 365 161.119 365 162.5Z" fill="#6BC190"/>
<path d="M385 162.5C385 163.881 383.881 165 382.5 165C381.119 165 380 163.881 380 162.5C380 161.119 381.119 160 382.5 160C383.881 160 385 161.119 385 162.5Z" fill="#6BC190"/>
<path d="M405 162.5C405 163.881 403.881 165 402.5 165C401.119 165 400 163.881 400 162.5C400 161.119 401.119 160 402.5 160C403.881 160 405 161.119 405 162.5Z" fill="#6BC190"/>
<path d="M425 162.5C425 163.881 423.881 165 422.5 165C421.119 165 420 163.881 420 162.5C420 161.119 421.119 160 422.5 160C423.881 160 425 161.119 425 162.5Z" fill="#6BC190"/>
<path d="M445 162.5C445 163.881 443.881 165 442.5 165C441.119 165 440 163.881 440 162.5C440 161.119 441.119 160 442.5 160C443.881 160 445 161.119 445 162.5Z" fill="#6BC190"/>
<path d="M5 182.5C5 183.881 3.88071 185 2.5 185C1.11929 185 0 183.881 0 182.5C0 181.119 1.11929 180 2.5 180C3.88071 180 5 181.119 5 182.5Z" fill="#6BC190"/>
<path d="M25 182.5C25 183.881 23.8808 185 22.5 185C21.1193 185 20 183.881 20 182.5C20 181.119 21.1193 180 22.5 180C23.8808 180 25 181.119 25 182.5Z" fill="#6BC190"/>
<path d="M45.0001 182.5C45.0001 183.881 43.8808 185 42.5001 185C41.1194 185 40.0001 183.881 40.0001 182.5C40.0001 181.119 41.1194 180 42.5001 180C43.8808 180 45.0001 181.119 45.0001 182.5Z" fill="#6BC190"/>
<path d="M64.9999 182.5C64.9999 183.881 63.8806 185 62.4999 185C61.1192 185 59.9999 183.881 59.9999 182.5C59.9999 181.119 61.1192 180 62.4999 180C63.8806 180 64.9999 181.119 64.9999 182.5Z" fill="#6BC190"/>
<path d="M85 182.5C85 183.881 83.8807 185 82.5 185C81.1193 185 80 183.881 80 182.5C80 181.119 81.1193 180 82.5 180C83.8807 180 85 181.119 85 182.5Z" fill="#6BC190"/>
<path d="M105 182.5C105 183.881 103.881 185 102.5 185C101.119 185 99.9998 183.881 99.9998 182.5C99.9998 181.119 101.119 180 102.5 180C103.881 180 105 181.119 105 182.5Z" fill="#6BC190"/>
<path d="M125 182.5C125 183.881 123.881 185 122.5 185C121.119 185 120 183.881 120 182.5C120 181.119 121.119 180 122.5 180C123.881 180 125 181.119 125 182.5Z" fill="#6BC190"/>
<path d="M145 182.5C145 183.881 143.881 185 142.5 185C141.119 185 140 183.881 140 182.5C140 181.119 141.119 180 142.5 180C143.881 180 145 181.119 145 182.5Z" fill="#6BC190"/>
<path d="M165 182.5C165 183.881 163.881 185 162.5 185C161.119 185 160 183.881 160 182.5C160 181.119 161.119 180 162.5 180C163.881 180 165 181.119 165 182.5Z" fill="#6BC190"/>
<path d="M185 182.5C185 183.881 183.881 185 182.5 185C181.119 185 180 183.881 180 182.5C180 181.119 181.119 180 182.5 180C183.881 180 185 181.119 185 182.5Z" fill="#6BC190"/>
<path d="M205 182.5C205 183.881 203.881 185 202.5 185C201.119 185 200 183.881 200 182.5C200 181.119 201.119 180 202.5 180C203.881 180 205 181.119 205 182.5Z" fill="#6BC190"/>
<path d="M225 182.5C225 183.881 223.881 185 222.5 185C221.119 185 220 183.881 220 182.5C220 181.119 221.119 180 222.5 180C223.881 180 225 181.119 225 182.5Z" fill="#6BC190"/>
<path d="M245 182.5C245 183.881 243.881 185 242.5 185C241.119 185 240 183.881 240 182.5C240 181.119 241.119 180 242.5 180C243.881 180 245 181.119 245 182.5Z" fill="#6BC190"/>
<path d="M265 182.5C265 183.881 263.88 185 262.5 185C261.119 185 260 183.881 260 182.5C260 181.119 261.119 180 262.5 180C263.88 180 265 181.119 265 182.5Z" fill="#6BC190"/>
<path d="M285 182.5C285 183.881 283.88 185 282.5 185C281.119 185 280 183.881 280 182.5C280 181.119 281.119 180 282.5 180C283.88 180 285 181.119 285 182.5Z" fill="#6BC190"/>
<path d="M305 182.5C305 183.881 303.881 185 302.5 185C301.119 185 300 183.881 300 182.5C300 181.119 301.119 180 302.5 180C303.881 180 305 181.119 305 182.5Z" fill="#6BC190"/>
<path d="M325 182.5C325 183.881 323.881 185 322.5 185C321.119 185 320 183.881 320 182.5C320 181.119 321.119 180 322.5 180C323.881 180 325 181.119 325 182.5Z" fill="#6BC190"/>
<path d="M345 182.5C345 183.881 343.88 185 342.5 185C341.119 185 340 183.881 340 182.5C340 181.119 341.119 180 342.5 180C343.88 180 345 181.119 345 182.5Z" fill="#6BC190"/>
<path d="M365 182.5C365 183.881 363.88 185 362.5 185C361.119 185 360 183.881 360 182.5C360 181.119 361.119 180 362.5 180C363.88 180 365 181.119 365 182.5Z" fill="#6BC190"/>
<path d="M385 182.5C385 183.881 383.881 185 382.5 185C381.119 185 380 183.881 380 182.5C380 181.119 381.119 180 382.5 180C383.881 180 385 181.119 385 182.5Z" fill="#6BC190"/>
<path d="M405 182.5C405 183.881 403.881 185 402.5 185C401.119 185 400 183.881 400 182.5C400 181.119 401.119 180 402.5 180C403.881 180 405 181.119 405 182.5Z" fill="#6BC190"/>
<path d="M425 182.5C425 183.881 423.881 185 422.5 185C421.119 185 420 183.881 420 182.5C420 181.119 421.119 180 422.5 180C423.881 180 425 181.119 425 182.5Z" fill="#6BC190"/>
<path d="M445 182.5C445 183.881 443.881 185 442.5 185C441.119 185 440 183.881 440 182.5C440 181.119 441.119 180 442.5 180C443.881 180 445 181.119 445 182.5Z" fill="#6BC190"/>
<path d="M5 202.5C5 203.881 3.88071 205 2.5 205C1.11929 205 0 203.881 0 202.5C0 201.119 1.11929 200 2.5 200C3.88071 200 5 201.119 5 202.5Z" fill="#6BC190"/>
<path d="M25 202.5C25 203.881 23.8808 205 22.5 205C21.1193 205 20 203.881 20 202.5C20 201.119 21.1193 200 22.5 200C23.8808 200 25 201.119 25 202.5Z" fill="#6BC190"/>
<path d="M45.0001 202.5C45.0001 203.881 43.8808 205 42.5001 205C41.1194 205 40.0001 203.881 40.0001 202.5C40.0001 201.119 41.1194 200 42.5001 200C43.8808 200 45.0001 201.119 45.0001 202.5Z" fill="#6BC190"/>
<path d="M64.9999 202.5C64.9999 203.881 63.8806 205 62.4999 205C61.1192 205 59.9999 203.881 59.9999 202.5C59.9999 201.119 61.1192 200 62.4999 200C63.8806 200 64.9999 201.119 64.9999 202.5Z" fill="#6BC190"/>
<path d="M85 202.5C85 203.881 83.8807 205 82.5 205C81.1193 205 80 203.881 80 202.5C80 201.119 81.1193 200 82.5 200C83.8807 200 85 201.119 85 202.5Z" fill="#6BC190"/>
<path d="M105 202.5C105 203.881 103.881 205 102.5 205C101.119 205 99.9998 203.881 99.9998 202.5C99.9998 201.119 101.119 200 102.5 200C103.881 200 105 201.119 105 202.5Z" fill="#6BC190"/>
<path d="M125 202.5C125 203.881 123.881 205 122.5 205C121.119 205 120 203.881 120 202.5C120 201.119 121.119 200 122.5 200C123.881 200 125 201.119 125 202.5Z" fill="#6BC190"/>
<path d="M145 202.5C145 203.881 143.881 205 142.5 205C141.119 205 140 203.881 140 202.5C140 201.119 141.119 200 142.5 200C143.881 200 145 201.119 145 202.5Z" fill="#6BC190"/>
<path d="M165 202.5C165 203.881 163.881 205 162.5 205C161.119 205 160 203.881 160 202.5C160 201.119 161.119 200 162.5 200C163.881 200 165 201.119 165 202.5Z" fill="#6BC190"/>
<path d="M185 202.5C185 203.881 183.881 205 182.5 205C181.119 205 180 203.881 180 202.5C180 201.119 181.119 200 182.5 200C183.881 200 185 201.119 185 202.5Z" fill="#6BC190"/>
<path d="M205 202.5C205 203.881 203.881 205 202.5 205C201.119 205 200 203.881 200 202.5C200 201.119 201.119 200 202.5 200C203.881 200 205 201.119 205 202.5Z" fill="#6BC190"/>
<path d="M225 202.5C225 203.881 223.881 205 222.5 205C221.119 205 220 203.881 220 202.5C220 201.119 221.119 200 222.5 200C223.881 200 225 201.119 225 202.5Z" fill="#6BC190"/>
<path d="M245 202.5C245 203.881 243.881 205 242.5 205C241.119 205 240 203.881 240 202.5C240 201.119 241.119 200 242.5 200C243.881 200 245 201.119 245 202.5Z" fill="#6BC190"/>
<path d="M265 202.5C265 203.881 263.88 205 262.5 205C261.119 205 260 203.881 260 202.5C260 201.119 261.119 200 262.5 200C263.88 200 265 201.119 265 202.5Z" fill="#6BC190"/>
<path d="M285 202.5C285 203.881 283.88 205 282.5 205C281.119 205 280 203.881 280 202.5C280 201.119 281.119 200 282.5 200C283.88 200 285 201.119 285 202.5Z" fill="#6BC190"/>
<path d="M305 202.5C305 203.881 303.881 205 302.5 205C301.119 205 300 203.881 300 202.5C300 201.119 301.119 200 302.5 200C303.881 200 305 201.119 305 202.5Z" fill="#6BC190"/>
<path d="M325 202.5C325 203.881 323.881 205 322.5 205C321.119 205 320 203.881 320 202.5C320 201.119 321.119 200 322.5 200C323.881 200 325 201.119 325 202.5Z" fill="#6BC190"/>
<path d="M345 202.5C345 203.881 343.88 205 342.5 205C341.119 205 340 203.881 340 202.5C340 201.119 341.119 200 342.5 200C343.88 200 345 201.119 345 202.5Z" fill="#6BC190"/>
<path d="M365 202.5C365 203.881 363.88 205 362.5 205C361.119 205 360 203.881 360 202.5C360 201.119 361.119 200 362.5 200C363.88 200 365 201.119 365 202.5Z" fill="#6BC190"/>
<path d="M385 202.5C385 203.881 383.881 205 382.5 205C381.119 205 380 203.881 380 202.5C380 201.119 381.119 200 382.5 200C383.881 200 385 201.119 385 202.5Z" fill="#6BC190"/>
<path d="M405 202.5C405 203.881 403.881 205 402.5 205C401.119 205 400 203.881 400 202.5C400 201.119 401.119 200 402.5 200C403.881 200 405 201.119 405 202.5Z" fill="#6BC190"/>
<path d="M425 202.5C425 203.881 423.881 205 422.5 205C421.119 205 420 203.881 420 202.5C420 201.119 421.119 200 422.5 200C423.881 200 425 201.119 425 202.5Z" fill="#6BC190"/>
<path d="M445 202.5C445 203.881 443.881 205 442.5 205C441.119 205 440 203.881 440 202.5C440 201.119 441.119 200 442.5 200C443.881 200 445 201.119 445 202.5Z" fill="#6BC190"/>
<path d="M5 222.5C5 223.881 3.88071 225 2.5 225C1.11929 225 0 223.881 0 222.5C0 221.119 1.11929 220 2.5 220C3.88071 220 5 221.119 5 222.5Z" fill="#6BC190"/>
<path d="M25 222.5C25 223.881 23.8808 225 22.5 225C21.1193 225 20 223.881 20 222.5C20 221.119 21.1193 220 22.5 220C23.8808 220 25 221.119 25 222.5Z" fill="#6BC190"/>
<path d="M45.0001 222.5C45.0001 223.881 43.8808 225 42.5001 225C41.1194 225 40.0001 223.881 40.0001 222.5C40.0001 221.119 41.1194 220 42.5001 220C43.8808 220 45.0001 221.119 45.0001 222.5Z" fill="#6BC190"/>
<path d="M64.9999 222.5C64.9999 223.881 63.8806 225 62.4999 225C61.1192 225 59.9999 223.881 59.9999 222.5C59.9999 221.119 61.1192 220 62.4999 220C63.8806 220 64.9999 221.119 64.9999 222.5Z" fill="#6BC190"/>
<path d="M85 222.5C85 223.881 83.8807 225 82.5 225C81.1193 225 80 223.881 80 222.5C80 221.119 81.1193 220 82.5 220C83.8807 220 85 221.119 85 222.5Z" fill="#6BC190"/>
<path d="M105 222.5C105 223.881 103.881 225 102.5 225C101.119 225 99.9998 223.881 99.9998 222.5C99.9998 221.119 101.119 220 102.5 220C103.881 220 105 221.119 105 222.5Z" fill="#6BC190"/>
<path d="M125 222.5C125 223.881 123.881 225 122.5 225C121.119 225 120 223.881 120 222.5C120 221.119 121.119 220 122.5 220C123.881 220 125 221.119 125 222.5Z" fill="#6BC190"/>
<path d="M145 222.5C145 223.881 143.881 225 142.5 225C141.119 225 140 223.881 140 222.5C140 221.119 141.119 220 142.5 220C143.881 220 145 221.119 145 222.5Z" fill="#6BC190"/>
<path d="M165 222.5C165 223.881 163.881 225 162.5 225C161.119 225 160 223.881 160 222.5C160 221.119 161.119 220 162.5 220C163.881 220 165 221.119 165 222.5Z" fill="#6BC190"/>
<path d="M185 222.5C185 223.881 183.881 225 182.5 225C181.119 225 180 223.881 180 222.5C180 221.119 181.119 220 182.5 220C183.881 220 185 221.119 185 222.5Z" fill="#6BC190"/>
<path d="M205 222.5C205 223.881 203.881 225 202.5 225C201.119 225 200 223.881 200 222.5C200 221.119 201.119 220 202.5 220C203.881 220 205 221.119 205 222.5Z" fill="#6BC190"/>
<path d="M225 222.5C225 223.881 223.881 225 222.5 225C221.119 225 220 223.881 220 222.5C220 221.119 221.119 220 222.5 220C223.881 220 225 221.119 225 222.5Z" fill="#6BC190"/>
<path d="M245 222.5C245 223.881 243.881 225 242.5 225C241.119 225 240 223.881 240 222.5C240 221.119 241.119 220 242.5 220C243.881 220 245 221.119 245 222.5Z" fill="#6BC190"/>
<path d="M265 222.5C265 223.881 263.88 225 262.5 225C261.119 225 260 223.881 260 222.5C260 221.119 261.119 220 262.5 220C263.88 220 265 221.119 265 222.5Z" fill="#6BC190"/>
<path d="M285 222.5C285 223.881 283.88 225 282.5 225C281.119 225 280 223.881 280 222.5C280 221.119 281.119 220 282.5 220C283.88 220 285 221.119 285 222.5Z" fill="#6BC190"/>
<path d="M305 222.5C305 223.881 303.881 225 302.5 225C301.119 225 300 223.881 300 222.5C300 221.119 301.119 220 302.5 220C303.881 220 305 221.119 305 222.5Z" fill="#6BC190"/>
<path d="M325 222.5C325 223.881 323.881 225 322.5 225C321.119 225 320 223.881 320 222.5C320 221.119 321.119 220 322.5 220C323.881 220 325 221.119 325 222.5Z" fill="#6BC190"/>
<path d="M345 222.5C345 223.881 343.88 225 342.5 225C341.119 225 340 223.881 340 222.5C340 221.119 341.119 220 342.5 220C343.88 220 345 221.119 345 222.5Z" fill="#6BC190"/>
<path d="M365 222.5C365 223.881 363.88 225 362.5 225C361.119 225 360 223.881 360 222.5C360 221.119 361.119 220 362.5 220C363.88 220 365 221.119 365 222.5Z" fill="#6BC190"/>
<path d="M385 222.5C385 223.881 383.881 225 382.5 225C381.119 225 380 223.881 380 222.5C380 221.119 381.119 220 382.5 220C383.881 220 385 221.119 385 222.5Z" fill="#6BC190"/>
<path d="M405 222.5C405 223.881 403.881 225 402.5 225C401.119 225 400 223.881 400 222.5C400 221.119 401.119 220 402.5 220C403.881 220 405 221.119 405 222.5Z" fill="#6BC190"/>
<path d="M425 222.5C425 223.881 423.881 225 422.5 225C421.119 225 420 223.881 420 222.5C420 221.119 421.119 220 422.5 220C423.881 220 425 221.119 425 222.5Z" fill="#6BC190"/>
<path d="M445 222.5C445 223.881 443.881 225 442.5 225C441.119 225 440 223.881 440 222.5C440 221.119 441.119 220 442.5 220C443.881 220 445 221.119 445 222.5Z" fill="#6BC190"/>
<path d="M5 242.5C5 243.881 3.88071 245 2.5 245C1.11929 245 0 243.881 0 242.5C0 241.119 1.11929 240 2.5 240C3.88071 240 5 241.119 5 242.5Z" fill="#6BC190"/>
<path d="M25 242.5C25 243.881 23.8808 245 22.5 245C21.1193 245 20 243.881 20 242.5C20 241.119 21.1193 240 22.5 240C23.8808 240 25 241.119 25 242.5Z" fill="#6BC190"/>
<path d="M45.0001 242.5C45.0001 243.881 43.8808 245 42.5001 245C41.1194 245 40.0001 243.881 40.0001 242.5C40.0001 241.119 41.1194 240 42.5001 240C43.8808 240 45.0001 241.119 45.0001 242.5Z" fill="#6BC190"/>
<path d="M64.9999 242.5C64.9999 243.881 63.8806 245 62.4999 245C61.1192 245 59.9999 243.881 59.9999 242.5C59.9999 241.119 61.1192 240 62.4999 240C63.8806 240 64.9999 241.119 64.9999 242.5Z" fill="#6BC190"/>
<path d="M85 242.5C85 243.881 83.8807 245 82.5 245C81.1193 245 80 243.881 80 242.5C80 241.119 81.1193 240 82.5 240C83.8807 240 85 241.119 85 242.5Z" fill="#6BC190"/>
<path d="M105 242.5C105 243.881 103.881 245 102.5 245C101.119 245 99.9998 243.881 99.9998 242.5C99.9998 241.119 101.119 240 102.5 240C103.881 240 105 241.119 105 242.5Z" fill="#6BC190"/>
<path d="M125 242.5C125 243.881 123.881 245 122.5 245C121.119 245 120 243.881 120 242.5C120 241.119 121.119 240 122.5 240C123.881 240 125 241.119 125 242.5Z" fill="#6BC190"/>
<path d="M145 242.5C145 243.881 143.881 245 142.5 245C141.119 245 140 243.881 140 242.5C140 241.119 141.119 240 142.5 240C143.881 240 145 241.119 145 242.5Z" fill="#6BC190"/>
<path d="M165 242.5C165 243.881 163.881 245 162.5 245C161.119 245 160 243.881 160 242.5C160 241.119 161.119 240 162.5 240C163.881 240 165 241.119 165 242.5Z" fill="#6BC190"/>
<path d="M185 242.5C185 243.881 183.881 245 182.5 245C181.119 245 180 243.881 180 242.5C180 241.119 181.119 240 182.5 240C183.881 240 185 241.119 185 242.5Z" fill="#6BC190"/>
<path d="M205 242.5C205 243.881 203.881 245 202.5 245C201.119 245 200 243.881 200 242.5C200 241.119 201.119 240 202.5 240C203.881 240 205 241.119 205 242.5Z" fill="#6BC190"/>
<path d="M225 242.5C225 243.881 223.881 245 222.5 245C221.119 245 220 243.881 220 242.5C220 241.119 221.119 240 222.5 240C223.881 240 225 241.119 225 242.5Z" fill="#6BC190"/>
<path d="M245 242.5C245 243.881 243.881 245 242.5 245C241.119 245 240 243.881 240 242.5C240 241.119 241.119 240 242.5 240C243.881 240 245 241.119 245 242.5Z" fill="#6BC190"/>
<path d="M265 242.5C265 243.881 263.88 245 262.5 245C261.119 245 260 243.881 260 242.5C260 241.119 261.119 240 262.5 240C263.88 240 265 241.119 265 242.5Z" fill="#6BC190"/>
<path d="M285 242.5C285 243.881 283.88 245 282.5 245C281.119 245 280 243.881 280 242.5C280 241.119 281.119 240 282.5 240C283.88 240 285 241.119 285 242.5Z" fill="#6BC190"/>
<path d="M305 242.5C305 243.881 303.881 245 302.5 245C301.119 245 300 243.881 300 242.5C300 241.119 301.119 240 302.5 240C303.881 240 305 241.119 305 242.5Z" fill="#6BC190"/>
<path d="M325 242.5C325 243.881 323.881 245 322.5 245C321.119 245 320 243.881 320 242.5C320 241.119 321.119 240 322.5 240C323.881 240 325 241.119 325 242.5Z" fill="#6BC190"/>
<path d="M345 242.5C345 243.881 343.88 245 342.5 245C341.119 245 340 243.881 340 242.5C340 241.119 341.119 240 342.5 240C343.88 240 345 241.119 345 242.5Z" fill="#6BC190"/>
<path d="M365 242.5C365 243.881 363.88 245 362.5 245C361.119 245 360 243.881 360 242.5C360 241.119 361.119 240 362.5 240C363.88 240 365 241.119 365 242.5Z" fill="#6BC190"/>
<path d="M385 242.5C385 243.881 383.881 245 382.5 245C381.119 245 380 243.881 380 242.5C380 241.119 381.119 240 382.5 240C383.881 240 385 241.119 385 242.5Z" fill="#6BC190"/>
<path d="M405 242.5C405 243.881 403.881 245 402.5 245C401.119 245 400 243.881 400 242.5C400 241.119 401.119 240 402.5 240C403.881 240 405 241.119 405 242.5Z" fill="#6BC190"/>
<path d="M425 242.5C425 243.881 423.881 245 422.5 245C421.119 245 420 243.881 420 242.5C420 241.119 421.119 240 422.5 240C423.881 240 425 241.119 425 242.5Z" fill="#6BC190"/>
<path d="M445 242.5C445 243.881 443.881 245 442.5 245C441.119 245 440 243.881 440 242.5C440 241.119 441.119 240 442.5 240C443.881 240 445 241.119 445 242.5Z" fill="#6BC190"/>
<path d="M5 262.5C5 263.881 3.88071 265 2.5 265C1.11929 265 0 263.881 0 262.5C0 261.119 1.11929 260 2.5 260C3.88071 260 5 261.119 5 262.5Z" fill="#6BC190"/>
<path d="M25 262.5C25 263.881 23.8808 265 22.5 265C21.1193 265 20 263.881 20 262.5C20 261.119 21.1193 260 22.5 260C23.8808 260 25 261.119 25 262.5Z" fill="#6BC190"/>
<path d="M45.0001 262.5C45.0001 263.881 43.8808 265 42.5001 265C41.1194 265 40.0001 263.881 40.0001 262.5C40.0001 261.119 41.1194 260 42.5001 260C43.8808 260 45.0001 261.119 45.0001 262.5Z" fill="#6BC190"/>
<path d="M64.9999 262.5C64.9999 263.881 63.8806 265 62.4999 265C61.1192 265 59.9999 263.881 59.9999 262.5C59.9999 261.119 61.1192 260 62.4999 260C63.8806 260 64.9999 261.119 64.9999 262.5Z" fill="#6BC190"/>
<path d="M85 262.5C85 263.881 83.8807 265 82.5 265C81.1193 265 80 263.881 80 262.5C80 261.119 81.1193 260 82.5 260C83.8807 260 85 261.119 85 262.5Z" fill="#6BC190"/>
<path d="M105 262.5C105 263.881 103.881 265 102.5 265C101.119 265 99.9998 263.881 99.9998 262.5C99.9998 261.119 101.119 260 102.5 260C103.881 260 105 261.119 105 262.5Z" fill="#6BC190"/>
<path d="M125 262.5C125 263.881 123.881 265 122.5 265C121.119 265 120 263.881 120 262.5C120 261.119 121.119 260 122.5 260C123.881 260 125 261.119 125 262.5Z" fill="#6BC190"/>
<path d="M145 262.5C145 263.881 143.881 265 142.5 265C141.119 265 140 263.881 140 262.5C140 261.119 141.119 260 142.5 260C143.881 260 145 261.119 145 262.5Z" fill="#6BC190"/>
<path d="M165 262.5C165 263.881 163.881 265 162.5 265C161.119 265 160 263.881 160 262.5C160 261.119 161.119 260 162.5 260C163.881 260 165 261.119 165 262.5Z" fill="#6BC190"/>
<path d="M185 262.5C185 263.881 183.881 265 182.5 265C181.119 265 180 263.881 180 262.5C180 261.119 181.119 260 182.5 260C183.881 260 185 261.119 185 262.5Z" fill="#6BC190"/>
<path d="M205 262.5C205 263.881 203.881 265 202.5 265C201.119 265 200 263.881 200 262.5C200 261.119 201.119 260 202.5 260C203.881 260 205 261.119 205 262.5Z" fill="#6BC190"/>
<path d="M225 262.5C225 263.881 223.881 265 222.5 265C221.119 265 220 263.881 220 262.5C220 261.119 221.119 260 222.5 260C223.881 260 225 261.119 225 262.5Z" fill="#6BC190"/>
<path d="M245 262.5C245 263.881 243.881 265 242.5 265C241.119 265 240 263.881 240 262.5C240 261.119 241.119 260 242.5 260C243.881 260 245 261.119 245 262.5Z" fill="#6BC190"/>
<path d="M265 262.5C265 263.881 263.88 265 262.5 265C261.119 265 260 263.881 260 262.5C260 261.119 261.119 260 262.5 260C263.88 260 265 261.119 265 262.5Z" fill="#6BC190"/>
<path d="M285 262.5C285 263.881 283.88 265 282.5 265C281.119 265 280 263.881 280 262.5C280 261.119 281.119 260 282.5 260C283.88 260 285 261.119 285 262.5Z" fill="#6BC190"/>
<path d="M305 262.5C305 263.881 303.881 265 302.5 265C301.119 265 300 263.881 300 262.5C300 261.119 301.119 260 302.5 260C303.881 260 305 261.119 305 262.5Z" fill="#6BC190"/>
<path d="M325 262.5C325 263.881 323.881 265 322.5 265C321.119 265 320 263.881 320 262.5C320 261.119 321.119 260 322.5 260C323.881 260 325 261.119 325 262.5Z" fill="#6BC190"/>
<path d="M345 262.5C345 263.881 343.88 265 342.5 265C341.119 265 340 263.881 340 262.5C340 261.119 341.119 260 342.5 260C343.88 260 345 261.119 345 262.5Z" fill="#6BC190"/>
<path d="M365 262.5C365 263.881 363.88 265 362.5 265C361.119 265 360 263.881 360 262.5C360 261.119 361.119 260 362.5 260C363.88 260 365 261.119 365 262.5Z" fill="#6BC190"/>
<path d="M385 262.5C385 263.881 383.881 265 382.5 265C381.119 265 380 263.881 380 262.5C380 261.119 381.119 260 382.5 260C383.881 260 385 261.119 385 262.5Z" fill="#6BC190"/>
<path d="M405 262.5C405 263.881 403.881 265 402.5 265C401.119 265 400 263.881 400 262.5C400 261.119 401.119 260 402.5 260C403.881 260 405 261.119 405 262.5Z" fill="#6BC190"/>
<path d="M425 262.5C425 263.881 423.881 265 422.5 265C421.119 265 420 263.881 420 262.5C420 261.119 421.119 260 422.5 260C423.881 260 425 261.119 425 262.5Z" fill="#6BC190"/>
<path d="M445 262.5C445 263.881 443.881 265 442.5 265C441.119 265 440 263.881 440 262.5C440 261.119 441.119 260 442.5 260C443.881 260 445 261.119 445 262.5Z" fill="#6BC190"/>
<path d="M5 282.5C5 283.881 3.88071 285 2.5 285C1.11929 285 0 283.881 0 282.5C0 281.119 1.11929 280 2.5 280C3.88071 280 5 281.119 5 282.5Z" fill="#6BC190"/>
<path d="M25 282.5C25 283.881 23.8808 285 22.5 285C21.1193 285 20 283.881 20 282.5C20 281.119 21.1193 280 22.5 280C23.8808 280 25 281.119 25 282.5Z" fill="#6BC190"/>
<path d="M45.0001 282.5C45.0001 283.881 43.8808 285 42.5001 285C41.1194 285 40.0001 283.881 40.0001 282.5C40.0001 281.119 41.1194 280 42.5001 280C43.8808 280 45.0001 281.119 45.0001 282.5Z" fill="#6BC190"/>
<path d="M64.9999 282.5C64.9999 283.881 63.8806 285 62.4999 285C61.1192 285 59.9999 283.881 59.9999 282.5C59.9999 281.119 61.1192 280 62.4999 280C63.8806 280 64.9999 281.119 64.9999 282.5Z" fill="#6BC190"/>
<path d="M85 282.5C85 283.881 83.8807 285 82.5 285C81.1193 285 80 283.881 80 282.5C80 281.119 81.1193 280 82.5 280C83.8807 280 85 281.119 85 282.5Z" fill="#6BC190"/>
<path d="M105 282.5C105 283.881 103.881 285 102.5 285C101.119 285 99.9998 283.881 99.9998 282.5C99.9998 281.119 101.119 280 102.5 280C103.881 280 105 281.119 105 282.5Z" fill="#6BC190"/>
<path d="M125 282.5C125 283.881 123.881 285 122.5 285C121.119 285 120 283.881 120 282.5C120 281.119 121.119 280 122.5 280C123.881 280 125 281.119 125 282.5Z" fill="#6BC190"/>
<path d="M145 282.5C145 283.881 143.881 285 142.5 285C141.119 285 140 283.881 140 282.5C140 281.119 141.119 280 142.5 280C143.881 280 145 281.119 145 282.5Z" fill="#6BC190"/>
<path d="M165 282.5C165 283.881 163.881 285 162.5 285C161.119 285 160 283.881 160 282.5C160 281.119 161.119 280 162.5 280C163.881 280 165 281.119 165 282.5Z" fill="#6BC190"/>
<path d="M185 282.5C185 283.881 183.881 285 182.5 285C181.119 285 180 283.881 180 282.5C180 281.119 181.119 280 182.5 280C183.881 280 185 281.119 185 282.5Z" fill="#6BC190"/>
<path d="M205 282.5C205 283.881 203.881 285 202.5 285C201.119 285 200 283.881 200 282.5C200 281.119 201.119 280 202.5 280C203.881 280 205 281.119 205 282.5Z" fill="#6BC190"/>
<path d="M225 282.5C225 283.881 223.881 285 222.5 285C221.119 285 220 283.881 220 282.5C220 281.119 221.119 280 222.5 280C223.881 280 225 281.119 225 282.5Z" fill="#6BC190"/>
<path d="M245 282.5C245 283.881 243.881 285 242.5 285C241.119 285 240 283.881 240 282.5C240 281.119 241.119 280 242.5 280C243.881 280 245 281.119 245 282.5Z" fill="#6BC190"/>
<path d="M265 282.5C265 283.881 263.88 285 262.5 285C261.119 285 260 283.881 260 282.5C260 281.119 261.119 280 262.5 280C263.88 280 265 281.119 265 282.5Z" fill="#6BC190"/>
<path d="M285 282.5C285 283.881 283.88 285 282.5 285C281.119 285 280 283.881 280 282.5C280 281.119 281.119 280 282.5 280C283.88 280 285 281.119 285 282.5Z" fill="#6BC190"/>
<path d="M305 282.5C305 283.881 303.881 285 302.5 285C301.119 285 300 283.881 300 282.5C300 281.119 301.119 280 302.5 280C303.881 280 305 281.119 305 282.5Z" fill="#6BC190"/>
<path d="M325 282.5C325 283.881 323.881 285 322.5 285C321.119 285 320 283.881 320 282.5C320 281.119 321.119 280 322.5 280C323.881 280 325 281.119 325 282.5Z" fill="#6BC190"/>
<path d="M345 282.5C345 283.881 343.88 285 342.5 285C341.119 285 340 283.881 340 282.5C340 281.119 341.119 280 342.5 280C343.88 280 345 281.119 345 282.5Z" fill="#6BC190"/>
<path d="M365 282.5C365 283.881 363.88 285 362.5 285C361.119 285 360 283.881 360 282.5C360 281.119 361.119 280 362.5 280C363.88 280 365 281.119 365 282.5Z" fill="#6BC190"/>
<path d="M385 282.5C385 283.881 383.881 285 382.5 285C381.119 285 380 283.881 380 282.5C380 281.119 381.119 280 382.5 280C383.881 280 385 281.119 385 282.5Z" fill="#6BC190"/>
<path d="M405 282.5C405 283.881 403.881 285 402.5 285C401.119 285 400 283.881 400 282.5C400 281.119 401.119 280 402.5 280C403.881 280 405 281.119 405 282.5Z" fill="#6BC190"/>
<path d="M425 282.5C425 283.881 423.881 285 422.5 285C421.119 285 420 283.881 420 282.5C420 281.119 421.119 280 422.5 280C423.881 280 425 281.119 425 282.5Z" fill="#6BC190"/>
<path d="M445 282.5C445 283.881 443.881 285 442.5 285C441.119 285 440 283.881 440 282.5C440 281.119 441.119 280 442.5 280C443.881 280 445 281.119 445 282.5Z" fill="#6BC190"/>
<path d="M5 302.5C5 303.881 3.88071 305 2.5 305C1.11929 305 0 303.881 0 302.5C0 301.119 1.11929 300 2.5 300C3.88071 300 5 301.119 5 302.5Z" fill="#6BC190"/>
<path d="M25 302.5C25 303.881 23.8808 305 22.5 305C21.1193 305 20 303.881 20 302.5C20 301.119 21.1193 300 22.5 300C23.8808 300 25 301.119 25 302.5Z" fill="#6BC190"/>
<path d="M45.0001 302.5C45.0001 303.881 43.8808 305 42.5001 305C41.1194 305 40.0001 303.881 40.0001 302.5C40.0001 301.119 41.1194 300 42.5001 300C43.8808 300 45.0001 301.119 45.0001 302.5Z" fill="#6BC190"/>
<path d="M64.9999 302.5C64.9999 303.881 63.8806 305 62.4999 305C61.1192 305 59.9999 303.881 59.9999 302.5C59.9999 301.119 61.1192 300 62.4999 300C63.8806 300 64.9999 301.119 64.9999 302.5Z" fill="#6BC190"/>
<path d="M85 302.5C85 303.881 83.8807 305 82.5 305C81.1193 305 80 303.881 80 302.5C80 301.119 81.1193 300 82.5 300C83.8807 300 85 301.119 85 302.5Z" fill="#6BC190"/>
<path d="M105 302.5C105 303.881 103.881 305 102.5 305C101.119 305 99.9998 303.881 99.9998 302.5C99.9998 301.119 101.119 300 102.5 300C103.881 300 105 301.119 105 302.5Z" fill="#6BC190"/>
<path d="M125 302.5C125 303.881 123.881 305 122.5 305C121.119 305 120 303.881 120 302.5C120 301.119 121.119 300 122.5 300C123.881 300 125 301.119 125 302.5Z" fill="#6BC190"/>
<path d="M145 302.5C145 303.881 143.881 305 142.5 305C141.119 305 140 303.881 140 302.5C140 301.119 141.119 300 142.5 300C143.881 300 145 301.119 145 302.5Z" fill="#6BC190"/>
<path d="M165 302.5C165 303.881 163.881 305 162.5 305C161.119 305 160 303.881 160 302.5C160 301.119 161.119 300 162.5 300C163.881 300 165 301.119 165 302.5Z" fill="#6BC190"/>
<path d="M185 302.5C185 303.881 183.881 305 182.5 305C181.119 305 180 303.881 180 302.5C180 301.119 181.119 300 182.5 300C183.881 300 185 301.119 185 302.5Z" fill="#6BC190"/>
<path d="M205 302.5C205 303.881 203.881 305 202.5 305C201.119 305 200 303.881 200 302.5C200 301.119 201.119 300 202.5 300C203.881 300 205 301.119 205 302.5Z" fill="#6BC190"/>
<path d="M225 302.5C225 303.881 223.881 305 222.5 305C221.119 305 220 303.881 220 302.5C220 301.119 221.119 300 222.5 300C223.881 300 225 301.119 225 302.5Z" fill="#6BC190"/>
<path d="M245 302.5C245 303.881 243.881 305 242.5 305C241.119 305 240 303.881 240 302.5C240 301.119 241.119 300 242.5 300C243.881 300 245 301.119 245 302.5Z" fill="#6BC190"/>
<path d="M265 302.5C265 303.881 263.88 305 262.5 305C261.119 305 260 303.881 260 302.5C260 301.119 261.119 300 262.5 300C263.88 300 265 301.119 265 302.5Z" fill="#6BC190"/>
<path d="M285 302.5C285 303.881 283.88 305 282.5 305C281.119 305 280 303.881 280 302.5C280 301.119 281.119 300 282.5 300C283.88 300 285 301.119 285 302.5Z" fill="#6BC190"/>
<path d="M305 302.5C305 303.881 303.881 305 302.5 305C301.119 305 300 303.881 300 302.5C300 301.119 301.119 300 302.5 300C303.881 300 305 301.119 305 302.5Z" fill="#6BC190"/>
<path d="M325 302.5C325 303.881 323.881 305 322.5 305C321.119 305 320 303.881 320 302.5C320 301.119 321.119 300 322.5 300C323.881 300 325 301.119 325 302.5Z" fill="#6BC190"/>
<path d="M345 302.5C345 303.881 343.88 305 342.5 305C341.119 305 340 303.881 340 302.5C340 301.119 341.119 300 342.5 300C343.88 300 345 301.119 345 302.5Z" fill="#6BC190"/>
<path d="M365 302.5C365 303.881 363.88 305 362.5 305C361.119 305 360 303.881 360 302.5C360 301.119 361.119 300 362.5 300C363.88 300 365 301.119 365 302.5Z" fill="#6BC190"/>
<path d="M385 302.5C385 303.881 383.881 305 382.5 305C381.119 305 380 303.881 380 302.5C380 301.119 381.119 300 382.5 300C383.881 300 385 301.119 385 302.5Z" fill="#6BC190"/>
<path d="M405 302.5C405 303.881 403.881 305 402.5 305C401.119 305 400 303.881 400 302.5C400 301.119 401.119 300 402.5 300C403.881 300 405 301.119 405 302.5Z" fill="#6BC190"/>
<path d="M425 302.5C425 303.881 423.881 305 422.5 305C421.119 305 420 303.881 420 302.5C420 301.119 421.119 300 422.5 300C423.881 300 425 301.119 425 302.5Z" fill="#6BC190"/>
<path d="M445 302.5C445 303.881 443.881 305 442.5 305C441.119 305 440 303.881 440 302.5C440 301.119 441.119 300 442.5 300C443.881 300 445 301.119 445 302.5Z" fill="#6BC190"/>
<path d="M5 322.5C5 323.881 3.88071 325 2.5 325C1.11929 325 0 323.881 0 322.5C0 321.119 1.11929 320 2.5 320C3.88071 320 5 321.119 5 322.5Z" fill="#6BC190"/>
<path d="M25 322.5C25 323.881 23.8808 325 22.5 325C21.1193 325 20 323.881 20 322.5C20 321.119 21.1193 320 22.5 320C23.8808 320 25 321.119 25 322.5Z" fill="#6BC190"/>
<path d="M45.0001 322.5C45.0001 323.881 43.8808 325 42.5001 325C41.1194 325 40.0001 323.881 40.0001 322.5C40.0001 321.119 41.1194 320 42.5001 320C43.8808 320 45.0001 321.119 45.0001 322.5Z" fill="#6BC190"/>
<path d="M64.9999 322.5C64.9999 323.881 63.8806 325 62.4999 325C61.1192 325 59.9999 323.881 59.9999 322.5C59.9999 321.119 61.1192 320 62.4999 320C63.8806 320 64.9999 321.119 64.9999 322.5Z" fill="#6BC190"/>
<path d="M85 322.5C85 323.881 83.8807 325 82.5 325C81.1193 325 80 323.881 80 322.5C80 321.119 81.1193 320 82.5 320C83.8807 320 85 321.119 85 322.5Z" fill="#6BC190"/>
<path d="M105 322.5C105 323.881 103.881 325 102.5 325C101.119 325 99.9998 323.881 99.9998 322.5C99.9998 321.119 101.119 320 102.5 320C103.881 320 105 321.119 105 322.5Z" fill="#6BC190"/>
<path d="M125 322.5C125 323.881 123.881 325 122.5 325C121.119 325 120 323.881 120 322.5C120 321.119 121.119 320 122.5 320C123.881 320 125 321.119 125 322.5Z" fill="#6BC190"/>
<path d="M145 322.5C145 323.881 143.881 325 142.5 325C141.119 325 140 323.881 140 322.5C140 321.119 141.119 320 142.5 320C143.881 320 145 321.119 145 322.5Z" fill="#6BC190"/>
<path d="M165 322.5C165 323.881 163.881 325 162.5 325C161.119 325 160 323.881 160 322.5C160 321.119 161.119 320 162.5 320C163.881 320 165 321.119 165 322.5Z" fill="#6BC190"/>
<path d="M185 322.5C185 323.881 183.881 325 182.5 325C181.119 325 180 323.881 180 322.5C180 321.119 181.119 320 182.5 320C183.881 320 185 321.119 185 322.5Z" fill="#6BC190"/>
<path d="M205 322.5C205 323.881 203.881 325 202.5 325C201.119 325 200 323.881 200 322.5C200 321.119 201.119 320 202.5 320C203.881 320 205 321.119 205 322.5Z" fill="#6BC190"/>
<path d="M225 322.5C225 323.881 223.881 325 222.5 325C221.119 325 220 323.881 220 322.5C220 321.119 221.119 320 222.5 320C223.881 320 225 321.119 225 322.5Z" fill="#6BC190"/>
<path d="M245 322.5C245 323.881 243.881 325 242.5 325C241.119 325 240 323.881 240 322.5C240 321.119 241.119 320 242.5 320C243.881 320 245 321.119 245 322.5Z" fill="#6BC190"/>
<path d="M265 322.5C265 323.881 263.88 325 262.5 325C261.119 325 260 323.881 260 322.5C260 321.119 261.119 320 262.5 320C263.88 320 265 321.119 265 322.5Z" fill="#6BC190"/>
<path d="M285 322.5C285 323.881 283.88 325 282.5 325C281.119 325 280 323.881 280 322.5C280 321.119 281.119 320 282.5 320C283.88 320 285 321.119 285 322.5Z" fill="#6BC190"/>
<path d="M305 322.5C305 323.881 303.881 325 302.5 325C301.119 325 300 323.881 300 322.5C300 321.119 301.119 320 302.5 320C303.881 320 305 321.119 305 322.5Z" fill="#6BC190"/>
<path d="M325 322.5C325 323.881 323.881 325 322.5 325C321.119 325 320 323.881 320 322.5C320 321.119 321.119 320 322.5 320C323.881 320 325 321.119 325 322.5Z" fill="#6BC190"/>
<path d="M345 322.5C345 323.881 343.88 325 342.5 325C341.119 325 340 323.881 340 322.5C340 321.119 341.119 320 342.5 320C343.88 320 345 321.119 345 322.5Z" fill="#6BC190"/>
<path d="M365 322.5C365 323.881 363.88 325 362.5 325C361.119 325 360 323.881 360 322.5C360 321.119 361.119 320 362.5 320C363.88 320 365 321.119 365 322.5Z" fill="#6BC190"/>
<path d="M385 322.5C385 323.881 383.881 325 382.5 325C381.119 325 380 323.881 380 322.5C380 321.119 381.119 320 382.5 320C383.881 320 385 321.119 385 322.5Z" fill="#6BC190"/>
<path d="M405 322.5C405 323.881 403.881 325 402.5 325C401.119 325 400 323.881 400 322.5C400 321.119 401.119 320 402.5 320C403.881 320 405 321.119 405 322.5Z" fill="#6BC190"/>
<path d="M425 322.5C425 323.881 423.881 325 422.5 325C421.119 325 420 323.881 420 322.5C420 321.119 421.119 320 422.5 320C423.881 320 425 321.119 425 322.5Z" fill="#6BC190"/>
<path d="M445 322.5C445 323.881 443.881 325 442.5 325C441.119 325 440 323.881 440 322.5C440 321.119 441.119 320 442.5 320C443.881 320 445 321.119 445 322.5Z" fill="#6BC190"/>
<path d="M5 342.5C5 343.881 3.88071 345 2.5 345C1.11929 345 0 343.881 0 342.5C0 341.119 1.11929 340 2.5 340C3.88071 340 5 341.119 5 342.5Z" fill="#6BC190"/>
<path d="M25 342.5C25 343.881 23.8808 345 22.5 345C21.1193 345 20 343.881 20 342.5C20 341.119 21.1193 340 22.5 340C23.8808 340 25 341.119 25 342.5Z" fill="#6BC190"/>
<path d="M45.0001 342.5C45.0001 343.881 43.8808 345 42.5001 345C41.1194 345 40.0001 343.881 40.0001 342.5C40.0001 341.119 41.1194 340 42.5001 340C43.8808 340 45.0001 341.119 45.0001 342.5Z" fill="#6BC190"/>
<path d="M64.9999 342.5C64.9999 343.881 63.8806 345 62.4999 345C61.1192 345 59.9999 343.881 59.9999 342.5C59.9999 341.119 61.1192 340 62.4999 340C63.8806 340 64.9999 341.119 64.9999 342.5Z" fill="#6BC190"/>
<path d="M85 342.5C85 343.881 83.8807 345 82.5 345C81.1193 345 80 343.881 80 342.5C80 341.119 81.1193 340 82.5 340C83.8807 340 85 341.119 85 342.5Z" fill="#6BC190"/>
<path d="M105 342.5C105 343.881 103.881 345 102.5 345C101.119 345 99.9998 343.881 99.9998 342.5C99.9998 341.119 101.119 340 102.5 340C103.881 340 105 341.119 105 342.5Z" fill="#6BC190"/>
<path d="M125 342.5C125 343.881 123.881 345 122.5 345C121.119 345 120 343.881 120 342.5C120 341.119 121.119 340 122.5 340C123.881 340 125 341.119 125 342.5Z" fill="#6BC190"/>
<path d="M145 342.5C145 343.881 143.881 345 142.5 345C141.119 345 140 343.881 140 342.5C140 341.119 141.119 340 142.5 340C143.881 340 145 341.119 145 342.5Z" fill="#6BC190"/>
<path d="M165 342.5C165 343.881 163.881 345 162.5 345C161.119 345 160 343.881 160 342.5C160 341.119 161.119 340 162.5 340C163.881 340 165 341.119 165 342.5Z" fill="#6BC190"/>
<path d="M185 342.5C185 343.881 183.881 345 182.5 345C181.119 345 180 343.881 180 342.5C180 341.119 181.119 340 182.5 340C183.881 340 185 341.119 185 342.5Z" fill="#6BC190"/>
<path d="M205 342.5C205 343.881 203.881 345 202.5 345C201.119 345 200 343.881 200 342.5C200 341.119 201.119 340 202.5 340C203.881 340 205 341.119 205 342.5Z" fill="#6BC190"/>
<path d="M225 342.5C225 343.881 223.881 345 222.5 345C221.119 345 220 343.881 220 342.5C220 341.119 221.119 340 222.5 340C223.881 340 225 341.119 225 342.5Z" fill="#6BC190"/>
<path d="M245 342.5C245 343.881 243.881 345 242.5 345C241.119 345 240 343.881 240 342.5C240 341.119 241.119 340 242.5 340C243.881 340 245 341.119 245 342.5Z" fill="#6BC190"/>
<path d="M265 342.5C265 343.881 263.88 345 262.5 345C261.119 345 260 343.881 260 342.5C260 341.119 261.119 340 262.5 340C263.88 340 265 341.119 265 342.5Z" fill="#6BC190"/>
<path d="M285 342.5C285 343.881 283.88 345 282.5 345C281.119 345 280 343.881 280 342.5C280 341.119 281.119 340 282.5 340C283.88 340 285 341.119 285 342.5Z" fill="#6BC190"/>
<path d="M305 342.5C305 343.881 303.881 345 302.5 345C301.119 345 300 343.881 300 342.5C300 341.119 301.119 340 302.5 340C303.881 340 305 341.119 305 342.5Z" fill="#6BC190"/>
<path d="M325 342.5C325 343.881 323.881 345 322.5 345C321.119 345 320 343.881 320 342.5C320 341.119 321.119 340 322.5 340C323.881 340 325 341.119 325 342.5Z" fill="#6BC190"/>
<path d="M345 342.5C345 343.881 343.88 345 342.5 345C341.119 345 340 343.881 340 342.5C340 341.119 341.119 340 342.5 340C343.88 340 345 341.119 345 342.5Z" fill="#6BC190"/>
<path d="M365 342.5C365 343.881 363.88 345 362.5 345C361.119 345 360 343.881 360 342.5C360 341.119 361.119 340 362.5 340C363.88 340 365 341.119 365 342.5Z" fill="#6BC190"/>
<path d="M385 342.5C385 343.881 383.881 345 382.5 345C381.119 345 380 343.881 380 342.5C380 341.119 381.119 340 382.5 340C383.881 340 385 341.119 385 342.5Z" fill="#6BC190"/>
<path d="M405 342.5C405 343.881 403.881 345 402.5 345C401.119 345 400 343.881 400 342.5C400 341.119 401.119 340 402.5 340C403.881 340 405 341.119 405 342.5Z" fill="#6BC190"/>
<path d="M425 342.5C425 343.881 423.881 345 422.5 345C421.119 345 420 343.881 420 342.5C420 341.119 421.119 340 422.5 340C423.881 340 425 341.119 425 342.5Z" fill="#6BC190"/>
<path d="M445 342.5C445 343.881 443.881 345 442.5 345C441.119 345 440 343.881 440 342.5C440 341.119 441.119 340 442.5 340C443.881 340 445 341.119 445 342.5Z" fill="#6BC190"/>
<path d="M5 362.5C5 363.881 3.88071 365 2.5 365C1.11929 365 0 363.881 0 362.5C0 361.119 1.11929 360 2.5 360C3.88071 360 5 361.119 5 362.5Z" fill="#6BC190"/>
<path d="M25 362.5C25 363.881 23.8808 365 22.5 365C21.1193 365 20 363.881 20 362.5C20 361.119 21.1193 360 22.5 360C23.8808 360 25 361.119 25 362.5Z" fill="#6BC190"/>
<path d="M45.0001 362.5C45.0001 363.881 43.8808 365 42.5001 365C41.1194 365 40.0001 363.881 40.0001 362.5C40.0001 361.119 41.1194 360 42.5001 360C43.8808 360 45.0001 361.119 45.0001 362.5Z" fill="#6BC190"/>
<path d="M64.9999 362.5C64.9999 363.881 63.8806 365 62.4999 365C61.1192 365 59.9999 363.881 59.9999 362.5C59.9999 361.119 61.1192 360 62.4999 360C63.8806 360 64.9999 361.119 64.9999 362.5Z" fill="#6BC190"/>
<path d="M85 362.5C85 363.881 83.8807 365 82.5 365C81.1193 365 80 363.881 80 362.5C80 361.119 81.1193 360 82.5 360C83.8807 360 85 361.119 85 362.5Z" fill="#6BC190"/>
<path d="M105 362.5C105 363.881 103.881 365 102.5 365C101.119 365 99.9998 363.881 99.9998 362.5C99.9998 361.119 101.119 360 102.5 360C103.881 360 105 361.119 105 362.5Z" fill="#6BC190"/>
<path d="M125 362.5C125 363.881 123.881 365 122.5 365C121.119 365 120 363.881 120 362.5C120 361.119 121.119 360 122.5 360C123.881 360 125 361.119 125 362.5Z" fill="#6BC190"/>
<path d="M145 362.5C145 363.881 143.881 365 142.5 365C141.119 365 140 363.881 140 362.5C140 361.119 141.119 360 142.5 360C143.881 360 145 361.119 145 362.5Z" fill="#6BC190"/>
<path d="M165 362.5C165 363.881 163.881 365 162.5 365C161.119 365 160 363.881 160 362.5C160 361.119 161.119 360 162.5 360C163.881 360 165 361.119 165 362.5Z" fill="#6BC190"/>
<path d="M185 362.5C185 363.881 183.881 365 182.5 365C181.119 365 180 363.881 180 362.5C180 361.119 181.119 360 182.5 360C183.881 360 185 361.119 185 362.5Z" fill="#6BC190"/>
<path d="M205 362.5C205 363.881 203.881 365 202.5 365C201.119 365 200 363.881 200 362.5C200 361.119 201.119 360 202.5 360C203.881 360 205 361.119 205 362.5Z" fill="#6BC190"/>
<path d="M225 362.5C225 363.881 223.881 365 222.5 365C221.119 365 220 363.881 220 362.5C220 361.119 221.119 360 222.5 360C223.881 360 225 361.119 225 362.5Z" fill="#6BC190"/>
<path d="M245 362.5C245 363.881 243.881 365 242.5 365C241.119 365 240 363.881 240 362.5C240 361.119 241.119 360 242.5 360C243.881 360 245 361.119 245 362.5Z" fill="#6BC190"/>
<path d="M265 362.5C265 363.881 263.88 365 262.5 365C261.119 365 260 363.881 260 362.5C260 361.119 261.119 360 262.5 360C263.88 360 265 361.119 265 362.5Z" fill="#6BC190"/>
<path d="M285 362.5C285 363.881 283.88 365 282.5 365C281.119 365 280 363.881 280 362.5C280 361.119 281.119 360 282.5 360C283.88 360 285 361.119 285 362.5Z" fill="#6BC190"/>
<path d="M305 362.5C305 363.881 303.881 365 302.5 365C301.119 365 300 363.881 300 362.5C300 361.119 301.119 360 302.5 360C303.881 360 305 361.119 305 362.5Z" fill="#6BC190"/>
<path d="M325 362.5C325 363.881 323.881 365 322.5 365C321.119 365 320 363.881 320 362.5C320 361.119 321.119 360 322.5 360C323.881 360 325 361.119 325 362.5Z" fill="#6BC190"/>
<path d="M345 362.5C345 363.881 343.88 365 342.5 365C341.119 365 340 363.881 340 362.5C340 361.119 341.119 360 342.5 360C343.88 360 345 361.119 345 362.5Z" fill="#6BC190"/>
<path d="M365 362.5C365 363.881 363.88 365 362.5 365C361.119 365 360 363.881 360 362.5C360 361.119 361.119 360 362.5 360C363.88 360 365 361.119 365 362.5Z" fill="#6BC190"/>
<path d="M385 362.5C385 363.881 383.881 365 382.5 365C381.119 365 380 363.881 380 362.5C380 361.119 381.119 360 382.5 360C383.881 360 385 361.119 385 362.5Z" fill="#6BC190"/>
<path d="M405 362.5C405 363.881 403.881 365 402.5 365C401.119 365 400 363.881 400 362.5C400 361.119 401.119 360 402.5 360C403.881 360 405 361.119 405 362.5Z" fill="#6BC190"/>
<path d="M425 362.5C425 363.881 423.881 365 422.5 365C421.119 365 420 363.881 420 362.5C420 361.119 421.119 360 422.5 360C423.881 360 425 361.119 425 362.5Z" fill="#6BC190"/>
<path d="M445 362.5C445 363.881 443.881 365 442.5 365C441.119 365 440 363.881 440 362.5C440 361.119 441.119 360 442.5 360C443.881 360 445 361.119 445 362.5Z" fill="#6BC190"/>
<path d="M5 382.5C5 383.881 3.88071 385 2.5 385C1.11929 385 0 383.881 0 382.5C0 381.119 1.11929 380 2.5 380C3.88071 380 5 381.119 5 382.5Z" fill="#6BC190"/>
<path d="M25 382.5C25 383.881 23.8808 385 22.5 385C21.1193 385 20 383.881 20 382.5C20 381.119 21.1193 380 22.5 380C23.8808 380 25 381.119 25 382.5Z" fill="#6BC190"/>
<path d="M45.0001 382.5C45.0001 383.881 43.8808 385 42.5001 385C41.1194 385 40.0001 383.881 40.0001 382.5C40.0001 381.119 41.1194 380 42.5001 380C43.8808 380 45.0001 381.119 45.0001 382.5Z" fill="#6BC190"/>
<path d="M64.9999 382.5C64.9999 383.881 63.8806 385 62.4999 385C61.1192 385 59.9999 383.881 59.9999 382.5C59.9999 381.119 61.1192 380 62.4999 380C63.8806 380 64.9999 381.119 64.9999 382.5Z" fill="#6BC190"/>
<path d="M85 382.5C85 383.881 83.8807 385 82.5 385C81.1193 385 80 383.881 80 382.5C80 381.119 81.1193 380 82.5 380C83.8807 380 85 381.119 85 382.5Z" fill="#6BC190"/>
<path d="M105 382.5C105 383.881 103.881 385 102.5 385C101.119 385 99.9998 383.881 99.9998 382.5C99.9998 381.119 101.119 380 102.5 380C103.881 380 105 381.119 105 382.5Z" fill="#6BC190"/>
<path d="M125 382.5C125 383.881 123.881 385 122.5 385C121.119 385 120 383.881 120 382.5C120 381.119 121.119 380 122.5 380C123.881 380 125 381.119 125 382.5Z" fill="#6BC190"/>
<path d="M145 382.5C145 383.881 143.881 385 142.5 385C141.119 385 140 383.881 140 382.5C140 381.119 141.119 380 142.5 380C143.881 380 145 381.119 145 382.5Z" fill="#6BC190"/>
<path d="M165 382.5C165 383.881 163.881 385 162.5 385C161.119 385 160 383.881 160 382.5C160 381.119 161.119 380 162.5 380C163.881 380 165 381.119 165 382.5Z" fill="#6BC190"/>
<path d="M185 382.5C185 383.881 183.881 385 182.5 385C181.119 385 180 383.881 180 382.5C180 381.119 181.119 380 182.5 380C183.881 380 185 381.119 185 382.5Z" fill="#6BC190"/>
<path d="M205 382.5C205 383.881 203.881 385 202.5 385C201.119 385 200 383.881 200 382.5C200 381.119 201.119 380 202.5 380C203.881 380 205 381.119 205 382.5Z" fill="#6BC190"/>
<path d="M225 382.5C225 383.881 223.881 385 222.5 385C221.119 385 220 383.881 220 382.5C220 381.119 221.119 380 222.5 380C223.881 380 225 381.119 225 382.5Z" fill="#6BC190"/>
<path d="M245 382.5C245 383.881 243.881 385 242.5 385C241.119 385 240 383.881 240 382.5C240 381.119 241.119 380 242.5 380C243.881 380 245 381.119 245 382.5Z" fill="#6BC190"/>
<path d="M265 382.5C265 383.881 263.88 385 262.5 385C261.119 385 260 383.881 260 382.5C260 381.119 261.119 380 262.5 380C263.88 380 265 381.119 265 382.5Z" fill="#6BC190"/>
<path d="M285 382.5C285 383.881 283.88 385 282.5 385C281.119 385 280 383.881 280 382.5C280 381.119 281.119 380 282.5 380C283.88 380 285 381.119 285 382.5Z" fill="#6BC190"/>
<path d="M305 382.5C305 383.881 303.881 385 302.5 385C301.119 385 300 383.881 300 382.5C300 381.119 301.119 380 302.5 380C303.881 380 305 381.119 305 382.5Z" fill="#6BC190"/>
<path d="M325 382.5C325 383.881 323.881 385 322.5 385C321.119 385 320 383.881 320 382.5C320 381.119 321.119 380 322.5 380C323.881 380 325 381.119 325 382.5Z" fill="#6BC190"/>
<path d="M345 382.5C345 383.881 343.88 385 342.5 385C341.119 385 340 383.881 340 382.5C340 381.119 341.119 380 342.5 380C343.88 380 345 381.119 345 382.5Z" fill="#6BC190"/>
<path d="M365 382.5C365 383.881 363.88 385 362.5 385C361.119 385 360 383.881 360 382.5C360 381.119 361.119 380 362.5 380C363.88 380 365 381.119 365 382.5Z" fill="#6BC190"/>
<path d="M385 382.5C385 383.881 383.881 385 382.5 385C381.119 385 380 383.881 380 382.5C380 381.119 381.119 380 382.5 380C383.881 380 385 381.119 385 382.5Z" fill="#6BC190"/>
<path d="M405 382.5C405 383.881 403.881 385 402.5 385C401.119 385 400 383.881 400 382.5C400 381.119 401.119 380 402.5 380C403.881 380 405 381.119 405 382.5Z" fill="#6BC190"/>
<path d="M425 382.5C425 383.881 423.881 385 422.5 385C421.119 385 420 383.881 420 382.5C420 381.119 421.119 380 422.5 380C423.881 380 425 381.119 425 382.5Z" fill="#6BC190"/>
<path d="M445 382.5C445 383.881 443.881 385 442.5 385C441.119 385 440 383.881 440 382.5C440 381.119 441.119 380 442.5 380C443.881 380 445 381.119 445 382.5Z" fill="#6BC190"/>
<path d="M5 402.5C5 403.881 3.88071 405 2.5 405C1.11929 405 0 403.881 0 402.5C0 401.119 1.11929 400 2.5 400C3.88071 400 5 401.119 5 402.5Z" fill="#6BC190"/>
<path d="M25 402.5C25 403.881 23.8808 405 22.5 405C21.1193 405 20 403.881 20 402.5C20 401.119 21.1193 400 22.5 400C23.8808 400 25 401.119 25 402.5Z" fill="#6BC190"/>
<path d="M45.0001 402.5C45.0001 403.881 43.8808 405 42.5001 405C41.1194 405 40.0001 403.881 40.0001 402.5C40.0001 401.119 41.1194 400 42.5001 400C43.8808 400 45.0001 401.119 45.0001 402.5Z" fill="#6BC190"/>
<path d="M64.9999 402.5C64.9999 403.881 63.8806 405 62.4999 405C61.1192 405 59.9999 403.881 59.9999 402.5C59.9999 401.119 61.1192 400 62.4999 400C63.8806 400 64.9999 401.119 64.9999 402.5Z" fill="#6BC190"/>
<path d="M85 402.5C85 403.881 83.8807 405 82.5 405C81.1193 405 80 403.881 80 402.5C80 401.119 81.1193 400 82.5 400C83.8807 400 85 401.119 85 402.5Z" fill="#6BC190"/>
<path d="M105 402.5C105 403.881 103.881 405 102.5 405C101.119 405 99.9998 403.881 99.9998 402.5C99.9998 401.119 101.119 400 102.5 400C103.881 400 105 401.119 105 402.5Z" fill="#6BC190"/>
<path d="M125 402.5C125 403.881 123.881 405 122.5 405C121.119 405 120 403.881 120 402.5C120 401.119 121.119 400 122.5 400C123.881 400 125 401.119 125 402.5Z" fill="#6BC190"/>
<path d="M145 402.5C145 403.881 143.881 405 142.5 405C141.119 405 140 403.881 140 402.5C140 401.119 141.119 400 142.5 400C143.881 400 145 401.119 145 402.5Z" fill="#6BC190"/>
<path d="M165 402.5C165 403.881 163.881 405 162.5 405C161.119 405 160 403.881 160 402.5C160 401.119 161.119 400 162.5 400C163.881 400 165 401.119 165 402.5Z" fill="#6BC190"/>
<path d="M185 402.5C185 403.881 183.881 405 182.5 405C181.119 405 180 403.881 180 402.5C180 401.119 181.119 400 182.5 400C183.881 400 185 401.119 185 402.5Z" fill="#6BC190"/>
<path d="M205 402.5C205 403.881 203.881 405 202.5 405C201.119 405 200 403.881 200 402.5C200 401.119 201.119 400 202.5 400C203.881 400 205 401.119 205 402.5Z" fill="#6BC190"/>
<path d="M225 402.5C225 403.881 223.881 405 222.5 405C221.119 405 220 403.881 220 402.5C220 401.119 221.119 400 222.5 400C223.881 400 225 401.119 225 402.5Z" fill="#6BC190"/>
<path d="M245 402.5C245 403.881 243.881 405 242.5 405C241.119 405 240 403.881 240 402.5C240 401.119 241.119 400 242.5 400C243.881 400 245 401.119 245 402.5Z" fill="#6BC190"/>
<path d="M265 402.5C265 403.881 263.88 405 262.5 405C261.119 405 260 403.881 260 402.5C260 401.119 261.119 400 262.5 400C263.88 400 265 401.119 265 402.5Z" fill="#6BC190"/>
<path d="M285 402.5C285 403.881 283.88 405 282.5 405C281.119 405 280 403.881 280 402.5C280 401.119 281.119 400 282.5 400C283.88 400 285 401.119 285 402.5Z" fill="#6BC190"/>
<path d="M305 402.5C305 403.881 303.881 405 302.5 405C301.119 405 300 403.881 300 402.5C300 401.119 301.119 400 302.5 400C303.881 400 305 401.119 305 402.5Z" fill="#6BC190"/>
<path d="M325 402.5C325 403.881 323.881 405 322.5 405C321.119 405 320 403.881 320 402.5C320 401.119 321.119 400 322.5 400C323.881 400 325 401.119 325 402.5Z" fill="#6BC190"/>
<path d="M345 402.5C345 403.881 343.88 405 342.5 405C341.119 405 340 403.881 340 402.5C340 401.119 341.119 400 342.5 400C343.88 400 345 401.119 345 402.5Z" fill="#6BC190"/>
<path d="M365 402.5C365 403.881 363.88 405 362.5 405C361.119 405 360 403.881 360 402.5C360 401.119 361.119 400 362.5 400C363.88 400 365 401.119 365 402.5Z" fill="#6BC190"/>
<path d="M385 402.5C385 403.881 383.881 405 382.5 405C381.119 405 380 403.881 380 402.5C380 401.119 381.119 400 382.5 400C383.881 400 385 401.119 385 402.5Z" fill="#6BC190"/>
<path d="M405 402.5C405 403.881 403.881 405 402.5 405C401.119 405 400 403.881 400 402.5C400 401.119 401.119 400 402.5 400C403.881 400 405 401.119 405 402.5Z" fill="#6BC190"/>
<path d="M425 402.5C425 403.881 423.881 405 422.5 405C421.119 405 420 403.881 420 402.5C420 401.119 421.119 400 422.5 400C423.881 400 425 401.119 425 402.5Z" fill="#6BC190"/>
<path d="M445 402.5C445 403.881 443.881 405 442.5 405C441.119 405 440 403.881 440 402.5C440 401.119 441.119 400 442.5 400C443.881 400 445 401.119 445 402.5Z" fill="#6BC190"/>
<path d="M5 422.5C5 423.881 3.88071 425 2.5 425C1.11929 425 0 423.881 0 422.5C0 421.119 1.11929 420 2.5 420C3.88071 420 5 421.119 5 422.5Z" fill="#6BC190"/>
<path d="M25 422.5C25 423.881 23.8808 425 22.5 425C21.1193 425 20 423.881 20 422.5C20 421.119 21.1193 420 22.5 420C23.8808 420 25 421.119 25 422.5Z" fill="#6BC190"/>
<path d="M45.0001 422.5C45.0001 423.881 43.8808 425 42.5001 425C41.1194 425 40.0001 423.881 40.0001 422.5C40.0001 421.119 41.1194 420 42.5001 420C43.8808 420 45.0001 421.119 45.0001 422.5Z" fill="#6BC190"/>
<path d="M64.9999 422.5C64.9999 423.881 63.8806 425 62.4999 425C61.1192 425 59.9999 423.881 59.9999 422.5C59.9999 421.119 61.1192 420 62.4999 420C63.8806 420 64.9999 421.119 64.9999 422.5Z" fill="#6BC190"/>
<path d="M85 422.5C85 423.881 83.8807 425 82.5 425C81.1193 425 80 423.881 80 422.5C80 421.119 81.1193 420 82.5 420C83.8807 420 85 421.119 85 422.5Z" fill="#6BC190"/>
<path d="M105 422.5C105 423.881 103.881 425 102.5 425C101.119 425 99.9998 423.881 99.9998 422.5C99.9998 421.119 101.119 420 102.5 420C103.881 420 105 421.119 105 422.5Z" fill="#6BC190"/>
<path d="M125 422.5C125 423.881 123.881 425 122.5 425C121.119 425 120 423.881 120 422.5C120 421.119 121.119 420 122.5 420C123.881 420 125 421.119 125 422.5Z" fill="#6BC190"/>
<path d="M145 422.5C145 423.881 143.881 425 142.5 425C141.119 425 140 423.881 140 422.5C140 421.119 141.119 420 142.5 420C143.881 420 145 421.119 145 422.5Z" fill="#6BC190"/>
<path d="M165 422.5C165 423.881 163.881 425 162.5 425C161.119 425 160 423.881 160 422.5C160 421.119 161.119 420 162.5 420C163.881 420 165 421.119 165 422.5Z" fill="#6BC190"/>
<path d="M185 422.5C185 423.881 183.881 425 182.5 425C181.119 425 180 423.881 180 422.5C180 421.119 181.119 420 182.5 420C183.881 420 185 421.119 185 422.5Z" fill="#6BC190"/>
<path d="M205 422.5C205 423.881 203.881 425 202.5 425C201.119 425 200 423.881 200 422.5C200 421.119 201.119 420 202.5 420C203.881 420 205 421.119 205 422.5Z" fill="#6BC190"/>
<path d="M225 422.5C225 423.881 223.881 425 222.5 425C221.119 425 220 423.881 220 422.5C220 421.119 221.119 420 222.5 420C223.881 420 225 421.119 225 422.5Z" fill="#6BC190"/>
<path d="M245 422.5C245 423.881 243.881 425 242.5 425C241.119 425 240 423.881 240 422.5C240 421.119 241.119 420 242.5 420C243.881 420 245 421.119 245 422.5Z" fill="#6BC190"/>
<path d="M265 422.5C265 423.881 263.88 425 262.5 425C261.119 425 260 423.881 260 422.5C260 421.119 261.119 420 262.5 420C263.88 420 265 421.119 265 422.5Z" fill="#6BC190"/>
<path d="M285 422.5C285 423.881 283.88 425 282.5 425C281.119 425 280 423.881 280 422.5C280 421.119 281.119 420 282.5 420C283.88 420 285 421.119 285 422.5Z" fill="#6BC190"/>
<path d="M305 422.5C305 423.881 303.881 425 302.5 425C301.119 425 300 423.881 300 422.5C300 421.119 301.119 420 302.5 420C303.881 420 305 421.119 305 422.5Z" fill="#6BC190"/>
<path d="M325 422.5C325 423.881 323.881 425 322.5 425C321.119 425 320 423.881 320 422.5C320 421.119 321.119 420 322.5 420C323.881 420 325 421.119 325 422.5Z" fill="#6BC190"/>
<path d="M345 422.5C345 423.881 343.88 425 342.5 425C341.119 425 340 423.881 340 422.5C340 421.119 341.119 420 342.5 420C343.88 420 345 421.119 345 422.5Z" fill="#6BC190"/>
<path d="M365 422.5C365 423.881 363.88 425 362.5 425C361.119 425 360 423.881 360 422.5C360 421.119 361.119 420 362.5 420C363.88 420 365 421.119 365 422.5Z" fill="#6BC190"/>
<path d="M385 422.5C385 423.881 383.881 425 382.5 425C381.119 425 380 423.881 380 422.5C380 421.119 381.119 420 382.5 420C383.881 420 385 421.119 385 422.5Z" fill="#6BC190"/>
<path d="M405 422.5C405 423.881 403.881 425 402.5 425C401.119 425 400 423.881 400 422.5C400 421.119 401.119 420 402.5 420C403.881 420 405 421.119 405 422.5Z" fill="#6BC190"/>
<path d="M425 422.5C425 423.881 423.881 425 422.5 425C421.119 425 420 423.881 420 422.5C420 421.119 421.119 420 422.5 420C423.881 420 425 421.119 425 422.5Z" fill="#6BC190"/>
<path d="M445 422.5C445 423.881 443.881 425 442.5 425C441.119 425 440 423.881 440 422.5C440 421.119 441.119 420 442.5 420C443.881 420 445 421.119 445 422.5Z" fill="#6BC190"/>
</g>
</svg>
