<svg width="75" height="75" viewBox="0 0 75 75" fill="none" xmlns="http://www.w3.org/2000/svg">
<path d="M70.6055 0H4.39453C1.97124 0 0 1.97124 0 4.39453V58.8867C0 61.31 1.97124 63.2812 4.39453 63.2812H48.7139C49.523 63.2812 50.1787 62.6255 50.1787 61.8164C50.1787 61.0073 49.523 60.3516 48.7139 60.3516H4.39453C3.58658 60.3516 2.92969 59.6941 2.92969 58.8867V15.8203H72.0703V58.8867C72.0703 59.6941 71.4128 60.3516 70.6055 60.3516H67.4074L66.1411 58.1589L68.6411 56.7261C69.096 56.4657 69.3769 55.9816 69.3775 55.4575C69.3787 54.9334 69.0994 54.4487 68.6451 54.1866L55.4741 46.582H62.9883C65.7343 46.582 67.9688 44.3476 67.9688 41.6016C67.9688 38.855 65.7343 36.6211 62.9883 36.6211H45.9961C43.2495 36.6211 41.0156 38.855 41.0156 41.6016C41.0156 44.3476 43.2495 46.582 45.9961 46.582H48.5424V65.7932C48.5424 66.3174 48.8222 66.8015 49.2765 67.0624C49.7309 67.3239 50.2899 67.3227 50.7431 67.0595L53.6797 65.3532L58.8261 74.2676C59.0973 74.7374 59.59 75 60.0964 75C60.3447 75 60.5965 74.9365 60.8271 74.8037L70.752 69.0737C71.0884 68.8791 71.3339 68.5593 71.434 68.1839C71.5347 67.8085 71.4821 67.4091 71.2881 67.0727L69.0989 63.2812H70.6055C73.0288 63.2812 75 61.31 75 58.8867V4.39453C75 1.97124 73.0288 0 70.6055 0ZM43.9453 41.6016C43.9453 40.4709 44.8654 39.5508 45.9961 39.5508H62.9883C64.119 39.5508 65.0391 40.4709 65.0391 41.6016C65.0391 42.7322 64.119 43.6523 62.9883 43.6523H45.9961C44.8654 43.6523 43.9453 42.7322 43.9453 41.6016ZM60.6308 71.5342L55.4821 62.6158C55.2876 62.2787 54.9665 62.0333 54.5906 61.9331C54.4664 61.8999 54.34 61.8834 54.2135 61.8834C53.9572 61.8834 53.7025 61.9509 53.4777 62.0819L51.4721 63.2475V47.6543L64.975 55.4506L63.41 56.3473C63.0718 56.5407 62.8252 56.8611 62.7234 57.2371C62.6221 57.613 62.6747 58.0135 62.8693 58.3506L68.0185 67.2689L60.6308 71.5342ZM2.92969 12.8906V4.39453C2.92969 3.58658 3.58658 2.92969 4.39453 2.92969H70.6055C71.4128 2.92969 72.0703 3.58658 72.0703 4.39453V12.8906H2.92969Z" fill="#46B274"/>
<path d="M41.7323 25.4883H66.5038C67.3129 25.4883 67.9687 24.8325 67.9687 24.0234C67.9687 23.2143 67.3129 22.5586 66.5038 22.5586H41.7323C40.9232 22.5586 40.2675 23.2143 40.2675 24.0234C40.2675 24.8325 40.9232 25.4883 41.7323 25.4883Z" fill="#46B274"/>
<path d="M46.3055 32.5195H66.5038C67.3129 32.5195 67.9687 31.8638 67.9687 31.0547C67.9687 30.2456 67.3129 29.5898 66.5038 29.5898H46.3055C45.4964 29.5898 44.8406 30.2456 44.8406 31.0547C44.8406 31.8638 45.4964 32.5195 46.3055 32.5195Z" fill="#46B274"/>
<path d="M7.03583 35.4492C7.03583 42.5571 12.8185 48.3398 19.9265 48.3398C27.0344 48.3398 32.8171 42.5571 32.8171 35.4492C32.8171 28.3413 27.0344 22.5586 19.9265 22.5586C12.8185 22.5586 7.03583 28.3413 7.03583 35.4492ZM27.9259 41.3767L23.4627 36.9141H29.7787C29.5338 38.5683 28.8809 40.0915 27.9259 41.3767ZM9.96552 35.4492C9.96552 30.4544 13.6614 26.3077 18.4616 25.597V35.4492C18.4616 35.8538 18.6253 36.22 18.8908 36.4849L25.8545 43.4486C24.1968 44.68 22.1455 45.4102 19.9265 45.4102C14.4339 45.4102 9.96552 40.9418 9.96552 35.4492ZM29.7787 33.9844H21.3913V25.597C25.7132 26.2367 29.1389 29.6625 29.7787 33.9844Z" fill="#46B274"/>
</svg>
