<svg width="80" height="67" viewBox="0 0 80 67" fill="none" xmlns="http://www.w3.org/2000/svg">
<path d="M44.1226 21.1632C44.9697 21.1632 45.6562 20.4767 45.6562 19.6296C45.6562 18.7826 44.9697 18.096 44.1226 18.096H41.3113V12.8819H48.9791C49.8261 12.8819 50.5126 12.1954 50.5126 11.3484V1.53356C50.5126 0.686509 49.8261 0 48.9791 0H30.5763C29.7293 0 29.0428 0.686509 29.0428 1.53356V11.3484C29.0428 12.1954 29.7293 12.8819 30.5763 12.8819H38.2441V18.096H18.717C17.8699 18.096 17.1834 18.7826 17.1834 19.6296V26.684H9.5156C8.66854 26.684 7.98203 27.3705 7.98203 28.2176V38.0324C7.98203 38.8794 8.66854 39.5659 9.5156 39.5659H17.1834V44.78H8.18631C7.33925 44.78 6.65275 45.4665 6.65275 46.3136V53.368H2.05206C1.205 53.368 0.518494 54.0545 0.518494 54.9016V64.7164C0.518494 65.5634 1.205 66.2499 2.05206 66.2499H14.3206C15.1676 66.2499 15.8541 65.5634 15.8541 64.7164V54.9016C15.8541 54.0545 15.1676 53.368 14.3206 53.368H9.71987V47.8472H27.7135V53.368H23.1128C22.2663 53.368 21.5792 54.0545 21.5792 54.9016V64.7164C21.5792 65.5634 22.2663 66.2499 23.1128 66.2499H35.3813C36.2283 66.2499 36.9149 65.5634 36.9149 64.7164V54.9016C36.9149 54.0545 36.2283 53.368 35.3813 53.368H30.7806V46.3136C30.7806 45.4665 30.0941 44.78 29.247 44.78H20.2505V39.5659H27.9184C28.7648 39.5659 29.4519 38.8794 29.4519 38.0324V28.2176C29.4519 27.3705 28.7648 26.684 27.9184 26.684H20.2505V21.1632H44.1226ZM32.1099 3.06713H47.4455V9.8148H32.1099V3.06713ZM12.787 63.1828H3.58562V56.4351H12.787V63.1828ZM33.8477 63.1828H24.6463V56.4351H33.8477V63.1828ZM26.3848 36.4988H11.0492V29.7511H26.3848V36.4988Z" fill="#46B274"/>
<path d="M77.5034 53.368H72.9027V46.3136C72.9027 45.4666 72.2162 44.7801 71.3692 44.7801H62.3721V39.566H70.0399C70.8869 39.566 71.5734 38.8794 71.5734 38.0324V28.2176C71.5734 27.3705 70.8869 26.684 70.0399 26.684H62.3721V19.6296C62.3721 18.7826 61.6856 18.0961 60.8385 18.0961H40.0193C39.1729 18.0961 38.4858 18.7826 38.4858 19.6296C38.4858 20.4767 39.1729 21.1632 40.0193 21.1632H59.3049V26.684H51.6371C50.7907 26.684 50.1036 27.3705 50.1036 28.2176V38.0324C50.1036 38.8794 50.7907 39.566 51.6371 39.566H59.3049V44.7801H50.3084C49.4614 44.7801 48.7749 45.4666 48.7749 46.3136V53.368H44.1742C43.3271 53.368 42.6406 54.0545 42.6406 54.9016V64.7164C42.6406 65.5634 43.3271 66.2499 44.1742 66.2499H56.4427C57.2891 66.2499 57.9762 65.5634 57.9762 64.7164V54.9016C57.9762 54.0545 57.2891 53.368 56.4427 53.368H51.842V47.8472H69.8356V53.368H65.2349C64.3879 53.368 63.7013 54.0545 63.7013 54.9016V64.7164C63.7013 65.5634 64.3879 66.2499 65.2349 66.2499H77.5034C78.3505 66.2499 79.037 65.5634 79.037 64.7164V54.9016C79.037 54.0545 78.3505 53.368 77.5034 53.368ZM53.1707 29.7511H68.5063V36.4988H53.1707V29.7511ZM54.9091 63.1828H45.7077V56.4351H54.9091V63.1828ZM75.9698 63.1828H66.7685V56.4351H75.9698V63.1828Z" fill="#46B274"/>
</svg>
