<svg width="63" height="68" viewBox="0 0 63 68" fill="none" xmlns="http://www.w3.org/2000/svg">
<path fill-rule="evenodd" clip-rule="evenodd" d="M19.9735 42.5523C19.9735 41.593 20.7511 40.8154 21.7103 40.8154H26.9208C27.88 40.8154 28.6576 41.593 28.6576 42.5523V59.9205C28.6576 60.8797 27.88 61.6573 26.9208 61.6573C21.0493 61.6573 15.4069 61.6573 9.55254 61.6573C8.59332 61.6573 7.81571 60.8797 7.81571 59.9205V52.1048C7.81571 51.1456 8.59332 50.368 9.55254 50.368H13.8946V47.7627C13.8946 46.8035 14.6722 46.0259 15.6314 46.0259H19.9735V42.5523ZM22.5787 59.0521V43.4207H26.0524V59.0521H22.5787ZM16.4998 48.6311V59.0521H19.1051V48.6311H16.4998ZM10.421 52.9732V59.0521H13.0262V52.9732H10.421Z" fill="#46B274"/>
<path d="M21.8416 22.3954H9.1385C8.40828 22.3954 7.81552 22.9881 7.81552 23.7189C7.81552 24.4496 8.40828 25.0419 9.1385 25.0419H21.8416C22.5724 25.0419 23.1651 24.4496 23.1651 23.7189C23.1651 22.9881 22.5724 22.3954 21.8416 22.3954Z" fill="#46B274"/>
<path d="M21.8416 28.7473H9.1385C8.40828 28.7473 7.81552 29.3396 7.81552 30.0703C7.81552 30.801 8.40828 31.3938 9.1385 31.3938H21.8416C22.5724 31.3938 23.1651 30.801 23.1651 30.0703C23.1651 29.3396 22.5724 28.7473 21.8416 28.7473Z" fill="#46B274"/>
<path d="M20.5189 10.0071C20.5189 10.7321 21.1018 11.3197 21.8243 11.3295L19.8796 13.2742L16.5417 9.93677C16.0249 9.41999 15.1872 9.41999 14.6704 9.93677L8.20335 16.4038C7.68656 16.9206 7.68656 17.7583 8.20335 18.2751C8.46174 18.534 8.80023 18.6627 9.13873 18.6627C9.47723 18.6627 9.81624 18.534 10.0746 18.2751L15.6058 12.744L18.9437 16.0814C19.1918 16.3294 19.5282 16.469 19.8791 16.469C20.2305 16.469 20.567 16.3294 20.815 16.0814L23.6956 13.2008C23.7049 13.9233 24.293 14.5062 25.0175 14.5062C25.7483 14.5062 26.341 13.914 26.341 13.1832V10.0076C26.341 9.27632 25.7483 8.68408 25.0175 8.68408H21.8419C21.1111 8.68408 20.5189 9.27632 20.5189 10.0071Z" fill="#46B274"/>
<path fill-rule="evenodd" clip-rule="evenodd" d="M47.6062 23.8249C52.015 28.2337 52.015 35.3817 47.6062 39.7905C43.1975 44.1992 36.0494 44.1992 31.6407 39.7905C27.2319 35.3817 27.2319 28.2337 31.6407 23.8249C36.0494 19.4161 43.1975 19.4161 47.6062 23.8249ZM52.4186 37.2341C54.5617 32.176 53.5717 26.106 49.4484 21.9827C44.0222 16.5565 35.2247 16.5565 29.7985 21.9827C24.3723 27.4089 24.3723 36.2065 29.7985 41.6327C34.3765 46.2107 41.3544 46.9263 46.6826 43.7794L55.5876 52.6844C57.2833 54.38 60.0326 54.38 61.7282 52.6844C63.4239 50.9887 63.4239 48.2394 61.7282 46.5438L52.4186 37.2341ZM49.4484 42.8608L51.9047 40.4045L59.8861 48.3859C60.5643 49.0642 60.5643 50.1639 59.8861 50.8422C59.2078 51.5205 58.1081 51.5205 57.4298 50.8422L49.4484 42.8608Z" fill="#46B274"/>
<path d="M2.60524 65.1309V2.60524H48.6311V25.184H51.2363V1.73682C51.2363 0.777603 50.4587 0 49.4995 0H1.73682C0.777603 0 0 0.777603 0 1.73682V65.9993C0 66.9586 0.777602 67.7362 1.73682 67.7362H49.4995C50.4587 67.7362 51.2363 66.9586 51.2363 65.9993V45.1574H48.6311V65.1309H2.60524Z" fill="#46B274"/>
</svg>
