<svg width="71" height="73" viewBox="0 0 71 73" fill="none" xmlns="http://www.w3.org/2000/svg">
<path d="M19.1369 57.6167H1.38673C0.620778 57.6167 0 58.2375 0 59.0034V71.3453C0 72.1113 0.620778 72.732 1.38673 72.732H19.1369C19.9028 72.732 20.5236 72.1113 20.5236 71.3453V59.0034C20.5236 58.2375 19.9028 57.6167 19.1369 57.6167ZM17.7501 69.9586H2.77346V60.3902H17.7501V69.9586Z" fill="#46B274"/>
<path d="M44.3753 49.851H26.6252C25.8592 49.851 25.2385 50.4717 25.2385 51.2377V71.3452C25.2385 72.1112 25.8592 72.732 26.6252 72.732H44.3753C45.1407 72.732 45.7621 72.1112 45.7621 71.3452V51.2377C45.7621 50.4717 45.1407 49.851 44.3753 49.851ZM42.9886 69.9585H28.0119V52.6244H42.9886V69.9585Z" fill="#46B274"/>
<path d="M69.6133 36.5385H51.8637C51.0978 36.5385 50.477 37.1592 50.477 37.9252V71.3453C50.477 72.1113 51.0978 72.7321 51.8637 72.7321H69.6133C70.3793 72.7321 71 72.1113 71 71.3453V37.9252C71 37.1592 70.3793 36.5385 69.6133 36.5385ZM68.2266 69.9586H53.2504V39.3119H68.2266V69.9586Z" fill="#46B274"/>
<path d="M16.2368 21.5798C16.4047 21.5798 16.5753 21.5494 16.7416 21.4844L57.5396 5.53761L57.2341 6.2288C56.9248 6.92921 57.2417 7.74771 57.9426 8.05755C58.1246 8.13772 58.3148 8.17618 58.5016 8.17618C59.0347 8.17618 59.5422 7.86742 59.7714 7.34902L61.4262 3.60215C61.7355 2.9012 61.4187 2.0827 60.7182 1.7734L56.9708 0.118531C56.2704 -0.190774 55.4514 0.126115 55.1421 0.826521C54.8328 1.52693 55.1497 2.34596 55.8506 2.65527L56.5283 2.95482L15.7319 18.9017C15.0185 19.1801 14.6664 19.9845 14.9448 20.6979C15.1593 21.245 15.6826 21.5798 16.2368 21.5798Z" fill="#46B274"/>
<path fill-rule="evenodd" clip-rule="evenodd" d="M0.0355135 52.3841L0.0166305 53.7653C0.00748275 54.4344 0.547363 54.9817 1.21652 54.9817H19.5639C20.2331 54.9817 20.773 54.4344 20.7638 53.7652L20.7449 52.3841C20.3049 47.0509 15.837 42.8597 10.3902 42.8597C4.9434 42.8597 0.475498 47.0509 0.0355135 52.3841ZM10.3902 45.4573C14.4013 45.4573 17.7046 48.4878 18.1353 52.3841H2.64507C3.07578 48.4878 6.37908 45.4573 10.3902 45.4573Z" fill="#46B274"/>
<path fill-rule="evenodd" clip-rule="evenodd" d="M10.3903 39.3963C11.8248 39.3963 12.9878 38.2334 12.9878 36.7988C12.9878 35.3642 11.8248 34.2012 10.3903 34.2012C8.95566 34.2012 7.79269 35.3642 7.79269 36.7988C7.79269 38.2334 8.95566 39.3963 10.3903 39.3963ZM10.3903 41.9939C13.2594 41.9939 15.5854 39.6679 15.5854 36.7988C15.5854 33.9296 13.2594 31.6036 10.3903 31.6036C7.52106 31.6036 5.19513 33.9296 5.19513 36.7988C5.19513 39.6679 7.52106 41.9939 10.3903 41.9939Z" fill="#46B274"/>
<path fill-rule="evenodd" clip-rule="evenodd" d="M25.1453 44.5914L25.1264 45.9726C25.1172 46.6417 25.6571 47.189 26.3263 47.189H44.6737C45.3428 47.189 45.8827 46.6416 45.8735 45.9725L45.8546 44.5914C45.4146 39.2582 40.9467 35.067 35.4999 35.067C30.0531 35.067 25.5852 39.2582 25.1453 44.5914ZM35.4999 37.6646C39.511 37.6646 42.8143 40.6951 43.2451 44.5914H27.7548C28.1855 40.6951 31.4888 37.6646 35.4999 37.6646Z" fill="#46B274"/>
<path fill-rule="evenodd" clip-rule="evenodd" d="M35.4999 31.6036C36.9345 31.6036 38.0975 30.4406 38.0975 29.006C38.0975 27.5714 36.9345 26.4085 35.4999 26.4085C34.0653 26.4085 32.9024 27.5714 32.9024 29.006C32.9024 30.4406 34.0653 31.6036 35.4999 31.6036ZM35.4999 34.2012C38.3691 34.2012 40.6951 31.8752 40.6951 29.006C40.6951 26.1368 38.3691 23.8109 35.4999 23.8109C32.6307 23.8109 30.3048 26.1368 30.3048 29.006C30.3048 31.8752 32.6307 34.2012 35.4999 34.2012Z" fill="#46B274"/>
<path fill-rule="evenodd" clip-rule="evenodd" d="M50.2551 31.1707L50.2362 32.5519C50.227 33.221 50.7669 33.7683 51.4361 33.7683H69.7835C70.4526 33.7683 70.9925 33.221 70.9833 32.5519L70.9644 31.1707C70.5244 25.8375 66.0565 21.6464 60.6097 21.6464C55.1629 21.6464 50.695 25.8375 50.2551 31.1707ZM60.6097 24.2439C64.6208 24.2439 67.9241 27.2745 68.3549 31.1707H52.8646C53.2953 27.2745 56.5986 24.2439 60.6097 24.2439Z" fill="#46B274"/>
<path fill-rule="evenodd" clip-rule="evenodd" d="M60.6098 18.1829C62.0444 18.1829 63.2074 17.02 63.2074 15.5854C63.2074 14.1508 62.0444 12.9878 60.6098 12.9878C59.1752 12.9878 58.0122 14.1508 58.0122 15.5854C58.0122 17.02 59.1752 18.1829 60.6098 18.1829ZM60.6098 20.7805C63.479 20.7805 65.8049 18.4546 65.8049 15.5854C65.8049 12.7162 63.479 10.3903 60.6098 10.3903C57.7406 10.3903 55.4147 12.7162 55.4147 15.5854C55.4147 18.4546 57.7406 20.7805 60.6098 20.7805Z" fill="#46B274"/>
</svg>
