<svg width="86" height="27" viewBox="0 0 86 27" fill="none" xmlns="http://www.w3.org/2000/svg">
<path fill-rule="evenodd" clip-rule="evenodd" d="M22.5865 10.5428C24.3728 10.5428 25.9752 11.2579 27.3938 12.6882V10.9566H30.9559V25.882H27.3938V24.319C25.9332 25.6471 24.3623 26.3111 22.681 26.3111C20.5584 26.3111 18.8037 25.5654 17.4166 24.0738C16.0401 22.5516 15.3519 20.6515 15.3519 18.3733C15.3519 16.136 16.0401 14.2717 17.4166 12.7801C18.7932 11.2886 20.5164 10.5428 22.5865 10.5428ZM59.9439 10.5345C62.014 10.5345 63.7372 11.2803 65.1137 12.7718C66.4903 14.2634 67.1785 16.1277 67.1785 18.365C67.1785 20.6432 66.4903 22.5433 65.1137 24.0655C63.7267 25.5571 61.9719 26.3028 59.8493 26.3028C58.1681 26.3028 56.5972 25.6388 55.1366 24.3107V25.8737H51.5745V10.9483H55.1366V12.6799C56.5552 11.2496 58.1576 10.5345 59.9439 10.5345ZM73.8478 11L77.268 15.352L80.7514 11H85.1016L79.4274 17.8498L86 25.9255H81.7759L77.268 20.3476L72.6499 25.9255H68.3154L75.1402 17.8498L69.6236 11H73.8478ZM47.017 10.9566V25.882H43.4706V10.9566H47.017ZM38.9786 10.9566V25.882H35.4322V10.9566H38.9786ZM3.54637 0V15.7836L8.54282 10.9566H13.3028L6.63566 17.224L13.7914 25.882H9.18904L4.11379 19.5839L3.54637 20.1356V25.882H0V0H3.54637ZM23.2484 13.6536C22.0295 13.6536 21.0103 14.1031 20.1907 15.0021C19.3816 15.9113 18.977 17.035 18.977 18.3733C18.977 19.8036 19.3711 20.9682 20.1592 21.8672C20.9683 22.7764 21.9875 23.231 23.2169 23.231C24.5304 23.231 25.5917 22.7917 26.4008 21.9132C27.2099 21.0039 27.6144 19.8495 27.6144 18.45C27.6144 17.0504 27.2099 15.896 26.4008 14.9868C25.5917 14.098 24.5409 13.6536 23.2484 13.6536ZM59.2819 13.6453C57.9895 13.6453 56.9387 14.0897 56.1296 14.9785C55.3205 15.8877 54.916 17.0421 54.916 18.4417C54.916 19.8412 55.3205 20.9956 56.1296 21.9049C56.9387 22.7834 58 23.2227 59.3135 23.2227C60.5429 23.2227 61.5621 22.7681 62.3712 21.8589C63.1593 20.9599 63.5533 19.7953 63.5533 18.365C63.5533 17.0267 63.1488 15.903 62.3397 14.9938C61.5201 14.0948 60.5008 13.6453 59.2819 13.6453ZM45.236 2.52844C45.8769 2.52844 46.4233 2.74808 46.8752 3.18737C47.327 3.61644 47.5529 4.14255 47.5529 4.76573C47.5529 5.3889 47.327 5.92013 46.8752 6.35941C46.4338 6.7987 45.8927 7.01834 45.2517 7.01834C44.6107 7.01834 44.0643 6.7987 43.6125 6.35941C43.1607 5.92013 42.9348 5.38379 42.9348 4.7504C42.9348 4.14766 43.1607 3.62666 43.6125 3.18737C44.0643 2.74808 44.6055 2.52844 45.236 2.52844ZM37.1975 2.52844C37.8385 2.52844 38.3849 2.74808 38.8367 3.18737C39.2886 3.61644 39.5145 4.14255 39.5145 4.76573C39.5145 5.3889 39.2886 5.92013 38.8367 6.35941C38.3954 6.7987 37.8542 7.01834 37.2133 7.01834C36.5723 7.01834 36.0259 6.7987 35.5741 6.35941C35.1222 5.92013 34.8963 5.38379 34.8963 4.7504C34.8963 4.14766 35.1222 3.62666 35.5741 3.18737C36.0259 2.74808 36.567 2.52844 37.1975 2.52844Z" fill="black"/>
</svg>
