<svg width="59" height="67" viewBox="0 0 59 67" fill="none" xmlns="http://www.w3.org/2000/svg">
<path d="M29.5699 52.532C40.2119 52.532 48.839 43.9049 48.839 33.2628C48.839 22.6208 40.2119 13.9937 29.5699 13.9937C18.9278 13.9937 10.3008 22.6208 10.3008 33.2628C10.3008 43.9049 18.9278 52.532 29.5699 52.532Z" stroke="#46B274" stroke-width="2.4" stroke-miterlimit="10"/>
<path d="M29.8 40C31.1807 40 32.3 38.8807 32.3 37.5C32.3 36.1193 31.1807 35 29.8 35C28.4193 35 27.3 36.1193 27.3 37.5C27.3 38.8807 28.4193 40 29.8 40Z" stroke="#46B274" stroke-width="2.4" stroke-miterlimit="10"/>
<path d="M29.5698 7.87284C31.1975 7.87284 32.5169 6.55341 32.5169 4.9258C32.5169 3.2982 31.1975 1.97876 29.5698 1.97876C27.9422 1.97876 26.6228 3.2982 26.6228 4.9258C26.6228 6.55341 27.9422 7.87284 29.5698 7.87284Z" stroke="#46B274" stroke-width="2.4" stroke-miterlimit="10"/>
<path d="M29.5699 13.9937V7.64624" stroke="#46B274" stroke-width="2.4" stroke-miterlimit="10"/>
<path d="M29.5698 65C31.1975 65 32.5169 63.6806 32.5169 62.053C32.5169 60.4254 31.1975 59.106 29.5698 59.106C27.9422 59.106 26.6228 60.4254 26.6228 62.053C26.6228 63.6806 27.9422 65 29.5698 65Z" stroke="#46B274" stroke-width="2.4" stroke-miterlimit="10"/>
<path d="M29.5699 52.9854V59.3328" stroke="#46B274" stroke-width="2.4" stroke-miterlimit="10"/>
<path d="M4.94704 51.4809C6.57465 51.4809 7.89408 50.1614 7.89408 48.5338C7.89408 46.9062 6.57465 45.5868 4.94704 45.5868C3.31944 45.5868 2 46.9062 2 48.5338C2 50.1614 3.31944 51.4809 4.94704 51.4809Z" stroke="#46B274" stroke-width="2.4" stroke-miterlimit="10"/>
<path d="M12.6547 44L7.21399 47.1737" stroke="#46B274" stroke-width="2.4" stroke-miterlimit="10"/>
<path d="M4.94704 15.0001C6.57465 15.0001 7.89408 16.3195 7.89408 17.9471C7.89408 19.5747 6.57465 20.8942 4.94704 20.8942C3.31944 20.8942 2 19.5747 2 17.9471C2 16.3195 3.31944 15.0001 4.94704 15.0001Z" stroke="#46B274" stroke-width="2.4" stroke-miterlimit="10"/>
<path d="M12.6547 22.481L7.21399 19.3072" stroke="#46B274" stroke-width="2.4" stroke-miterlimit="10"/>
<path d="M54.053 15.0001C52.4254 15.0001 51.1059 16.3195 51.1059 17.9471C51.1059 19.5747 52.4254 20.8942 54.053 20.8942C55.6806 20.8942 57 19.5747 57 17.9471C57 16.3195 55.6806 15.0001 54.053 15.0001Z" stroke="#46B274" stroke-width="2.4" stroke-miterlimit="10"/>
<path d="M46.3453 22.481L51.786 19.3072" stroke="#46B274" stroke-width="2.4" stroke-miterlimit="10"/>
<path d="M53.947 52.3051C55.5746 52.3051 56.8941 50.9857 56.8941 49.3581C56.8941 47.7304 55.5746 46.411 53.947 46.411C52.3194 46.411 51 47.7304 51 49.3581C51 50.9857 52.3194 52.3051 53.947 52.3051Z" stroke="#46B274" stroke-width="2.4" stroke-miterlimit="10"/>
<path d="M46.3453 44.8242L51.786 47.998" stroke="#46B274" stroke-width="2.4" stroke-miterlimit="10"/>
<path d="M35.0891 43.8287H24.2394C22.6516 43.8287 21.5931 42.7702 21.5931 41.1824V32.4497C21.5931 30.862 22.6516 29.8035 24.2394 29.8035H35.3537C36.9415 29.8035 38 30.862 38 32.4497V41.1824C37.7354 42.5056 36.6769 43.8287 35.0891 43.8287Z" stroke="#46B274" stroke-width="2.4" stroke-miterlimit="10"/>
<path d="M24.504 29.0098C24.504 25.5697 26.8856 22.9234 29.7965 22.9234C32.7074 22.9234 35.0891 25.5697 35.0891 29.0098" stroke="#46B274" stroke-width="2.4" stroke-miterlimit="10"/>
</svg>
