<svg width="61" height="63" viewBox="0 0 61 63" fill="none" xmlns="http://www.w3.org/2000/svg">
<path d="M31.9705 16.1718C31.7041 14.8272 31.1713 13.4827 30.3721 12.407L32.2369 8.37328L30.1057 5.95304L26.3759 8.10436C25.0439 7.29762 23.7118 6.75979 22.3798 6.49087L20.7813 1.91931H17.5844L16.2523 6.22196C14.9203 6.49087 13.5882 7.0287 12.5226 7.83545L8.26001 5.68413L6.12872 8.10436L8.26001 12.1381C7.19436 13.4827 6.66154 14.8272 6.39513 16.1718L2.13257 17.5164V20.7434L6.39513 22.088C6.66154 23.4325 7.19437 24.7771 7.9936 26.1217L6.12872 30.4243L8.26001 32.8446L12.5226 30.6933C13.5882 31.5 14.9203 31.7689 16.2523 32.3067L17.5844 36.6094H20.7813L22.1133 32.3067C23.4454 32.0378 24.7774 31.5 26.1095 30.6933" stroke="#46B274" stroke-width="2.4" stroke-miterlimit="10"/>
<path d="M25.8431 24.2393C24.2446 26.3906 21.847 27.4663 19.1829 27.4663C14.6539 27.4663 10.9241 23.7015 10.9241 19.1299C10.9241 14.5583 14.6539 10.7935 19.1829 10.7935C22.6462 10.7935 25.5767 12.9448 26.9088 15.9029L27.268 16.9786" stroke="#46B274" stroke-width="2.4" stroke-miterlimit="10"/>
<path d="M41.9929 19.9202C39.6672 21.7642 36.76 22.5544 33.8528 22.8179H32.1085V31.511V32.3012C32.1085 39.4138 42.8651 44.9457 42.8651 44.9457C42.8651 44.9457 53.6217 39.1503 53.6217 32.3012V31.511V22.8179H51.8774C48.9702 22.8179 46.063 21.7642 43.7372 19.9202L42.8651 19.1299L41.9929 19.9202Z" stroke="#46B274" stroke-width="2.4" stroke-miterlimit="10" stroke-linecap="round" stroke-linejoin="round"/>
<path d="M41.1969 12.6759C37.8059 15.634 33.2844 17.2475 28.4804 17.2475H25.9371L25.6545 31.5V32.8446C25.6545 44.4079 42.3273 53.5511 42.3273 53.5511C42.3273 53.5511 59 44.139 59 32.8446V31.5V17.2475H56.4567C51.9353 17.2475 47.4139 15.634 43.7402 12.6759L42.6099 11.6003L41.1969 12.6759Z" stroke="#46B274" stroke-width="2.4" stroke-miterlimit="10" stroke-linecap="round" stroke-linejoin="round"/>
<path d="M37.4868 32.5757L41.4829 36.3405L48.676 29.0798" stroke="#46B274" stroke-width="2.4" stroke-miterlimit="10" stroke-linecap="round" stroke-linejoin="round"/>
<path d="M54.9037 44.9457L58.367 55.9713L53.838 53.551L51.1739 61.0807L48.2434 51.3997" stroke="#46B274" stroke-width="2.4" stroke-miterlimit="10" stroke-linecap="round" stroke-linejoin="round"/>
<path d="M29.9271 44.9457L26.7302 55.9713L31.2591 53.551L33.9232 61.0807L36.5873 51.3997" stroke="#46B274" stroke-width="2.4" stroke-miterlimit="10" stroke-linecap="round" stroke-linejoin="round"/>
</svg>
