<svg width="54" height="54" viewBox="0 0 54 54" fill="none" xmlns="http://www.w3.org/2000/svg">
<path d="M49.3017 51.9H4.69835C3.02573 51.9 1.91064 50.7849 1.91064 49.1123V4.78771C1.91064 3.11508 3.02573 2 4.69835 2H49.3017C50.9743 2 52.0894 3.11508 52.0894 4.78771V49.1123C52.0894 50.7849 50.9743 51.9 49.3017 51.9Z" stroke="#46B274" stroke-width="2.4" stroke-miterlimit="10"/>
<path d="M2.18933 12.5934H51.8105" stroke="#46B274" stroke-width="2.4" stroke-miterlimit="10"/>
<path d="M10.2737 47.4398C12.1212 47.4398 13.619 45.942 13.619 44.0945C13.619 42.247 12.1212 40.7493 10.2737 40.7493C8.42619 40.7493 6.92847 42.247 6.92847 44.0945C6.92847 45.942 8.42619 47.4398 10.2737 47.4398Z" stroke="#46B274" stroke-width="2.4" stroke-miterlimit="10"/>
<path d="M21.4245 47.4398C23.272 47.4398 24.7697 45.942 24.7697 44.0945C24.7697 42.247 23.272 40.7493 21.4245 40.7493C19.5769 40.7493 18.0792 42.247 18.0792 44.0945C18.0792 45.942 19.5769 47.4398 21.4245 47.4398Z" stroke="#46B274" stroke-width="2.4" stroke-miterlimit="10"/>
<path d="M32.5754 47.4398C34.4229 47.4398 35.9207 45.942 35.9207 44.0945C35.9207 42.247 34.4229 40.7493 32.5754 40.7493C30.7279 40.7493 29.2302 42.247 29.2302 44.0945C29.2302 45.942 30.7279 47.4398 32.5754 47.4398Z" stroke="#46B274" stroke-width="2.4" stroke-miterlimit="10"/>
<path d="M43.7262 47.4398C45.5738 47.4398 47.0715 45.942 47.0715 44.0945C47.0715 42.247 45.5738 40.7493 43.7262 40.7493C41.8787 40.7493 40.381 42.247 40.381 44.0945C40.381 45.942 41.8787 47.4398 43.7262 47.4398Z" stroke="#46B274" stroke-width="2.4" stroke-miterlimit="10"/>
<path d="M28.9515 35.1736H8.60119C7.76488 35.1736 7.20734 34.616 7.20734 33.7797V19.2836C7.20734 18.4473 7.76488 17.8898 8.60119 17.8898H28.9515C29.7878 17.8898 30.3453 18.4473 30.3453 19.2836V33.7797C30.3453 34.616 29.7878 35.1736 28.9515 35.1736Z" stroke="#46B274" stroke-width="2.4" stroke-miterlimit="10"/>
<path d="M7.20734 34.0588L15.0129 23.7443L22.5397 34.8951" stroke="#46B274" stroke-width="2.4" stroke-miterlimit="10" stroke-linecap="round" stroke-linejoin="round"/>
<path d="M29.509 33.5011L23.9336 25.4167L20.5883 31.2709" stroke="#46B274" stroke-width="2.4" stroke-miterlimit="10" stroke-linecap="round" stroke-linejoin="round"/>
<path d="M34.8056 17.8898H47.6291" stroke="#46B274" stroke-width="2.4" stroke-miterlimit="10"/>
<path d="M34.8056 23.4651H47.6291" stroke="#46B274" stroke-width="2.4" stroke-miterlimit="10"/>
<path d="M34.8056 29.0407H47.6291" stroke="#46B274" stroke-width="2.4" stroke-miterlimit="10"/>
<path d="M34.8056 34.616H47.6291" stroke="#46B274" stroke-width="2.4" stroke-miterlimit="10"/>
</svg>
