<svg width="69" height="66" viewBox="0 0 69 66" fill="none" xmlns="http://www.w3.org/2000/svg">
<path d="M55.2 25.0303V61.5285C55.2 63.1751 54.1754 64.2728 52.6385 64.2728H14.2154" stroke="#46B274" stroke-width="2.4" stroke-miterlimit="10"/>
<path d="M11.9385 35.1212V8.46131C11.9385 6.96636 12.9702 5.96973 14.5178 5.96973H44.9538" stroke="#46B274" stroke-width="2.4" stroke-miterlimit="10"/>
<path d="M11.9385 14.9394H42.6769" stroke="#46B274" stroke-width="2.4" stroke-miterlimit="10"/>
<path d="M44.3075 64.1529H4.36957C2.84328 64.1529 1.82576 63.1601 1.82576 61.6709V38.5876C1.82576 37.0984 2.84328 36.1055 4.36957 36.1055H44.3075C45.8338 36.1055 46.8513 37.0984 46.8513 38.5876V61.6709C46.8513 63.1601 45.8338 64.1529 44.3075 64.1529Z" stroke="#46B274" stroke-width="2.4" stroke-miterlimit="10"/>
<path d="M1.57137 44.5446H46.8513" stroke="#46B274" stroke-width="2.4" stroke-miterlimit="10"/>
<path d="M18.3731 23.1987H38.978" stroke="#46B274" stroke-width="2.4" stroke-miterlimit="10"/>
<path d="M18.3731 28.6593H38.978" stroke="#46B274" stroke-width="2.4" stroke-miterlimit="10"/>
<path d="M26.7551 50.2533L32.0971 53.48L27.0095 57.6995" stroke="#46B274" stroke-width="2.4" stroke-miterlimit="10"/>
<path d="M16.5799 50.2533L11.7466 53.7282L16.8343 58.1959" stroke="#46B274" stroke-width="2.4" stroke-miterlimit="10"/>
<path d="M22.9394 47.7712L20.3956 60.1815" stroke="#46B274" stroke-width="2.4" stroke-miterlimit="10"/>
<path d="M66.8137 14.9872V12.6492L63.6681 11.597C63.4306 10.6033 63.0745 9.72657 62.5404 8.84979L63.9648 6.0441L62.303 4.40745L59.4541 5.8103C58.5639 5.22578 57.5549 4.81662 56.4866 4.58281L55.4182 1.48486H53.0442L51.9759 4.58281C50.9669 4.81662 50.0173 5.22578 49.1864 5.69339L46.2188 4.17365L44.557 5.86875L46.0408 8.79134C45.5066 9.66812 45.0912 10.6033 44.8538 11.597L41.7081 12.6492V14.9872L44.8538 16.0394C45.0912 17.0915 45.5066 18.0267 46.1001 18.9035L44.557 21.8845L46.2188 23.5212L49.3051 22.0015C50.136 22.4691 51.0263 22.8782 51.9759 23.0536L53.0442 26.1515H55.4182L56.4866 23.0536C57.4955 22.8198 58.5045 22.4106 59.3948 21.8845L62.303 23.3458L63.9648 21.7092L62.481 18.7866C63.0152 17.9683 63.4306 17.033 63.6681 16.0394L66.8137 14.9872Z" stroke="#46B274" stroke-width="2.4" stroke-miterlimit="10"/>
<path d="M54.4521 19.056C57.2674 19.056 59.5496 16.8083 59.5496 14.0356C59.5496 11.263 57.2674 9.01532 54.4521 9.01532C51.6368 9.01532 49.3545 11.263 49.3545 14.0356C49.3545 16.8083 51.6368 19.056 54.4521 19.056Z" stroke="#46B274" stroke-width="2.4" stroke-miterlimit="10"/>
</svg>
