<svg width="50" height="50" viewBox="0 0 50 50" fill="none" xmlns="http://www.w3.org/2000/svg">
<path d="M4.49219 29.8656V43.5547C4.49219 45.7085 6.24466 47.4609 8.39844 47.4609C10.5522 47.4609 12.3047 45.7085 12.3047 43.5547V35.7422H13.2812C14.8968 35.7422 16.2109 34.428 16.2109 32.8125V29.8443C22.089 30.0529 27.9308 31.9992 32.4219 35.2604V36.7188C32.4219 38.3343 33.736 39.6484 35.3516 39.6484C36.9671 39.6484 38.2812 38.3343 38.2812 36.7188V25.8781C40.5075 25.4246 42.1875 23.452 42.1875 21.0938C42.1875 18.7355 40.5075 16.7629 38.2812 16.3094V5.46875C38.2812 3.85017 36.9701 2.53906 35.3516 2.53906C33.736 2.53906 32.4219 3.85323 32.4219 5.46875V6.92749C27.2633 10.701 20.2461 12.7087 13.5742 12.3211C13.4979 12.3165 4.88281 12.3047 4.88281 12.3047C2.1904 12.3047 0 14.4951 0 17.1875V25C0 27.5608 1.98212 29.6658 4.49219 29.8656ZM10.3516 43.5547C10.3516 44.6316 9.47533 45.5078 8.39844 45.5078C7.32155 45.5078 6.44531 44.6316 6.44531 43.5547V29.8828H10.3516V43.5547ZM13.2812 33.7891H12.3047V29.8828H13.2812C13.3537 29.8828 13.6879 29.8557 14.2578 29.8378V32.8125C14.2578 33.3511 13.8199 33.7891 13.2812 33.7891ZM40.2344 21.0938C40.2344 22.3667 39.418 23.4524 38.2812 23.8556V18.3319C39.418 18.7351 40.2344 19.8208 40.2344 21.0938ZM34.375 5.46875C34.375 4.93011 34.8129 4.49219 35.3516 4.49219C35.8906 4.49219 36.3281 4.92935 36.3281 5.46875V36.7188C36.3281 37.2574 35.8902 37.6953 35.3516 37.6953C34.8129 37.6953 34.375 37.2574 34.375 36.7188V5.46875ZM32.4219 9.30099V32.8903C27.5204 29.7009 21.3551 27.8862 15.2374 27.8709C14.912 27.8702 14.5844 27.8744 14.2578 27.8839V14.3063C20.6432 14.5065 27.2579 12.6766 32.4219 9.30099ZM1.95312 17.1875C1.95312 15.572 3.26729 14.2578 4.88281 14.2578H12.3047V27.9297C10.5 27.9297 6.11229 27.9297 4.88281 27.9297C3.26729 27.9297 1.95312 26.6155 1.95312 25V17.1875Z" fill="#46B274"/>
<path d="M49.0234 20.1172H45.1172C44.5778 20.1172 44.1406 20.5544 44.1406 21.0938C44.1406 21.6331 44.5778 22.0703 45.1172 22.0703H49.0234C49.5628 22.0703 50 21.6331 50 21.0938C50 20.5544 49.5628 20.1172 49.0234 20.1172Z" fill="#46B274"/>
<path d="M45.3739 15.2142L48.1369 12.4523C48.518 12.0708 48.5184 11.4529 48.1369 11.0714C47.7558 10.6899 47.1374 10.6895 46.756 11.071L43.993 13.8329C43.6119 14.2143 43.6115 14.8323 43.993 15.2138C44.3741 15.5952 44.9924 15.5956 45.3739 15.2142Z" fill="#46B274"/>
<path d="M46.756 31.1165C47.1371 31.4976 47.7554 31.4976 48.1369 31.1161C48.5184 30.7346 48.518 30.1167 48.1369 29.7352L45.3739 26.9733C44.9928 26.5923 44.3745 26.5923 43.993 26.9737C43.6115 27.3552 43.6119 27.9732 43.993 28.3546L46.756 31.1165Z" fill="#46B274"/>
</svg>
