<svg width="50" height="50" viewBox="0 0 50 50" fill="none" xmlns="http://www.w3.org/2000/svg">
<g clip-path="url(#clip0)">
<path d="M2.92969 50H35.3516C36.9671 50 38.2812 48.6858 38.2812 47.0703V10.7422C38.2812 10.4794 38.1733 10.2295 37.9951 10.0517L28.2295 0.286102C28.2234 0.279999 28.2166 0.274658 28.2104 0.268936C28.1937 0.252914 28.1769 0.236893 28.159 0.222015C28.1513 0.215912 28.1429 0.21019 28.1349 0.204086C28.1178 0.190735 28.1002 0.177383 28.0823 0.165176C28.0758 0.160599 28.0689 0.157166 28.0621 0.152969C28.0418 0.139999 28.0212 0.127029 27.9999 0.115585C27.9957 0.113296 27.9907 0.111389 27.9861 0.1091C27.9625 0.0965118 27.9385 0.0850678 27.9137 0.0747681C27.9106 0.0732422 27.9072 0.0724793 27.9045 0.0713349C27.8782 0.0606537 27.8511 0.0507354 27.8236 0.0423432C27.8206 0.0415802 27.8172 0.0408173 27.8137 0.0396729C27.7866 0.0320435 27.7596 0.0247955 27.7313 0.0190734C27.7233 0.0175477 27.7149 0.0167847 27.7065 0.0152588C27.6836 0.0114441 27.6604 0.00724793 27.6367 0.0049591C27.6043 0.00152588 27.5719 0 27.5391 0H2.92969C1.31416 0 0 1.31416 0 2.92969V47.0703C0 48.6858 1.31416 50 2.92969 50ZM28.5156 3.33443L34.9468 9.76562H28.5156V3.33443ZM1.95312 2.92969C1.95312 2.39105 2.39105 1.95312 2.92969 1.95312H26.5625V10.7422C26.5625 11.2816 26.9997 11.7188 27.5391 11.7188H36.3281V47.0703C36.3281 47.6089 35.8902 48.0469 35.3516 48.0469H2.92969C2.39105 48.0469 1.95312 47.6089 1.95312 47.0703V2.92969Z" fill="#46B274"/>
<path d="M15.2344 23.4375C20.0806 23.4375 24.0234 19.4946 24.0234 14.6484C24.0234 9.80225 20.0806 5.85938 15.2344 5.85938C10.3882 5.85938 6.44531 9.80225 6.44531 14.6484C6.44531 19.4946 10.3882 23.4375 15.2344 23.4375ZM21.9994 13.6719H16.2109V7.88345C19.2001 8.31299 21.5698 10.6827 21.9994 13.6719ZM14.2578 7.88345V14.6484C14.2578 15.1878 14.695 15.6239 15.2344 15.6239H21.9994C21.524 18.9323 18.6722 21.4844 15.2344 21.4844C11.4651 21.4844 8.39844 18.4177 8.39844 14.6484C8.39844 11.2106 10.9497 8.35876 14.2578 7.88345Z" fill="#46B274"/>
<path d="M7.22656 28.9062C7.22656 29.4456 7.66373 29.8828 8.20312 29.8828H28.9062C29.4456 29.8828 29.8828 29.4456 29.8828 28.9062C29.8828 28.3669 29.4456 27.9297 28.9062 27.9297H8.20312C7.66373 27.9297 7.22656 28.3669 7.22656 28.9062Z" fill="#46B274"/>
<path d="M28.9062 33.7891H8.20312C7.66373 33.7891 7.22656 34.2262 7.22656 34.7656C7.22656 35.305 7.66373 35.7422 8.20312 35.7422H28.9062C29.4456 35.7422 29.8828 35.305 29.8828 34.7656C29.8828 34.2262 29.4456 33.7891 28.9062 33.7891Z" fill="#46B274"/>
<path d="M28.9062 39.6484H8.20312C7.66373 39.6484 7.22656 40.0856 7.22656 40.625C7.22656 41.1644 7.66373 41.6016 8.20312 41.6016H28.9062C29.4456 41.6016 29.8828 41.1644 29.8828 40.625C29.8828 40.0856 29.4456 39.6484 28.9062 39.6484Z" fill="#46B274"/>
<path d="M46.0938 0C43.94 0 42.1875 1.75247 42.1875 3.90625V41.2109C42.1875 41.3143 42.2092 41.4463 42.2497 41.5539L45.1794 49.3664C45.3224 49.7475 45.6867 50 46.0938 50C46.5008 50 46.8651 49.7475 47.0081 49.3664L49.9378 41.5539C49.9783 41.4463 50 41.3151 50 41.2109V3.90625C50 1.74828 48.2521 0 46.0938 0ZM44.1406 7.8125H48.0469V9.76562H44.1406V7.8125ZM44.1406 11.7188H48.0469V40.2344H44.1406V11.7188ZM46.0938 1.95312C47.1725 1.95312 48.0469 2.82745 48.0469 3.90625V5.85938H44.1406V3.90625C44.1406 2.82936 45.0169 1.95312 46.0938 1.95312ZM46.0938 46.2421L44.5732 42.1875H47.6143L46.0938 46.2421Z" fill="#46B274"/>
</g>
<defs>
<clipPath id="clip0">
<rect width="50" height="50" fill="white"/>
</clipPath>
</defs>
</svg>
