<svg width="50" height="50" viewBox="0 0 50 50" fill="none" xmlns="http://www.w3.org/2000/svg">
<path d="M1.5625 21.4844V30.2734C1.5625 30.8128 1.99966 31.25 2.53906 31.25H5.46875V45.1172C5.46875 45.6566 5.90591 46.0938 6.44531 46.0938H16.2109C16.7503 46.0938 17.1875 45.6566 17.1875 45.1172V35.1562H19.1406V49.0234C19.1406 49.5628 19.5778 50 20.1172 50H29.8828C30.4222 50 30.8594 49.5628 30.8594 49.0234V35.1562H32.8125V45.1172C32.8125 45.6566 33.2497 46.0938 33.7891 46.0938H43.5547C44.0941 46.0938 44.5312 45.6566 44.5312 45.1172V31.25H47.4609C48.0003 31.25 48.4375 30.8128 48.4375 30.2734V21.4844C48.4375 16.0995 44.0567 11.7188 38.6719 11.7188C34.8804 11.7188 31.6078 13.8786 29.9965 16.9964C28.4924 16.0961 26.7868 15.625 25 15.625C23.2132 15.625 21.508 16.0961 20.0035 16.9964C18.3929 13.8802 15.1211 11.7188 11.3281 11.7188C5.9433 11.7188 1.5625 16.0995 1.5625 21.4844ZM38.6719 13.6719C42.9798 13.6719 46.4844 17.1764 46.4844 21.4844V29.2969H43.5547C43.0153 29.2969 42.5781 29.734 42.5781 30.2734V44.1406H39.6484V30.2734C39.6484 29.734 39.2113 29.2969 38.6719 29.2969C38.1325 29.2969 37.6953 29.734 37.6953 30.2734V44.1406H34.7656C34.7656 43.148 34.7656 26.2016 34.7656 25.3906C34.7656 22.6822 33.6678 20.0863 31.5891 18.1843C32.8613 15.4633 35.6377 13.6719 38.6719 13.6719ZM32.8125 25.3906V33.2031H29.8828C29.3434 33.2031 28.9062 33.6403 28.9062 34.1797V48.0469H25.9766V38.0859C25.9766 37.5465 25.5394 37.1094 25 37.1094C24.4606 37.1094 24.0234 37.5465 24.0234 38.0859V48.0469H21.0938V34.1797C21.0938 33.6403 20.6566 33.2031 20.1172 33.2031H17.1875C17.1875 30.7148 17.1875 26.8051 17.1875 25.3906C17.1875 21.0636 20.6924 17.5781 25 17.5781C29.3098 17.5781 32.8125 21.0636 32.8125 25.3906ZM11.3281 13.6719C14.362 13.6719 17.1379 15.4625 18.4105 18.1831C16.3834 20.0325 15.2344 22.6192 15.2344 25.3906V44.1406H12.3047V30.2734C12.3047 29.734 11.8675 29.2969 11.3281 29.2969C10.7887 29.2969 10.3516 29.734 10.3516 30.2734V44.1406H7.42188V30.2734C7.42188 29.734 6.98471 29.2969 6.44531 29.2969H3.51562V21.4844C3.51562 17.1764 7.02019 13.6719 11.3281 13.6719Z" fill="#46B274"/>
<path d="M30.8594 9.76562C30.8594 6.53458 28.231 3.90625 25 3.90625C21.769 3.90625 19.1406 6.53458 19.1406 9.76562C19.1406 12.9967 21.769 15.625 25 15.625C28.231 15.625 30.8594 12.9967 30.8594 9.76562ZM25 13.6719C22.8462 13.6719 21.0938 11.9194 21.0938 9.76562C21.0938 7.61185 22.8462 5.85938 25 5.85938C27.1538 5.85938 28.9062 7.61185 28.9062 9.76562C28.9062 11.9194 27.1538 13.6719 25 13.6719Z" fill="#46B274"/>
<path d="M44.5312 5.85938C44.5312 2.62833 41.9029 0 38.6719 0C35.4408 0 32.8125 2.62833 32.8125 5.85938C32.8125 9.09042 35.4408 11.7188 38.6719 11.7188C41.9029 11.7188 44.5312 9.09042 44.5312 5.85938ZM38.6719 9.76562C36.5181 9.76562 34.7656 8.01315 34.7656 5.85938C34.7656 3.7056 36.5181 1.95312 38.6719 1.95312C40.8257 1.95312 42.5781 3.7056 42.5781 5.85938C42.5781 8.01315 40.8257 9.76562 38.6719 9.76562Z" fill="#46B274"/>
<path d="M17.1875 5.85938C17.1875 2.62833 14.5592 0 11.3281 0C8.09708 0 5.46875 2.62833 5.46875 5.85938C5.46875 9.09042 8.09708 11.7188 11.3281 11.7188C14.5592 11.7188 17.1875 9.09042 17.1875 5.85938ZM11.3281 9.76562C9.17435 9.76562 7.42188 8.01315 7.42188 5.85938C7.42188 3.7056 9.17435 1.95312 11.3281 1.95312C13.4819 1.95312 15.2344 3.7056 15.2344 5.85938C15.2344 8.01315 13.4819 9.76562 11.3281 9.76562Z" fill="#46B274"/>
</svg>
