<svg width="50" height="42" viewBox="0 0 50 42" fill="none" xmlns="http://www.w3.org/2000/svg">
<path d="M49.7139 12.3155L38.6669 1.26657C38.2938 0.893113 37.6911 0.883958 37.307 1.24635C36.4491 2.05469 32.4165 5.85222 32.3582 5.90906C32.3547 5.91249 32.3509 5.91554 32.3475 5.91898C31.3923 6.87418 30.452 7.2999 29.2984 7.2999C26.9402 7.2999 25.1335 7.96594 23.6332 9.38692C22.403 8.22191 21.0087 7.61957 19.0628 7.41853L14.1808 2.5361C13.7993 2.15463 13.1809 2.15463 12.7995 2.5361L0.286107 15.0498C-0.085445 15.421 -0.097652 16.0207 0.264363 16.4071C0.271992 16.4151 0.278477 16.4231 0.286107 16.4308C0.286107 16.4308 8.42896 24.561 8.4404 24.5721L8.09556 24.9169C6.76041 26.2521 6.75965 28.4142 8.09594 29.7505C8.72841 30.3823 9.5974 30.7576 10.548 30.7481C10.5377 31.6861 10.9001 32.5547 11.5486 33.2032C12.2074 33.862 13.0879 34.2114 14.0007 34.2019C13.9908 35.1392 14.3528 36.0074 15.0013 36.6559C15.6338 37.2876 16.5024 37.663 17.4534 37.6534C17.4431 38.5915 17.8055 39.4601 18.454 40.1086C19.7865 41.4411 21.9544 41.4411 23.2872 40.1086L23.6328 39.763L23.9784 40.1086C25.3109 41.4411 27.4788 41.4411 28.8117 40.1086C29.4586 39.4616 29.8218 38.5945 29.8126 37.6554C30.7453 37.6649 31.6143 37.3059 32.2647 36.6555C32.9399 35.9803 33.2726 35.0904 33.2634 34.2034C34.2102 34.2134 35.0754 33.8449 35.717 33.2032C36.3667 32.554 36.7283 31.6838 36.7176 30.7481C37.6251 30.7572 38.5075 30.4124 39.1701 29.7502C40.5056 28.4146 40.5056 26.2528 39.1701 24.9169L38.8256 24.5725C45.6345 17.7712 37.0213 26.3913 49.7139 13.6964C50.0954 13.3149 50.0954 12.6969 49.7139 12.3155ZM2.35787 15.7399L13.4903 4.60787L17.2421 8.35962L6.11191 19.4913L2.35787 15.7399ZM9.47648 28.3692C8.90427 27.797 8.90427 26.8704 9.47648 26.2979L12.9295 22.8448C13.501 22.2737 14.4299 22.2741 15.0009 22.8448C15.5743 23.4185 15.5743 24.3436 15.0009 24.9169L11.549 28.3689C10.9776 28.9395 10.0475 28.9395 9.47648 28.3692ZM12.9295 31.8223C12.357 31.2493 12.3562 30.3231 12.9295 29.7502L16.3818 26.2979C16.9552 25.7249 17.8806 25.7245 18.454 26.2979C19.025 26.8689 19.0273 27.7959 18.454 28.3689C18.4536 28.3692 18.4536 28.3692 18.4536 28.3696L15.0009 31.8223C14.4299 32.3934 13.5006 32.3934 12.9295 31.8223ZM16.3818 35.2742C15.8096 34.7024 15.8096 33.7754 16.3818 33.2032L19.8349 29.7502C20.406 29.1791 21.3348 29.1791 21.9067 29.7509C22.4705 30.3136 22.4873 31.2406 21.9063 31.8219C21.9063 31.8219 21.9063 31.8219 21.9059 31.8223L18.4544 35.2738C17.8829 35.8449 16.9529 35.8449 16.3818 35.2742ZM19.8349 38.7277C19.2623 38.1547 19.2616 37.2285 19.8349 36.6555L23.2872 33.2032C23.8598 32.6306 24.786 32.6299 25.359 33.2032C25.9354 33.7796 25.927 34.707 25.359 35.2746L21.9063 38.7277C21.3348 39.2983 20.406 39.2983 19.8349 38.7277ZM27.4303 38.7277C26.8597 39.2987 25.9304 39.2987 25.3594 38.7277L25.0137 38.3821L26.7403 36.6555C26.857 36.5388 26.9623 36.4141 27.0599 36.2847L27.43 36.6551C27.4303 36.6551 27.4303 36.6551 27.4307 36.6555L27.4311 36.6559C28.0037 37.2285 28.0037 38.1543 27.4303 38.7277ZM37.7892 28.3689C37.2177 28.9395 36.2881 28.9395 35.717 28.3689L31.2286 23.8809C30.8472 23.4994 30.2288 23.4994 29.8473 23.8809C29.4663 24.262 29.4663 24.8803 29.8473 25.2618L34.3361 29.7505C34.9087 30.3227 34.9091 31.249 34.3357 31.8223C33.7624 32.3956 32.8358 32.3934 32.2647 31.8223L27.7763 27.3328C27.3953 26.9517 26.7769 26.9517 26.3954 27.3328C26.014 27.7143 26.014 28.3326 26.395 28.7141L30.8834 33.2032C31.4545 33.7743 31.4545 34.7035 30.8834 35.2742C30.6072 35.5508 30.2391 35.7034 29.8473 35.7034C28.9192 35.7034 28.6202 34.9725 27.7401 34.2031C27.7313 33.3035 27.3773 32.4594 26.7407 31.8227C26.0929 31.1742 25.2255 30.8122 24.2882 30.8213C24.2977 29.8825 23.9342 29.0151 23.2872 28.3689C22.612 27.6937 21.722 27.3614 20.8351 27.3705C20.8546 25.4445 19.2947 23.8965 17.3828 23.9163C17.3924 22.9676 17.0216 22.1036 16.3818 21.4639C15.0494 20.131 12.8811 20.131 11.5486 21.4639L9.82132 23.1912L7.49436 20.8711L18.988 9.37547C20.4113 9.53798 21.3696 9.9473 22.2481 10.764L19.4889 13.5228C17.9672 15.0456 17.9672 17.5237 19.4893 19.0473C21.0125 20.5693 23.4909 20.5697 25.0137 19.0469L27.7763 16.2847C29.5616 18.0703 36.4876 24.9967 37.7888 26.2982C38.3598 26.8689 38.3598 27.7982 37.7892 28.3689ZM37.4443 23.1912L29.1573 14.9037L29.8477 14.2133C30.2292 13.8318 30.2292 13.2134 29.8477 12.832C29.4663 12.4509 28.8483 12.4509 28.4664 12.832L23.6324 17.6663C22.8714 18.4274 21.6316 18.4274 20.8702 17.6663C20.1092 16.9045 20.1092 15.6651 20.8698 14.9037C21.8716 13.9024 23.8461 11.9283 24.8467 10.9281C26.0048 9.76991 27.3781 9.25302 29.2984 9.25302C30.6797 9.25302 31.8722 8.83798 32.9895 7.95908L42.7136 17.9357C36.3571 24.2757 37.6118 23.0241 37.4443 23.1912ZM44.0949 16.5544L34.4307 6.63919L37.9562 3.31774L47.6425 13.0059L44.0949 16.5544Z" fill="#46B274"/>
</svg>
