<svg width="50" height="50" viewBox="0 0 50 50" fill="none" xmlns="http://www.w3.org/2000/svg">
<path d="M46.7773 30.8594C46.7773 27.6283 44.149 25 40.918 25C37.6869 25 35.0586 27.6283 35.0586 30.8594C35.0586 34.0904 37.6869 36.7188 40.918 36.7188C44.149 36.7188 46.7773 34.0904 46.7773 30.8594ZM40.918 34.7656C38.7642 34.7656 37.0117 33.0132 37.0117 30.8594C37.0117 28.7056 38.7642 26.9531 40.918 26.9531C43.0717 26.9531 44.8242 28.7056 44.8242 30.8594C44.8242 33.0132 43.0717 34.7656 40.918 34.7656Z" fill="#46B274"/>
<path d="M40.918 36.7188C38.4571 36.7188 36.0031 37.7403 34.3315 39.3967C32.1312 36.5051 28.7384 34.7656 25 34.7656C21.4199 34.7656 17.9508 36.3991 15.6689 39.3967C13.9969 37.7407 11.5433 36.7188 9.08203 36.7188C4.15916 36.7188 0 40.7436 0 45.5078V47.4609C0 48.0003 0.437164 48.4375 0.976562 48.4375H49.0234C49.5628 48.4375 50 48.0003 50 47.4609V45.5078C50 40.7436 45.8408 36.7188 40.918 36.7188ZM1.95312 45.5078C1.95312 41.8022 5.21774 38.6719 9.08203 38.6719C11.1965 38.6719 13.2935 39.6088 14.5916 41.098C13.7333 42.7559 13.2812 44.6037 13.2812 46.4844H1.95312V45.5078ZM25 36.7188C30.434 36.7188 34.7656 41.1278 34.7656 46.4844H15.2344C15.2344 41.0564 19.6545 36.7188 25 36.7188ZM48.0469 46.4844H36.7188C36.7188 44.6037 36.2667 42.7559 35.4084 41.098C36.7065 39.6088 38.8035 38.6719 40.918 38.6719C44.7823 38.6719 48.0469 41.8022 48.0469 45.5078V46.4844Z" fill="#46B274"/>
<path d="M14.9414 30.8594C14.9414 27.6283 12.3131 25 9.08203 25C5.85098 25 3.22266 27.6283 3.22266 30.8594C3.22266 34.0904 5.85098 36.7188 9.08203 36.7188C12.3131 36.7188 14.9414 34.0904 14.9414 30.8594ZM9.08203 34.7656C6.92825 34.7656 5.17578 33.0132 5.17578 30.8594C5.17578 28.7056 6.92825 26.9531 9.08203 26.9531C11.2358 26.9531 12.9883 28.7056 12.9883 30.8594C12.9883 33.0132 11.2358 34.7656 9.08203 34.7656Z" fill="#46B274"/>
<path d="M32.8125 26.9531C32.8125 22.6452 29.3079 19.1406 25 19.1406C20.6921 19.1406 17.1875 22.6452 17.1875 26.9531C17.1875 31.2611 20.6921 34.7656 25 34.7656C29.3079 34.7656 32.8125 31.2611 32.8125 26.9531ZM25 32.8125C21.769 32.8125 19.1406 30.1842 19.1406 26.9531C19.1406 23.7221 21.769 21.0938 25 21.0938C28.231 21.0938 30.8594 23.7221 30.8594 26.9531C30.8594 30.1842 28.231 32.8125 25 32.8125Z" fill="#46B274"/>
<path d="M32.7286 7.2422C32.6138 6.88858 32.3082 6.63109 31.9401 6.57768L27.7279 5.96619L25.8419 2.11029C25.6783 1.77498 25.338 1.5625 24.9649 1.5625C24.5918 1.5625 24.2516 1.77498 24.0875 2.10991L22.2019 5.96619L17.9897 6.5773C17.6216 6.63071 17.3161 6.88858 17.2012 7.2422C17.0864 7.59583 17.1822 7.98378 17.4484 8.24318L20.4987 11.216L19.7788 15.414C19.7159 15.7803 19.8666 16.1507 20.1676 16.3689C20.4666 16.5863 20.8649 16.6172 21.196 16.4433L24.9649 14.4615L28.7354 16.4433C29.0642 16.6164 29.4628 16.5874 29.7638 16.3689C30.0644 16.1503 30.2151 15.7803 30.1522 15.4137L29.4316 11.216L32.4814 8.24318C32.7477 7.98378 32.8434 7.59583 32.7286 7.2422ZM27.7001 10.1757C27.47 10.4 27.3648 10.7235 27.4193 11.0401L27.8919 13.7939L25.4193 12.4939C25.1347 12.3444 24.7948 12.3444 24.5102 12.4939L22.0383 13.7939L22.5105 11.0401C22.5647 10.7231 22.4594 10.4 22.2294 10.1757L20.229 8.22601L22.9927 7.82471C23.3124 7.77855 23.5882 7.57713 23.7297 7.28722L24.9649 4.76189L26.1997 7.28722C26.3417 7.57751 26.6175 7.77855 26.9367 7.82471L29.7009 8.22601L27.7001 10.1757Z" fill="#46B274"/>
<path d="M47.3251 14.5615C47.2102 14.2078 46.9047 13.9503 46.5366 13.8969L43.6828 13.4823L42.4068 10.8959C42.2424 10.5625 41.9032 10.3516 41.5313 10.3516C41.5313 10.3516 41.5313 10.3516 41.5309 10.3516C41.1594 10.3516 40.8199 10.5625 40.6555 10.8959L39.3787 13.4823L36.5245 13.8969C36.1568 13.9503 35.8512 14.2078 35.7364 14.5615C35.6212 14.9151 35.7169 15.303 35.9832 15.5624L38.0481 17.5762L37.5606 20.4182C37.498 20.7844 37.6483 21.1544 37.9493 21.373C38.2499 21.5916 38.6485 21.6206 38.9774 21.4478L41.5309 20.1061L44.0837 21.4478C44.4125 21.6206 44.8116 21.5916 45.1122 21.373C45.4128 21.1548 45.5631 20.7844 45.5005 20.4182L45.013 17.5762L47.0783 15.5624C47.3445 15.303 47.4399 14.9151 47.3251 14.5615ZM43.2823 16.5363C43.0518 16.7606 42.9469 17.0837 43.0015 17.4004L43.2411 18.7981L41.9856 18.1385C41.7011 17.989 41.3612 17.989 41.077 18.1385L39.8204 18.7984L40.0604 17.4004C40.1145 17.0837 40.0096 16.7606 39.7796 16.5363L38.7634 15.5453L40.1676 15.3416C40.4857 15.2954 40.7607 15.0955 40.903 14.8075L41.5309 13.5353L42.1584 14.8071C42.3007 15.0955 42.5758 15.2954 42.8939 15.3416L44.2981 15.5453L43.2823 16.5363Z" fill="#46B274"/>
<path d="M14.1221 14.5615C14.0072 14.2078 13.7017 13.9503 13.3336 13.8969L10.4798 13.4823L9.20377 10.8959C9.03936 10.5625 8.70023 10.3516 8.3283 10.3516C7.95636 10.3516 7.61686 10.5625 7.45244 10.8959L6.17566 13.4823L3.32151 13.8969C2.95377 13.9503 2.64822 14.2078 2.53339 14.5615C2.41819 14.9151 2.51394 15.303 2.78021 15.5624L4.8451 17.5762L4.35796 20.4182C4.29502 20.7844 4.4457 21.1544 4.7463 21.373C5.0469 21.5916 5.44553 21.6206 5.77474 21.4478L8.32792 20.1061L10.8807 21.4478C11.2118 21.6217 11.6101 21.5904 11.9092 21.373C12.2097 21.1548 12.3604 20.7844 12.2975 20.4182L11.81 17.5762L13.8752 15.5624C14.1415 15.303 14.2369 14.9151 14.1221 14.5615ZM10.0789 16.5363C9.84883 16.7606 9.74393 17.0837 9.7981 17.4004L10.038 18.7981L8.78225 18.1385C8.49805 17.989 8.15816 17.989 7.87397 18.1385L6.61702 18.7984L6.85697 17.4004C6.91152 17.0837 6.80623 16.7606 6.57621 16.5363L5.55997 15.5453L6.96454 15.3416C7.28231 15.2954 7.55735 15.0955 7.69964 14.8075L8.32753 13.5353L8.95505 14.8071C9.09734 15.0955 9.37238 15.2954 9.69052 15.3416L11.0947 15.5453L10.0789 16.5363Z" fill="#46B274"/>
</svg>
