<svg width="50" height="50" viewBox="0 0 50 50" fill="none" xmlns="http://www.w3.org/2000/svg">
<path d="M50 2.92969C50 1.31416 48.6858 0 47.0703 0H2.92969C1.31111 0 0 1.31111 0 2.92969C0 4.20265 0.816345 5.28831 1.95312 5.69153V35.7422H0.976562C0.437164 35.7422 0 36.1794 0 36.7188C0 37.2581 0.437164 37.6953 0.976562 37.6953H24.0234V44.3085C22.8867 44.7117 22.0703 45.7973 22.0703 47.0703C22.0703 48.6858 23.3845 50 25 50C26.6155 50 27.9297 48.6858 27.9297 47.0703C27.9297 45.7973 27.1133 44.7117 25.9766 44.3085V37.6953H49.0234C49.5628 37.6953 50 37.2581 50 36.7188C50 36.1794 49.5628 35.7422 49.0234 35.7422H48.0469V5.69305C49.1592 5.30052 50 4.23164 50 2.92969ZM25 48.0469C24.4614 48.0469 24.0234 47.6089 24.0234 47.0703C24.0234 46.5317 24.4614 46.0938 25 46.0938C25.5386 46.0938 25.9766 46.5317 25.9766 47.0703C25.9766 47.6089 25.5386 48.0469 25 48.0469ZM2.92969 1.95312H47.0703C47.6089 1.95312 48.0469 2.39105 48.0469 2.92969C48.0469 3.46909 47.6093 3.90625 47.0703 3.90625H2.92969C2.39105 3.90625 1.95312 3.46832 1.95312 2.92969C1.95312 2.39029 2.39067 1.95312 2.92969 1.95312ZM3.90625 35.7422V5.85938H46.0938V35.7422H3.90625Z" fill="#46B274"/>
<path d="M41.3246 28.2257C41.3216 28.2227 41.3189 28.2188 41.3155 28.2158L39.3623 26.2627C38.9809 25.8812 38.3629 25.8812 37.9814 26.2627C37.5999 26.6437 37.5999 27.2621 37.9814 27.6436L38.2671 27.9297H12.3047V13.0997L12.5908 13.3858C12.9723 13.7672 13.5902 13.7672 13.9717 13.3858C14.3532 13.0043 14.3532 12.3863 13.9717 12.0049L12.0186 10.0517C12.0155 10.0483 12.0121 10.0456 12.009 10.0426C11.6276 9.67103 11.0146 9.67446 10.6377 10.0517L8.68454 12.0049C8.30307 12.3859 8.30307 13.0043 8.68454 13.3858C9.06601 13.7672 9.68399 13.7672 10.0658 13.3858L10.3519 13.0997V27.9297H6.83594C6.29654 27.9297 5.85938 28.3668 5.85938 28.9062C5.85938 29.4456 6.29654 29.8828 6.83594 29.8828H10.3516V32.8125C10.3516 33.3519 10.7887 33.7891 11.3281 33.7891C11.8675 33.7891 12.3047 33.3519 12.3047 32.8125V29.8828H38.2671L37.9814 30.1689C37.5999 30.5504 37.5999 31.1684 37.9814 31.5498C38.3629 31.9313 38.9809 31.9313 39.3623 31.5498L41.3155 29.5967C41.3189 29.5937 41.3216 29.5898 41.3246 29.5868C41.6863 29.2145 41.7004 28.6121 41.3246 28.2257Z" fill="#46B274"/>
<path d="M43.1641 7.8125H34.7656C34.2262 7.8125 33.7891 8.24966 33.7891 8.78906C33.7891 9.32846 34.2262 9.76562 34.7656 9.76562H43.1641C43.7035 9.76562 44.1406 9.32846 44.1406 8.78906C44.1406 8.24966 43.7035 7.8125 43.1641 7.8125Z" fill="#46B274"/>
<path d="M15.5998 18.3567C16.1461 18.7943 16.7546 19.7361 17.3435 20.647C18.4658 22.3835 19.5259 24.0234 21.0938 24.0234C22.6609 24.0234 23.721 22.3835 24.8436 20.6474C25.2896 19.9574 25.7511 19.2436 26.1875 18.7489C26.6892 18.1805 26.9276 18.1641 26.9531 18.1641C26.9787 18.1641 27.2171 18.1805 27.7188 18.7489C28.1552 19.2436 28.6167 19.9574 29.0627 20.6474C30.1853 22.3835 31.2454 24.0234 32.8125 24.0234C34.3804 24.0234 35.4405 22.3835 36.5628 20.647C37.1514 19.7361 37.7602 18.7943 38.3064 18.3567C38.7272 18.0191 38.7947 17.4046 38.4571 16.9838C38.1199 16.563 37.5054 16.4955 37.0842 16.8327C36.2919 17.4686 35.5957 18.5452 34.9224 19.5866C34.4765 20.2766 34.0149 20.9904 33.5785 21.4851C33.0773 22.0539 32.8381 22.0703 32.8125 22.0703C32.787 22.0703 32.5485 22.0539 32.0469 21.4855C31.6105 20.9908 31.1489 20.277 30.703 19.5869C29.5803 17.8509 28.5202 16.2109 26.9531 16.2109C25.3861 16.2109 24.326 17.8509 23.2033 19.5869C22.7574 20.277 22.2958 20.9908 21.8594 21.4855C21.3578 22.0539 21.1193 22.0703 21.0938 22.0703C21.0682 22.0703 20.829 22.0539 20.3274 21.4851C19.891 20.9904 19.4298 20.2766 18.9839 19.5866C18.3106 18.5455 17.6144 17.4686 16.8221 16.8327C16.4013 16.4955 15.7864 16.563 15.4492 16.9838C15.1116 17.4046 15.1795 18.0191 15.5998 18.3567Z" fill="#46B274"/>
</svg>
