<svg width="50" height="50" viewBox="0 0 50 50" fill="none" xmlns="http://www.w3.org/2000/svg">
<g clip-path="url(#clip0)">
<path d="M47.8378 1.25008C45.5441 -0.625991 42.0135 -0.362395 39.7999 1.85127C38.604 3.04947 5.2227 36.4815 4.02412 37.682C3.71437 37.9917 3.46565 38.3827 3.31612 38.8294L0.0495917 48.7091C-0.0663751 49.0597 0.0251777 49.4453 0.286103 49.7063C0.546647 49.9668 0.931931 50.0588 1.28326 49.9428L11.1671 46.6747C11.5894 46.5332 11.9869 46.2917 12.3112 45.9675L48.2845 9.94034C50.7233 7.50046 50.547 3.4668 47.8378 1.25008ZM41.3834 14.0881L35.8589 8.56323L37.2387 7.18117L42.7631 12.706L41.3834 14.0881ZM4.81796 40.5087C5.49202 41.1827 7.89375 43.5848 9.48334 45.1744L2.51312 47.4793L4.81796 40.5087ZM11.2938 44.2223L9.22089 42.1501L30.331 20.9877C30.7117 20.6059 30.7114 19.9875 30.3291 19.6064C29.9473 19.2257 29.3293 19.2265 28.9482 19.6083L7.83997 40.7684L5.76973 38.6982L34.4791 9.9453C38.1839 13.6508 36.7455 12.2118 40.0032 15.4701L11.2938 44.2223ZM46.9028 8.56018L44.1433 11.3239L38.6185 5.7991L41.1816 3.23181C42.6872 1.72615 45.0684 1.50833 46.6011 2.76184C48.4562 4.27971 48.4921 6.96983 46.9028 8.56018Z" fill="#46B274"/>
<path d="M12.6953 48.0392C12.1559 48.0392 11.7188 48.4764 11.7188 49.0158C11.7188 49.5552 12.1559 49.9924 12.6953 49.9924H18.8477C19.3871 49.9924 19.8242 49.5552 19.8242 49.0158C19.8242 48.4764 19.3871 48.0392 18.8477 48.0392H12.6953Z" fill="#46B274"/>
<path d="M22.7539 48.0392C22.2145 48.0392 21.7773 48.4764 21.7773 49.0158C21.7773 49.5552 22.2145 49.9924 22.7539 49.9924H28.9062C29.4456 49.9924 29.8828 49.5552 29.8828 49.0158C29.8828 48.4764 29.4456 48.0392 28.9062 48.0392H22.7539Z" fill="#46B274"/>
<path d="M32.8125 48.0392C32.2731 48.0392 31.8359 48.4764 31.8359 49.0158C31.8359 49.5552 32.2731 49.9924 32.8125 49.9924H38.9648C39.5042 49.9924 39.9414 49.5552 39.9414 49.0158C39.9414 48.4764 39.5042 48.0392 38.9648 48.0392H32.8125Z" fill="#46B274"/>
<path d="M49.0234 48.0392H42.8711C42.3317 48.0392 41.8945 48.4764 41.8945 49.0158C41.8945 49.5552 42.3317 49.9924 42.8711 49.9924H49.0234C49.5628 49.9924 50 49.5552 50 49.0158C50 48.4764 49.5628 48.0392 49.0234 48.0392Z" fill="#46B274"/>
</g>
<defs>
<clipPath id="clip0">
<rect width="50" height="50" fill="white"/>
</clipPath>
</defs>
</svg>
