<svg width="50" height="50" viewBox="0 0 50 50" fill="none" xmlns="http://www.w3.org/2000/svg">
<path d="M0 46.4844V49.0234C0 49.5628 0.437164 50 0.976562 50H16.6016C17.141 50 17.5781 49.5628 17.5781 49.0234V46.4844C17.5781 41.6466 13.6639 37.6953 8.78906 37.6953C3.94287 37.6953 0 41.6382 0 46.4844ZM8.78906 39.6484C12.5511 39.6484 15.625 42.6922 15.625 46.4844V48.0469H1.95312V46.4844C1.95312 42.7151 5.01976 39.6484 8.78906 39.6484Z" fill="#46B274"/>
<path d="M41.2109 37.6953C36.3647 37.6953 32.4219 41.6382 32.4219 46.4844V49.0234C32.4219 49.5628 32.859 50 33.3984 50H49.0234C49.5628 50 50 49.5628 50 49.0234V46.4844C50 41.6466 46.0857 37.6953 41.2109 37.6953ZM48.0469 48.0469H34.375V46.4844C34.375 42.7151 37.4416 39.6484 41.2109 39.6484C44.973 39.6484 48.0469 42.6922 48.0469 46.4844V48.0469Z" fill="#46B274"/>
<path d="M47.0703 31.8359C47.0703 28.9379 44.9551 26.5259 42.1875 26.0593V20.5078C42.1875 18.8923 40.8733 17.5781 39.2578 17.5781H33.2874C32.0923 14.1998 28.8731 11.7188 25 11.7188C21.2456 11.7188 17.9398 14.0923 16.7114 17.5781H10.7422C9.12666 17.5781 7.8125 18.8923 7.8125 20.5078V26.0593C5.04494 26.5259 2.92969 28.9379 2.92969 31.8359C2.92969 35.067 5.55801 37.6953 8.78906 37.6953C12.0201 37.6953 14.6484 35.067 14.6484 31.8359C14.6484 28.9379 12.5332 26.5259 9.76562 26.0593V20.5078C9.76562 19.9692 10.2036 19.5301 10.7422 19.5301H16.2659C16.23 19.854 16.2109 20.1813 16.2109 20.5078V25C16.2109 25.5394 16.6481 25.9766 17.1875 25.9766H32.8125C33.3519 25.9766 33.7891 25.5394 33.7891 25V20.5078C33.7891 20.1813 33.77 19.8551 33.7341 19.5312H39.2578C39.7964 19.5312 40.2344 19.9692 40.2344 20.5078V26.0593C37.4668 26.5259 35.3516 28.9379 35.3516 31.8359C35.3516 35.067 37.9799 37.6953 41.2109 37.6953C44.442 37.6953 47.0703 35.067 47.0703 31.8359ZM12.6953 31.8359C12.6953 33.9897 10.9428 35.7422 8.78906 35.7422C6.63528 35.7422 4.88281 33.9897 4.88281 31.8359C4.88281 29.6822 6.63528 27.9297 8.78906 27.9297C10.9428 27.9297 12.6953 29.6822 12.6953 31.8359ZM31.8359 24.0234H18.1641V20.5078C18.1641 19.9299 18.2365 19.3542 18.3792 18.7981C19.0739 16.0995 21.3242 14.1304 24.0234 13.7428V16.6016C24.0234 17.141 24.4606 17.5781 25 17.5781C25.5394 17.5781 25.9766 17.141 25.9766 16.6016V13.7417C28.7464 14.1357 30.9471 16.1816 31.6208 18.7981C31.7635 19.355 31.8359 19.9303 31.8359 20.5078V24.0234ZM41.2109 35.7422C39.0572 35.7422 37.3047 33.9897 37.3047 31.8359C37.3047 29.6822 39.0572 27.9297 41.2109 27.9297C43.3647 27.9297 45.1172 29.6822 45.1172 31.8359C45.1172 33.9897 43.3647 35.7422 41.2109 35.7422Z" fill="#46B274"/>
<path d="M30.8594 5.85938C30.8594 2.62833 28.231 0 25 0C21.769 0 19.1406 2.62833 19.1406 5.85938C19.1406 9.09042 21.769 11.7188 25 11.7188C28.231 11.7188 30.8594 9.09042 30.8594 5.85938ZM25 9.76562C22.8462 9.76562 21.0938 8.01315 21.0938 5.85938C21.0938 3.7056 22.8462 1.95312 25 1.95312C27.1538 1.95312 28.9062 3.7056 28.9062 5.85938C28.9062 8.01315 27.1538 9.76562 25 9.76562Z" fill="#46B274"/>
</svg>
