<svg width="50" height="50" viewBox="0 0 50 50" fill="none" xmlns="http://www.w3.org/2000/svg">
<path d="M5.46875 15.5273C5.46875 16.0667 5.90591 16.5039 6.44531 16.5039H27.1484C27.6878 16.5039 28.125 16.0667 28.125 15.5273C28.125 14.9879 27.6878 14.5508 27.1484 14.5508H6.44531C5.90591 14.5508 5.46875 14.9879 5.46875 15.5273Z" fill="#46B274"/>
<path d="M27.1484 20.4102H6.44531C5.90591 20.4102 5.46875 20.8473 5.46875 21.3867C5.46875 21.9261 5.90591 22.3633 6.44531 22.3633H27.1484C27.6878 22.3633 28.125 21.9261 28.125 21.3867C28.125 20.8473 27.6878 20.4102 27.1484 20.4102Z" fill="#46B274"/>
<path d="M24.345 26.2695H6.31903C5.84938 26.2695 5.46875 26.7067 5.46875 27.2461C5.46875 27.7855 5.84938 28.2227 6.31903 28.2227H24.345C24.8147 28.2227 25.1953 27.7855 25.1953 27.2461C25.1953 26.7067 24.8147 26.2695 24.345 26.2695Z" fill="#46B274"/>
<path fill-rule="evenodd" clip-rule="evenodd" d="M35.3516 50H2.92969C1.31416 50 0 48.6858 0 47.0703V2.92969C0 1.31416 1.31416 0 2.92969 0H27.5391C27.5719 0 27.6043 0.00152588 27.6367 0.0049591C27.6571 0.00693069 27.6772 0.0103176 27.697 0.0136567C27.7002 0.014194 27.7034 0.0147301 27.7065 0.0152588C27.7106 0.0159964 27.7146 0.0165557 27.7187 0.017109C27.7229 0.0177005 27.7272 0.0182852 27.7313 0.0190734C27.7596 0.0247955 27.7866 0.0320435 27.8137 0.0396729C27.8165 0.0405926 27.8192 0.041266 27.8218 0.041891L27.8236 0.0423432C27.8511 0.0507354 27.8782 0.0606537 27.9045 0.0713349C27.9056 0.071811 27.9069 0.0722211 27.9082 0.0726475C27.91 0.0732461 27.9119 0.073877 27.9137 0.0747681C27.9385 0.0850678 27.9625 0.0965118 27.9861 0.1091C27.9881 0.110091 27.9902 0.111011 27.9922 0.111921C27.9949 0.113112 27.9975 0.114288 27.9999 0.115585C28.0212 0.127029 28.0418 0.139999 28.0621 0.152969C28.0645 0.154476 28.067 0.155884 28.0694 0.157282C28.0738 0.159778 28.0781 0.162242 28.0823 0.165176C28.1002 0.177383 28.1178 0.190735 28.1349 0.204086C28.1382 0.206607 28.1416 0.209063 28.145 0.211507C28.1497 0.214981 28.1545 0.218433 28.159 0.222015C28.1769 0.236893 28.1937 0.252914 28.2104 0.268936C28.213 0.271354 28.2157 0.273705 28.2185 0.276073C28.2222 0.279309 28.226 0.282578 28.2295 0.286102L37.9951 10.0517C38.1733 10.2295 38.2812 10.4794 38.2812 10.7422V24.9023H36.3281V11.7188H27.5391C26.9997 11.7188 26.5625 11.2816 26.5625 10.7422V1.95312H2.92969C2.39105 1.95312 1.95312 2.39105 1.95312 2.92969V47.0703C1.95312 47.6089 2.39105 48.0469 2.92969 48.0469H35.3516C35.8902 48.0469 36.3281 47.6089 36.3281 47.0703V40.332H38.2812V47.0703C38.2812 48.6858 36.9671 50 35.3516 50ZM34.9468 9.76562L28.5156 3.33443V9.76562H34.9468Z" fill="#46B274"/>
<path fill-rule="evenodd" clip-rule="evenodd" d="M35.2319 34.4237C38.0622 32.4954 38.7935 28.6377 36.8651 25.8073C34.9368 22.977 31.0791 22.2458 28.2488 24.1741C25.4184 26.1024 24.6872 29.9601 26.6155 32.7905C28.5439 35.6208 32.4015 36.352 35.2319 34.4237ZM36.3316 36.0378C40.0534 33.5021 41.0149 28.4294 38.4792 24.7076C35.9436 20.9858 30.8709 20.0243 27.1491 22.56C23.4273 25.0957 22.4657 30.1684 25.0014 33.8902C27.5371 37.612 32.6098 38.5735 36.3316 36.0378Z" fill="#46B274"/>
<path fill-rule="evenodd" clip-rule="evenodd" d="M36.9855 35.9901L36.0478 36.6289L42.2827 45.7802C42.4398 46.0109 42.7771 46.0549 43.0361 45.8785C43.295 45.7021 43.3775 45.3721 43.2203 45.1414L36.9855 35.9901ZM33.4541 36.2908L40.6686 46.88C41.3667 47.9047 42.8653 48.1001 44.0157 47.3163C45.1661 46.5326 45.5326 45.0665 44.8345 44.0417L37.62 33.4525L33.4541 36.2908Z" fill="#46B274"/>
</svg>
