<svg width="38" height="50" viewBox="0 0 38 50" fill="none" xmlns="http://www.w3.org/2000/svg">
<path d="M3.375 5.85938C1.75948 5.85938 0.445312 7.17354 0.445312 8.78906V47.0703C0.445312 48.6858 1.75948 50 3.375 50H34.625C36.2405 50 37.5547 48.6858 37.5547 47.0703V8.78906C37.5547 7.17354 36.2405 5.85938 34.625 5.85938C32.4731 5.85938 25.9969 5.85938 23.7806 5.85938C23.8485 5.53932 23.8828 5.21317 23.8828 4.88281C23.8828 2.1904 21.6924 0 19 0C16.3076 0 14.1172 2.1904 14.1172 4.88281C14.1172 5.21317 14.1515 5.53932 14.2194 5.85938C12.0031 5.85938 5.52687 5.85938 3.375 5.85938ZM28.7656 13.6719C29.305 13.6719 29.7422 13.2347 29.7422 12.6953V11.7188H31.6953V44.1406H6.30469V11.7188H8.25781V12.6953C8.25781 13.2347 8.69498 13.6719 9.23438 13.6719H28.7656ZM35.6016 8.78906V47.0703C35.6016 47.6089 35.1636 48.0469 34.625 48.0469H3.375C2.83636 48.0469 2.39844 47.6089 2.39844 47.0703V8.78906C2.39844 8.25043 2.83636 7.8125 3.375 7.8125H8.25781V9.76562H5.32812C4.78873 9.76562 4.35156 10.2028 4.35156 10.7422V45.1172C4.35156 45.6566 4.78873 46.0938 5.32812 46.0938H32.6719C33.2113 46.0938 33.6484 45.6566 33.6484 45.1172V10.7422C33.6484 10.2028 33.2113 9.76562 32.6719 9.76562H29.7422V7.8125H34.625C35.1636 7.8125 35.6016 8.25043 35.6016 8.78906ZM15.6366 7.8125C16.3885 7.8125 16.8596 6.99539 16.4808 6.3446C16.2084 5.87692 16.0703 5.38483 16.0703 4.88281C16.0703 3.26729 17.3845 1.95312 19 1.95312C20.6155 1.95312 21.9297 3.26729 21.9297 4.88281C21.9297 5.38483 21.7916 5.87692 21.5192 6.3446C21.1412 6.99425 21.6104 7.8125 22.3634 7.8125H27.7891V11.7188H10.2109V7.8125H15.6366Z" fill="#46B274"/>
<path d="M17.0469 29.8828H18.0234V30.8594C18.0234 31.3988 18.4606 31.8359 19 31.8359C19.5394 31.8359 19.9766 31.3988 19.9766 30.8594V29.8828H20.9531C21.4925 29.8828 21.9297 29.4456 21.9297 28.9062C21.9297 28.3669 21.4925 27.9297 20.9531 27.9297H19.9766V26.9531C19.9766 26.4137 19.5394 25.9766 19 25.9766C18.4606 25.9766 18.0234 26.4137 18.0234 26.9531V27.9297H17.0469C16.5075 27.9297 16.0703 28.3669 16.0703 28.9062C16.0703 29.4456 16.5075 29.8828 17.0469 29.8828Z" fill="#46B274"/>
<path d="M14.1172 34.7656C14.1172 34.2262 13.68 33.7891 13.1406 33.7891C12.6012 33.7891 12.1641 34.2262 12.1641 34.7656V35.7422H11.1875C10.6481 35.7422 10.2109 36.1794 10.2109 36.7188C10.2109 37.2581 10.6481 37.6953 11.1875 37.6953H12.1641V38.6719C12.1641 39.2113 12.6012 39.6484 13.1406 39.6484C13.68 39.6484 14.1172 39.2113 14.1172 38.6719V37.6953H15.0938C15.6331 37.6953 16.0703 37.2581 16.0703 36.7188C16.0703 36.1794 15.6331 35.7422 15.0938 35.7422H14.1172V34.7656Z" fill="#46B274"/>
<path d="M26.8125 33.7891C25.197 33.7891 23.8828 35.1032 23.8828 36.7188C23.8828 38.3343 25.197 39.6484 26.8125 39.6484C28.428 39.6484 29.7422 38.3343 29.7422 36.7188C29.7422 35.1032 28.428 33.7891 26.8125 33.7891ZM26.8125 37.6953C26.2739 37.6953 25.8359 37.2574 25.8359 36.7188C25.8359 36.1801 26.2739 35.7422 26.8125 35.7422C27.3511 35.7422 27.7891 36.1801 27.7891 36.7188C27.7891 37.2574 27.3511 37.6953 26.8125 37.6953Z" fill="#46B274"/>
<path d="M8.25781 21.0938C8.25781 22.7093 9.57198 24.0234 11.1875 24.0234C12.803 24.0234 14.1172 22.7093 14.1172 21.0938C14.1172 19.4782 12.803 18.1641 11.1875 18.1641C9.57198 18.1641 8.25781 19.4782 8.25781 21.0938ZM11.1875 20.1172C11.7261 20.1172 12.1641 20.5551 12.1641 21.0938C12.1641 21.6324 11.7261 22.0703 11.1875 22.0703C10.6489 22.0703 10.2109 21.6324 10.2109 21.0938C10.2109 20.5551 10.6489 20.1172 11.1875 20.1172Z" fill="#46B274"/>
<path d="M18.3004 19.8212C18.3034 19.8242 18.3061 19.828 18.3095 19.8311L20.2627 21.7842C20.6441 22.1657 21.2621 22.1657 21.6436 21.7842C22.0251 21.4031 22.0251 20.7848 21.6436 20.4033L21.3716 20.1313C24.9467 20.3484 27.7891 23.3246 27.7891 26.9531C27.7891 27.4925 28.2262 27.9297 28.7656 27.9297C29.305 27.9297 29.7422 27.4925 29.7422 26.9531C29.7422 22.2393 26.0118 18.3807 21.3483 18.1732L21.6436 17.878C22.0251 17.4965 22.0251 16.8785 21.6436 16.497C21.2621 16.1156 20.6441 16.1156 20.2627 16.497L18.3095 18.4502C18.3061 18.4532 18.3034 18.457 18.3 18.4601C17.925 18.8461 17.9384 19.4485 18.3004 19.8212Z" fill="#46B274"/>
</svg>
