<svg width="49" height="49" viewBox="0 0 49 49" fill="none" xmlns="http://www.w3.org/2000/svg">
<path d="M48.0234 46.0938H45.0938V30.8594C45.0938 30.32 44.6566 29.8828 44.1172 29.8828H35.9141C35.3747 29.8828 34.9375 30.32 34.9375 30.8594V46.0938H31.0312V21.0938C31.0312 20.5544 30.5941 20.1172 30.0547 20.1172H21.8516C21.3122 20.1172 20.875 20.5544 20.875 21.0938V46.0938H16.9688V11.3281C16.9688 10.7887 16.5316 10.3516 15.9922 10.3516H7.78906C7.24966 10.3516 6.8125 10.7887 6.8125 11.3281V46.0938H2.90625V0.976562C2.90625 0.437164 2.46909 0 1.92969 0C1.39029 0 0.953125 0.437164 0.953125 0.976562C0.953125 22.6672 0.953125 33.0325 0.953125 47.0703C0.953125 47.6097 1.39029 48.0469 1.92969 48.0469C14.1663 48.0469 31.2804 48.0469 48.0234 48.0469C48.5628 48.0469 49 47.6097 49 47.0703C49 46.5309 48.5628 46.0938 48.0234 46.0938ZM36.8906 31.8359H43.1406V46.0938H36.8906V31.8359ZM22.8281 22.0703H29.0781V46.0938H22.8281V22.0703ZM15.0156 12.3047V46.0938H8.76562V12.3047H15.0156Z" fill="#46B274"/>
</svg>
