<svg width="42" height="50" viewBox="0 0 42 50" fill="none" xmlns="http://www.w3.org/2000/svg">
<path d="M0.783996 49.614C0.968628 49.8574 1.25626 50.0001 1.56143 50.0001H40.6236C40.9288 50.0001 41.2168 49.8574 41.4014 49.614C41.5861 49.371 41.6463 49.0556 41.5643 48.7615C41.5643 48.7615 39.2797 40.5606 39.2778 40.5545C38.7777 38.8871 37.4143 37.6031 35.7194 37.2037L24.5885 34.5853C26.0743 33.4752 26.9517 31.757 26.9517 29.8829C26.9517 28.0869 27.8646 25.7142 29.4297 24.5091C32.7672 21.9372 34.8478 17.8902 34.7612 13.4026C34.6219 6.15464 28.5421 0.106807 21.2941 0.00152162C13.6594 -0.109868 7.42082 6.03371 7.42082 13.6723C7.42082 17.989 9.39607 21.9624 12.8396 24.5736C14.3052 25.684 15.2333 27.9824 15.2333 29.8829C15.2333 31.8059 16.1645 33.5152 17.6 34.5845C5.33227 37.4707 13.9302 35.4478 6.46561 37.2037C4.77074 37.6031 3.40737 38.8867 2.90726 40.5545C2.90535 40.5606 0.620727 48.7615 0.620727 48.7615C0.53871 49.0556 0.598983 49.371 0.783996 49.614ZM21.0927 39.1423L18.6448 36.345L21.0927 35.769L23.5402 36.345L21.0927 39.1423ZM16.4929 36.8512L19.6244 40.4301L15.6785 43.0608L13.3946 37.5802L16.4929 36.8512ZM25.6925 36.8512L28.7904 37.5802L26.5065 43.0608L22.5606 40.4301L25.6925 36.8512ZM24.9868 30.1758C24.8395 32.1732 23.1744 33.7891 21.0927 33.7891C19.0396 33.7891 17.3528 32.1969 17.199 30.1758H24.9868ZM14.0195 23.0172C11.0673 20.7783 9.37395 17.3722 9.37395 13.6723C9.37395 7.13883 14.7088 1.85814 21.2659 1.95465C27.4045 2.04391 32.6906 7.30363 32.8084 13.44C32.8809 17.1971 31.215 20.6677 28.238 22.9618C26.642 24.1906 25.5666 26.2318 25.1706 28.2231H22.0693V19.7773L24.0773 17.8398C24.4653 17.4656 24.4764 16.8473 24.1018 16.4589C23.7275 16.071 23.1092 16.0599 22.7212 16.4345L21.0923 18.0058L19.4638 16.4345C19.0755 16.0599 18.4575 16.071 18.0829 16.4589C17.7087 16.8473 17.7198 17.4656 18.1077 17.8398L20.1158 19.7773V28.2231H17.0217C16.6146 26.1097 15.4885 24.1303 14.0195 23.0172ZM4.78066 41.1073C5.08279 40.1105 5.89913 39.3437 6.91308 39.1049L11.4678 38.0334L14.3319 44.9071C14.5684 45.4751 15.265 45.6841 15.775 45.3439L21.0927 41.7989L26.41 45.3439C26.9201 45.6841 27.6166 45.4751 27.8531 44.9071L30.7172 38.0334L35.272 39.1049C36.2859 39.3437 37.1023 40.1105 37.4044 41.1073L39.3377 48.047H2.84737L4.78066 41.1073Z" fill="#46B274"/>
</svg>
