<svg width="50" height="50" viewBox="0 0 50 50" fill="none" xmlns="http://www.w3.org/2000/svg">
<path d="M40.2344 11.7188C34.8495 11.7188 30.4688 16.0995 30.4688 21.4844V27.3438H3.90625V5.85938H34.375C34.375 9.09042 37.0033 11.7188 40.2344 11.7188C43.4654 11.7188 46.0938 9.09042 46.0938 5.85938C46.0938 2.62833 43.4654 0 40.2344 0H2.92969C1.31416 0 0 1.31416 0 2.92969C0 4.20265 0.816345 5.28831 1.95312 5.69153V28.3203C1.95312 28.8597 2.39029 29.2969 2.92969 29.2969H22.0703V33.371C20.9335 33.7742 20.1172 34.8598 20.1172 36.1328C20.1172 37.7483 21.4314 39.0625 23.0469 39.0625C24.6624 39.0625 25.9766 37.7483 25.9766 36.1328C25.9766 34.8598 25.1602 33.7742 24.0234 33.371V29.2969H30.4688V32.2266C30.4688 32.766 30.9059 33.2031 31.4453 33.2031H34.375V49.0234C34.375 49.5628 34.8122 50 35.3516 50H45.1172C45.6566 50 46.0938 49.5628 46.0938 49.0234V33.2031H49.0234C49.5628 33.2031 50 32.766 50 32.2266V21.4844C50 16.0881 45.6348 11.7188 40.2344 11.7188ZM44.1406 5.85938C44.1406 8.01315 42.3882 9.76562 40.2344 9.76562C38.0806 9.76562 36.3281 8.01315 36.3281 5.85938C36.3281 5.59349 36.3544 5.33142 36.4075 5.07698C36.7744 3.26691 38.3842 1.95312 40.2344 1.95312C42.3882 1.95312 44.1406 3.7056 44.1406 5.85938ZM2.92969 1.95198H35.8723C35.3676 2.5135 34.9682 3.17497 34.7099 3.90625H2.92969C2.39105 3.90625 1.95312 3.46832 1.95312 2.92969C1.95312 2.39105 2.39105 1.95198 2.92969 1.95198ZM23.0469 37.1094C22.5082 37.1094 22.0703 36.6714 22.0703 36.1328C22.0703 35.5942 22.5082 35.1562 23.0469 35.1562C23.5855 35.1562 24.0234 35.5942 24.0234 36.1328C24.0234 36.6714 23.5855 37.1094 23.0469 37.1094ZM48.0469 31.25H45.1172C44.5778 31.25 44.1406 31.6872 44.1406 32.2266V48.0469H41.2109V36.1328C41.2109 35.5934 40.7738 35.1562 40.2344 35.1562C39.695 35.1562 39.2578 35.5934 39.2578 36.1328V48.0469H36.3281V32.2266C36.3281 31.6872 35.891 31.25 35.3516 31.25H32.4219V21.4844C32.4219 17.1764 35.9264 13.6719 40.2344 13.6719C44.5515 13.6719 48.0469 17.1638 48.0469 21.4844V31.25Z" fill="#46B274"/>
<path d="M22.0703 9.76562H9.76562C9.22623 9.76562 8.78906 10.2028 8.78906 10.7422C8.78906 11.2816 9.22623 11.7188 9.76562 11.7188H22.0703C22.6097 11.7188 23.0469 11.2816 23.0469 10.7422C23.0469 10.2028 22.6097 9.76562 22.0703 9.76562Z" fill="#46B274"/>
<path d="M22.0703 15.625H9.76562C9.22623 15.625 8.78906 16.0622 8.78906 16.6016C8.78906 17.141 9.22623 17.5781 9.76562 17.5781H22.0703C22.6097 17.5781 23.0469 17.141 23.0469 16.6016C23.0469 16.0622 22.6097 15.625 22.0703 15.625Z" fill="#46B274"/>
<path d="M22.0703 21.4844H9.76562C9.22623 21.4844 8.78906 21.9215 8.78906 22.4609C8.78906 23.0003 9.22623 23.4375 9.76562 23.4375H22.0703C22.6097 23.4375 23.0469 23.0003 23.0469 22.4609C23.0469 21.9215 22.6097 21.4844 22.0703 21.4844Z" fill="#46B274"/>
</svg>
