<svg width="50" height="50" viewBox="0 0 50 50" fill="none" xmlns="http://www.w3.org/2000/svg">
<g clip-path="url(#clip0)">
<path d="M19.9924 25.2449C16.7423 27.6817 14.5161 31.58 13.9748 35.7445C12.4001 35.791 11.1328 37.0857 11.1328 38.6719V42.4713C8.25882 43.3186 6.25 45.9511 6.25 49.0234C6.25 49.5628 6.68716 50 7.22656 50H42.3828C42.9222 50 43.3594 49.5628 43.3594 49.0234C43.3594 45.9515 41.3509 43.3186 38.4766 42.4713V38.6719C38.4766 37.1223 37.2669 35.8505 35.7426 35.7494C35.4229 34.2068 35.5701 32.806 36.0195 31.3477H41.2148C41.6424 31.3477 42.02 31.0696 42.1474 30.6614C43.4204 26.5736 44.6289 21.6129 42.8421 14.4623C40.757 6.12183 32.7187 0 25.951 0C24.3847 0 22.5548 0 20.9961 0C20.4567 0 20.0195 0.437164 20.0195 0.976562V6.49147C16.8743 6.94847 14.4211 9.58099 14.2254 12.8155L10.0449 16.996C8.90007 18.1408 8.89969 19.9947 10.0449 21.1399L12.4359 23.5302C13.9511 25.0465 16.3765 25.0404 17.8894 23.5836C18.5028 23.0904 20.401 20.3194 23.4451 21.4127C22.554 22.8958 21.3753 24.2081 19.9924 25.2449ZM36.5234 38.6719V42.1875H28.7109C28.1715 42.1875 27.7344 42.6247 27.7344 43.1641C27.7344 43.7035 28.1715 44.1406 28.7109 44.1406H36.5234C38.8454 44.1406 40.8497 45.7584 41.3097 48.0469H8.29964C8.75816 45.7653 10.7563 44.1406 13.0859 44.1406H20.8984C21.4378 44.1406 21.875 43.7035 21.875 43.1641C21.875 42.6247 21.4378 42.1875 20.8984 42.1875H13.0859V38.6719C13.0859 38.1332 13.5239 37.6953 14.0625 37.6953H35.5469C36.0855 37.6953 36.5234 38.1332 36.5234 38.6719ZM40.947 14.9361C42.5175 21.2193 41.6451 25.5562 40.4926 29.3945H36.6356C37.849 25.5589 38.8771 21.8071 37.3898 15.8581C36.3625 11.7428 32.7423 7.85446 27.832 6.69289V3.89442C27.832 3.2299 27.6646 2.60391 27.3701 2.05574C32.9903 2.84729 39.241 8.11043 40.947 14.9361ZM25.2823 22.142C27.2522 22.6692 28.9291 22.0531 30.2097 21.4207C30.6934 21.1819 30.8918 20.5959 30.653 20.1122C30.4142 19.6285 29.8286 19.4305 29.3449 19.6693C27.8019 20.4315 26.4793 20.697 24.9062 19.9165C23.114 19.0201 21.2608 18.9739 19.548 19.7819C18.1095 20.4605 17.2409 21.4729 16.5623 22.1493C15.8035 22.908 14.576 22.9084 13.8172 22.1493L11.4258 19.7586C11.0443 19.3771 11.0443 18.7588 11.4258 18.3769L15.8798 13.9229C16.0629 13.7398 16.1659 13.4914 16.1659 13.2324C16.1659 10.5534 18.3327 8.37402 20.9961 8.37402C21.5355 8.37402 21.9727 7.93686 21.9727 7.39746V1.95312H23.9426C25.0103 1.95312 25.8789 2.82402 25.8789 3.89442V7.49016C25.8789 7.96585 26.2215 8.37212 26.6903 8.45261C31.221 9.23042 34.5909 12.709 35.495 16.3315C36.9541 22.168 35.833 25.4482 34.3704 30.0739C33.7967 31.8905 33.3813 33.4835 33.7543 35.7422H15.9473C16.4764 32.1877 18.3941 28.8845 21.1639 26.8078C22.8336 25.5554 24.2447 23.9544 25.2823 22.142Z" fill="#46B274"/>
<path d="M21.875 13.2812H19.9219C19.3825 13.2812 18.9453 13.7184 18.9453 14.2578C18.9453 14.7972 19.3825 15.2344 19.9219 15.2344H21.875C22.4144 15.2344 22.8516 14.7972 22.8516 14.2578C22.8516 13.7184 22.4144 13.2812 21.875 13.2812Z" fill="#46B274"/>
</g>
<defs>
<clipPath id="clip0">
<rect width="50" height="50" fill="white"/>
</clipPath>
</defs>
</svg>
