<svg width="50" height="46" viewBox="0 0 50 46" fill="none" xmlns="http://www.w3.org/2000/svg">
<path fill-rule="evenodd" clip-rule="evenodd" d="M44.1438 6.84948L49.7139 12.4196C50.0952 12.8009 50.0953 13.4193 49.7137 13.8006C49.523 13.9912 49.2731 14.0866 49.0232 14.0866C48.7733 14.0866 48.5234 13.9912 48.3327 13.8006L42.7626 8.23048C42.1424 8.60781 41.4147 8.82528 40.6371 8.82528C39.8595 8.82528 39.1319 8.60781 38.5116 8.23048L35.4752 11.2668C37.9513 14.0968 39.4531 17.8104 39.4531 21.877C39.4531 30.7491 32.3045 37.9414 23.4863 37.9414C20.5164 37.9414 17.7358 37.1256 15.354 35.7045L6.83886 44.2196C6.09172 44.9667 5.09449 45.3775 4.0291 45.3775H4.00918C2.93988 45.3725 1.93514 44.9537 1.18028 44.199C-0.385481 42.6332 -0.394758 40.0947 1.15968 38.5403L9.67987 30.0201C8.27064 27.6378 7.46032 24.861 7.46032 21.8982C7.46032 18.3488 8.62253 15.0662 10.5856 12.4095C10.8659 12.0235 11.1629 11.6506 11.4756 11.2918L8.41439 8.23058C7.79419 8.60791 7.06649 8.82538 6.28888 8.82538C4.02734 8.82538 2.18747 6.98551 2.18747 4.72397C2.18747 2.46243 4.02734 0.622559 6.28888 0.622559C8.55042 0.622559 10.3903 2.46243 10.3903 4.72397C10.3903 5.50158 10.1728 6.22929 9.79549 6.84948L12.8456 9.89957C15.6699 7.35786 19.3987 5.8125 23.4863 5.8125C27.562 5.8125 31.2811 7.34897 34.1025 9.87763L37.1306 6.84948C36.7533 6.22929 36.5358 5.50158 36.5358 4.72397C36.5358 2.46243 38.3757 0.622559 40.6372 0.622559C42.8987 0.622559 44.7386 2.46243 44.7386 4.72397C44.7386 5.50158 44.5211 6.22929 44.1438 6.84948ZM13.3889 34.3219C12.426 33.5395 11.5555 32.6479 10.7964 31.6657L9.11768 33.3445L12.0349 36.2617L13.7142 34.5823C13.6046 34.4969 13.4962 34.4101 13.3889 34.3219ZM37.4999 21.877C37.4999 18.347 36.2142 15.1235 34.0907 12.6513L32.268 14.4741C33.9626 16.4809 34.9859 19.0721 34.9859 21.8981C34.9859 28.2519 29.8167 33.4212 23.4629 33.4212C17.1092 33.4212 11.9399 28.2519 11.9399 21.8981C11.9399 15.5444 17.1092 10.3751 23.4629 10.3751C26.289 10.3751 28.8802 11.3984 30.887 13.0931L32.6783 11.3018C30.2097 9.15203 26.9858 7.84846 23.4629 7.84846C18.9051 7.84846 14.8473 10.0301 12.2787 13.4039C10.5174 15.762 9.47261 18.695 9.47261 21.877C9.47261 26.4124 11.5951 30.4419 14.8899 33.0219C17.2637 34.8557 20.2382 35.9477 23.4629 35.9477C25.7789 35.9477 28.0737 35.3728 30.0996 34.285C34.633 31.8505 37.4999 27.036 37.4999 21.877ZM4.01875 43.4246C4.56951 43.4251 5.0775 43.2191 5.45795 42.8387L10.6539 37.6428L7.73668 34.7256L2.54087 39.9214C1.74794 40.7142 1.75721 42.0137 2.56148 42.818C2.95004 43.2065 3.4675 43.422 4.01875 43.4246ZM6.28898 2.57561C5.10435 2.57561 4.14062 3.53935 4.14062 4.72397C4.14062 5.90859 5.10435 6.87233 6.28898 6.87233C7.4736 6.87233 8.43733 5.90859 8.43733 4.72397C8.43733 3.53935 7.4736 2.57561 6.28898 2.57561ZM25.5886 18.3915L29.501 14.4792C27.8528 13.1354 25.7506 12.3282 23.4631 12.3282C21.1757 12.3282 19.0735 13.1353 17.4253 14.4792L21.3376 18.3915C21.9578 18.0142 22.6855 17.7967 23.4631 17.7967C24.2407 17.7967 24.9684 18.0142 25.5886 18.3915ZM25.6114 21.8981C25.6114 20.7135 24.6477 19.7498 23.463 19.7498C22.2785 19.7498 21.3147 20.7135 21.3147 21.8981C21.3147 23.0828 22.2784 24.0465 23.463 24.0465C24.6477 24.0465 25.6114 23.0828 25.6114 21.8981ZM13.8931 21.8981C13.8931 27.175 18.1862 31.4681 23.463 31.4681C28.74 31.4681 33.033 27.175 33.033 21.8981C33.033 19.6107 32.2259 17.5085 30.882 15.8603L26.9696 19.7726C27.347 20.3928 27.5644 21.1205 27.5644 21.8981C27.5644 24.1597 25.7246 25.9996 23.463 25.9996C21.2015 25.9996 19.3616 24.1597 19.3616 21.8981C19.3616 21.1205 19.5791 20.3928 19.9564 19.7726L16.0441 15.8603C14.7002 17.5085 13.8931 19.6106 13.8931 21.8981ZM40.6373 2.57561C39.4527 2.57561 38.4889 3.53935 38.4889 4.72397C38.4889 5.90859 39.4527 6.87233 40.6373 6.87233C41.8219 6.87233 42.7857 5.90859 42.7857 4.72397C42.7857 3.53935 41.8219 2.57561 40.6373 2.57561Z" fill="#46B274"/>
</svg>
