<svg width="50" height="50" viewBox="0 0 50 50" fill="none" xmlns="http://www.w3.org/2000/svg">
<path d="M31.6371 -0.00476074C21.3709 -0.00476074 13.0194 8.32049 13.0194 18.5535C13.0194 22.4532 14.2693 26.2831 16.5536 29.4335L13.6611 32.3252L12.9705 31.6346C12.5913 31.2554 11.9774 31.2531 11.5947 31.6289L1.53646 41.5204C-0.222454 43.2797 -0.513189 46.0447 0.860363 47.9528C2.64751 50.4336 6.17639 50.6919 8.28938 48.5805L18.4903 38.5463C18.8772 38.1663 18.8795 37.5428 18.496 37.1594L17.8054 36.4692L20.6964 33.5782C23.8471 35.8621 27.6771 37.1117 31.5776 37.1117C41.8582 37.1117 50 28.7471 50 18.5535C50 8.31362 41.8773 -0.00476074 31.6371 -0.00476074ZM6.91353 47.1932C5.67238 48.4336 3.55367 48.35 2.44529 46.8116C1.62536 45.672 1.82834 43.9913 2.91192 42.9077L12.2738 33.7011L16.4181 37.8442L6.91353 47.1932ZM15.0427 33.7064L17.789 30.9608C18.2244 31.4442 18.6853 31.9059 19.1694 32.342L16.4239 35.0876L15.0427 33.7064ZM31.5776 35.1582C22.4686 35.1582 14.9729 27.7666 14.9729 18.5535C14.9729 9.39759 22.4484 1.94874 31.6371 1.94874C40.6854 1.94874 48.0465 9.39759 48.0465 18.5535C48.0465 27.7093 40.6583 35.1582 31.5776 35.1582Z" fill="#46B274"/>
<path d="M27.9903 5.68378C27.8304 5.1687 27.2833 4.88063 26.7678 5.04012C22.1179 6.48197 18.4242 10.1959 17.0385 14.9163C16.8862 15.4341 17.1827 15.9766 17.7004 16.1289C18.2178 16.2807 18.7607 15.9843 18.9126 15.4669C20.1152 11.3707 23.2683 8.17029 27.3466 6.90586C27.8617 6.74637 28.1501 6.19924 27.9903 5.68378Z" fill="#46B274"/>
<path fill-rule="evenodd" clip-rule="evenodd" d="M30.9643 8.29388C33.6573 8.29388 35.8481 10.4847 35.8481 13.1776C35.8481 15.8706 33.6573 18.0614 30.9643 18.0614C28.2714 18.0614 26.0806 15.8706 26.0806 13.1776C26.0806 10.4847 28.2714 8.29388 30.9643 8.29388ZM28.0341 13.1776C28.0341 14.7935 29.3485 16.1079 30.9643 16.1079C32.5798 16.1079 33.8946 14.7935 33.8946 13.1776C33.8946 11.5618 32.5798 10.2474 30.9643 10.2474C29.3485 10.2474 28.0341 11.5618 28.0341 13.1776ZM24.1271 24.8986C24.1271 21.1286 27.1943 18.0614 30.9643 18.0614C34.7492 18.0614 37.8016 21.1259 37.8016 24.8986V26.8521C37.8016 27.3913 37.3643 27.8289 36.8248 27.8289H25.1038C24.5643 27.8289 24.1271 27.3913 24.1271 26.8521V24.8986ZM26.0806 24.8986V25.8754H35.8481V24.8986C35.8481 22.1946 33.6588 20.0149 30.9643 20.0149C28.2714 20.0149 26.0806 22.2057 26.0806 24.8986Z" fill="#46B274"/>
</svg>
