<svg width="56" height="50" viewBox="0 0 56 50" fill="none" xmlns="http://www.w3.org/2000/svg">
<path d="M33.6989 6.37527H33.6918C31.5451 6.37709 29.4366 6.94364 27.5781 8.01802C25.7195 9.0924 24.1763 10.6368 23.1034 12.4962C22.0274 10.6381 20.4826 9.09495 18.6233 8.02085C16.7641 6.94674 14.6556 6.37932 12.5084 6.37527H12.5013C14.6219 2.71897 18.5788 0.25528 23.1006 0.25528C27.6224 0.25528 31.5793 2.71897 33.6989 6.37527Z" fill="#BE716F"/>
<path d="M35.3439 36.9861C35.3467 39.1369 34.779 41.25 33.6989 43.1099C31.5789 46.7657 27.6219 49.2299 23.1001 49.2299C18.5783 49.2299 14.6219 46.7657 12.5013 43.1099H12.5084C14.6568 43.1075 16.7667 42.54 18.6263 41.4644C20.486 40.3887 22.0299 38.8428 23.1031 36.9817C24.1764 35.1207 24.7411 33.01 24.7407 30.8617C24.7402 28.7133 24.1746 26.6029 23.1006 24.7423C24.5939 27.3372 26.9894 29.2924 29.8308 30.2355L29.9348 30.27L30.0228 30.2979C30.0851 30.3178 30.148 30.3367 30.2118 30.3551C30.338 30.3929 30.4642 30.4289 30.59 30.4619C30.7455 30.5026 30.9024 30.5404 31.0594 30.5754C31.0944 30.5834 31.1298 30.5915 31.1653 30.5981L31.3506 30.6359C31.4144 30.6487 31.4796 30.661 31.5439 30.6723C31.6625 30.694 31.7802 30.7139 31.9017 30.7309C32.4977 30.8208 33.0995 30.8663 33.7022 30.8671C34.78 32.7261 35.3464 34.8373 35.3439 36.9861Z" fill="#7AA173"/>
<path d="M21.4693 18.238C21.3932 20.5161 21.9584 22.7698 23.1006 24.7423C22.0268 22.8805 20.4817 21.3344 18.6206 20.2594C16.7596 19.1844 14.6482 18.6184 12.499 18.6186C11.4229 16.7578 10.8566 14.6463 10.857 12.4968C10.8574 10.3474 11.4246 8.23605 12.5013 6.37574H12.5084C14.656 6.37933 16.7649 6.94649 18.6246 8.02053C20.4843 9.09456 22.0295 10.6379 23.1058 12.4962C23.0713 12.5543 23.0382 12.613 23.0061 12.6716C22.9739 12.7302 22.9413 12.7898 22.9115 12.8488C22.8817 12.9079 22.8486 12.9675 22.817 13.0275C22.7853 13.0875 22.7574 13.1447 22.7286 13.2043C22.7277 13.2068 22.7266 13.2091 22.7253 13.2114C22.696 13.2691 22.6681 13.3272 22.6411 13.3853C22.6403 13.3878 22.6392 13.3902 22.6378 13.3924C22.6137 13.4425 22.5905 13.4931 22.5679 13.5442C22.5362 13.6141 22.5045 13.686 22.4733 13.7559C22.4483 13.8117 22.4261 13.8689 22.401 13.9256C22.3967 13.9375 22.3915 13.9493 22.3863 13.9611C22.3712 13.9975 22.3566 14.0339 22.3424 14.0708C22.3282 14.1076 22.3164 14.135 22.3041 14.1677C22.2946 14.1927 22.2852 14.2149 22.2753 14.2419C22.2587 14.2844 22.2431 14.3274 22.228 14.3704C22.2086 14.4229 22.1897 14.4744 22.1713 14.5269C22.1528 14.5794 22.1363 14.6271 22.1188 14.6772C22.1164 14.6848 22.1145 14.6919 22.1117 14.699C22.0909 14.7604 22.0706 14.8214 22.0512 14.8833C22.0356 14.9306 22.02 14.9802 22.0039 15.0284C21.994 15.0592 21.985 15.0899 21.976 15.1206C21.9723 15.132 21.969 15.1433 21.9661 15.1551C21.9515 15.2048 21.9363 15.2544 21.9226 15.304C21.9089 15.3537 21.8914 15.4165 21.8754 15.4718C21.8645 15.5139 21.8527 15.556 21.8427 15.598C21.8328 15.6401 21.8177 15.6959 21.8063 15.7446C21.795 15.7933 21.7822 15.8457 21.7704 15.8958C21.7567 15.9563 21.743 16.0168 21.7302 16.0778C21.7175 16.1388 21.7076 16.1875 21.6967 16.2423C21.6834 16.308 21.6707 16.3737 21.6589 16.4394C21.647 16.5051 21.6352 16.5713 21.6244 16.6375C21.6135 16.7037 21.604 16.7632 21.5951 16.8266C21.5889 16.8653 21.5832 16.9046 21.578 16.9438C21.5728 16.983 21.5672 17.0218 21.562 17.0615C21.5289 17.3182 21.5033 17.5767 21.4868 17.8362C21.4868 17.8684 21.4826 17.902 21.4811 17.935C21.4774 18.0357 21.4731 18.1364 21.4693 18.238Z" fill="#A9587C"/>
<path d="M10.8568 12.4986C10.8543 14.6478 11.4209 16.7593 12.499 18.6186H12.4862C10.3378 18.6208 8.22774 19.1885 6.36825 20.2647C4.50877 21.3409 2.96534 22.8877 1.8931 24.7494C0.817076 22.8874 0.250344 20.7749 0.249909 18.6243C0.249473 16.4738 0.81535 14.361 1.89062 12.4986C2.96589 10.6362 4.51264 9.08972 6.37528 8.0148C8.23792 6.93989 10.3508 6.37442 12.5013 6.37527C11.4215 8.2351 10.8541 10.348 10.8568 12.4986Z" fill="#886C98"/>
<path d="M23.1006 24.7423C18.5774 24.7423 14.619 22.2772 12.499 18.6186C14.6482 18.6184 16.7596 19.1844 18.6206 20.2594C20.4817 21.3344 22.0268 22.8805 23.1006 24.7423Z" fill="#FFEB13"/>
<path d="M23.1006 24.7423C24.1744 22.8806 25.7196 21.3345 27.5806 20.2595C29.4417 19.1846 31.553 18.6186 33.7022 18.6186C31.5817 22.2772 27.6238 24.7423 23.1006 24.7423Z" fill="#FFEB13"/>
<path d="M44.3067 36.9861C43.2322 38.8486 41.6861 40.3953 39.8239 41.4703C37.9617 42.5453 35.8491 43.1108 33.6989 43.1099C34.7755 41.2495 35.3426 39.1382 35.3431 36.9888C35.3436 34.8394 34.7775 32.7279 33.7017 30.8671H33.7145C35.8615 30.8647 37.9701 30.2977 39.8286 29.2228C41.6871 28.1479 43.2302 26.6031 44.3029 24.7433C46.4144 28.409 46.5685 33.0679 44.3067 36.9861Z" fill="#E1BB80"/>
<path d="M35.3439 36.9861C35.3467 39.1369 34.7791 41.25 33.6989 43.1099H33.6918C31.5451 43.1076 29.4367 42.5407 27.5782 41.4662C25.7197 40.3917 24.1765 38.8473 23.1034 36.988C24.1742 35.1249 24.7373 33.0135 24.7366 30.8646C24.7358 28.7157 24.1712 26.6047 23.0992 24.7423C24.5929 27.3375 26.9888 29.2927 29.8308 30.2355L29.9348 30.27L30.0228 30.2979C30.0856 30.3178 30.148 30.3367 30.2118 30.3551C30.338 30.3929 30.4643 30.4289 30.59 30.4619C30.7455 30.5026 30.9024 30.5404 31.0594 30.5754L31.1653 30.5981L31.3506 30.6359C31.4148 30.6487 31.4796 30.661 31.5439 30.6723C31.6625 30.694 31.7802 30.7139 31.9017 30.7309C32.4977 30.8208 33.0995 30.8663 33.7022 30.8671C34.78 32.7261 35.3464 34.8373 35.3439 36.9861Z" fill="#B59E5B"/>
<path d="M23.1006 24.7423C20.8387 20.8237 20.9947 16.1615 23.1058 12.4967C23.6385 13.4246 24.0478 14.4181 24.3235 15.452C24.7442 17.0044 24.8527 18.625 24.6428 20.2197C24.4329 21.8144 23.9087 23.3516 23.1006 24.7423Z" fill="#B95D75"/>
<path d="M35.3439 12.4986C35.3439 19.2501 29.8516 24.7414 23.1011 24.7414C23.9092 23.3507 24.4334 21.8134 24.6433 20.2187C24.8532 18.624 24.7446 17.0035 24.3239 15.451C24.0483 14.4172 23.6389 13.4237 23.1063 12.4957C24.1791 10.6362 25.7222 9.09163 27.5808 8.01715C29.4393 6.94267 31.5479 6.3761 33.6947 6.37432H33.6989C34.7793 8.2343 35.3469 10.3476 35.3439 12.4986Z" fill="#B55649"/>
<path d="M33.7022 30.8671C31.5528 30.8674 29.4413 30.3014 27.5802 29.2262C25.719 28.151 24.174 26.6045 23.1006 24.7423C27.6238 24.7423 31.5817 27.2079 33.7022 30.8671Z" fill="#CBA05B"/>
<path d="M44.3038 24.7423C43.2312 26.6024 41.6881 28.1475 39.8295 29.2225C37.9709 30.2976 35.8621 30.8647 33.715 30.8671H33.7022C31.5817 27.2089 27.6238 24.7433 23.1006 24.7433C27.6238 24.7433 31.5817 22.2782 33.7022 18.6195H33.715C35.8619 18.6218 37.9705 19.1889 39.8291 20.2637C41.6876 21.3386 43.2307 22.8835 44.3034 24.7433L44.3038 24.7423Z" fill="#D59C5D"/>
<path d="M44.3038 24.7423C43.2311 22.8825 41.6881 21.3377 39.8295 20.2628C37.971 19.1879 35.8624 18.6209 33.7155 18.6186H33.7027C34.7785 16.7577 35.3447 14.6462 35.3442 12.4968C35.3437 10.3474 34.7765 8.23606 33.6999 6.37574C35.85 6.37439 37.9626 6.93967 39.8248 8.01466C41.687 9.08965 43.233 10.6364 44.3071 12.499C46.5685 16.4167 46.4144 21.0775 44.3038 24.7423Z" fill="#D19376"/>
<path d="M23.1006 24.7423C18.5774 24.7423 14.619 22.2772 12.499 18.6186C14.6482 18.6184 16.7596 19.1844 18.6206 20.2594C20.4817 21.3344 22.0268 22.8805 23.1006 24.7423Z" fill="#AB6FA3"/>
<path d="M23.1006 24.7423C22.0268 26.6041 20.4816 28.1504 18.6206 29.2255C16.7596 30.3007 14.6482 30.8668 12.499 30.8671C14.619 27.2079 18.5774 24.7423 23.1006 24.7423Z" fill="#8B9FAC"/>
<path d="M23.1006 24.7423C18.5774 24.7423 14.619 27.2079 12.499 30.8661H12.4862C10.3397 30.8626 8.23164 30.2959 6.37274 29.2225C4.51384 28.1492 2.96918 26.6068 1.8931 24.7494C2.96533 22.8877 4.50876 21.3409 6.36825 20.2647C8.22773 19.1885 10.3377 18.6208 12.4862 18.6186H12.499C14.619 22.2772 18.5774 24.7423 23.1006 24.7423Z" fill="#7766A5"/>
<path d="M24.3234 34.0341C24.048 35.0682 23.6384 36.0618 23.1048 36.9894C20.9947 33.3241 20.8387 28.6619 23.1006 24.7438C23.9087 26.1345 24.4329 27.6717 24.6428 29.2664C24.8527 30.8611 24.7442 32.4816 24.3234 34.0341Z" fill="#BAAA8D"/>
<path d="M23.1049 36.988C22.029 38.8466 20.484 40.3902 18.6245 41.4645C16.765 42.5389 14.656 43.1062 12.5084 43.1099H12.5014C11.4247 41.2495 10.8575 39.1382 10.8571 36.9888C10.8567 34.8393 11.423 32.7278 12.499 30.867C13.3514 30.8662 14.2013 30.7762 15.035 30.5986C15.0993 30.5853 15.1631 30.5711 15.2274 30.5565C15.2917 30.5418 15.356 30.5267 15.4198 30.5092C15.4836 30.4917 15.5465 30.4771 15.6089 30.4619C15.7355 30.4289 15.8617 30.3939 15.987 30.3556C16.0499 30.3376 16.1132 30.3182 16.1761 30.2984C16.3021 30.2581 16.4282 30.2161 16.5542 30.1727C16.6771 30.1301 16.7991 30.0847 16.9201 30.0375H16.9239C17.0452 29.9911 17.1661 29.9421 17.2864 29.8905C17.347 29.8654 17.4075 29.8385 17.4675 29.812C17.5854 29.76 17.7023 29.7058 17.8182 29.6494L17.8277 29.6451C17.9449 29.5889 18.0617 29.5303 18.177 29.4698C18.2923 29.4093 18.4105 29.3454 18.5254 29.2807C20.4268 28.2047 22.0052 26.6389 23.0964 24.7461C20.8388 28.6605 20.9947 33.3251 23.1049 36.988Z" fill="#8B9FAC"/>
<path d="M10.8568 36.9861C10.8541 39.1368 11.4216 41.2498 12.5013 43.1099C10.3511 43.111 8.2386 42.5455 6.37645 41.4705C4.5143 40.3954 2.96827 38.8487 1.89404 36.9861C-0.366386 33.0708 -0.211342 28.4128 1.89404 24.7494C2.96992 26.6068 4.51439 28.1493 6.37311 29.2228C8.23184 30.2964 10.3397 30.8633 12.4862 30.867H12.499C11.4211 32.726 10.8545 34.8372 10.8568 36.9861Z" fill="#7880A8"/>
<path d="M15.6103 30.461C15.7369 30.4279 15.8641 30.3925 15.9884 30.3546C15.8632 30.3944 15.7365 30.4279 15.6103 30.461Z" fill="#FFEB13"/>
<path d="M16.5566 30.1717C16.6795 30.1282 16.8014 30.0828 16.9224 30.0365C16.8014 30.0838 16.6818 30.1292 16.5566 30.1717Z" fill="#FFEB13"/>
<path d="M16.9262 30.0351C17.0477 29.9878 17.1687 29.9406 17.2888 29.8881C17.1678 29.9395 17.0469 29.9885 16.9262 30.0351Z" fill="#FFEB13"/>
<path d="M18.1813 29.4665C18.0659 29.527 17.9492 29.5856 17.8319 29.6418C17.9492 29.5851 18.0659 29.5265 18.1813 29.4665Z" fill="#FFEB13"/>
<path d="M23.1006 24.9976C29.7216 24.9976 35.0891 30.365 35.0891 36.9861C35.0891 43.6071 29.7216 48.9746 23.1006 48.9746C16.4795 48.9746 11.1121 43.6071 11.1121 36.9861C11.1121 30.365 16.4795 24.9976 23.1006 24.9976ZM23.1006 24.4871C20.0106 24.4905 17.032 25.6415 14.7426 27.7168C12.4532 29.7922 11.0163 32.6439 10.7106 35.7187C10.4048 38.7936 11.2521 41.8724 13.088 44.3579C14.9238 46.8434 17.6175 48.5584 20.6463 49.1702C23.6751 49.7821 26.8233 49.2471 29.48 47.6691C32.1367 46.0911 34.1126 43.5826 35.0244 40.6301C35.9362 37.6777 35.7188 34.4919 34.4145 31.6906C33.1102 28.8893 30.812 26.6724 27.9656 25.4698C26.4266 24.8179 24.7719 24.4831 23.1006 24.4857V24.4871Z" fill="white"/>
<path d="M12.5084 6.63005C14.6094 6.6297 16.6733 7.18411 18.4913 8.23722C24.2256 11.5461 26.1901 18.88 22.8798 24.6138C22.0931 25.9777 21.0453 27.1732 19.7963 28.132C18.5473 29.0908 17.1216 29.7941 15.6007 30.2016C14.0797 30.6091 12.4934 30.7129 10.9324 30.507C9.3713 30.3011 7.86612 29.7897 6.50283 29.0018C0.769033 25.6929 -1.19549 18.3595 2.1148 12.6253C3.16755 10.8007 4.68261 9.28581 6.50732 8.23329C8.33203 7.18077 10.4019 6.62778 12.5084 6.63005ZM12.5084 6.12001C10.3123 6.11776 8.15435 6.69444 6.25211 7.79195C4.34987 8.88946 2.77054 10.469 1.6733 12.3714C0.57733 14.2708 0.0002567 16.4251 8.56213e-08 18.6181C-0.000256529 20.811 0.576313 22.9654 1.67184 24.8651C2.76736 26.7648 4.3433 28.3429 6.24148 29.441C8.13965 30.5391 10.2933 31.1186 12.4862 31.1214C14.6824 31.1236 16.8403 30.5469 18.7425 29.4494C20.6448 28.3519 22.2241 26.7724 23.3213 24.87C24.4174 22.9706 24.9946 20.8163 24.995 18.6234C24.9953 16.4304 24.4188 14.276 23.3233 12.3763C22.2278 10.4765 20.6519 8.89843 18.7537 7.80031C16.8555 6.70218 14.7018 6.1227 12.5089 6.12001H12.5084Z" fill="white"/>
<path d="M33.715 18.8738C35.8161 18.873 37.88 19.4274 39.6979 20.481C45.4322 23.7898 47.3967 31.1232 44.0864 36.8575C43.2997 38.2215 42.2519 39.417 41.0028 40.3758C39.7538 41.3346 38.3281 42.0378 36.8072 42.4453C35.2863 42.8528 33.7 42.9566 32.1389 42.7508C30.5779 42.5449 29.0727 42.0334 27.7094 41.2456C21.9756 37.9367 20.0111 30.6028 23.3213 24.869C24.3741 23.0444 25.8892 21.5296 27.7139 20.477C29.5386 19.4245 31.6085 18.8715 33.715 18.8738ZM33.715 18.3633C31.5189 18.3613 29.361 18.9381 27.4588 20.0356C25.5566 21.133 23.9773 22.7125 22.8799 24.6147C21.7837 26.5141 21.2065 28.6684 21.2062 30.8614C21.2059 33.0544 21.7824 35.2089 22.878 37.1086C23.9735 39.0083 25.5495 40.5864 27.4478 41.6845C29.3461 42.7826 31.4998 43.362 33.6928 43.3646C35.8889 43.3669 38.0468 42.7902 39.9491 41.6927C41.8513 40.5952 43.4307 39.0156 44.5279 37.1132C45.6238 35.2139 46.2009 33.0596 46.2012 30.8667C46.2015 28.6738 45.6249 26.5194 44.5295 24.6198C43.434 22.7201 41.8581 21.142 39.96 20.0439C38.0619 18.9457 35.9083 18.3661 33.7155 18.3633H33.715Z" fill="white"/>
<path d="M33.6927 6.63005C35.7994 6.62768 37.8694 7.18073 39.6942 8.23344C41.5189 9.28615 43.0339 10.8013 44.0864 12.6262C47.3952 18.3605 45.4321 25.6924 39.6979 29.0027C38.3346 29.7906 36.8295 30.3021 35.2685 30.5079C33.7074 30.7138 32.1211 30.61 30.6003 30.2025C29.0794 29.795 27.6537 29.0917 26.4047 28.1329C25.1558 27.1741 24.108 25.9786 23.3213 24.6147C20.0125 18.8809 21.9756 11.5489 27.7094 8.23816C29.5276 7.18503 31.5916 6.63063 33.6927 6.631V6.63005ZM33.6927 6.12096C30.6582 6.12418 27.7285 7.23189 25.451 9.23722C23.1734 11.2425 21.7037 14.0083 21.3163 17.0181C20.9289 20.0278 21.6503 23.0757 23.3458 25.5924C25.0412 28.1091 27.5948 29.9226 30.5297 30.6942C33.4645 31.4658 36.5799 31.1428 39.2939 29.7853C42.0079 28.4279 44.1351 26.129 45.278 23.3179C46.421 20.5068 46.5016 17.3758 45.5048 14.5096C44.508 11.6434 42.502 9.23806 39.8614 7.74278C37.9801 6.67765 35.8546 6.11884 33.6927 6.12096Z" fill="white"/>
<path d="M12.4862 18.8738C14.5928 18.8714 16.6629 19.4245 18.4876 20.4772C20.3124 21.5299 21.8274 23.0451 22.8798 24.87C26.1887 30.6038 24.2256 37.9362 18.4913 41.2465C17.1281 42.0344 15.6229 42.5458 14.0619 42.7517C12.5009 42.9575 10.9146 42.8537 9.39372 42.4462C7.87283 42.0387 6.44717 41.3355 5.19821 40.3767C3.94925 39.4179 2.90148 38.2224 2.11479 36.8585C-1.19408 31.1242 0.769028 23.7922 6.50283 20.4819C8.32102 19.4288 10.385 18.8744 12.4862 18.8748V18.8738ZM12.4862 18.3642C9.45125 18.3673 6.52116 19.4749 4.2432 21.4804C1.96523 23.4859 0.495173 26.252 0.10758 29.2621C-0.280014 32.2722 0.441365 35.3205 2.13698 37.8376C3.8326 40.3547 6.38651 42.1685 9.3217 42.9403C12.2569 43.712 15.3727 43.3889 18.0871 42.0314C20.8015 40.6738 22.9289 38.3745 24.072 35.5631C25.215 32.7516 25.2956 29.6202 24.2987 26.7536C23.3017 23.8871 21.2954 21.4815 18.6544 19.9861C16.7732 18.9212 14.6479 18.3624 12.4862 18.3642Z" fill="white"/>
<path d="M23.1006 0.510062C29.7216 0.510062 35.0891 5.87752 35.0891 12.4986C35.0891 19.1196 29.7216 24.4857 23.1006 24.4857C16.4795 24.4857 11.1121 19.1196 11.1121 12.4986C11.1121 5.87752 16.4795 0.510062 23.1006 0.510062ZM23.1006 2.33562e-05C20.2179 0.00282775 17.4248 1.00171 15.1942 2.82755C12.9635 4.65339 11.4323 7.19399 10.8599 10.0192C10.2874 12.8444 10.7089 15.7807 12.0529 18.3308C13.3969 20.881 15.5809 22.8883 18.2351 24.013C21.2805 25.2563 24.6933 25.2494 27.7335 23.9936C30.7738 22.7378 33.1967 20.3343 34.4769 17.3042C35.7571 14.2741 35.7915 10.8615 34.5727 7.80625C33.3538 4.75096 30.9799 2.29914 27.9656 0.982285C26.4265 0.330873 24.7718 -0.00321764 23.1006 2.33562e-05Z" fill="white"/>
<path d="M23.1006 12.7538C29.7216 12.7538 35.0891 18.1213 35.0891 24.7423C35.0891 31.3634 29.7216 36.7308 23.1006 36.7308C16.4795 36.7308 11.1121 31.3634 11.1121 24.7423C11.1121 18.1213 16.4795 12.7538 23.1006 12.7538ZM23.1006 12.2438C20.0113 12.2476 17.0336 13.3988 14.745 15.4739C12.4565 17.549 11.0202 20.4002 10.7149 23.4743C10.4096 26.5484 11.257 29.6264 13.0927 32.1111C14.9284 34.5958 17.6215 36.3102 20.6497 36.9216C23.6778 37.533 26.8252 36.9978 29.4811 35.42C32.137 33.8422 34.1123 31.3341 35.0236 28.3823C35.935 25.4305 35.7175 22.2455 34.4133 19.445C33.1092 16.6445 30.8113 14.4282 27.9656 13.226C26.4265 12.5744 24.7719 12.24 23.1006 12.2428V12.2438Z" fill="white"/>
<path d="M2.17905 36.9965C2.17905 36.9965 7.08137 30.5399 12.5817 29.1772C22.8004 27.0325 28.7228 32.4052 33.8879 32.4052C36.6849 32.4052 38.0184 32.0478 38.5828 31.975C38.8366 31.942 39.0673 32.4581 39.012 32.7082C38.7085 34.079 38.3596 36.7573 34.3899 37.9551C29.3349 39.4777 22.0999 32.79 20.7593 35.7552C19.4187 38.7204 25.1596 41.7334 30.3725 41.4942C35.5854 41.255 45.0076 35.3246 48.499 32.79C51.9903 30.2554 56.5348 31.4986 53.5686 34.416C50.6025 37.3335 39.1727 48.1422 29.0357 49.2899C11.6315 51.2582 2.49008 38.2411 2.17905 36.9965Z" fill="white"/>
<path d="M25.5043 49.9999C22.7619 50.0079 20.0323 49.6259 17.3975 48.8654C14.3594 47.9764 11.4893 46.5906 8.90366 44.7643C4.44378 41.6289 1.89879 37.9783 1.68418 37.1203C1.66572 37.0463 1.66411 36.969 1.6795 36.8942C1.69488 36.8194 1.72685 36.7491 1.77305 36.6883C1.8241 36.6207 3.04696 35.0187 4.96989 33.2249C7.57302 30.7966 10.0925 29.2684 12.4588 28.6818L12.4768 28.6775C19.1512 27.2769 24.063 29.0273 28.01 30.4331C30.2123 31.2178 32.114 31.8952 33.8885 31.8952C36.1035 31.8952 37.3864 31.665 38.0789 31.5416C38.2566 31.5094 38.3975 31.4844 38.518 31.4688C38.7605 31.4381 38.9978 31.5331 39.185 31.7382C39.4053 31.9793 39.5944 32.4397 39.5107 32.8183C39.494 32.8933 39.477 32.9721 39.4597 33.0547C39.1505 34.512 38.5757 37.2253 34.5375 38.4434C31.8086 39.2654 28.5342 37.8715 25.9061 36.7512C24.6681 36.2236 23.4986 35.7254 22.6203 35.5576C21.6404 35.3685 21.3705 35.6427 21.2249 35.9651C20.9635 36.5436 21.0439 37.1511 21.4641 37.7698C22.0692 38.6618 23.345 39.5188 24.9644 40.1248C26.6661 40.7601 28.5796 41.0659 30.3499 40.9846C35.5727 40.745 45.2289 34.5337 48.1998 32.3768C50.6909 30.5683 53.6727 30.5395 54.6757 31.7222C54.9981 32.1031 55.571 33.1634 53.9284 34.7796C49.7129 38.9265 38.8551 48.6919 29.0925 49.7971C27.9012 49.9321 26.7032 49.9998 25.5043 49.9999ZM2.76524 37.0783C3.24644 37.9925 5.51207 41.1435 9.52478 43.956C13.4675 46.7156 20.038 49.7928 28.9767 48.7822C38.4235 47.7125 49.0714 38.1243 53.2113 34.0511C53.5554 33.7127 54.3113 32.8694 53.8958 32.3806C53.606 32.0384 52.8558 31.8696 51.9837 31.9509C50.9017 32.0521 49.771 32.496 48.7992 33.2017C45.5451 35.5652 35.8946 41.7509 30.3962 42.0028C30.1915 42.0123 29.9854 42.017 29.7817 42.017C25.9963 42.017 22.0602 40.4614 20.6223 38.3423C19.9983 37.4224 19.8858 36.4553 20.2975 35.5439C20.7031 34.6458 21.5502 34.3149 22.8146 34.5545C23.8002 34.7436 25.0183 35.2636 26.3078 35.8114C28.9152 36.9223 31.8705 38.1811 34.2458 37.4659C37.705 36.4259 38.1616 34.27 38.4642 32.8443C38.4807 32.7659 38.4968 32.6902 38.5114 32.6179C38.5059 32.58 38.4951 32.5431 38.4793 32.5082C38.4145 32.5196 38.3417 32.5324 38.26 32.5475C37.5382 32.6765 36.1952 32.9167 33.8894 32.9167C31.9386 32.9167 29.9599 32.2119 27.6687 31.3955C23.8442 30.0332 19.0846 28.3381 12.6961 29.6759C8.0131 30.8396 3.68699 35.9362 2.76524 37.0783Z" fill="#4B7649"/>
</svg>
