<svg width="40" height="40" viewBox="0 0 40 40" fill="none" xmlns="http://www.w3.org/2000/svg">
<g opacity="0.4">
<path fill-rule="evenodd" clip-rule="evenodd" d="M20 0C31.0457 0 40 8.95431 40 20C40 31.0457 31.0457 40 20 40C8.95431 40 0 31.0457 0 20C0 8.95431 8.95431 0 20 0ZM20.8968 9.33387H19.1021C17.0109 9.33674 16.6105 9.35192 15.6027 9.39778C14.4672 9.44978 13.692 9.62956 13.0138 9.89334C12.3123 10.1658 11.7171 10.5302 11.1242 11.1234C10.5309 11.7162 10.1665 12.3114 9.89312 13.0127C9.62867 13.6912 9.44867 14.4665 9.39756 15.6016C9.35248 16.6094 9.33687 17.0099 9.33389 19.1012L9.33388 20.899C9.33678 22.99 9.35211 23.3895 9.39778 24.3973C9.45 25.5328 9.62978 26.308 9.89334 26.9862C10.166 27.6877 10.5305 28.2829 11.1236 28.8758C11.7162 29.4691 12.3114 29.8344 13.0125 30.1069C13.6912 30.3707 14.4665 30.5504 15.6018 30.6024C16.6746 30.6513 17.0589 30.6653 19.5273 30.6668H20.4721C22.9408 30.6653 23.3243 30.6513 24.397 30.6024C25.5326 30.5504 26.3086 30.3707 26.9873 30.1069C27.6886 29.8344 28.2829 29.4691 28.8755 28.8758C29.4689 28.2829 29.8333 27.6877 30.1067 26.9864C30.3689 26.308 30.5489 25.5326 30.6022 24.3975C30.6533 23.2597 30.6667 22.897 30.6667 20.0001C30.6667 17.1032 30.6533 16.7396 30.6022 15.6018C30.5489 14.4663 30.3689 13.6912 30.1067 13.0129C29.8333 12.3114 29.4689 11.7162 28.8755 11.1234C28.2822 10.53 27.6889 10.1656 26.9866 9.89334C26.3066 9.62956 25.5311 9.44978 24.3955 9.39778C23.3877 9.35192 22.9884 9.33674 20.8968 9.33387Z" fill="white"/>
<path fill-rule="evenodd" clip-rule="evenodd" d="M19.0443 11.2529V11.2556C19.3283 11.2552 19.6452 11.2556 20.0012 11.2556L20.8842 11.256C22.9367 11.2585 23.3154 11.2717 24.3115 11.3169C25.3515 11.3645 25.916 11.5383 26.292 11.6843C26.7897 11.8776 27.1446 12.1087 27.5178 12.4821C27.8911 12.8554 28.1222 13.2109 28.316 13.7087C28.462 14.0843 28.636 14.6487 28.6833 15.6888C28.7315 16.749 28.7441 17.1098 28.7454 19.5336V20.4617C28.7441 22.8856 28.7315 23.2464 28.6833 24.3066C28.6358 25.3466 28.462 25.9111 28.316 26.2866C28.1226 26.7844 27.8911 27.1389 27.5178 27.512C27.1444 27.8853 26.79 28.1164 26.292 28.3098C25.9164 28.4564 25.3515 28.6298 24.3115 28.6773C23.3155 28.7226 22.9367 28.7365 20.8843 28.7391H19.1181C17.0655 28.7365 16.6869 28.7226 15.691 28.6773C14.651 28.6293 14.0865 28.4556 13.7103 28.3096C13.2125 28.1162 12.8569 27.8851 12.4836 27.5118C12.1103 27.1384 11.8791 26.7838 11.6854 26.2858C11.5394 25.9102 11.3654 25.3457 11.318 24.3057C11.2728 23.3098 11.2596 22.931 11.2571 20.8782V19.1119C11.2596 17.0594 11.2728 16.682 11.318 15.6861C11.3656 14.6461 11.5394 14.0816 11.6854 13.7056C11.8787 13.2078 12.1103 12.8523 12.4836 12.4789C12.8569 12.1056 13.2125 11.8745 13.7103 11.6807C14.0863 11.534 14.651 11.3607 15.691 11.3129C16.675 11.2685 17.0563 11.2552 19.0443 11.2529ZM20.001 14.5223C16.9761 14.5223 14.5234 16.975 14.5234 20.0001C14.5234 23.0253 16.9761 25.4769 20.0012 25.4769C23.0264 25.4769 25.4782 23.0253 25.4782 20.0001C25.4782 16.975 23.0262 14.5223 20.001 14.5223ZM25.6951 13.0263C24.9884 13.0267 24.4151 13.5994 24.4151 14.3063C24.4151 15.013 24.9884 15.5863 25.6951 15.5863C26.4017 15.5863 26.9751 15.013 26.9751 14.3063C26.9751 13.5996 26.4017 13.0263 25.6951 13.0263Z" fill="white"/>
<path fill-rule="evenodd" clip-rule="evenodd" d="M20.0009 16.4446C21.9645 16.4446 23.5565 18.0364 23.5565 20.0002C23.5565 21.9637 21.9645 23.5558 20.0009 23.5558C18.0371 23.5558 16.4453 21.9637 16.4453 20.0002C16.4453 18.0364 18.0371 16.4446 20.0009 16.4446Z" fill="white"/>
</g>
</svg>
