<svg width="41" height="40" viewBox="0 0 41 40" fill="none" xmlns="http://www.w3.org/2000/svg">
<g opacity="0.4">
<path fill-rule="evenodd" clip-rule="evenodd" d="M20.0289 0C31.0906 0 40.0578 8.95431 40.0578 20C40.0578 31.0457 31.0906 40 20.0289 40C8.96725 40 0 31.0457 0 20C0 8.95431 8.96725 0 20.0289 0ZM20.2253 12.6672H19.7747C18.8385 12.6705 15.123 12.6958 12.532 12.8874C12.1147 12.9378 11.206 12.9419 10.394 13.8105C9.75467 14.472 9.54667 15.9742 9.54667 15.9742L9.54106 16.0222C9.50858 16.3053 9.34559 17.7972 9.33399 19.3319L9.33333 21.1566C9.33333 22.9211 9.54667 24.6849 9.54667 24.6849C9.54667 24.6849 9.75467 26.1871 10.394 26.8487C11.206 27.7173 12.272 27.69 12.7467 27.7806C14.4533 27.9482 20 28 20 28C20 28 24.4827 27.9932 27.468 27.7725C27.8847 27.7214 28.794 27.7173 29.6053 26.8487C30.2447 26.1871 30.4533 24.6849 30.4533 24.6849C30.4533 24.6849 30.6667 22.9211 30.6667 21.1566V19.5025C30.6667 17.7387 30.4533 15.9742 30.4533 15.9742C30.4533 15.9742 30.2447 14.472 29.6053 13.8105C28.794 12.9419 27.8847 12.9378 27.468 12.8874C24.877 12.6958 21.1615 12.6705 20.2253 12.6672Z" fill="white"/>
<path fill-rule="evenodd" clip-rule="evenodd" d="M17.7975 23.1612L17.7969 17.0359L23.5609 20.1091L17.7975 23.1612Z" fill="white"/>
</g>
</svg>
