<?xml version="1.0" encoding="UTF-8"?>
<svg width="20px" height="16px" viewBox="0 0 20 16" version="1.1" xmlns="http://www.w3.org/2000/svg" xmlns:xlink="http://www.w3.org/1999/xlink">
    <!-- Generator: Sketch 58 (84663) - https://sketch.com -->
    <title>color</title>
    <desc>Created with Sketch.</desc>
    <g id="Updated-Site" stroke="none" stroke-width="1" fill="none" fill-rule="evenodd">
        <g id="About" transform="translate(-800.000000, -1666.000000)" fill="#F8F8FA">
            <g id="Company-statements" transform="translate(-2.000000, 1233.000000)">
                <g id="Group-7" transform="translate(109.000000, 189.000000)">
                    <g id="Drive" transform="translate(683.000000, 220.000000)">
                        <g transform="translate(0.000000, 12.000000)" id="00-General-/-01-Icons-/-02-Common-/-17-Flag">
                            <g transform="translate(8.000000, 8.000000)">
                                <path d="M13,4 C14.1045695,4 15,4.8954305 15,6 L15,7 L19.618034,7 L22,11.763932 L22,17 L20,17 C20,18.6568542 18.6568542,20 17,20 C15.3431458,20 14,18.6568542 14,17 L10,17 C10,18.6568542 8.65685425,20 7,20 C5.34314575,20 4,18.6568542 4,17 L2,17 L2,6 C2,4.8954305 2.8954305,4 4,4 L13,4 Z M7,16 C6.81590508,16 6.48257175,16 6,16 C6,16.4825718 6,16.8159051 6,17 C6,17.1840949 6,17.5174282 6,18 C6.48257175,18 6.81590508,18 7,18 C7.18409492,18 7.51742825,18 8,18 C8,17.5174282 8,17.1840949 8,17 C8,16.8159051 8,16.4825718 8,16 C7.51742825,16 7.18409492,16 7,16 Z M17,16 C16.8299207,16 16.4965874,16 16,16 L16,17 C16,17.1840949 16,17.5174282 16,18 C16.4825718,18 16.8159051,18 17,18 C17.1840949,18 17.5174282,18 18,18 C18,17.5174282 18,17.1840949 18,17 C18,16.8159051 18,16.4825718 18,16 C17.5174282,16 17.1840949,16 17,16 Z M13,6 L4,6 L4,15 L4.76380548,15.0000983 C5.31312878,14.3862919 6.11145274,14 7,14 C7.88854726,14 8.68687122,14.3862919 9.23619452,15.0000983 L13,15 L13,6 Z M18.381,9 L15,9 L15.0000983,14.7638055 C15.5308431,14.2888179 16.231693,14 17,14 C17.8885473,14 18.6868712,14.3862919 19.2361945,15.0000983 L20,15 L20,12.237 L18.381,9 Z" id="color"></path>
                            </g>
                        </g>
                    </g>
                </g>
            </g>
        </g>
    </g>
</svg>