<?xml version="1.0" encoding="UTF-8"?>
<svg width="17px" height="17px" viewBox="0 0 17 17" version="1.1" xmlns="http://www.w3.org/2000/svg" xmlns:xlink="http://www.w3.org/1999/xlink">
    <!-- Generator: Sketch 58 (84663) - https://sketch.com -->
    <title>check-mark-button</title>
    <desc>Created with Sketch.</desc>
    <g id="Updated-Site" stroke="none" stroke-width="1" fill="none" fill-rule="evenodd">
        <g id="Pricing" transform="translate(-294.000000, -498.000000)" fill="#608DFF">
            <g transform="translate(245.000000, 307.000000)" id="Column-1">
                <g>
                    <g id="Group">
                        <g id="Group-2" transform="translate(49.000000, 191.000000)">
                            <g id="check-mark-button">
                                <g id="Group-3">
                                    <path d="M8.18555904,0.164542306 C3.6723149,0.164542306 0,3.91971329 0,8.53516253 C0,13.1502361 3.6723149,16.9054071 8.18555904,16.9054071 C12.6988032,16.9054071 16.3711181,13.1502361 16.3711181,8.53516253 C16.3711181,3.91971329 12.6988032,0.164542306 8.18555904,0.164542306 Z M8.18555904,15.5552586 C4.40009159,15.5552586 1.3188886,12.4060391 1.3188886,8.53516253 C1.3188886,4.66240767 4.40009159,1.51318815 8.18555904,1.51318815 C11.9713939,1.51318815 15.0511273,4.66391034 15.0511273,8.53516253 C15.0511273,12.4060391 11.9713939,15.5552586 8.18555904,15.5552586 Z" id="Fill-1"></path>
                                </g>
                                <path d="M10.7946807,5.86567024 L6.97431232,9.77373783 L5.57533522,8.34282084 C5.31853769,8.08022935 4.9008284,8.08022935 4.64403087,8.34282084 C4.38576383,8.606915 4.38576383,9.03404879 4.64403087,9.29664028 L6.50810908,11.2042792 C6.63705891,11.3350114 6.80495086,11.4011289 6.97431232,11.4011289 C7.14220427,11.4011289 7.31156573,11.3350114 7.44088294,11.2042792 L11.7274546,6.81948968 C11.9857216,6.55539552 11.9857216,6.12976439 11.7274546,5.86567024 C11.4706571,5.60307875 11.0529478,5.60307875 10.7946807,5.86567024 Z" id="Fill-4"></path>
                            </g>
                        </g>
                    </g>
                </g>
            </g>
        </g>
    </g>
</svg>