<?xml version="1.0" encoding="UTF-8"?>
<svg width="196px" height="26px" viewBox="0 0 196 26" version="1.1" xmlns="http://www.w3.org/2000/svg" xmlns:xlink="http://www.w3.org/1999/xlink">
    <!-- Generator: Sketch 58 (84663) - https://sketch.com -->
    <title>Group 2</title>
    <desc>Created with Sketch.</desc>
    <g id="Symbols" stroke="none" stroke-width="1" fill="none" fill-rule="evenodd">
        <g id="Group-2">
            <g id="Logotype/Icon" fill="#2296F3">
                <path d="M7.1980719,23.6843292 C7.58233987,23.6843292 7.75331373,24.1046228 7.4964902,24.3569898 L7.4964902,24.3569898 L6.04720261,25.7872283 C5.6634183,26.2077604 5.02329412,25.6188246 5.49268627,25.2402742 L5.49268627,25.2402742 L6.94269935,23.8100356 C6.9857451,23.7258338 7.07014379,23.6843292 7.15575163,23.6843292 L7.15575163,23.6843292 Z M29.7571895,23.6843292 C29.8853595,23.6843292 29.9709673,23.7258338 30.0563333,23.8100356 L30.0563333,23.8100356 L31.5053791,25.2402742 C31.8894052,25.6188246 31.2923268,26.1660173 30.9515882,25.7872283 L30.9515882,25.7872283 L29.5015752,24.3569898 C29.245719,24.1461274 29.3738889,23.7258338 29.7146275,23.6843292 L29.7146275,23.6843292 Z M13.1686144,17.7947329 C13.5526405,17.7947329 13.7226471,18.215265 13.4670327,18.4678705 L13.4670327,18.4678705 L8.98954902,22.8842925 C8.60576471,23.3055402 8.00868627,22.7161274 8.39247059,22.3373384 L8.39247059,22.3373384 L12.9132418,17.9209164 C12.9555621,17.8374301 13.0834902,17.7947329 13.1686144,17.7947329 Z M23.7871307,17.7947329 C23.914817,17.7947329 24.000183,17.8374301 24.085549,17.9209164 L24.085549,17.9209164 L28.5632745,22.3373384 C28.9470588,22.7161274 28.3923007,23.3055402 28.0085163,22.8842925 L28.0085163,22.8842925 L23.4887124,18.4678705 C23.2754183,18.2577237 23.4031046,17.8374301 23.7448105,17.7947329 L23.7448105,17.7947329 Z M4.94878953,21.121808 L4.88738562,21.168054 L3.0959085,22.1779989 C2.64886835,22.4980863 2.20270559,21.8266157 2.64044856,21.5441423 L2.71284967,21.5048613 L4.46031373,20.4951549 C4.50360131,20.4524577 4.58896732,20.4524577 4.63104575,20.4524577 C5.02896906,20.41372 5.20422385,20.8875954 4.94878953,21.121808 Z M32.3080131,20.4524577 C32.3393905,20.4524577 32.3953893,20.4524577 32.4395875,20.4704706 L32.4785033,20.4951549 L34.2694967,21.5048613 C34.7553938,21.7443834 34.394911,22.439643 33.9554102,22.2204135 L33.8854706,22.1779989 L32.0949608,21.168054 C31.777887,21.0116792 31.8651272,20.5286954 32.1866807,20.4604956 L32.2649673,20.4524577 L32.3080131,20.4524577 Z M11.9664771,16.2461824 L12.0482044,16.2532223 C12.3868331,16.3130971 12.5186692,16.7399836 12.2489814,16.9573437 L12.1795294,17.0035219 L6.67886275,20.1583476 C6.23316993,20.4377522 5.82545291,19.7684388 6.22431753,19.4848449 L6.29411111,19.4434668 L11.7957451,16.3310999 C11.8387908,16.2886412 11.8811111,16.2886412 11.9664771,16.2461824 Z M24.9302614,16.2461824 C24.9871721,16.2461824 25.0440828,16.265053 25.1009935,16.2902137 L25.1863595,16.3310999 L30.687268,19.4434668 C31.173165,19.6827623 30.8129005,20.3780106 30.3369299,20.1947746 L30.2609216,20.1583476 L24.7595294,17.0035219 C24.4187908,16.8355953 24.5464771,16.2886412 24.9302614,16.2461824 Z M3.10413072,16.6173384 C3.57328105,16.6173384 3.65888889,17.2895219 3.19022222,17.416421 L3.19022222,17.416421 L1.22801307,17.9209164 C0.673496732,18.08932 0.460928105,17.2895219 1.01496078,17.1635769 L1.01496078,17.1635769 L2.97668627,16.6590815 C3.0194902,16.6173384 3.06181046,16.6173384 3.10413072,16.6173384 Z M33.9249871,16.6179906 C33.9548456,16.6199473 33.9790588,16.6277742 33.9790588,16.6590815 L33.9790588,16.6590815 L35.9831046,17.1635769 C36.5376209,17.2895219 36.3245686,18.08932 35.7700523,17.9209164 L35.7700523,17.9209164 L33.8085686,17.416421 C33.3389346,17.2895219 33.4245425,16.6173384 33.8939346,16.6173384 L33.8939346,16.6173384 Z M25.8339804,14.4717421 L31.9747712,16.1121274 C32.4869673,16.2380723 32.2729477,17.037632 31.761719,16.8692283 L31.761719,16.8692283 L25.6209281,15.2713017 C25.1948235,15.1446412 25.2794641,14.5142008 25.7062941,14.4717421 L25.7062941,14.4717421 L25.8339804,14.4717421 Z M11.2496928,14.4717421 C11.7188431,14.4717421 11.8042092,15.1446412 11.334817,15.2713017 L11.334817,15.2713017 L5.19426797,16.8692283 C4.72487582,16.9951733 4.51182353,16.2380723 5.02329412,16.1121274 L5.02329412,16.1121274 L11.1217647,14.4717421 Z M30.9515882,0.12785216 C31.2923268,-0.250698299 31.8894052,0.295540233 31.5053791,0.674806288 L31.5053791,0.674806288 L29.3308431,2.86143014 L18.7548889,13.294109 C18.6269608,13.4625127 18.3718301,13.4625127 18.201098,13.294109 L18.201098,13.294109 L7.66722222,2.86143014 L5.49268627,0.674806288 C5.23634641,0.422200784 5.40707843,0.00119160944 5.74854248,0.00119160944 C5.87647059,0.00119160944 5.9618366,0.043650325 6.04720261,0.12785216 L6.04720261,0.12785216 L8.22173856,2.27273289 L18.4995163,12.4525678 L28.7337647,2.27273289 Z M2.58443791,12.5875769 C3.10610804,12.5875769 3.06139039,13.2947809 2.62790806,13.342981 L2.54211765,13.3439623 L0.495026144,13.3439623 C0.0155224673,13.3439623 -0.0522796926,12.7152298 0.363154662,12.6028326 L0.452705882,12.5875769 L2.58443791,12.5875769 Z M11.0281765,12.5875769 C11.549619,12.5875769 11.5051022,13.2947809 11.0710394,13.342981 L10.9851307,13.3439623 L4.63104575,13.3439623 C4.15154208,13.3439623 4.08437755,12.7152298 4.49949309,12.6028326 L4.58896732,12.5875769 L11.0281765,12.5875769 Z M32.3928954,12.5875769 C32.8728525,12.5875769 32.8648041,13.2892667 32.4402852,13.3423861 L32.3498497,13.3439623 L25.9964902,13.3439623 C25.5169865,13.3439623 25.4489718,12.7152298 25.8637818,12.6028326 L25.9532026,12.5875769 L32.3928954,12.5875769 Z M36.5296405,12.5875769 C37.0515383,12.5875769 37.0064056,13.2947809 36.5728736,13.342981 L36.4870784,13.3439623 L34.4399869,13.3439623 C33.9600298,13.3439623 33.8926244,12.7152298 34.3075123,12.6028326 L34.3969412,12.5875769 L36.5296405,12.5875769 Z M31.8894052,9.00339344 C32.3585556,9.00339344 32.4439216,9.71898977 31.9747712,9.80247601 L31.9747712,9.80247601 L25.8339804,11.4428613 C25.3225098,11.5688063 25.1094575,10.8121824 25.6209281,10.6437788 L25.6209281,10.6437788 L31.761719,9.04513656 C31.8040392,9.04513656 31.8468431,9.00339344 31.8894052,9.00339344 Z M5.10890196,9.00339344 L5.14040033,9.00991581 C5.17046283,9.02165606 5.19426797,9.04513656 5.19426797,9.04513656 L5.19426797,9.04513656 L11.334817,10.6437788 C11.8470131,10.8121824 11.6332353,11.5270632 11.1217647,11.4428613 L11.1217647,11.4428613 L5.02329412,9.80247601 C4.55486928,9.67653106 4.63975163,9.04513656 5.10890196,9.00339344 L5.10890196,9.00339344 Z M6.50813072,5.73025583 C6.53634423,5.73025583 6.58368918,5.74912637 6.62487194,5.76170673 L6.67886275,5.77271455 L12.1795294,8.92754023 C12.6235294,9.16617278 12.3030999,9.82077096 11.8690306,9.63873928 L11.7957451,9.60043932 L6.29411111,6.48735675 C5.93658954,6.29121974 6.02419436,5.83867238 6.38390279,5.74468395 L6.46508497,5.73025583 L6.50813072,5.73025583 Z M30.5162941,5.73025583 C30.8726653,5.73025583 31.0090513,6.20186424 30.7533215,6.43749215 L30.687268,6.48735675 L25.1863595,9.60043932 C24.7419013,9.87929591 24.3352088,9.25193399 24.6927401,8.97094908 L24.7595294,8.92754023 L30.2609216,5.77271455 C30.3178322,5.77271455 30.3556115,5.753844 30.3998395,5.74126364 L30.4742157,5.73025583 L30.5162941,5.73025583 Z M1.1003268,7.9519439 C1.14288889,7.9519439 1.18569281,7.9519439 1.22801307,7.99368702 L1.22801307,7.99368702 L3.19022222,8.49889803 C3.70120915,8.62484299 3.48888235,9.42392555 2.97668627,9.25623748 L2.97668627,9.25623748 L1.01496078,8.75078794 C0.545810458,8.62484299 0.630934641,7.9519439 1.1003268,7.9519439 Z M35.8984641,7.9519439 C36.3671307,7.9519439 36.4520131,8.62484299 35.9831046,8.75078794 L35.9831046,8.75078794 L33.9790588,9.25623748 C33.5099085,9.3819439 33.297098,8.6673017 33.8085686,8.49889803 L33.8085686,8.49889803 L35.7700523,7.99368702 C35.813098,7.9519439 35.8556601,7.9519439 35.8984641,7.9519439 Z M34.0985229,3.66957693 C34.4551186,3.70878139 34.590478,4.18277877 34.335375,4.38512606 L34.2694967,4.42667785 L32.4785033,5.43566867 C32.0328105,5.71552647 31.6255299,5.0843395 32.0250602,4.80455705 L32.0949608,4.76348519 L33.8854706,3.75377877 C33.9173922,3.72229253 33.9495858,3.71442097 33.9997013,3.69464144 L34.0564444,3.66957693 L34.0985229,3.66957693 Z M2.84053595,3.66957693 C2.89744662,3.66957693 2.9543573,3.68834146 3.01105301,3.71329015 L3.0959085,3.75377877 L4.88738562,4.76348519 C5.33184383,5.00211773 4.97215342,5.65628775 4.53395015,5.47400818 L4.46031373,5.43566867 L2.71284967,4.42667785 C2.32809804,4.25827418 2.4565098,3.71179711 2.84053595,3.66957693 Z" id="Combined-Shape"></path>
            </g>
            <text id="Media-Scout" font-family="Helvetica" font-size="25" font-weight="normal" line-spacing="30" fill="#2E281E">
                <tspan x="46" y="24">Media Scout</tspan>
            </text>
        </g>
    </g>
</svg>