<svg width="7" height="10" viewBox="0 0 7 10" fill="none" xmlns="http://www.w3.org/2000/svg">
<path d="M3.10345 0C2.92277 0 2.7846 0.0993103 2.61455 0.256552L0.216108 2.50345C0.0814832 2.63172 0 2.81793 0 3.01241C0 3.41793 0.290505 3.70345 0.588096 3.70345C0.736892 3.70345 0.885687 3.6331 1.02031 3.50483L3.10345 1.57655L5.18304 3.50483C5.32121 3.6331 5.46646 3.70345 5.6188 3.70345C5.91639 3.70345 6.2069 3.41793 6.2069 3.01241C6.2069 2.81793 6.12541 2.63172 5.98725 2.50345L3.59235 0.256552C3.4223 0.0951724 3.28413 0 3.10345 0ZM3.10345 10C3.28413 10 3.4223 9.90069 3.59235 9.73931L5.98725 7.49655C6.12541 7.36828 6.2069 7.18207 6.2069 6.98345C6.2069 6.57793 5.91639 6.29241 5.6188 6.29241C5.46646 6.29241 5.32121 6.3669 5.18304 6.49103L3.10345 8.41931L1.02031 6.49103C0.885687 6.3669 0.736892 6.29241 0.588096 6.29241C0.290505 6.29241 0 6.57793 0 6.98345C0 7.18207 0.0814832 7.36828 0.216108 7.49655L2.61455 9.73931C2.7846 9.90069 2.92277 10 3.10345 10Z" fill="#1B2D4C"/>
</svg>
