<svg width="4" height="18" viewBox="0 0 4 18" fill="none" xmlns="http://www.w3.org/2000/svg">
<path fill-rule="evenodd" clip-rule="evenodd" d="M2 -8.74228e-08C3.104 -3.91654e-08 4 0.896 4 2C4 3.104 3.104 4 2 4C0.896 4 -1.3568e-07 3.104 -8.74228e-08 2C-3.91654e-08 0.896 0.896 -1.3568e-07 2 -8.74228e-08ZM4 9C4 7.896 3.104 7 2 7C0.896 7 -3.45145e-07 7.896 -3.93402e-07 9C-4.4166e-07 10.104 0.895999 11 2 11C3.104 11 4 10.104 4 9ZM4 16C4 14.896 3.104 14 2 14C0.895999 14 -6.51125e-07 14.896 -6.99382e-07 16C-7.4764e-07 17.104 0.895999 18 2 18C3.104 18 4 17.104 4 16Z" fill="#617089"/>
</svg>
