<svg width="40" height="40" viewBox="0 0 40 40" fill="none" xmlns="http://www.w3.org/2000/svg">
<rect x="0.75" y="0.75" width="38.5" height="38.5" rx="3.25" stroke="#DFE0EB" stroke-width="1.5"/>
<path d="M32.2065 17.4391L30.1173 17.1735C29.9451 16.6434 29.7328 16.1323 29.485 15.6466L30.7752 13.9853C31.2975 13.313 31.2364 12.364 30.6396 11.7862L28.8894 10.0359C28.306 9.43364 27.357 9.37363 26.6836 9.89481L25.0245 11.185C24.5389 10.9372 24.0277 10.7249 23.4965 10.5527L23.2309 8.46685C23.1309 7.63008 22.4208 7 21.5796 7H19.0904C18.2492 7 17.5391 7.63008 17.4391 8.46352L17.1735 10.5527C16.6423 10.7249 16.1311 10.936 15.6455 11.185L13.9853 9.89481C13.3141 9.37363 12.3651 9.43364 11.7862 10.0304L10.0359 11.7795C9.43364 12.364 9.37252 13.313 9.89481 13.9864L11.185 15.6466C10.936 16.1323 10.7249 16.6434 10.5527 17.1735L8.46685 17.4391C7.63008 17.5391 7 18.2492 7 19.0904V21.5796C7 22.4208 7.63008 23.1309 8.46352 23.2309L10.5527 23.4965C10.7249 24.0266 10.9372 24.5377 11.185 25.0234L9.89481 26.6847C9.37252 27.357 9.43364 28.306 10.0304 28.8838L11.7806 30.6341C12.3651 31.2353 13.313 31.2953 13.9864 30.7741L15.6466 29.4839C16.1323 29.7328 16.6434 29.9451 17.1735 30.1162L17.4391 32.2009C17.5391 33.0399 18.2492 33.67 19.0904 33.67H21.5796C22.4208 33.67 23.1309 33.0399 23.2309 32.2065L23.4965 30.1173C24.0266 29.9451 24.5377 29.7328 25.0234 29.485L26.6847 30.7752C27.357 31.2975 28.306 31.2364 28.8838 30.6396L30.6341 28.8894C31.2364 28.3049 31.2975 27.357 30.7752 26.6836L29.485 25.0234C29.734 24.5377 29.9462 24.0266 30.1173 23.4965L32.202 23.2309C33.0388 23.1309 33.6689 22.4208 33.6689 21.5796V19.0904C33.67 18.2492 33.0399 17.5391 32.2065 17.4391ZM20.335 25.8913C17.2713 25.8913 14.7788 23.3987 14.7788 20.335C14.7788 17.2713 17.2713 14.7788 20.335 14.7788C23.3987 14.7788 25.8913 17.2713 25.8913 20.335C25.8913 23.3987 23.3987 25.8913 20.335 25.8913Z" fill="#DFE0EB"/>
</svg>
