<svg width="40" height="40" viewBox="0 0 40 40" fill="none" xmlns="http://www.w3.org/2000/svg">
<rect x="0.75" y="0.75" width="38.5" height="38.5" rx="3.25" stroke="#DFE0EB" stroke-width="1.5"/>
<path d="M16.9445 6.66669H8.61112C7.53894 6.66669 6.66675 7.53888 6.66675 8.61106V13.6111C6.66675 14.6835 7.53894 15.5556 8.61112 15.5556H16.9445C18.0168 15.5556 18.889 14.6835 18.889 13.6111V8.61106C18.889 7.53888 18.0168 6.66669 16.9445 6.66669Z" fill="#DFE0EB"/>
<path d="M16.9445 17.7777H8.61112C7.53894 17.7777 6.66675 18.6499 6.66675 19.7223V31.389C6.66675 32.4611 7.53894 33.3333 8.61112 33.3333H16.9445C18.0168 33.3333 18.889 32.4611 18.889 31.389V19.7223C18.889 18.6499 18.0168 17.7777 16.9445 17.7777Z" fill="#DFE0EB"/>
<path d="M31.389 24.4444H23.0557C21.9833 24.4444 21.1111 25.3166 21.1111 26.389V31.389C21.1111 32.4612 21.9833 33.3334 23.0557 33.3334H31.389C32.4612 33.3334 33.3334 32.4612 33.3334 31.389V26.389C33.3334 25.3166 32.4612 24.4444 31.389 24.4444Z" fill="#DFE0EB"/>
<path d="M31.389 6.66669H23.0557C21.9833 6.66669 21.1111 7.53888 21.1111 8.61106V20.2777C21.1111 21.3501 21.9833 22.2223 23.0557 22.2223H31.389C32.4612 22.2223 33.3334 21.3501 33.3334 20.2777V8.61106C33.3334 7.53888 32.4612 6.66669 31.389 6.66669V6.66669Z" fill="#DFE0EB"/>
</svg>
