<svg width="146" height="175" viewBox="0 0 146 175" fill="none" xmlns="http://www.w3.org/2000/svg">
<path d="M124.245 21.2103C95.917 -7.0696 49.988 -7.0696 21.6582 21.2103C-6.67156 49.4903 -6.67156 95.3426 21.6582 123.623C32.7429 134.721 47.1483 141.911 62.693 144.105L52.4343 154.346L72.9517 174.829L124.195 123.671L124.245 123.623C152.575 95.3426 152.575 49.4903 124.245 21.2103ZM103.728 103.14L103.696 103.17C95.5319 111.306 84.4659 115.873 72.9301 115.868C61.3943 115.862 50.3325 111.285 42.1756 103.142C25.2046 86.1995 25.2046 58.6349 42.1756 41.6944C46.2171 37.6594 51.0151 34.4588 56.2957 32.2751C61.5763 30.0914 67.236 28.9674 72.9517 28.9674C78.6675 28.9674 84.3272 30.0914 89.6078 32.2751C94.8884 34.4588 99.6864 37.6594 103.728 41.6944C120.697 58.6333 120.699 86.1964 103.729 103.139L103.728 103.14Z" fill="#416FAF"/>
<path d="M101.968 94.142C98.5928 98.6422 94.2125 102.294 89.1755 104.809C84.1384 107.323 78.5834 108.629 72.9518 108.625C52.9205 108.625 36.6834 92.4136 36.6834 72.4164C36.6787 66.7945 37.9876 61.2489 40.506 56.2204C43.0244 51.192 46.6829 46.8192 51.1907 43.4495C46.4688 49.7107 43.9201 57.3378 43.9307 65.1751C43.9307 85.1722 60.1695 101.383 80.2008 101.383C88.0522 101.396 95.694 98.8541 101.968 94.142Z" fill="#1B2D4C"/>
</svg>
