<svg width="83" height="100" viewBox="0 0 83 100" fill="none" xmlns="http://www.w3.org/2000/svg">
<path d="M70.7106 12.1319C54.5348 -4.04396 28.3077 -4.04396 12.1319 12.1319C-4.04396 28.3077 -4.04396 54.5348 12.1319 70.7106C18.4614 77.0589 26.6871 81.1717 35.5634 82.4264L29.7055 88.2842L41.4213 100L70.6809 70.7386L70.7106 70.7106C86.8865 54.5348 86.8865 28.3077 70.7106 12.1319ZM58.9949 58.9949L58.9769 59.012C54.3149 63.6656 47.996 66.278 41.4089 66.2749C34.8218 66.2719 28.5053 63.6537 23.8476 58.9958C14.1578 49.3051 14.1578 33.5384 23.8476 23.8485C28.5085 19.1879 34.8299 16.5696 41.4213 16.5696C48.0126 16.5696 54.334 19.1879 58.9949 23.8485C68.6847 33.5375 68.6847 49.3032 58.9949 58.994V58.9949Z" fill="white"/>
<path d="M57.99 53.8481C56.0624 56.422 53.5612 58.511 50.685 59.949C47.8088 61.387 44.6369 62.1345 41.4212 62.132C29.983 62.132 20.7105 52.8595 20.7105 41.4213C20.708 38.2057 21.4555 35.0337 22.8935 32.1575C24.3315 29.2813 26.4205 26.7801 28.9944 24.8525C26.2985 28.4341 24.8432 32.7966 24.8488 37.2793C24.8488 48.7175 34.1214 57.9901 45.5596 57.9901C50.0431 57.9975 54.407 56.5434 57.99 53.8481Z" fill="#416FAF"/>
</svg>
