<svg width="20" height="20" viewBox="0 0 20 20" fill="none" xmlns="http://www.w3.org/2000/svg">
<path d="M14.0823 0H0.585938C0.262344 0 0 0.262344 0 0.585938V19.3743C0 19.6979 0.262344 19.9602 0.585938 19.9602H14.0823C14.4059 19.9602 14.6683 19.6979 14.6683 19.3743V0.585938C14.6683 0.262344 14.4059 0 14.0823 0ZM13.4964 18.7883H1.17188V1.17188H13.4964V18.7883Z" fill="#D6D6D6"/>
<path d="M3.09302 6.94636H5.67384C5.99744 6.94636 6.25978 6.68402 6.25978 6.36042V3.78613C6.25978 3.46254 5.99744 3.2002 5.67384 3.2002H3.09302C2.76942 3.2002 2.50708 3.46254 2.50708 3.78613V6.36042C2.50708 6.68402 2.76939 6.94636 3.09302 6.94636ZM3.67896 4.37207H5.08791V5.77449H3.67896V4.37207Z" fill="#D6D6D6"/>
<path d="M3.09302 11.8531H5.67384C5.99744 11.8531 6.25978 11.5907 6.25978 11.2671V8.69287C6.25978 8.36928 5.99744 8.10693 5.67384 8.10693H3.09302C2.76942 8.10693 2.50708 8.36928 2.50708 8.69287V11.2671C2.50708 11.5908 2.76939 11.8531 3.09302 11.8531ZM3.67896 9.27881H5.08791V10.6812H3.67896V9.27881Z" fill="#D6D6D6"/>
<path d="M3.09302 16.7598H5.67384C5.99744 16.7598 6.25978 16.4975 6.25978 16.1739V13.5996C6.25978 13.276 5.99744 13.0137 5.67384 13.0137H3.09302C2.76942 13.0137 2.50708 13.276 2.50708 13.5996V16.1739C2.50708 16.4975 2.76939 16.7598 3.09302 16.7598ZM3.67896 14.1855H5.08791V15.5879H3.67896V14.1855Z" fill="#D6D6D6"/>
<path d="M8.01855 4.37207H11.5752C11.8988 4.37207 12.1611 4.10973 12.1611 3.78613C12.1611 3.46254 11.8988 3.2002 11.5752 3.2002H8.01855C7.69496 3.2002 7.43262 3.46254 7.43262 3.78613C7.43262 4.10973 7.69496 4.37207 8.01855 4.37207Z" fill="#D6D6D6"/>
<path d="M8.01855 6.94653H11.5752C11.8988 6.94653 12.1611 6.68419 12.1611 6.3606C12.1611 6.037 11.8988 5.77466 11.5752 5.77466H8.01855C7.69496 5.77466 7.43262 6.037 7.43262 6.3606C7.43262 6.68419 7.69496 6.94653 8.01855 6.94653Z" fill="#D6D6D6"/>
<path d="M8.01855 9.27881H11.5752C11.8988 9.27881 12.1611 9.01646 12.1611 8.69287C12.1611 8.36928 11.8988 8.10693 11.5752 8.10693H8.01855C7.69496 8.10693 7.43262 8.36928 7.43262 8.69287C7.43262 9.01646 7.69496 9.27881 8.01855 9.27881Z" fill="#D6D6D6"/>
<path d="M8.01855 11.8533H11.5752C11.8988 11.8533 12.1611 11.5909 12.1611 11.2673C12.1611 10.9437 11.8988 10.6814 11.5752 10.6814H8.01855C7.69496 10.6814 7.43262 10.9437 7.43262 11.2673C7.43262 11.5909 7.69496 11.8533 8.01855 11.8533Z" fill="#D6D6D6"/>
<path d="M8.01855 14.1855H11.5752C11.8988 14.1855 12.1611 13.9232 12.1611 13.5996C12.1611 13.276 11.8988 13.0137 11.5752 13.0137H8.01855C7.69496 13.0137 7.43262 13.276 7.43262 13.5996C7.43262 13.9232 7.69496 14.1855 8.01855 14.1855Z" fill="#D6D6D6"/>
<path d="M8.01855 16.76H11.5752C11.8988 16.76 12.1611 16.4977 12.1611 16.1741C12.1611 15.8505 11.8988 15.5881 11.5752 15.5881H8.01855C7.69496 15.5881 7.43262 15.8505 7.43262 16.1741C7.43262 16.4977 7.69496 16.76 8.01855 16.76Z" fill="#D6D6D6"/>
<path d="M18.0293 0.0397949C16.9446 0.0397949 16.062 0.922334 16.062 2.0071V16.5837C16.062 16.6728 16.0824 16.7608 16.1215 16.8409L17.5046 19.6713C17.6029 19.8724 17.8072 20 18.0311 20C18.2549 20 18.4592 19.8724 18.5575 19.6713L19.9406 16.8409C19.9798 16.7608 20.0001 16.6728 20.0001 16.5837V2.00706C20.0001 0.922295 19.1176 0.0397949 18.0293 0.0397949ZM17.2339 3.44179H18.8283V14.3191H17.2339V3.44179ZM18.0328 1.21167C18.4715 1.21167 18.8283 1.56851 18.8283 2.0071V2.26995H17.2339V2.0071C17.2339 1.56847 17.5907 1.21167 18.0328 1.21167ZM18.8283 16.4481L18.0311 18.0795L17.2339 16.4481V15.491H18.8283V16.4481Z" fill="#D6D6D6"/>
</svg>
