<svg width="20" height="18" viewBox="0 0 20 18" fill="none" xmlns="http://www.w3.org/2000/svg">
<path d="M19.087 11.7287C17.4057 10.762 15.493 10.212 13.5117 10.0647C13.9175 10.2463 14.3258 10.4237 14.7101 10.6447C15.157 10.9018 15.5153 11.273 15.7788 11.7036C16.7205 11.9652 17.626 12.3305 18.465 12.8126C18.6408 12.9139 18.75 13.1172 18.75 13.3436V16.2501H16.2501V17.5001H19.375C19.7205 17.5001 20.0001 17.2206 20.0001 16.8751V13.3436C20.0001 12.6704 19.6498 12.0516 19.087 11.7287Z" fill="#D6D6D6"/>
<path d="M14.0869 11.7285C10.1526 9.46649 4.84745 9.46649 0.913068 11.7285C0.349717 12.0526 0 12.6708 0 13.3435V16.875C0 17.2204 0.279534 17.5 0.625006 17.5H14.375C14.7205 17.5 15 17.2204 15 16.875V13.3428C15 12.6708 14.6503 12.0526 14.0869 11.7285ZM13.75 16.25H1.25005V13.3435C1.25005 13.117 1.35931 12.9138 1.53568 12.8124C5.0928 10.7678 9.90726 10.7678 13.4644 12.8124C13.6408 12.9138 13.75 13.117 13.75 13.3428V16.25Z" fill="#D6D6D6"/>
<path d="M12.1888 1.27941C12.2925 1.26856 12.3952 1.25005 12.5001 1.25005C14.2231 1.25005 15.6251 2.65204 15.6251 4.37504C15.6251 6.09804 14.2231 7.50003 12.5001 7.50003C12.3952 7.50003 12.2925 7.48142 12.1889 7.47057C11.9237 7.87102 11.599 8.22291 11.243 8.54287C11.65 8.66821 12.07 8.75001 12.5001 8.75001C14.9122 8.75001 16.8751 6.78714 16.8751 4.375C16.8751 1.96287 14.9122 0 12.5001 0C12.0699 0 11.6499 0.0817955 11.2429 0.207138C11.599 0.527171 11.9236 0.878956 12.1888 1.27941Z" fill="#D6D6D6"/>
<path d="M7.5 8.75001C9.9121 8.75001 11.875 6.78713 11.875 4.375C11.875 1.96287 9.91214 0 7.5 0C5.08787 0 3.125 1.96287 3.125 4.375C3.125 6.78713 5.08791 8.75001 7.5 8.75001ZM7.5 1.25001C9.22304 1.25001 10.625 2.652 10.625 4.375C10.625 6.09801 9.22301 7.5 7.5 7.5C5.777 7.5 4.37501 6.09801 4.37501 4.375C4.37501 2.652 5.777 1.25001 7.5 1.25001Z" fill="#D6D6D6"/>
</svg>
