<svg width="18" height="21" viewBox="0 0 18 21" fill="none" xmlns="http://www.w3.org/2000/svg">
<mask id="mask0" mask-type="alpha" maskUnits="userSpaceOnUse" x="0" y="0" width="18" height="21">
<path fill-rule="evenodd" clip-rule="evenodd" d="M8.56511 17.5164V20.6484L9.80921 20.0481C14.2723 17.8992 17.2651 13.5666 17.2651 9.26012C17.2651 4.70132 13.5589 0.995117 9.00011 0.995117C4.44131 0.995117 0.735107 4.70132 0.735107 9.26012C0.735107 13.671 4.20641 17.2902 8.56511 17.5164ZM2.47511 9.26012C2.47511 5.65832 5.39831 2.73512 9.00011 2.73512C12.6019 2.73512 15.5251 5.65832 15.5251 9.26012C15.5251 12.4965 13.4719 15.7851 10.3051 17.7861V15.7851H9.00011C5.39831 15.7851 2.47511 12.8619 2.47511 9.26012ZM9.87011 12.7401V14.4801H8.13011V12.7401H9.87011ZM9.67039 8.66997C8.94975 9.22235 8.13011 9.85061 8.13011 11.4351H9.87011C9.87011 10.4821 10.4887 9.94156 11.1236 9.38674C11.7928 8.8019 12.4801 8.20126 12.4801 7.08512C12.4801 5.16242 10.9228 3.60512 9.00011 3.60512C7.07741 3.60512 5.52011 5.16242 5.52011 7.08512H7.26011C7.26011 6.12812 8.04311 5.34512 9.00011 5.34512C9.95711 5.34512 10.7401 6.12812 10.7401 7.08512C10.7401 7.85003 10.2357 8.23666 9.67039 8.66997Z" fill="white"/>
</mask>
<g mask="url(#mask0)">
<rect x="-3" y="-1" width="24" height="24" fill="#D6D6D6"/>
</g>
</svg>
