<svg width="15" height="18" viewBox="0 0 15 18" fill="none" xmlns="http://www.w3.org/2000/svg">
<path d="M14.0869 11.7285C10.1526 9.46649 4.84745 9.46649 0.913068 11.7285C0.349717 12.0526 0 12.6708 0 13.3435V16.875C0 17.2204 0.279534 17.5 0.625006 17.5H14.375C14.7205 17.5 15 17.2204 15 16.875V13.3428C15 12.6708 14.6503 12.0526 14.0869 11.7285ZM13.75 16.25H1.25005V13.3435C1.25005 13.117 1.35931 12.9138 1.53568 12.8124C5.0928 10.7678 9.90726 10.7678 13.4644 12.8124C13.6408 12.9138 13.75 13.117 13.75 13.3428V16.25Z" fill="#D6D6D6"/>
<path d="M7.5 8.75001C9.9121 8.75001 11.875 6.78713 11.875 4.375C11.875 1.96287 9.91214 0 7.5 0C5.08787 0 3.125 1.96287 3.125 4.375C3.125 6.78713 5.08791 8.75001 7.5 8.75001ZM7.5 1.25001C9.22304 1.25001 10.625 2.652 10.625 4.375C10.625 6.09801 9.22301 7.5 7.5 7.5C5.777 7.5 4.37501 6.09801 4.37501 4.375C4.37501 2.652 5.777 1.25001 7.5 1.25001Z" fill="#D6D6D6"/>
</svg>
