<svg width="20" height="21" viewBox="0 0 20 21" fill="none" xmlns="http://www.w3.org/2000/svg">
<path d="M10 6.56641C7.93105 6.56641 6.2478 8.24966 6.2478 10.3186C6.2478 12.3876 7.93105 14.0709 10 14.0709C12.069 14.0709 13.7523 12.3876 13.7523 10.3186C13.7523 8.24966 12.069 6.56641 10 6.56641ZM10 12.1947C8.96554 12.1947 8.12392 11.3531 8.12392 10.3186C8.12392 9.28415 8.96554 8.44252 10 8.44252C11.0345 8.44252 11.8761 9.28415 11.8761 10.3186C11.8761 11.3531 11.0345 12.1947 10 12.1947Z" fill="#D6D6D6"/>
<path d="M19.6811 12.6795L17.4918 10.7555C17.5002 10.6097 17.5045 10.4638 17.5045 10.3186C17.5045 10.1734 17.5002 10.0275 17.4918 9.88174L19.681 7.95773C20.0169 7.66255 20.0977 7.17132 19.8741 6.78409L17.998 3.53454C17.7745 3.14731 17.3086 2.97164 16.8851 3.11497L14.1245 4.0489C13.8806 3.88806 13.6276 3.74172 13.3673 3.61077L12.7959 0.754073C12.7083 0.315625 12.3233 0 11.8761 0H8.12391C7.67677 0 7.29173 0.315625 7.20405 0.754073L6.63271 3.61077C6.37237 3.74172 6.11947 3.88812 5.87551 4.0489L3.11481 3.11497C2.69143 2.97177 2.22547 3.14731 2.00184 3.53454L0.125723 6.78409C-0.0978474 7.17132 -0.0170494 7.66255 0.318838 7.95773L2.50814 9.88174C2.49976 10.0273 2.49557 10.1732 2.49557 10.3186C2.49557 10.464 2.49976 10.61 2.5082 10.7555L0.3189 12.6795C-0.0169868 12.9747 -0.0977849 13.4659 0.125785 13.8532L2.0019 17.1027C2.22553 17.4899 2.69137 17.6655 3.11487 17.5222L5.87545 16.5883C6.11941 16.7491 6.37237 16.8955 6.63271 17.0264L7.20405 19.8831C7.29173 20.3216 7.67677 20.6373 8.12391 20.6373H11.8761C12.3233 20.6373 12.7083 20.3216 12.7959 19.8832L13.3673 17.0265C13.6276 16.8955 13.8805 16.7491 14.1245 16.5884L16.8851 17.5223C17.3087 17.6654 17.7745 17.49 17.9981 17.1027L19.8742 13.8532C20.0979 13.4659 20.017 12.9747 19.6811 12.6795ZM16.758 15.4986L14.2735 14.6581C13.9783 14.5583 13.6528 14.6116 13.4049 14.8002C13.026 15.0885 12.6131 15.3274 12.1778 15.5102C11.8908 15.6308 11.6822 15.8858 11.6212 16.1911L11.1071 18.7611H8.89293L8.37894 16.1911C8.3179 15.8859 8.10934 15.6308 7.82236 15.5102C7.38672 15.3272 6.97392 15.0884 6.59532 14.8002C6.34736 14.6115 6.02191 14.5582 5.72655 14.6581L3.24207 15.4986L2.13498 13.5811L4.10446 11.8502C4.3381 11.6449 4.45479 11.3371 4.41596 11.0286C4.38657 10.7947 4.37168 10.5559 4.37168 10.3186C4.37168 10.0814 4.38657 9.84253 4.41602 9.60871C4.45486 9.30009 4.33816 8.99234 4.10452 8.78697L2.13498 7.05613L3.24207 5.13855L5.72661 5.97905C6.02185 6.07886 6.34723 6.02564 6.59525 5.83703C6.97404 5.5488 7.38691 5.3099 7.82236 5.12698C8.10934 5.00641 8.3179 4.75138 8.37894 4.44608L8.89293 1.87611H11.1071L11.6211 4.44614C11.6821 4.75138 11.8907 5.00647 12.1777 5.12705C12.6131 5.30997 13.026 5.54886 13.4047 5.83709C13.6527 6.02577 13.9782 6.07905 14.2734 5.97918L16.7578 5.13874L17.8649 7.05625L15.8955 8.78709C15.6619 8.99234 15.5453 9.2999 15.584 9.60833C15.6134 9.84335 15.6284 10.0824 15.6284 10.3187C15.6284 10.555 15.6134 10.794 15.584 11.029C15.5453 11.3375 15.662 11.6451 15.8955 11.8504L17.8651 13.5812L16.758 15.4986Z" fill="#D6D6D6"/>
</svg>
